<svg id="Camada_1" data-name="Camada 1" xmlns="http://www.w3.org/2000/svg" viewBox="0 0 107.07 110.87"><title>angular</title><path d="M0,0V110.87H107.07V0ZM102.5,28c-.16.82-3.64,28.9-3.49,29.66.1,1.12-3.07,25-2.57,25.94C97,86.35,95.53,87.8,93.2,89,82,94.79,57.6,109.24,55.76,109.13h0q-11.05-6-22.12-12.06c-5-2.74-9.93-5.61-15-8.21-2.09-1.08-3.16-2.4-3.13-4.76,0-1.68-6-55.19-5.74-55.92l-.23,0c0-.23-1-3.67,2.33-4.74,5.65-1.84,11.38-3.61,16.85-5.76C37.41,14.25,46.32,11.5,55,8a4.41,4.41,0,0,1,1.37-.07h0l26.51,9.35,6.26,2.19c3.72,1.3,7.42,2.67,11.17,3.89,2.64.86,2.36,3.58,2.27,4.52.09-.19,0,.24,0,0A.3.3,0,0,0,102.5,28Z" style="fill:#506467"/><path d="M56.2,20.2c-8,17.56-26.28,59.37-27.95,62.44-.81,1.49-.29,2.07,1.32,2h.28c7.14.24,6.55,1.38,9.51-5.24,1-2.23,3.92-8.31,3.86-8.47.46-.88,22.39-.36,25.13.1,1.53.47,2.11,2.52,2.57,3.69,1,2.53,2,5.08,3,7.6a3.41,3.41,0,0,0,3.71,2.33c1.6-.08,3.2,0,4.8,0,1.87.05,2-.7,1.31-2.24C78.76,71.41,56.28,21.06,56.2,20.2Zm6,40.93c-2.14,0-11.76-.06-14.26-.64h0q3.46-8.43,6.95-16.85c.36-.86.59-2.29,1.91-.72h0q3.34,7.95,6.71,15.89C64.48,60.37,64.15,61.15,62.21,61.13Z" style="fill:#506467"/></svg>