<svg xmlns="http://www.w3.org/2000/svg" viewBox="0 0 439.3 143.18"><defs><style>.cls-1{fill:#cfebe8;}.cls-2{fill:#231f20;}.cls-3,.cls-5{fill:#fff;}.cls-3,.cls-4,.cls-5,.cls-6{stroke:#231f20;stroke-miterlimit:10;}.cls-3{stroke-width:2px;}.cls-4,.cls-6{fill:none;}.cls-4{stroke-width:3px;}.cls-7{font-size:44px;fill:#333;font-family:CourierNewPS-BoldMT, Courier New;font-weight:700;}</style></defs><title>avatar03</title><g id="Camada_1" data-name="Camada 1"><circle class="cls-1" cx="55.18" cy="80.29" r="51.32"/><path class="cls-2" d="M49.76,116.32c-5.53,13.42,1.08-3.46-6.15,14-2.93,7.06,35.24,8,31.53.15-10.29-21.79-7.82-12.54-10.25-17C60.84,105.94,50.58,114.33,49.76,116.32Z"/><path class="cls-3" d="M49.83,121.26c15.82,7.62,19.53,8.4,36.62,4.4-6.31,5.14-7.87,7.64-10.82,8a70.12,70.12,0,0,1-21-.21,39.94,39.94,0,0,1-19-8.56l15-15.91,4,.8Z"/><circle class="cls-4" cx="58.8" cy="84.32" r="51.32"/><path class="cls-3" d="M69.64,122.77c-14.36,7.62-17.72,8.39-33.24,4.4,5.73,5.14,7.14,7.64,9.82,8a57.6,57.6,0,0,0,19-.22,34.79,34.79,0,0,0,17.2-8.55L68.82,110.49l-3.64.8Z"/><ellipse class="cls-5" cx="57.6" cy="79.12" rx="30.01" ry="39.41"/><path class="cls-2" d="M76.7,67.59A107.4,107.4,0,0,1,34.76,91.21C28.8,93,28.2,92.68,25,88.85a36.49,36.49,0,0,1-5.19-8.26,34.12,34.12,0,0,1-3-17c.91-11.41,7-22.42,15.09-32.57l.29,6.16C38,28.55,43.87,19.3,41.45,10a23.8,23.8,0,0,1,4.29,7.54A26.11,26.11,0,0,0,43.1,0,97.88,97.88,0,0,0,58.22,12.45l2.32-6.58c6,11.07,22,18.56,30.82,28.81a33.82,33.82,0,0,1,7.73,28.65c-1.74,9.8-6.38,19.37-12.94,28.26C79.22,83.9,75.92,76.49,76.7,67.59Z"/><ellipse class="cls-2" cx="54.3" cy="87.98" rx="1.44" ry="3.31"/><ellipse class="cls-2" cx="61.52" cy="87.98" rx="1.44" ry="3.31"/><path class="cls-6" d="M55.74,100.24c7.18-1.14,12.46-3.86,18.21-9-2.39,7.34-5.68,13-12.43,17.7"/><text class="cls-7" transform="translate(118.74 99.44) scale(0.8 1)">Carolina Guido</text></g></svg>