<svg xmlns="http://www.w3.org/2000/svg" viewBox="0 0 270 270"><defs><style>.cls-1{isolation:isolate;}.cls-2,.cls-3{fill:#f2665f;}.cls-3{opacity:0.24;mix-blend-mode:multiply;}.cls-4{fill:#7d7d7d;}.cls-5{fill:#e3e3e3;}.cls-6{fill:#f6f5f5;}.cls-7{fill:#dcdbda;}.cls-8{fill:#444545;}.cls-9{fill:#231f20;}.cls-10,.cls-12,.cls-15,.cls-18{fill:#fff;}.cls-10{stroke:#231f20;stroke-width:2px;}.cls-10,.cls-13{stroke-miterlimit:10;}.cls-11,.cls-13{fill:none;}.cls-11{stroke:#000;}.cls-13{stroke:#fff;}.cls-14{opacity:0.7;}.cls-15{font-size:19px;font-family:Lato-Black, Lato;font-weight:800;}.cls-16{letter-spacing:-0.02em;}.cls-17{fill:#000;}.cls-18{font-family:Lato-Light, Lato;font-weight:300;}</style></defs><title>background-listras</title><g class="cls-1"><g id="Camada_1" data-name="Camada 1"><circle class="cls-2" cx="121.57" cy="135" r="114.95"/><circle class="cls-3" cx="116.63" cy="135" r="114.95"/><path class="cls-4" d="M131.6,249.56c16.3-.87,45.74-9.18,66.23-28.76-.82-3.24-5-1.41-7-1.48-7.24-.23-14.49,0-21.73-.15-1.44,0-3.12,0-3.58-1.89-.38-1.53.61-2.42,1.77-3.17a6,6,0,0,0,1.81-1.63c1-2.51,5.32-3.3,2.14-3.3H79.63c-8,0-16.08,0-24.12,0q-6.93,0-13.84.08c-2.29,0-5.12-.66-6.24,2.51A130.42,130.42,0,0,0,49,224.3a117.61,117.61,0,0,0,27.52,16.29C96.69,249.14,112,250.6,131.6,249.56Z"/><path class="cls-5" d="M168.44,205.81v-1a6.75,6.75,0,0,1,0-8.4c1.91-1.27,4.09-1.18,6.24-1.19q18.12-.06,36.25,0c2.28,0,6.1-.92,8,1-3.46,6.34-8.63,13.63-14.28,18.28-10.94,1.15-22.09-.19-33.05-.3a4.1,4.1,0,0,1-3.12-1.35C168.45,210.49,168.44,208.15,168.44,205.81Z"/><path class="cls-6" d="M168.45,212.83c10.28,0,20.55,0,30.83,0,1.74,0,3.87,0,5.34,1.62-2.26,3.07-5.1,5.08-8.18,7.34-2.67-2-5.73-.85-8.6-.94-6.43-.19-12.88,0-19.32-.08-2.31,0-5.09.89-5.17-3.27C163.28,213.68,165,212.48,168.45,212.83Z"/><rect class="cls-7" x="127.78" y="93.35" width="142.54" height="102.85" rx="3.58"/><rect class="cls-8" x="129.29" y="94.35" width="139.53" height="100.68" rx="3.14"/><path class="cls-9" d="M62.21,194.71c-7.58,19.17,1.49-4.94-8.43,20-4,10.09,47.67,7.08,42.59-4.13C82.25,179.41,86.3,197,83,190.56,77.41,179.87,63.34,191.86,62.21,194.71Z"/><path class="cls-10" d="M62.31,201.77c1.41,1.75,11.62,13.62,35.07,7.9-8.66,7.35-3.53,9.42-7.58,9.94-9.55,1.23-11.38,1.36-20.85-.42s-24.89-8.85-24.89-13.44,12.62-13.95,19.49-21.53l5.5,1.15S60.9,200,62.31,201.77Z"/><path class="cls-10" d="M89.49,203.92c-.95,2.61-18.37,13.32-39.66,7.61,7.86,7.35,6.38,8.75,12.64,9.3s12.39,2.29,21,.51,21.83-8.09,23.6-12.23S94.6,194,88.36,186.37l-5,1.15S90.43,201.31,89.49,203.92Z"/><ellipse class="cls-10" cx="72.97" cy="141.55" rx="41.17" ry="56.33"/><path class="cls-9" d="M51.8,135.62c13.94,12.08,29.13,19.51,51.56,25.6,8,2.18,8.83,1.84,13.1-2.94a45.35,45.35,0,0,0,7-10.33,40.11,40.11,0,0,0,4-21.24c-1.23-14.26-9.44-28-20.28-40.72l-.4,7.71C99,82.9,91.12,71.33,94.37,59.72a29.08,29.08,0,0,0-5.75,9.43,30.58,30.58,0,0,1,3.54-21.94A130.46,130.46,0,0,1,71.84,62.77l-3.11-8.23c-8.12,13.84-29.55,23.2-41.42,36a40.16,40.16,0,0,0-10.39,35.82c2.33,12.24,8.89,28.71,17.7,39.82C43.94,156.59,52.83,146.74,51.8,135.62Z"/><path id="bezier52" class="cls-11" d="M89.8,173.28c0,3.89-7.39,7.06-16.54,7.06s-16.53-3.17-16.53-7.06,7.39-7.08,16.53-7.08,16.54,3.16,16.54,7.08Z"/><path id="bezier53" class="cls-12" d="M51,158.3l-2.17,10.64,43.88,9.75,2.18-10.64Z"/><ellipse class="cls-9" cx="68.94" cy="158.3" rx="1.58" ry="3.78"/><ellipse class="cls-9" cx="76.86" cy="158.3" rx="1.58" ry="3.78"/><rect class="cls-13" x="134.12" y="97.84" width="129.86" height="93.7"/><line class="cls-13" x1="134.12" y1="108.7" x2="263.98" y2="108.7"/><g class="cls-14"><path class="cls-2" d="M206.46,121.8c.56.87,1.08,1.77,1.56,2.69.31-.74.59-1.5.83-2.27C208.06,122,207.26,121.9,206.46,121.8Z"/><path class="cls-2" d="M208,127c-.48.91-1,1.81-1.56,2.68a23.88,23.88,0,0,0,2.39-.42C208.61,128.51,208.33,127.75,208,127Z"/><path class="cls-2" d="M197.44,124.49c.24-.46.48-.92.74-1.36s.53-.89.81-1.33c-.8.1-1.59.24-2.38.42C196.85,123,197.13,123.75,197.44,124.49Z"/><path class="cls-2" d="M199.78,130.85h0a25.78,25.78,0,0,1-3.47-.54c-.73,2.89-.54,5,.52,5.64s3.06-.32,5.16-2.37A25,25,0,0,1,199.78,130.85Z"/><path class="cls-2" d="M200.37,129.82a31,31,0,0,0,4.72,0,31.68,31.68,0,0,0,2.36-4.07,31.8,31.8,0,0,0-2.36-4.08,31,31,0,0,0-4.72,0,30.66,30.66,0,0,0-2.36,4.08A30.55,30.55,0,0,0,200.37,129.82Zm2.36-6.37a2.3,2.3,0,1,1-2.3,2.3A2.29,2.29,0,0,1,202.73,123.45Z"/><path class="cls-2" d="M204.28,120.54c-.49-.64-1-1.25-1.55-1.85-.55.6-1.07,1.21-1.55,1.85C202.21,120.49,203.25,120.49,204.28,120.54Z"/><path class="cls-2" d="M202.73,131c-.51,0-1,0-1.56,0,.49.64,1,1.26,1.56,1.85.54-.59,1.06-1.21,1.55-1.85C203.76,131,203.24,131,202.73,131Z"/><path class="cls-2" d="M199,129.69q-.42-.66-.81-1.32c-.26-.45-.5-.91-.74-1.37a23.94,23.94,0,0,0-.83,2.28A23.55,23.55,0,0,0,199,129.69Z"/><path class="cls-2" d="M199.77,120.64a26.36,26.36,0,0,1,2.21-2.73c-1.68-1.63-3.26-2.56-4.4-2.56a1.56,1.56,0,0,0-.76.19c-1.06.61-1.25,2.75-.52,5.64A25.78,25.78,0,0,1,199.77,120.64Z"/><path class="cls-2" d="M195.55,129a27,27,0,0,1,1.27-3.27h0a27.63,27.63,0,0,1-1.27-3.27c-2.87.8-4.63,2-4.63,3.27S192.68,128.21,195.55,129Z"/><path class="cls-2" d="M189.85,112.71v13c0-1.78,2-3.34,5.41-4.3-.88-3.47-.52-6,1-6.84s3.9.07,6.44,2.53c2.53-2.46,4.92-3.4,6.44-2.53s1.91,3.37,1,6.83c3.45,1,5.42,2.53,5.42,4.31s-2,3.33-5.42,4.3c.89,3.46.53,5.94-1,6.83a2.44,2.44,0,0,1-1.29.33c-1.44,0-3.25-1-5.15-2.86-1.9,1.85-3.72,2.86-5.15,2.86a2.44,2.44,0,0,1-1.29-.33c-1.55-.89-1.91-3.37-1-6.83-3.45-1-5.41-2.52-5.41-4.3v12.77h25.8V112.71Z"/><path class="cls-2" d="M205.68,120.64h0a25.48,25.48,0,0,1,3.47.54c.74-2.89.55-5-.52-5.64s-3,.33-5.15,2.37A26.27,26.27,0,0,1,205.68,120.64Z"/><path class="cls-2" d="M205.68,130.85h0a26.27,26.27,0,0,1-2.2,2.73c1.67,1.63,3.26,2.56,4.39,2.56h0a1.42,1.42,0,0,0,.75-.19c1.07-.61,1.26-2.75.52-5.64A25.3,25.3,0,0,1,205.68,130.85Z"/><path class="cls-2" d="M208.64,125.74h0A25.71,25.71,0,0,1,209.9,129c2.87-.81,4.64-2,4.64-3.27s-1.77-2.47-4.64-3.27A27.43,27.43,0,0,1,208.64,125.74Z"/></g></g><g id="Camada_2" data-name="Camada 2"><rect class="cls-12" x="141.2" y="160.11" width="60.63" height="19.73"/><text class="cls-15" transform="translate(142.2 154.9) scale(0.83 1)">[ Find out on <tspan class="cls-16" x="110.08" y="0">m</tspan><tspan x="126.06" y="0">y </tspan><tspan class="cls-17"><tspan x="0" y="21">projects </tspan><tspan class="cls-12" x="74.42" y="21">]</tspan><tspan class="cls-18" x="80.12" y="21" xml:space="preserve"> |</tspan><tspan class="cls-12" x="89.49" y="21"> </tspan></tspan></text><circle class="cls-13" cx="237.63" cy="103.42" r="2.97"/><circle class="cls-13" cx="248.19" cy="103.42" r="2.97"/><circle class="cls-13" cx="258.37" cy="103.42" r="2.97"/></g></g></svg>