<svg xmlns="http://www.w3.org/2000/svg" viewBox="0 0 300 300"><defs><style>.cls-1{fill:#f2665f;}.cls-2{fill:#7d7d7d;}.cls-3{fill:#e3e3e3;}.cls-4{fill:#f6f5f5;}.cls-5{fill:#dcdbda;}.cls-6{fill:#444545;}.cls-7{fill:#231f20;}.cls-10,.cls-8{fill:#fff;}.cls-8{stroke:#231f20;stroke-miterlimit:10;stroke-width:2px;}.cls-9{fill:none;stroke:#000;}</style></defs><title>avatar06</title><g id="Camada_1" data-name="Camada 1"><circle class="cls-1" cx="136.67" cy="163.79" r="114.95"/><path class="cls-2" d="M146.7,278.35c16.29-.87,45.73-9.18,66.22-28.76-.82-3.24-5-1.41-7-1.48-7.24-.23-14.49,0-21.73-.15-1.43,0-3.12,0-3.58-1.89-.37-1.53.62-2.42,1.78-3.17a6,6,0,0,0,1.8-1.63c1-2.51,5.33-3.29,2.15-3.29H94.73c-8,0-16.09,0-24.13,0q-6.91,0-13.83.08c-2.29,0-5.13-.66-6.24,2.51a130.33,130.33,0,0,0,13.58,12.54,117.81,117.81,0,0,0,27.52,16.29C111.78,277.93,127.12,279.39,146.7,278.35Z"/><path class="cls-3" d="M183.54,234.6c0-.33,0-.66,0-1a6.76,6.76,0,0,1,0-8.4c1.91-1.26,4.1-1.18,6.24-1.19q18.14-.06,36.25,0c2.28,0,6.11-.92,8,1-3.45,6.34-8.62,13.63-14.27,18.28-10.95,1.15-22.1-.19-33.06-.3a4.12,4.12,0,0,1-3.12-1.35Z"/><path class="cls-4" d="M183.54,241.62c10.28,0,20.56,0,30.84,0,1.74,0,3.87,0,5.34,1.62-2.26,3.08-5.11,5.08-8.18,7.34-2.67-2-5.74-.85-8.6-.94-6.44-.19-12.88,0-19.32-.08-2.31,0-5.1.89-5.17-3.27C178.38,242.47,180.08,241.28,183.54,241.62Z"/><rect class="cls-5" x="142.88" y="122.15" width="142.54" height="102.85" rx="5.75"/><rect class="cls-6" x="144.38" y="123.14" width="139.53" height="100.68" rx="5.75"/><path class="cls-7" d="M77.31,223.51c-7.59,19.16,1.48-4.95-8.44,20-4,10.09,48.34,11.42,43.26.21C98,212.54,101.4,225.77,98.06,219.35,92.51,208.66,78.43,220.66,77.31,223.51Z"/><path class="cls-8" d="M77.41,230.56c21.69,10.89,11.62,13.62,35.07,7.9-8.66,7.35-3.54,9.42-7.59,9.94-9.55,1.23-11.38,1.36-20.84-.42s-18.69-5.71-26-12.23L78.64,213l5.51,1.15Z"/><path class="cls-8" d="M104.58,232.71c-19.69,10.9-22,11.39-43.28,5.67,7.86,7.36,9.92,11.85,13.6,12.37a62.53,62.53,0,0,0,23.65-.62,46.92,46.92,0,0,0,23.6-12.23l-18.69-22.73-5,1.14Z"/><ellipse class="cls-8" cx="88.06" cy="170.34" rx="41.17" ry="56.33"/><path class="cls-7" d="M66.89,164.41C80.83,176.49,96,183.92,118.46,190c8,2.18,8.82,1.84,13.1-2.94a45.25,45.25,0,0,0,7-10.32,40.07,40.07,0,0,0,4-21.25c-1.22-14.26-9.43-28-20.27-40.72l-.4,7.71c-7.74-10.8-15.64-22.37-12.4-34a29.21,29.21,0,0,0-5.75,9.42A30.64,30.64,0,0,1,107.25,76,129.52,129.52,0,0,1,86.93,91.56l-3.11-8.23c-8.12,13.84-29.54,23.2-41.42,36A40.18,40.18,0,0,0,32,155.17c2.33,12.24,8.88,28.71,17.69,39.82C59,185.38,67.93,175.53,66.89,164.41Z"/><path id="bezier52" class="cls-9" d="M104.89,202.07c0,3.89-7.39,7.06-16.53,7.06S71.83,206,71.83,202.07,79.22,195,88.36,195s16.53,3.17,16.53,7.08Z"/><path id="bezier53" class="cls-10" d="M66.11,187.1l-2.18,10.63,43.89,9.75L110,196.84Z"/><ellipse class="cls-7" cx="84.03" cy="187.1" rx="1.58" ry="3.78"/><ellipse class="cls-7" cx="91.95" cy="187.1" rx="1.58" ry="3.78"/></g></svg>