<svg xmlns="http://www.w3.org/2000/svg" viewBox="0 0 418.74 295.39"><defs><style>.cls-1{isolation:isolate;}.cls-2{fill:#b2b3b3;}.cls-3{fill:#fff;stroke-width:2px;}.cls-11,.cls-3{stroke:#231f20;}.cls-10,.cls-11,.cls-3{stroke-miterlimit:10;}.cls-4{fill:#231f20;}.cls-5,.cls-7,.cls-8,.cls-9{fill:#f2665f;}.cls-5,.cls-6,.cls-9{opacity:0.7;mix-blend-mode:multiply;}.cls-8,.cls-9{fill-rule:evenodd;}.cls-10,.cls-11{fill:none;}.cls-10{stroke:#c4c4c4;}.cls-12{fill:#72999b;}.cls-13{opacity:0.64;}</style></defs><title>avatar05</title><g class="cls-1"><g id="Camada_1" data-name="Camada 1"><ellipse class="cls-2" cx="214.78" cy="261.47" rx="44.07" ry="14.12"/><path class="cls-3" d="M196.22,131.58c-.46,0-10-2-10.42-2A197.28,197.28,0,0,0,158,153.68a3.07,3.07,0,0,0-.93,1.41c-.2.95.51,1.82,1.18,2.53q14,14.9,29.19,28.5a187.71,187.71,0,0,1-15.57-26.83l16-12.51"/><path class="cls-3" d="M204.72,128.49c.84,1.22,5.45-4.11,6.07-3a75,75,0,0,0,10.24,14c3.61-6.34,10.66-13.33,17.54-19.25,9.18-7.9,26.65-6.74,26.65-6.74s-13.3-1.49-19.36,6.36c-9.2,11.92-21.5,28.85-25.13,38.59"/><path class="cls-3" d="M185.83,204.29c6.27,18.27,10.75,31.92,16.27,50.43-1.86-17.08,1.57-29.57,3.57-46.63l.94-8"/><path class="cls-3" d="M200.12,202.57q14.19,26.51,29.07,52.64c-3.41-15.33-4.57-31.07-5.72-46.73l-.91-12.34"/><path class="cls-4" d="M191.08,129.7c-6.39,15.52-10.2,22.74-18.57,42.9-3.39,8.17-6.69,16.33-16.44,28.51,18.86,11.39,31,15,48.54,14s25.52-5.65,41.74-14.81c-4.74-5.94-7.09-8-12.22-17.09-3.16-5.56-9.12-15.69-13.4-24.76-11.91-25.21-9.34-26.87-12.15-32.06C203.9,117.69,192,127.4,191.08,129.7Z"/><path class="cls-4" d="M203,261.47c1.65,0-.1-14.76,0-22,0,.16-6.5.47-6.5.47s2.17,6.75,3.08,10.11C200.73,254.27,201.33,261.45,203,261.47Z"/><path class="cls-4" d="M232.27,262.94c-1.64.81-7-13.1-10.61-19.47.08.13,6.74-2.73,6.74-2.73s1.09,7,1.8,10.42C231.09,255.47,234,262.1,232.27,262.94Z"/><path class="cls-5" d="M100.07,251.48l-29-13.3c-.19-.09-.15-.1-.24.09l-6.05,13.21-7.23,15.8c-.08.16-.09.13.07.21L86.65,280.8c.15.07.15.07.23-.09l13.28-29C100.23,251.55,100.23,251.55,100.07,251.48ZM76.19,266,74,265a.38.38,0,0,1-.25-.4c0-.72,0-1.45,0-2.17,0-1,0-2.08,0-3.11V258a.26.26,0,0,0,0-.15.93.93,0,0,0-.18.16l-1.8,1.6-1.52,1.32-1.57,1.36a.35.35,0,0,1-.42.06l-2.09-1a.19.19,0,0,1-.08,0c-.11,0-.11-.13,0-.2.38-.31.77-.62,1.15-.91l.77-.62,2.24-1.77,1.14-.92,1.58-1.25a.27.27,0,0,0,.12-.25c0-.71,0-1.42-.06-2.12l-.08-2.89-.09-2.9c0-.24,0-.48,0-.72s.1-.22.24-.16l.68.31,1.49.69.12.05a.21.21,0,0,1,.12.21V249c0,.38,0,.79,0,1.18v2.39c0,.62,0,1.24,0,1.85,0,0,0,.06,0,.1a.58.58,0,0,0,.19-.16c.81-.73,1.64-1.45,2.46-2.16l2.26-2a.35.35,0,0,1,.44-.07l2,.9c.18.09.23.17,0,.34l-2,1.63-1.11.88-2.06,1.64-1.09.87-.28.22a.13.13,0,0,0-.06.12c0,.45,0,.9,0,1.36,0,.22,0,.45,0,.67l.09,2.45.07,2.16.08,2.3a.34.34,0,0,1,0,.1C76.47,266.05,76.4,266.1,76.19,266Zm9.65,3.62a8.55,8.55,0,0,1-2.8-.4A6.5,6.5,0,0,1,82,268.8a6,6,0,0,1-2-1.46,4.54,4.54,0,0,1-.88-1.54,5.11,5.11,0,0,1-.22-2.13,7.27,7.27,0,0,1,.27-1.39,9.49,9.49,0,0,1,.57-1.45,6.92,6.92,0,0,1,1.92-2.44,5.19,5.19,0,0,1,4.4-1.1,7.08,7.08,0,0,1,2.06.78c.06,0,.09,0,.12-.05l.42-.9,1.14-2.49c.09-.2.13-.22.32-.14l2,.92.1,0a.13.13,0,0,1,0,.15h0l-3,6.55-2.94,6.43a6.92,6.92,0,0,0-.33.86c0,.15,0,.17-.2.17Z"/><path class="cls-5" d="M85.69,263.63l1.49-3.25c.08-.17.08-.17-.06-.28h0a2.85,2.85,0,0,0-3.17-.24,4.25,4.25,0,0,0-1.58,1.73,6.75,6.75,0,0,0-.57,1.36,4.53,4.53,0,0,0-.22,1.51,2.55,2.55,0,0,0,.68,1.65,2.86,2.86,0,0,0,.76.57,3,3,0,0,0,1,.33c.16,0,.13.06.21-.12Z"/><g class="cls-6"><polygon class="cls-7" points="112.69 39.46 126.29 68.95 116.83 78.59 103.81 81.86 85.21 55.23 83.36 56.29 101.34 87.62 132.66 69.64 114.69 38.31 112.69 39.46"/><polygon class="cls-7" points="110.86 48.13 93.61 58.03 100.51 67.92 112.45 61.07 114.58 65.76 111.33 69.01 106.91 70.17 105.08 67.58 101.67 69.54 105.21 74.72 113.4 72.61 113.47 72.57 113.46 72.55 119.36 66.6 114.25 55.42 101.68 62.63 99.36 59.27 112.51 51.73 110.86 48.13"/></g><path class="cls-5" d="M99.6,181.07l13.91,25.44,25.61-14-13.91-25.44Zm7.49-3.47a.66.66,0,0,1,1-.77l5.44,3.55L113.35,195Zm7.43.33a.63.63,0,0,1,.12-.37.65.65,0,0,1,.9-.19l3.93,2.61-5.17,17.66Zm12.9,20.48a2,2,0,0,1-1.68.92l-10.88-.11,6.82-23.29a.69.69,0,0,1,.23-.33.66.66,0,0,1,.91.1l10.45,13.45Z"/><g class="cls-6"><path class="cls-8" d="M284.43,230.9c-.69,1.07-4.76,7.21-4.76,7.21l4.33,1.48s.38-7.4.49-8.67Z"/><path class="cls-8" d="M273.47,213.11,260.73,250.4,298,263.13l12.74-37.29Zm9.83,35.53.2-5.52-5.59-1.91-3.11,4.53-4.58-1.57,12.65-17.48,5.79,2-.62,21.6Zm10.88,3.72-4.41-1.51,4.83-14.17,4.42,1.51-4.84,14.17Zm3.2-16.67a2.35,2.35,0,1,1,1.55-4.43,2.35,2.35,0,1,1-1.55,4.43Z"/></g><g class="cls-6"><path class="cls-7" d="M344,201.38a.72.72,0,0,0-.95-.06,1.41,1.41,0,0,0-.61,1.41c0,.65.6.71,1.11.76h0v0h0v0a1.47,1.47,0,0,0,.5-.72C344.19,202.29,344.48,201.84,344,201.38Z"/><path class="cls-7" d="M328,197.46c-.4-.05-.81,0-1,.38s.06.61.39.7a.71.71,0,0,0,.91-.5C328.43,197.73,328.4,197.5,328,197.46Z"/><path class="cls-7" d="M334.11,199.37c-.41.13-.93.26-.75.81s.68.35,1.09.23C334.61,200,335,199.47,334.11,199.37Z"/><path class="cls-7" d="M324.69,195.39a1.77,1.77,0,0,0-.75,1.71c.36.47.78.79,1.36.39a1.36,1.36,0,0,0,.53-1.43C325.72,195.46,325.24,195.32,324.69,195.39Z"/><path class="cls-7" d="M347.32,164a1.56,1.56,0,0,1,.46.29c2.63,2.48,5.31,4.88,6.89,8.29,3.7,8-.68,19.88-11.63,21.43a18.62,18.62,0,0,1-13.12-2.62,11,11,0,0,1-5.08-11.77,20.11,20.11,0,0,1,.77-3.24,25.11,25.11,0,0,1,5.22-9.5,9.44,9.44,0,0,1,10.5-3.2c1,.28,2,.48,3,.68.55.12,1.05.57,1.64-.22a1,1,0,0,1,1.07-.24l-20.58-6.46-12.14,38.66L353,208.23l12.14-38.66Zm-21.79,34a1.12,1.12,0,0,1-1.73-.56c-.23,0-.31.4-.59.21s-.07-.35,0-.52l1.05-3.36c.06-.16.07-.42.34-.37s.2.34.17.56c-.06.41-.42.76-.22,1.22h0c.81-.29,1.52-.17,1.8.71A1.71,1.71,0,0,1,325.53,198Zm2.19,1c-.68-.2-1.38-.21-1.3-1.06s.78-.93,1.51-.81c.23,0,.58.29.67-.15s-.19-.54-.49-.7-.62.16-.9-.25a1.45,1.45,0,0,1,1.58.18.94.94,0,0,1,.28,1.15c-.1.34-.23.67-.31,1C328.63,198.91,328.53,199.2,327.72,199Zm1.76.62c-.24-.08-.21-.3-.15-.49l1.08-3.45c.06-.19.16-.38.39-.33s.22.33.16.54c-.17.56-.35,1.12-.52,1.67s-.35,1.12-.53,1.67C329.84,199.4,329.82,199.71,329.48,199.59Zm2.58.46c-.64.45-1.26.09-1.89-.5a2,2,0,0,1,.42-.07c.39.05.8.56,1.15.11s-.21-.72-.47-1-.48-.86,0-1.22c.61-.52,1.17-.25,1.72.29-.31.27-.41.12-.53,0-.28-.22-.6-.26-.81.06s0,.49.27.68C332.45,198.9,332.79,199.54,332.06,200.05Zm2.81,1c-.09.26-.28.13-.39-.06a.73.73,0,0,0-.54-.09c-.64,0-1.23-.18-1.22-.93s.51-1,1.19-.95c.32-.11.9.43,1-.16.09-.82-.72-.65-1.23-.87a1.24,1.24,0,0,1,1.37.07.86.86,0,0,1,.39,1.1C335.25,199.83,335.09,200.47,334.87,201.09Zm4.64,1.65c-.54-.7.14-1.25.24-1.86a.93.93,0,0,0-.55-1.13c-1.16.4-.86,1.7-1.52,2.56-.4-.77.09-1.31.21-1.88.17-.75.08-1.24-.85-1.13-.63.51-.59,1.32-.88,2-.08.18-.14.38-.4.27s-.14-.25-.1-.39c.23-.75.42-1.5.7-2.23s.49.11.74.08c.85-.58,1.12.57,1.77.58a.44.44,0,0,1,.15,0c1.06-.13,1.49.24,1.27,1.18A3.41,3.41,0,0,1,339.51,202.74ZM342,199a.27.27,0,0,1,.24.33c-.05.25-.22.29-.61.26a1.1,1.1,0,0,1-.05-.34C341.54,199,341.77,199,342,199Zm-1.18,4c-.6-.19,0-1,.17-1.48s.09-1.43.64-1.26-.2.88-.08,1.37C341.15,202.12,341.28,203.19,340.77,203Zm3,2.25h0c-.22,0-.43,0-.34-.31-.06-.42.46-.79.08-1.23a1.08,1.08,0,0,1-1.53-.61,1.78,1.78,0,0,1,.46-2,1.14,1.14,0,0,1,1.59-.15c.32.24.68.2,1,.38h0A10.31,10.31,0,0,1,343.76,205.28Z"/><path class="cls-7" d="M345,201.32h0c-.42,1.32-.83,2.64-1.25,4A14.5,14.5,0,0,0,345,201.32Z"/><path class="cls-7" d="M341.78,165.52c-4.07-.52-7.67,0-10.34,3.55a22.3,22.3,0,0,0-4.46,10.3c-.42,2.75-.31,5.46,1.67,7.73a15.44,15.44,0,0,0,7.23,4.51c3.29,1,5.88,1.14,8.36.13a14.82,14.82,0,0,0,9.6-12.14,10.34,10.34,0,0,0-3.59-9.66.81.81,0,0,0-.79-.32,1.86,1.86,0,0,1-1.81-.83A9.15,9.15,0,0,0,341.78,165.52Zm-5,7.34a1.44,1.44,0,0,1,.9,2c-.23.74-.68,1.1-1.39.91-.95-.32-1.36-.86-1.1-1.8S335.9,172.62,336.81,172.86Zm9.74,3.27a1.24,1.24,0,0,1,.86,1.63,1.49,1.49,0,0,1-1.86,1.1c-.91-.33-.9-1-.7-1.81S345.72,176,346.55,176.13Zm.35,6.91c.2-.14.39-.32.61-.12s0,.42-.07.63a6.41,6.41,0,0,1-6.27,3.23,12.74,12.74,0,0,1-2.86-.58,10.1,10.1,0,0,1-6.16-4.84,5.65,5.65,0,0,1-.45-3.75c.05-.28.12-.57.46-.58s.35.27.37.5c.21,3.1,2.33,4.76,4.76,6C340.52,185.17,343.8,185.27,346.9,183Z"/></g><path class="cls-9" d="M34.61,145.7a6.72,6.72,0,0,0-1.65-.39L31.2,150.4a6.38,6.38,0,0,0,1.26.54c2.06.72,3.71.11,4.32-1.66C37.32,147.7,36.56,146.38,34.61,145.7Z"/><path class="cls-9" d="M27.61,131.78,16.45,164.09,48.62,175.2l11.16-32.31Zm10,22.28a8.28,8.28,0,0,1-6.2-.12,10.36,10.36,0,0,1-1.3-.52L28,159.58l-3.84-1.32,5.88-17a34.25,34.25,0,0,1,5.36,1.46c2.4.83,4,1.87,4.77,3.19a5.29,5.29,0,0,1,.46,4.63A5.86,5.86,0,0,1,37.66,154.06Zm3,10.16A9.17,9.17,0,0,1,36.92,162l1.65-2.55a7.89,7.89,0,0,0,3,2.1c1.16.4,1.79.16,2-.48S43.54,160,42.26,159c-2.28-1.77-2.78-3.51-2.24-5,.8-2.33,3.39-3.39,6.47-2.33a8.7,8.7,0,0,1,3.27,1.94L48.15,156a6.5,6.5,0,0,0-2.45-1.66c-1-.32-1.59-.11-1.82.53s.18,1.05,1.51,2.12c2.09,1.63,2.67,3.18,2.06,5C46.63,164.37,44.2,165.45,40.64,164.22Z"/><ellipse class="cls-10" cx="211.3" cy="153.49" rx="178.8" ry="35.15" transform="translate(-7.43 10.79) rotate(-2.87)"/><ellipse class="cls-10" cx="207.42" cy="157.21" rx="35.15" ry="178.8" transform="translate(-40.51 236.38) rotate(-54.87)"/><ellipse class="cls-10" cx="207.42" cy="153.49" rx="178.8" ry="35.15" transform="translate(-49.61 176.3) rotate(-41.57)"/><path class="cls-3" d="M223.43,94c0,20.14-12.43,36.46-27.77,36.46a23.12,23.12,0,0,1-11.09-3c-12.06-6.55-17.14-21.68-16.67-33.44.64-16,12-36.47,27.76-36.47C211,57.55,223.43,73.88,223.43,94Z"/><path class="cls-4" d="M213.33,81.54a97.64,97.64,0,0,1-38.8,23.58c-5.51,1.74-6.07,1.47-9-2.35A36.67,36.67,0,0,1,158,77.55c.85-11.39,6.5-22.38,14-32.52l.27,6.16c5.33-8.63,10.77-17.87,8.54-27.14a24.37,24.37,0,0,1,4,7.53,27.91,27.91,0,0,0-2.44-17.53,91.62,91.62,0,0,0,14,12.43l2.14-6.57C204,31,218.72,38.44,226.89,48.68A35.62,35.62,0,0,1,234,77.29c-1.6,9.78-5.9,19.33-12,28.21C215.66,97.83,212.62,90.43,213.33,81.54Z"/><ellipse class="cls-4" cx="192.61" cy="102.21" rx="1.33" ry="3.06"/><ellipse class="cls-4" cx="199.29" cy="102.21" rx="1.33" ry="3.06"/><path class="cls-11" d="M193.94,113.55c6.64-1,11.53-3.57,16.85-8.28-2.21,6.78-5.25,12.06-11.5,16.37"/><path class="cls-12" d="M276.89,78.68l-34.47-2.09c-.17,0-.21,0-.22.19q-1,17.23-2.09,34.47c0,.17,0,.21.19.22l17.24,1,17.23,1c.17,0,.22,0,.23-.19q1-17.24,2.09-34.47C277.1,78.73,277.06,78.69,276.89,78.68Zm-17,21h0l-.33,5.45a5.75,5.75,0,0,1-.46,1.91,3.83,3.83,0,0,1-2.58,2.28,6.18,6.18,0,0,1-4.45-.38,4.88,4.88,0,0,1-2.36-2.54c-.05-.12,0-.17.08-.23l2.49-1.31c.11-.06.15,0,.21.07a5.76,5.76,0,0,0,.51.9,2,2,0,0,0,2.37.65,1.42,1.42,0,0,0,.84-1.14,4.59,4.59,0,0,0,.1-.83q.33-5.37.65-10.74c0-.22.07-.27.29-.25.9.07,1.8.11,2.7.17.3,0,.3,0,.29.31C260.1,95.93,260,97.83,259.87,99.72ZM271,109.35a5.32,5.32,0,0,1-2.68,1,7.69,7.69,0,0,1-4.63-.9,5.79,5.79,0,0,1-2.4-2.59c-.07-.15-.07-.21.09-.29.81-.39,1.62-.8,2.42-1.21.13-.07.18-.06.25.07a3.72,3.72,0,0,0,1.66,1.69,3.49,3.49,0,0,0,2.46.23,1.51,1.51,0,0,0,1.2-1.78,1.45,1.45,0,0,0-.49-.85,6.92,6.92,0,0,0-1.58-1,23.22,23.22,0,0,1-2.44-1.35,4.58,4.58,0,0,1-2.07-2.93A4.34,4.34,0,0,1,266.87,94a6.18,6.18,0,0,1,.85,0,5.43,5.43,0,0,1,3,.91,5.12,5.12,0,0,1,1.56,1.89c.05.09,0,.12-.06.17l-2.42,1.35c-.09.06-.13,0-.18,0a5.74,5.74,0,0,0-.32-.53,2,2,0,0,0-2.15-.84,1.42,1.42,0,0,0-.8,2.35,3.83,3.83,0,0,0,1.22.85c.93.49,1.89.93,2.77,1.51a5.22,5.22,0,0,1,2,2.2A4.7,4.7,0,0,1,271,109.35Z"/><g class="cls-13"><path class="cls-7" d="M358.78,118c.47-1.16,2.94-2.23,3.77-2.58s3.31-1.41,4.47-.94a5.65,5.65,0,0,1,1.91-3.67l-14.12,6A5.66,5.66,0,0,1,358.78,118Z"/><path class="cls-7" d="M367.68,136.57c-4.1,2.9-6.83,0-6.83,0a11,11,0,0,0-2.7-1.76c-2.06-.27-.35-.82-.35-.82a3.33,3.33,0,0,1,3.18.59,4.28,4.28,0,0,0,5.65-.47,4.27,4.27,0,0,1-.23-2.82c-3.78,1.14-7.66.36-9.41-3.75s-1.28-5.28-.81-6.46a5.51,5.51,0,0,1-1.72-4l-5.86,2.5,10.49,24.54,10-4.27C368.93,139.5,368.21,137.78,367.68,136.57Z"/><path class="cls-7" d="M369.28,110.69a5.52,5.52,0,0,1,1.74,4c1.18.47,2.35.94,4.11,5.05s-.36,7.44-3.79,9.39a4.79,4.79,0,0,1,1.88,2.11l2.43,5.7,8.07-3.45L373.23,109Z"/></g><g class="cls-6"><polygon class="cls-7" points="336.61 43.12 336.6 43.13 332.85 43.18 331.87 40.64 328.72 41.54 330.61 46.43 337.53 46.38 337.53 46.38 343.45 42.77 341.57 32.92 340.94 29.64 340.32 26.43 332.48 28.67 324.63 30.91 325.68 33.81 337.78 30.32 338.45 33.56 326.93 37 328.09 39.88 339.07 36.71 339.83 41.18 336.61 43.12"/><polygon class="cls-7" points="343.38 19.93 348.4 46.06 339.08 51.78 328.14 51.85 318.6 27 316.88 27.49 324.99 55.91 353.41 47.8 345.29 19.38 343.38 19.93"/></g></g></g></svg>