<svg xmlns="http://www.w3.org/2000/svg" viewBox="0 0 270 270"><defs><style>.cls-1{isolation:isolate;}.cls-2,.cls-3{fill:#f2665f;}.cls-3{opacity:0.24;mix-blend-mode:multiply;}.cls-4{fill:#7d7d7d;}.cls-5{fill:#e3e3e3;}.cls-6{fill:#f6f5f5;}.cls-7{fill:#dcdbda;}.cls-8{fill:#444545;}.cls-9{fill:#231f20;}.cls-10,.cls-12,.cls-14,.cls-16{fill:#fff;}.cls-10{stroke:#231f20;stroke-width:2px;}.cls-10,.cls-13{stroke-miterlimit:10;}.cls-11,.cls-13{fill:none;}.cls-11{stroke:#000;}.cls-13{stroke:#fff;}.cls-14{font-size:19px;font-family:Lato-Black, Lato;font-weight:800;}.cls-15{letter-spacing:-0.02em;}.cls-16{font-family:Lato-Light, Lato;font-weight:300;}</style></defs><title>Carolina PORTAFOLIO-R02</title><g class="cls-1"><g id="Camada_1" data-name="Camada 1"><circle class="cls-2" cx="121.57" cy="135" r="114.95"/><circle class="cls-3" cx="116.63" cy="135" r="114.95"/><path class="cls-4" d="M131.6,249.56c16.3-.87,45.74-9.18,66.23-28.76-.82-3.24-5-1.41-7-1.48-7.24-.23-14.49,0-21.73-.15-1.44,0-3.12,0-3.58-1.89-.38-1.53.61-2.42,1.77-3.17a6,6,0,0,0,1.81-1.63c1-2.51,5.32-3.3,2.14-3.3H79.63c-8,0-16.08,0-24.12,0q-6.93,0-13.84.08c-2.29,0-5.12-.66-6.24,2.51A130.42,130.42,0,0,0,49,224.3a117.61,117.61,0,0,0,27.52,16.29C96.69,249.14,112,250.6,131.6,249.56Z"/><path class="cls-5" d="M168.44,205.81v-1a6.75,6.75,0,0,1,0-8.4c1.91-1.27,4.09-1.18,6.24-1.19q18.12-.06,36.25,0c2.28,0,6.1-.92,8,1-3.46,6.34-8.63,13.63-14.28,18.28-10.94,1.15-22.09-.19-33.05-.3a4.1,4.1,0,0,1-3.12-1.35C168.45,210.49,168.44,208.15,168.44,205.81Z"/><path class="cls-6" d="M168.45,212.83c10.28,0,20.55,0,30.83,0,1.74,0,3.87,0,5.34,1.62-2.26,3.07-5.1,5.08-8.18,7.34-2.67-2-5.73-.85-8.6-.94-6.43-.19-12.88,0-19.32-.08-2.31,0-5.09.89-5.17-3.27C163.28,213.68,165,212.48,168.45,212.83Z"/><rect class="cls-7" x="127.78" y="93.35" width="142.54" height="102.85" rx="3.58"/><rect class="cls-8" x="129.29" y="94.35" width="139.53" height="100.68" rx="3.14"/><path class="cls-9" d="M62.21,194.71c-7.58,19.17,1.49-4.94-8.43,20-4,10.09,47.67,7.08,42.59-4.13C82.25,179.41,86.3,197,83,190.56,77.41,179.87,63.34,191.86,62.21,194.71Z"/><path class="cls-10" d="M62.31,201.77c1.41,1.75,11.62,13.62,35.07,7.9-8.66,7.35-3.53,9.42-7.58,9.94-9.55,1.23-11.38,1.36-20.85-.42s-24.89-8.85-24.89-13.44,12.62-13.95,19.49-21.53l5.5,1.15S60.9,200,62.31,201.77Z"/><path class="cls-10" d="M89.49,203.92c-.95,2.61-18.37,13.32-39.66,7.61,7.86,7.35,6.38,8.75,12.64,9.3s12.39,2.29,21,.51,21.83-8.09,23.6-12.23S94.6,194,88.36,186.37l-5,1.15S90.43,201.31,89.49,203.92Z"/><ellipse class="cls-10" cx="72.97" cy="141.55" rx="41.17" ry="56.33"/><path class="cls-9" d="M51.8,135.62c13.94,12.08,29.13,19.51,51.56,25.6,8,2.18,8.83,1.84,13.1-2.94a45.35,45.35,0,0,0,7-10.33,40.11,40.11,0,0,0,4-21.24c-1.23-14.26-9.44-28-20.28-40.72l-.4,7.71C99,82.9,91.12,71.33,94.37,59.72a29.08,29.08,0,0,0-5.75,9.43,30.58,30.58,0,0,1,3.54-21.94A130.46,130.46,0,0,1,71.84,62.77l-3.11-8.23c-8.12,13.84-29.55,23.2-41.42,36a40.16,40.16,0,0,0-10.39,35.82c2.33,12.24,8.89,28.71,17.7,39.82C43.94,156.59,52.83,146.74,51.8,135.62Z"/><path id="bezier52" class="cls-11" d="M89.8,173.28c0,3.89-7.39,7.06-16.54,7.06s-16.53-3.17-16.53-7.06,7.39-7.08,16.53-7.08,16.54,3.16,16.54,7.08Z"/><path id="bezier53" class="cls-12" d="M51,158.3l-2.17,10.64,43.88,9.75,2.18-10.64Z"/><ellipse class="cls-9" cx="68.94" cy="158.3" rx="1.58" ry="3.78"/><ellipse class="cls-9" cx="76.86" cy="158.3" rx="1.58" ry="3.78"/><rect class="cls-13" x="134.12" y="97.84" width="129.86" height="93.7"/><line class="cls-13" x1="134.12" y1="108.7" x2="263.98" y2="108.7"/></g><g id="Camada_2" data-name="Camada 2"><circle class="cls-13" cx="237.63" cy="103.42" r="2.97"/><circle class="cls-13" cx="248.19" cy="103.42" r="2.97"/><circle class="cls-13" cx="258.37" cy="103.42" r="2.97"/><text class="cls-14" transform="translate(142.2 142.56) scale(0.83 1)">[ Find out on <tspan class="cls-15" x="110.08" y="0">m</tspan><tspan x="126.06" y="0">y </tspan><tspan class="cls-2"><tspan x="0" y="21">projects </tspan><tspan class="cls-12" x="74.42" y="21">]</tspan><tspan class="cls-16" x="80.12" y="21" xml:space="preserve"> |</tspan><tspan class="cls-12" x="89.49" y="21"> </tspan></tspan></text></g></g></svg>