<svg xmlns="http://www.w3.org/2000/svg" viewBox="0 0 400 400"><defs><style>.cls-1{fill:#f2665f;}.cls-2{fill:#f9b8ab;}.cls-3{fill:#e3cac7;}.cls-4{fill:#4b6064;}.cls-5{fill:#e3e3e3;}.cls-6{fill:#f6f5f5;}.cls-7{fill:#dcdbda;}.cls-8{fill:#444545;}.cls-16,.cls-9{fill:none;}.cls-9{stroke:#fff;}.cls-13,.cls-14,.cls-9{stroke-miterlimit:10;}.cls-10{font-size:32px;font-family:Lato-Black, Lato;font-weight:800;}.cls-10,.cls-13,.cls-14,.cls-17{fill:#fff;}.cls-11{letter-spacing:-0.02em;}.cls-12{font-family:Lato-Light, Lato;font-weight:300;}.cls-13,.cls-14{stroke:#231f20;}.cls-13{stroke-width:3px;}.cls-14{stroke-width:2px;}.cls-15{fill:#231f20;}.cls-16{stroke:#000;}</style></defs><title>avatar06-25-</title><g id="Camada_2" data-name="Camada 2"><circle class="cls-1" cx="200.91" cy="200.82" r="198"/><circle class="cls-2" cx="200.91" cy="200.82" r="158.26"/><circle class="cls-3" cx="200.91" cy="200.82" r="114.95"/></g><g id="Camada_5" data-name="Camada 5"><path class="cls-4" d="M210.94,315.37c16.29-.86,45.73-9.17,66.23-28.75-.82-3.24-5-1.42-7-1.48-7.24-.24-14.48,0-21.73-.16-1.43,0-3.11,0-3.58-1.88-.37-1.53.62-2.42,1.78-3.18a5.83,5.83,0,0,0,1.8-1.62c1-2.51,5.33-3.3,2.15-3.3H159c-8,0-16.08,0-24.13,0-4.61,0-9.22,0-13.83.07-2.29,0-5.13-.65-6.24,2.52a130.32,130.32,0,0,0,13.59,12.53,117.54,117.54,0,0,0,27.51,16.29C176,315,191.36,316.41,210.94,315.37Z"/><path class="cls-5" d="M247.78,271.63v-1a6.75,6.75,0,0,1,0-8.4c1.92-1.26,4.1-1.17,6.24-1.18q18.14-.06,36.25,0c2.28,0,6.11-.92,8,1-3.46,6.34-8.63,13.62-14.28,18.27-10.95,1.16-22.09-.19-33-.29a4.11,4.11,0,0,1-3.13-1.36Z"/><path class="cls-6" d="M247.78,278.64c10.28,0,20.56,0,30.84,0,1.74,0,3.87,0,5.34,1.62-2.26,3.08-5.11,5.09-8.18,7.35-2.67-2-5.74-.85-8.6-.94-6.44-.2-12.88,0-19.32-.08-2.31,0-5.1.88-5.17-3.28C242.62,279.5,244.32,278.3,247.78,278.64Z"/><rect class="cls-7" x="196.81" y="126.34" width="188.04" height="135.68" rx="3.58"/><rect class="cls-8" x="198.8" y="127.65" width="184.07" height="132.81" rx="3.14"/><rect class="cls-9" x="205.17" y="132.25" width="171.32" height="123.61"/><line class="cls-9" x1="205.17" y1="146.59" x2="376.49" y2="146.59"/><circle class="cls-9" cx="341.73" cy="139.62" r="3.92"/><circle class="cls-9" cx="355.66" cy="139.62" r="3.92"/><circle class="cls-9" cx="369.08" cy="139.62" r="3.92"/><rect class="cls-1" x="256.76" y="200.82" width="102.82" height="34.9"/><text class="cls-10" transform="translate(215.83 192.44) scale(0.83 1)">Find out on <tspan class="cls-11" x="0" y="35">m</tspan><tspan x="26.91" y="35">y </tspan><tspan x="50.78" y="35">projects ! </tspan><tspan class="cls-12" x="194.33" y="35"> </tspan></text><path class="cls-13" d="M176.83,255.39c19.47,10.28,34.36.47,47.37,15.48-5.82-6.71-16.72,7.94-25.44,2.21a78.71,78.71,0,0,1-25.81-.29c-8.49-1.68-20.79-17-27.35-23.16,6.16-7.16,19.51-11,20.5-9.56Z"/><path d="M146.25,276.91h29.63l-.61-1.27c-14.85-31.43-11.64-33.5-15.14-40-5.84-10.8-20.64,1.31-21.83,4.19-6,14.44-10.11,23.12-16.17,37C130.17,276.89,138.21,276.92,146.25,276.91Z"/><path class="cls-13" d="M131.22,256.4c22.81,11,60.78-2.28,67,15.53-3.15-9-19.58,8.49-29.79,2.36-10,1.24-20.28,1.48-30.23-.31s-26-7.81-27.33-12.34,14.43-15.3,21.65-22.95l5.14,2.67Z"/><ellipse class="cls-14" cx="146.9" cy="179.08" rx="48.46" ry="66.3"/><path class="cls-15" d="M122,172.11c16.41,14.21,34.28,22.95,60.69,30.13,9.43,2.56,10.39,2.16,15.42-3.46a53.73,53.73,0,0,0,8.22-12.16,47.16,47.16,0,0,0,4.7-25c-1.45-16.79-11.11-33-23.87-47.93l-.47,9.08c-9.1-12.72-18.4-26.33-14.58-40a34.33,34.33,0,0,0-6.78,11.09A36.06,36.06,0,0,1,169.48,68a152.67,152.67,0,0,1-23.91,18.32l-3.66-9.69C132.35,93,107.13,104,93.16,119.06c-11.73,12.66-15,27.76-12.23,42.17S91.39,195,101.76,208.1C112.73,196.79,123.2,185.2,122,172.11Z"/><path id="bezier52" class="cls-16" d="M166.7,216.43c0,4.58-8.7,8.31-19.46,8.31s-19.46-3.73-19.46-8.31,8.7-8.33,19.46-8.33,19.46,3.72,19.46,8.33Z"/><path id="bezier53" class="cls-17" d="M126.91,195.56l-2.48,14.32,52,9.93,2.48-14.32Z"/><ellipse class="cls-15" cx="142.16" cy="198.8" rx="1.86" ry="4.45"/><ellipse class="cls-15" cx="151.48" cy="198.8" rx="1.86" ry="4.45"/></g></svg>