<svg xmlns="http://www.w3.org/2000/svg" viewBox="0 0 260 303.48"><defs><style>.cls-1{isolation:isolate;}.cls-2{fill:#f9b8ab;}.cls-11,.cls-12,.cls-3,.cls-7,.cls-9{fill:#f2665f;}.cls-3{opacity:0.24;}.cls-10,.cls-12,.cls-3,.cls-7,.cls-8{mix-blend-mode:multiply;}.cls-4{fill:#fff;stroke-width:2px;}.cls-4,.cls-6{stroke:#231f20;stroke-miterlimit:10;}.cls-5{fill:#231f20;}.cls-6{fill:none;}.cls-12,.cls-7,.cls-8{opacity:0.7;}.cls-11,.cls-12{fill-rule:evenodd;}</style></defs><title>avatar07</title><g class="cls-1"><g id="Camada_1" data-name="Camada 1"><circle class="cls-2" cx="118.63" cy="184.94" r="116.15"/><circle class="cls-3" cx="142.2" cy="184.02" r="116.15"/><path class="cls-4" d="M116.4,165.29c-.46,0-10-2-10.42-2a197.3,197.3,0,0,0-27.83,24.13,3,3,0,0,0-.93,1.42,3.08,3.08,0,0,0,1.17,2.52q14,14.9,29.2,28.51A187.31,187.31,0,0,1,92,193l16-12.52"/><path class="cls-4" d="M124.9,162.19c.83,1.22,5.45-4.11,6.07-3a74.65,74.65,0,0,0,10.24,14c3.61-6.34,10.66-13.33,17.54-19.25,9.18-7.91,26.64-6.75,26.64-6.75s-13.29-1.48-19.35,6.37c-9.2,11.92-21.5,28.85-25.14,38.59"/><path class="cls-4" d="M106,238c6.28,18.26,10.76,31.92,16.28,50.43-1.86-17.08,1.57-29.57,3.57-46.63l.94-8"/><path class="cls-4" d="M120.3,236.27q14.17,26.52,29.07,52.65c-3.41-15.34-4.57-31.07-5.73-46.74l-.9-12.33"/><path class="cls-5" d="M111.26,163.41c-6.39,15.51-10.21,22.73-18.57,42.9-3.39,8.17-6.69,16.33-16.45,28.51,18.87,11.39,31.05,15,48.55,14s25.51-5.66,41.74-14.82c-4.75-5.93-7.09-8-12.23-17.08-3.15-5.56-9.11-15.69-13.4-24.76-11.9-25.21-9.33-26.87-12.14-32.07C124.08,151.4,112.21,161.11,111.26,163.41Z"/><path class="cls-4" d="M143.61,127.72c0,20.14-12.43,36.47-27.77,36.47a23,23,0,0,1-11.09-3c-12.06-6.54-17.14-21.67-16.68-33.44.64-16,12-36.46,27.77-36.46C131.18,91.26,143.61,107.59,143.61,127.72Z"/><path class="cls-5" d="M133.51,115.25a97.76,97.76,0,0,1-38.8,23.58c-5.51,1.74-6.07,1.47-9-2.35a37.42,37.42,0,0,1-4.81-8.25,36.44,36.44,0,0,1-2.74-17c.84-11.39,6.49-22.38,14-32.52l.27,6.16C97.7,76.27,103.14,67,100.9,57.76a24.11,24.11,0,0,1,4,7.52,27.8,27.8,0,0,0-2.43-17.52,92.16,92.16,0,0,0,14,12.43l2.14-6.57c5.59,11.05,20.34,18.53,28.51,28.76A35.68,35.68,0,0,1,154.22,111c-1.6,9.78-5.9,19.33-12,28.21C135.84,131.53,132.79,124.13,133.51,115.25Z"/><ellipse class="cls-5" cx="112.79" cy="135.92" rx="1.33" ry="3.06"/><ellipse class="cls-5" cx="119.47" cy="135.92" rx="1.33" ry="3.06"/><path class="cls-6" d="M114.12,147.26c6.64-1.06,11.53-3.57,16.85-8.28-2.21,6.78-5.25,12.06-11.5,16.37"/><path class="cls-5" d="M123.21,295.18c1.65,0-.1-14.77,0-22,0,.15-6.5.47-6.5.47s2.16,6.74,3.08,10.11C120.91,288,121.51,295.16,123.21,295.18Z"/><path class="cls-5" d="M152.45,296.64c-1.65.82-7-13.09-10.61-19.47.07.14,6.74-2.72,6.74-2.72s1.09,7,1.8,10.42C151.27,289.18,154.14,295.81,152.45,296.64Z"/><path class="cls-7" d="M64.17,251.63l-29.88,11.3c-.19.07-.17,0-.1.23l5.14,13.59L45.48,293c.06.16,0,.15.2.09l29.91-11.31c.15-.06.15-.06.09-.22L64.4,251.74C64.34,251.57,64.34,251.57,64.17,251.63Zm-6.46,27.19-2.24.85a.4.4,0,0,1-.46-.1l-1.55-1.52c-.75-.72-1.49-1.45-2.22-2.17l-1-.95a.27.27,0,0,0-.12-.09.65.65,0,0,0,0,.24c0,.8-.09,1.6-.13,2.4s-.08,1.34-.13,2-.1,1.39-.14,2.08a.34.34,0,0,1-.24.34l-2.16.82-.08,0c-.11,0-.17,0-.15-.14,0-.48.1-1,.16-1.45s.06-.65.1-1c.11-.95.21-1.89.31-2.84l.15-1.45c.07-.67.15-1.34.23-2a.28.28,0,0,0-.1-.26c-.52-.48-1-1-1.55-1.45l-2.11-2-2.12-2c-.18-.16-.35-.34-.53-.49s-.09-.23.06-.28l.69-.27,1.54-.58.12-.05a.22.22,0,0,1,.23.07l.8.78.84.83,1.71,1.68L49,271.23s0,0,.07.06a.69.69,0,0,0,0-.25c.05-1.09.11-2.18.19-3.26s.13-2,.19-3a.38.38,0,0,1,.27-.36l2-.77c.19-.07.28,0,.26.22-.1.87-.19,1.73-.28,2.6l-.15,1.41-.29,2.62-.15,1.38c0,.12,0,.24,0,.35a.13.13,0,0,0,.05.13c.33.31.66.62,1,.92l.49.46,1.8,1.66,1.6,1.47,1.68,1.56a.27.27,0,0,1,.08.07C57.94,278.66,57.92,278.74,57.71,278.82Zm9.36-4.31a8.75,8.75,0,0,1-2.26,1.71,8.15,8.15,0,0,1-1.05.46,5.91,5.91,0,0,1-2.4.35,4.66,4.66,0,0,1-1.71-.45A5.35,5.35,0,0,1,58,275.24a7.15,7.15,0,0,1-.79-1.18,9,9,0,0,1-.63-1.42,7,7,0,0,1-.39-3.08,5.42,5.42,0,0,1,.49-1.8,5.35,5.35,0,0,1,1.82-2.1,7,7,0,0,1,1-.57,6.6,6.6,0,0,1,1-.35c.06,0,.08-.05.05-.12l-.35-.93-1-2.56c-.08-.21-.06-.25.13-.33L61.4,260l.1,0a.11.11,0,0,1,.14.07h0l2.55,6.75,2.5,6.61a6.4,6.4,0,0,0,.39.84c.08.13.08.15,0,.26Z"/><path class="cls-7" d="M62.7,270.4l-1.26-3.35c-.07-.17-.07-.17-.25-.15h0a2.73,2.73,0,0,0-1.11.39,2.64,2.64,0,0,0-1.29,1.7,4.23,4.23,0,0,0,.12,2.34,6.49,6.49,0,0,0,.56,1.36,4.61,4.61,0,0,0,.92,1.22,2.55,2.55,0,0,0,1.65.68,2.72,2.72,0,0,0,.94-.14,2.94,2.94,0,0,0,.95-.48c.12-.1.13-.05.06-.23Z"/><g class="cls-8"><polygon class="cls-9" points="62.45 59.32 70.89 88.28 60.88 95.83 48.47 97.04 35.05 70.02 33.21 70.75 45.41 101.99 76.65 89.79 64.45 58.54 62.45 59.32"/><polygon class="cls-9" points="59.59 67.04 42.38 73.75 47.36 83.79 59.27 79.14 60.57 83.74 57.14 86.27 52.92 86.73 51.61 84.1 48.2 85.43 50.74 90.68 58.55 89.87 58.63 89.84 58.62 89.82 64.85 85.17 61.69 74.2 49.16 79.09 47.49 75.69 60.61 70.56 59.59 67.04"/></g><g class="cls-10"><path class="cls-9" d="M190.74,120.83q1.47,2.28,2.72,4.7c.55-1.3,1-2.63,1.46-4A42,42,0,0,0,190.74,120.83Z"/><path class="cls-9" d="M193.46,129.92c-.83,1.61-1.73,3.18-2.71,4.69a42.25,42.25,0,0,0,4.17-.72C194.49,132.55,194,131.22,193.46,129.92Z"/><path class="cls-9" d="M175,125.53c.42-.81.84-1.6,1.3-2.39s.92-1.54,1.41-2.31c-1.4.18-2.79.42-4.16.73C173.94,122.9,174.42,124.23,175,125.53Z"/><path class="cls-9" d="M179.05,136.65h0a47.86,47.86,0,0,1-6.07-.94c-1.28,5-.95,8.78.92,9.86s5.33-.57,9-4.14A49.08,49.08,0,0,1,179.05,136.65Z"/><path class="cls-9" d="M180.09,134.85a54.1,54.1,0,0,0,8.25,0,54.31,54.31,0,0,0,4.12-7.13,54.2,54.2,0,0,0-4.12-7.12,54.1,54.1,0,0,0-8.25,0,54.2,54.2,0,0,0-4.12,7.12A54.31,54.31,0,0,0,180.09,134.85Zm4.13-11.13a4,4,0,1,1-4,4A4,4,0,0,1,184.22,123.72Z"/><path class="cls-9" d="M186.93,118.63c-.85-1.12-1.76-2.2-2.71-3.24-1,1-1.87,2.12-2.72,3.24Q184.22,118.5,186.93,118.63Z"/><path class="cls-9" d="M184.22,136.89c-.9,0-1.81,0-2.72-.07.85,1.12,1.76,2.2,2.71,3.24,1-1,1.87-2.12,2.72-3.24C186,136.86,185.11,136.89,184.22,136.89Z"/><path class="cls-9" d="M177.68,134.61c-.48-.76-1-1.52-1.41-2.3s-.88-1.58-1.3-2.39c-.55,1.3-1,2.63-1.46,4Q175.51,134.34,177.68,134.61Z"/><path class="cls-9" d="M179.05,118.8A47.9,47.9,0,0,1,182.9,114c-2.92-2.85-5.7-4.47-7.68-4.47a2.56,2.56,0,0,0-1.32.33c-1.87,1.07-2.2,4.81-.92,9.86A46.13,46.13,0,0,1,179.05,118.8Z"/><path class="cls-9" d="M171.67,133.44a48.18,48.18,0,0,1,2.22-5.71h0a48.18,48.18,0,0,1-2.22-5.71c-5,1.41-8.1,3.56-8.1,5.71S166.65,132,171.67,133.44Z"/><path class="cls-9" d="M189.38,118.8h0a45.68,45.68,0,0,1,6.07.94c1.28-5,1-8.79-.91-9.86s-5.34.57-9,4.14A47.9,47.9,0,0,1,189.38,118.8Z"/><path class="cls-9" d="M189.38,136.65h0a47.9,47.9,0,0,1-3.85,4.78c2.93,2.85,5.7,4.46,7.68,4.46h0a2.58,2.58,0,0,0,1.32-.32c1.86-1.08,2.19-4.82.91-9.86A47.86,47.86,0,0,1,189.38,136.65Z"/><path class="cls-9" d="M194.54,127.72h0a46.13,46.13,0,0,1,2.22,5.71c5-1.41,8.1-3.57,8.1-5.72s-3.08-4.3-8.1-5.71A45,45,0,0,1,194.54,127.72Z"/></g><path class="cls-7" d="M139.75,4.53,106.93,15.28c-.16.05-.19.1-.14.27q5.38,16.4,10.76,32.81c0,.16.1.19.26.13l16.41-5.38,16.41-5.37c.16-.05.19-.1.13-.27Q145.39,21.08,140,4.66C140,4.5,139.91,4.47,139.75,4.53Zm-8.08,25.82h0c.57,1.73,1.14,3.45,1.7,5.18a5.43,5.43,0,0,1,.28,2,3.83,3.83,0,0,1-1.56,3.07,6.2,6.2,0,0,1-4.27,1.29,4.86,4.86,0,0,1-3.13-1.5c-.09-.09-.1-.14,0-.24L126.51,38c.08-.1.13-.1.21,0a6.32,6.32,0,0,0,.82.65,2,2,0,0,0,2.44-.26,1.43,1.43,0,0,0,.36-1.37,5.34,5.34,0,0,0-.21-.81c-1.12-3.41-2.23-6.82-3.36-10.23-.07-.21,0-.27.18-.34.86-.26,1.71-.55,2.57-.83.29-.1.29-.1.38.18ZM145.6,35.2a5.49,5.49,0,0,1-2.14,1.89,7.68,7.68,0,0,1-4.63.87,5.76,5.76,0,0,1-3.19-1.53c-.12-.11-.14-.17,0-.3.61-.67,1.21-1.34,1.8-2,.09-.1.15-.11.26,0a3.77,3.77,0,0,0,2.17,1,3.53,3.53,0,0,0,2.37-.69,1.51,1.51,0,0,0,.46-2.1,1.45,1.45,0,0,0-.77-.61,7.56,7.56,0,0,0-1.83-.33,21.47,21.47,0,0,1-2.76-.35,4.52,4.52,0,0,1-3-2,4.46,4.46,0,0,1-.62-3.88,4.41,4.41,0,0,1,2.38-2.64,7.68,7.68,0,0,1,.79-.33,5.51,5.51,0,0,1,3.09-.24,5,5,0,0,1,2.15,1.18c.08.06.07.11,0,.18l-1.74,2.15c-.08.09-.12.08-.2,0a5.72,5.72,0,0,0-.49-.37,2,2,0,0,0-2.31,0,1.42,1.42,0,0,0,.12,2.48,4.11,4.11,0,0,0,1.45.35,29.71,29.71,0,0,1,3.13.38,5.2,5.2,0,0,1,2.71,1.29A4.71,4.71,0,0,1,145.6,35.2Z"/><path class="cls-7" d="M32.68,196.73l-7.63,26.86,27,7.68,7.64-26.86Zm7.49,2.68a.63.63,0,0,1,1.19.13l1.34,6.12-10,9.91Zm4.88,5.24a.59.59,0,0,1,.32-.17.62.62,0,0,1,.75.47l.94,4.45L31.58,218Zm-5,22.77a1.9,1.9,0,0,1-1.77-.5l-7.4-7.43,20.41-11.38a.72.72,0,0,1,.38-.07.64.64,0,0,1,.56.69L50.34,225Z"/><g class="cls-8"><path class="cls-11" d="M205,259.33c-.73.84-5,5.66-5,5.66l3.56,1.81s1.25-6.36,1.51-7.45Z"/><path class="cls-11" d="M197.75,242.55l-15.67,30.73,30.73,15.66,15.67-30.72Zm4.1,32,.86-4.76-4.6-2.35L194.85,271l-3.77-1.93,13.13-13.58,4.77,2.43-3.22,18.64Zm9,4.57-3.64-1.85,6-11.68,3.63,1.86-6,11.67Zm4.84-14.05a2.05,2.05,0,1,1,1.89-3.64,2.06,2.06,0,1,1-1.89,3.64Z"/></g><path class="cls-9" d="M103.18,196.63l12-6.2v1.79l-10.15,5.09v.05l10.15,5.09v1.79l-12-6.2Z"/><path class="cls-9" d="M116.91,205.25l7.22-18.82h1.79l-7.27,18.82Z"/><path class="cls-9" d="M139.6,198.06l-12,6.18v-1.79l10.22-5.09v-.05l-10.22-5.09v-1.79l12,6.15Z"/><path class="cls-9" d="M211,153.64c.36-1.43,3.08-3.08,4-3.63s3.64-2.17,5.07-1.82a6.7,6.7,0,0,1,1.63-4.59l-15.5,9.33C206.92,152.71,208.54,152.47,211,153.64Z"/><path class="cls-9" d="M224.43,173.83c-4.32,4-8,1.11-8,1.11a13.11,13.11,0,0,0-3.43-1.62c-2.46,0-.55-.9-.55-.9a3.9,3.9,0,0,1,3.8.17,5,5,0,0,0,6.52-1.46,5.14,5.14,0,0,1-.72-3.25c-4.22,1.93-8.88,1.65-11.59-2.86s-2.34-6-2-7.4a6.47,6.47,0,0,1-2.67-4.46L199.4,157,215.61,184l10.95-6.59C226.36,177,225.24,175.16,224.43,173.83Z"/><path class="cls-9" d="M222.11,143.37a6.54,6.54,0,0,1,2.69,4.45c1.44.35,2.89.71,5.6,5.22s.79,8.75-2.9,11.57a5.66,5.66,0,0,1,2.54,2.16L233.8,173l8.85-5.32-16.21-26.94Z"/><g class="cls-8"><path class="cls-9" d="M197.79,225.5a.61.61,0,0,0-.81-.05,1.23,1.23,0,0,0-.53,1.21c0,.56.52.61,1,.65h0v0h0v0a1.22,1.22,0,0,0,.44-.62C198,226.28,198.21,225.9,197.79,225.5Z"/><path class="cls-9" d="M184.06,222.13c-.34,0-.7,0-.86.33s.05.52.34.6a.61.61,0,0,0,.78-.43C184.42,222.37,184.39,222.17,184.06,222.13Z"/><path class="cls-9" d="M189.3,223.77c-.35.12-.8.23-.65.7s.59.3.94.19C189.73,224.29,190,223.86,189.3,223.77Z"/><path class="cls-9" d="M181.21,220.36a1.52,1.52,0,0,0-.65,1.47c.31.4.67.68,1.17.33a1.14,1.14,0,0,0,.46-1.23C182.09,220.42,181.69,220.29,181.21,220.36Z"/><path class="cls-9" d="M200.64,193.39a1.36,1.36,0,0,1,.4.25c2.26,2.13,4.56,4.19,5.92,7.11,3.18,6.88-.59,17.08-10,18.41a16.06,16.06,0,0,1-11.27-2.24,9.47,9.47,0,0,1-4.36-10.12A15.81,15.81,0,0,1,182,204a21.81,21.81,0,0,1,4.48-8.16,8.11,8.11,0,0,1,9-2.75c.83.25,1.69.41,2.55.59.47.1.9.49,1.41-.2a.91.91,0,0,1,.92-.2l-17.67-5.54L172.28,221l33.2,10.43,10.43-33.21Zm-18.71,29.18a1,1,0,0,1-1.48-.48c-.2,0-.27.35-.51.18s-.06-.3,0-.45c.3-1,.6-1.92.91-2.88,0-.14,0-.36.29-.32s.17.29.14.48c-.05.35-.36.66-.19,1.05h0c.7-.25,1.31-.15,1.55.61A1.47,1.47,0,0,1,181.93,222.57Zm1.89.86c-.59-.17-1.2-.18-1.13-.91s.68-.8,1.3-.69c.2,0,.5.24.58-.13s-.17-.47-.42-.61-.53.14-.77-.21a1.23,1.23,0,0,1,1.35.16.79.79,0,0,1,.24,1c-.09.29-.19.58-.26.87C184.59,223.38,184.51,223.63,183.82,223.43Zm1.5.53c-.2-.07-.17-.25-.12-.42.3-1,.61-2,.92-3,.06-.16.14-.33.34-.29s.19.29.13.47c-.14.48-.3,1-.45,1.43s-.29,1-.45,1.44C185.63,223.8,185.62,224.06,185.32,224Zm2.22.4c-.55.38-1.08.07-1.62-.43a1.89,1.89,0,0,1,.35-.06c.34,0,.7.48,1,.09s-.17-.62-.4-.87-.41-.73,0-1c.53-.45,1-.22,1.49.25-.28.22-.36.1-.46,0-.25-.19-.51-.23-.69,0s0,.41.22.58C187.88,223.37,188.17,223.92,187.54,224.36Zm2.42.89c-.08.23-.25.11-.34-.05a.66.66,0,0,0-.46-.08c-.55,0-1.06-.16-1-.8s.43-.84,1-.81c.28-.1.77.37.83-.14.08-.7-.62-.56-1.06-.75a1.1,1.1,0,0,1,1.18.06.73.73,0,0,1,.33.94C190.28,224.17,190.14,224.72,190,225.25Zm4,1.41c-.46-.59.12-1.07.21-1.59a.81.81,0,0,0-.48-1c-1,.34-.74,1.46-1.31,2.2-.33-.66.09-1.13.19-1.62.14-.64.07-1.06-.74-1-.53.44-.5,1.13-.75,1.7-.06.16-.12.33-.34.24s-.12-.22-.09-.34c.2-.64.36-1.29.6-1.91s.42.09.64.06c.73-.5,1,.49,1.52.5a.3.3,0,0,1,.13,0c.9-.11,1.28.2,1.08,1C194.46,225.55,194.46,226.22,193.94,226.66Zm2.1-3.18a.24.24,0,0,1,.2.29c0,.21-.19.24-.53.22a1.34,1.34,0,0,1,0-.3C195.68,223.46,195.88,223.45,196,223.48Zm-1,3.43c-.51-.16,0-.84.15-1.26s.08-1.23.54-1.08-.16.75-.06,1.17C195.35,226.14,195.46,227.05,195,226.91Zm2.57,1.94h0c-.19,0-.37,0-.3-.27s.4-.68.08-1.06a.92.92,0,0,1-1.32-.52,1.52,1.52,0,0,1,.4-1.75,1,1,0,0,1,1.36-.13c.28.21.59.17.85.33h0A8.68,8.68,0,0,1,197.59,228.85Z"/><path class="cls-9" d="M198.66,225.45h0c-.36,1.13-.71,2.26-1.07,3.4A12.35,12.35,0,0,0,198.66,225.45Z"/><path class="cls-9" d="M195.89,194.7c-3.5-.45-6.59,0-8.88,3.05a19.22,19.22,0,0,0-3.84,8.85c-.35,2.36-.26,4.69,1.44,6.64a13.33,13.33,0,0,0,6.21,3.87c2.83.89,5.05,1,7.18.11a12.74,12.74,0,0,0,8.25-10.43,8.93,8.93,0,0,0-3.09-8.3.68.68,0,0,0-.68-.26,1.61,1.61,0,0,1-1.55-.72A7.85,7.85,0,0,0,195.89,194.7Zm-4.27,6.3a1.24,1.24,0,0,1,.77,1.69c-.2.63-.58.95-1.19.78-.82-.27-1.17-.74-.94-1.54S190.84,200.8,191.62,201Zm8.36,2.81a1.08,1.08,0,0,1,.75,1.41,1.29,1.29,0,0,1-1.61.94c-.77-.28-.76-.88-.6-1.55S199.27,203.69,200,203.81Zm.31,5.94c.17-.12.33-.28.52-.11s0,.37-.06.54a5.5,5.5,0,0,1-5.39,2.78,10.77,10.77,0,0,1-2.45-.5,8.65,8.65,0,0,1-5.29-4.16,4.82,4.82,0,0,1-.39-3.21c0-.25.1-.49.4-.5s.3.23.31.43c.18,2.66,2,4.09,4.09,5.15A7.47,7.47,0,0,0,200.29,209.75Z"/></g><path class="cls-12" d="M46.47,153.1a6.24,6.24,0,0,0-1.46.54l1.25,4.79a6.6,6.6,0,0,0,1.24-.23c1.94-.51,2.88-1.81,2.45-3.47C49.56,153.24,48.31,152.62,46.47,153.1Z"/><path class="cls-12" d="M34,146,42,176.4l30.25-7.89-7.93-30.39Zm19,11.91a7.64,7.64,0,0,1-4.8,3.07,8.8,8.8,0,0,1-1.26.26l1.52,5.8L44.9,168l-4.17-16a31.61,31.61,0,0,1,4.84-1.62c2.26-.59,4-.58,5.27,0a4.89,4.89,0,0,1,2.71,3.3A5.35,5.35,0,0,1,53.06,157.93Zm7.46,6.25a8.55,8.55,0,0,1-4,.17l0-2.79a7.2,7.2,0,0,0,3.36.07c1.1-.28,1.46-.79,1.3-1.39s-.59-.79-2.07-.9c-2.64-.19-3.92-1.26-4.26-2.67-.57-2.19.87-4.32,3.77-5.08a8.18,8.18,0,0,1,3.48-.19l0,2.7a6,6,0,0,0-2.72,0c-.89.24-1.28.73-1.12,1.33s.67.72,2.24.85c2.43.19,3.65,1.08,4.13,2.8C65.18,161.25,63.87,163.31,60.52,164.18Z"/><g class="cls-8"><polygon class="cls-9" points="183.1 79.83 183.1 79.84 179.41 76.99 180.42 73.77 176.68 72.22 174.73 78.42 181.49 83.71 181.49 83.71 190.02 84.77 195.79 73.77 197.71 70.09 199.59 66.51 190.25 62.63 180.91 58.75 179.69 62.37 194.13 68.32 192.28 71.98 178.44 66.42 177.34 70.11 190.44 75.51 187.73 80.44 183.1 79.83"/><polygon class="cls-9" points="207.58 62.56 192.28 91.79 178.82 90.15 168.15 81.76 178.08 50.3 176.02 49.44 161.96 83.28 195.8 97.34 209.86 63.5 207.58 62.56"/></g></g></g></svg>