<svg id="Camada_1" data-name="Camada 1" xmlns="http://www.w3.org/2000/svg" viewBox="0 0 110 110"><defs><style>.cls-1{fill:#506467;fill-rule:evenodd;}</style></defs><title>ICONS-VERDE-R01</title><path class="cls-1" d="M0,.34v110H110V.34ZM104.06,55.56c0,10.63,0,21.27,0,31.9,0,9.92-7,16.94-17,16.94q-32.13,0-64.28,0c-9.79,0-16.87-7.06-16.88-16.83q0-32.26,0-64.53C5.89,13.28,13,6.23,22.77,6.22q32.27,0,64.53,0a16.3,16.3,0,0,1,16.76,16.71C104.09,33.81,104.06,44.69,104.06,55.56Z"/><path class="cls-1" d="M79.92,66.65c-.69-6.23-3.64-10.76-10.38-12.53a10.16,10.16,0,0,1,1-.76A12.09,12.09,0,0,0,77,45.2c2-9.09-3.11-16.44-12.43-17.33-10.2-1-20.44-.2-30.65-.43-1.73,0-1.5,1-1.5,2.11,0,17.74,0,35.49,0,53.24,0,1.55.35,2.11,2,2.09,9.07-.11,18.15,0,27.23-.13a23.15,23.15,0,0,0,10.58-2.7C78,79.05,80.7,73.68,79.92,66.65ZM42.64,37.42c0-1.19.22-1.75,1.59-1.73,5.06.08,10.12-.07,15.17.08,5.64.16,8,2.64,7.88,8-.07,4.74-3.08,7.56-8.24,7.66-2.37.05-4.73,0-7.1,0h0c-2.45,0-4.9-.07-7.34,0-1.4,0-2-.22-2-1.84C42.74,45.58,42.7,41.49,42.64,37.42ZM60.8,76.52c-2.61.07-5.23,0-7.85,0v0c-2.86,0-5.73,0-8.59,0-1.2,0-1.75-.23-1.73-1.6.08-4.91.07-9.82,0-14.72,0-1.18.35-1.54,1.52-1.52,5.65.06,11.3-.1,16.94.08s8.79,3.45,8.72,9S66.61,76.36,60.8,76.52Z"/></svg>