<svg xmlns="http://www.w3.org/2000/svg" viewBox="0 0 350 350"><defs><style>.cls-1{fill:#cfebe8;}.cls-2{fill:#fff;}.cls-3{fill:#f5c24d;}.cls-4{fill:#f79932;}.cls-5{fill:#eeb36c;}.cls-6{fill:#f9b82d;}.cls-7{fill:#4b6064;}.cls-8{fill:#f9b8ab;}.cls-9{fill:#ef6230;}.cls-10{fill:#f4c04a;}.cls-11{fill:#faf9f3;}.cls-12{fill:#f6be3f;}.cls-13{fill:#f6bc40;}.cls-14{fill:#f4be3c;}.cls-15{fill:#f4c04b;}.cls-16{fill:#f4c250;}.cls-17{fill:#f3c14b;}.cls-18{fill:#f5f2cf;}.cls-19{fill:#f5bf48;}.cls-20{fill:#72999b;}.cls-21{fill:#f2665f;}.cls-22{fill:#333;}.cls-23{fill:#f5c455;}.cls-24{fill:#ec3930;}.cls-25{fill:#efddd5;}.cls-26{fill:#d65c57;}.cls-27{fill:#de5c54;}.cls-28{fill:#e94640;}.cls-29{fill:#e5493f;}.cls-30{fill:#ced64b;}.cls-31{fill:#d36461;}.cls-32{fill:#d17270;}.cls-33{fill:#cc6366;}.cls-34{fill:#c26d6b;}.cls-35{fill:#e94440;}.cls-36{fill:#f15e5d;}.cls-37{fill:#f7f5df;}.cls-38{fill:#f2f1b4;}.cls-39{fill:#e35053;}.cls-40{fill:#fbb259;}.cls-41{fill:#fbae56;}.cls-42{fill:#fdbc5f;}.cls-43{fill:#fcb65f;}.cls-44{fill:#ee8530;}.cls-45{fill:#f9b75a;}.cls-46{fill:#ee662d;}.cls-47{fill:#ea6a29;}.cls-48{fill:#c37f2a;}.cls-49{fill:#ec6429;}.cls-50{fill:#d07428;}.cls-51{fill:#e36929;}.cls-52{fill:#e36d2d;}.cls-53{fill:#ee7236;}.cls-54{fill:#b9932e;}.cls-55{fill:#ce7729;}.cls-56{fill:#e58834;}.cls-57{fill:#e28c38;}.cls-58{fill:#d77128;}.cls-59{fill:#ea6c2e;}.cls-60{fill:#b7982f;}.cls-61{fill:#c6ac2e;}.cls-62{fill:#b69c30;}.cls-63{fill:#e09a38;}.cls-64{fill:#e88a35;}.cls-65{fill:#e47d34;}.cls-66{fill:#cda631;}.cls-67{fill:#9a3b23;}.cls-68{fill:#993a22;}.cls-69{fill:#993c22;}.cls-70{fill:#9b3a22;}.cls-71{fill:#983a21;}.cls-72{fill:#9c3a23;}.cls-73{fill:#b8be34;}.cls-74{fill:#b2b735;}.cls-75{fill:#b8bd34;}.cls-76{fill:#b9be33;}.cls-77{fill:#b9bf33;}.cls-78{fill:#a14129;}.cls-79{fill:#a1412b;}.cls-80{fill:#a3412a;}.cls-81{fill:#aad0d2;}.cls-82{fill:#f6bc2f;}.cls-83{fill:#f6c652;}.cls-84{fill:#f3ca65;}.cls-85{fill:#f5eebe;}.cls-86{fill:#fdb83f;}.cls-87{fill:#f0e4ac;}.cls-88{fill:#eee0a0;}.cls-89{fill:#eee3a5;}.cls-90{fill:#f1d070;}.cls-91{fill:#f5c45e;}.cls-92{fill:#f4bc39;}.cls-93{fill:#f5eac6;}.cls-94{fill:#f0eac0;}.cls-95{fill:#f5edc4;}.cls-96{fill:#f3ca63;}.cls-97{fill:#f0d37e;}.cls-98{fill:#ecc467;}.cls-99{fill:#fcd33e;}.cls-100{fill:#fcd23e;}.cls-101{fill:#f9cc40;}.cls-102{fill:#fcd440;}.cls-103{fill:#f8cc3e;}.cls-104{fill:#fdd640;}.cls-105{fill:#f8b545;}.cls-106{fill:#fbca3c;}.cls-107{fill:#fbd13d;}.cls-108{fill:#f3b534;}.cls-109{fill:#f7b44e;}.cls-110{fill:#ffcb3f;}.cls-111{fill:#f5b353;}.cls-112{fill:#fed13d;}.cls-113{fill:#f3bf27;}.cls-114{fill:#fed240;}.cls-115{fill:#f3b656;}.cls-116{fill:#fdcc4b;}.cls-117{fill:#f8b542;}.cls-118{fill:#f3b453;}.cls-119{fill:#f7b743;}.cls-120{fill:#f4b660;}.cls-121{fill:#f7b255;}.cls-122{fill:#f2af5c;}.cls-123{fill:#f3ac61;}.cls-124{fill:#f3b44d;}.cls-125{fill:#fbd55a;}.cls-126{fill:#f3c234;}</style></defs><title>PROJETOS</title><g id="Camada_1" data-name="Camada 1"><rect class="cls-1" x="0.93" y="18.95" width="343.73" height="330.98"/><rect class="cls-2" x="13.79" y="0.08" width="337.42" height="337.42"/></g><g id="Camada_2" data-name="Camada 2"><g id="LOGO_BURGER_QUEEN-04" data-name="LOGO BURGER QUEEN-04"><path id="Trazado_5009" data-name="Trazado 5009" class="cls-3" d="M249.25,81.51c-1.08,2.67-2,7-5.88,6-6.21-1.55,1.16-4.12.77-6.65a4.63,4.63,0,0,1,4.05-5.15,4.22,4.22,0,0,1,.87,0C251,77.65,250.09,79.58,249.25,81.51Z"/><path id="Trazado_5010" data-name="Trazado 5010" class="cls-4" d="M203.68,81.54a23.5,23.5,0,0,0,8.22-.8l5.91.08c-4.43,2.66-9.47,1.23-14.28,1.4-.25-.27-.25-.49.15-.68Z"/><path id="Trazado_5011" data-name="Trazado 5011" class="cls-5" d="M139.3,80.81a8.24,8.24,0,0,1,6.2,1.33A8.12,8.12,0,0,1,139.3,80.81Z"/><path id="Trazado_5012" data-name="Trazado 5012" class="cls-6" d="M203.68,81.54a1.09,1.09,0,0,1-.13.68l-5.75-.11C199.63,81.05,201.72,81.69,203.68,81.54Z"/><path class="cls-7" d="M224,54c-.25-2.14-.58-4.62-3.18-5.46-2.92-.93-5.18,1-7.26,2.56-1.78,1.33-3.62,2.6-5.34,4a4.81,4.81,0,0,1-.48.42,5.29,5.29,0,0,1-7.42-.94c-1.06-1.07-2.58-2.12-2.66-3.74h0a3,3,0,0,0-1.57-1.47c.14-.39,0-.75-.52-1.07-2.41-1.92-2.95-4.93-5.79-6.64h0c-4.81-6.49-9.14-7-15.18-1.55a43.27,43.27,0,0,0-4.92,5.47c-2.31,2.89-4.22,6-6.77,8.77-1.92,2.09-4.56,3.81-7.45.63a9.05,9.05,0,0,0-6.16-4.15c-2.22-.33-3.4-2.33-5.78-2.43l0,0v0h0a7.88,7.88,0,0,0-5.79,0,47.63,47.63,0,0,0-2.31,26.9c.43,2.22.68,4.55,3.9,5.48,2,.49,4.15.84,6.2,1.33a485.33,485.33,0,0,0,52.3,0,44.5,44.5,0,0,1,6.53-.2c2.12-.57,4.68.85,6.65-.35h.62a19.84,19.84,0,0,0,6.18-.69c6.08.27,6-3.28,6.28-6.6A36.4,36.4,0,0,0,224,54Z"/><polygon class="cls-7" points="137.51 48.23 137.7 48.41 137.71 48.41 137.71 48.39 137.51 48.23"/><path id="Trazado_5018" data-name="Trazado 5018" class="cls-8" d="M292.31,238.68l.19,5.44-5.56,16c-1,1.41-.58,3.49-2.92,4.34-.79,1.09-1.57,2.18-2.37,3.26a4.09,4.09,0,0,1-2.13.67c-11.31,1.79-22.28,4.7-33.87,5.45a491.53,491.53,0,0,1-73-.61c-11.23-1-22.57-.84-33.56-3.49A54.27,54.27,0,0,1,109.16,252c-1.34-1.61-3.12-3.42-1.92-5.41s4.15-1.67,6.53-1.73c5.53-.15,11.09.1,16.63-.22,16.17,0,32.35.15,48.5,0,35.44-.45,70.81-1.52,105.8-6.65a9.8,9.8,0,0,1,7.61.72Z"/><path id="Trazado_5019" data-name="Trazado 5019" class="cls-9" d="M129.83,246.19c-6,0-12,.18-17.94,0-4.25-.1-4.52.92-2.38,3.59,9.33,11.69,22.65,18.36,39.57,20.07A650.64,650.64,0,0,0,237,273a165.08,165.08,0,0,0,36.32-5.33c2.37-.62,4.92-2.17,7.21.23.4,2.66-1.61,4-4.16,5.17-5.25,4.36-12,5.72-19.16,6.4A1042.17,1042.17,0,0,1,139,283.69a258.72,258.72,0,0,1-44.89-3.83,26.32,26.32,0,0,1-10.91-4.66c-5.33-2.41-5.22-7-6.57-11l-5.28-20.08a6.26,6.26,0,0,1,4.88-1.27c15.27,1.23,30.59.22,45.86.68C124.9,243.65,128.55,242.85,129.83,246.19Z"/><path id="Trazado_5023" data-name="Trazado 5023" class="cls-10" d="M284.86,273.42c4,.39,4.45,3.27,6.11,5.21,1.41,1.67,2.31,3.51,1.09,5.44a2.65,2.65,0,0,1-3.42.68,20.55,20.55,0,0,1-6.24-9.52C282,274.3,283.64,273.53,284.86,273.42Z"/><path id="Trazado_5024" data-name="Trazado 5024" class="cls-11" d="M76.56,264.36q3.27,5.47,6.57,11c-2.24.89-.27,4.32-4,4.32-1.1-1.89-1.34-4.49-5.11-4.23l-5.82-.18c0-2.83,4.15-3.72,4.45-6.39a3.19,3.19,0,0,1,1.14-1A3.68,3.68,0,0,0,76.56,264.36Z"/><path id="Trazado_5025" data-name="Trazado 5025" class="cls-12" d="M87.17,97.7c0,1-.08,2.07-.13,3.11-3.47,2.16-5.41.87-6.66-1.93s-4.32-5-3.71-8.31c4-2.9,5.86-.6,7.69,2a1.08,1.08,0,0,0,.24.89c.54,1.2,2.23,1.87,2.28,3.29A1.5,1.5,0,0,0,87.17,97.7Z"/><path id="Trazado_5026" data-name="Trazado 5026" class="cls-12" d="M100.5,88c0,1-.1,2.07-.14,3.11-3.47,2.16-5.41.87-6.65-2s-4.31-5-3.71-8.3c4-2.9,5.88-.6,7.69,2a1.14,1.14,0,0,0,.24.89c.56,1.19,2.26,1.87,2.29,3.28a1.52,1.52,0,0,0,.29,1Z"/><path id="Trazado_5027" data-name="Trazado 5027" class="cls-13" d="M74,275.41c2,.29,2.78-2.87,5.1-1.34,2.57,1.74-.46,3.67,0,5.5-2.8,1.58-2.34,6.29-7.81,5.33-1.71-1.33-1.21-2.76-.49-4.25Z"/><path id="Trazado_5028" data-name="Trazado 5028" class="cls-14" d="M256.33,86c-.44-2.47,2.49-3.92,2.84-6.16,1.13-1.2,2.47-.87,3.86-.36,3.76,3-1.65,5-1.33,7.71-1.64,1.4-1.47,5.1-5.87,3a4.31,4.31,0,0,1,.5-4.19Z"/><path id="Trazado_5029" data-name="Trazado 5029" class="cls-15" d="M298.91,272.67c-.48,1.33-1.33,2.93-3,2.23-2.83-1.15-6.45-2.14-7.25-4.91-.44-1.54,2.16-1.34,3.58-1.34a6.22,6.22,0,0,1,6.67,4Z"/><path id="Trazado_5030" data-name="Trazado 5030" class="cls-16" d="M264.59,90.49c1.84.1,3.65-1.61,5.55,0a1.71,1.71,0,0,1,.37,2.39,1.62,1.62,0,0,1-.53.48c-2.22,1.84-4.46,4-8.27,2.46C259.41,92.91,262.3,91.81,264.59,90.49Z"/><path id="Trazado_5031" data-name="Trazado 5031" class="cls-17" d="M71.53,105c-1.61-4,.58-4.92,5-4.15,3.36,1.49,6.32,3.08,2.34,6.33l-2.15.08C75.16,106.37,72.66,106.76,71.53,105Z"/><path id="Trazado_5032" data-name="Trazado 5032" class="cls-11" d="M276.36,273.17l4.16-5.17a3.2,3.2,0,0,0,1.13-.29c.27,3.16.44,6.17-5.29,5.46Z"/><path id="Trazado_5033" data-name="Trazado 5033" class="cls-18" d="M70.84,280.67c.17,1.43.33,2.84.49,4.26a3.07,3.07,0,0,1-2.89-3.15Z"/><path id="Trazado_5034" data-name="Trazado 5034" class="cls-11" d="M284,264.45a7,7,0,0,1,2.92-4.34C286.78,261.91,288.06,264.35,284,264.45Z"/><path id="Trazado_5035" data-name="Trazado 5035" class="cls-19" d="M273.72,100.77l-2.57-1.07,2.5-3.18c0,1.42,0,2.84.07,4.25Z"/><path class="cls-20" d="M302.73,152.72l-11.34-4.56c-6.06.56-11.37-3-17.49-2.1-2-1.46-4.54-.7-6.78-1.19a7.28,7.28,0,0,1-1.45-.79l-5.22-.2c-2.93-1.61-6.27-.72-9.43-1a77.44,77.44,0,0,1-7.77-.17,7.44,7.44,0,0,1-1.6-.79l-7.93-.25a10.57,10.57,0,0,0-5.84-1H132.6c-3.63.28-7.42-.71-10.86.93l-10.58.26h0a7.48,7.48,0,0,1-1.72.86c-3.36.34-6.89-.08-10.1.17s-6.63-.67-9.64,1l-14.56,1.23c-2.18.57-4.77-.67-6.74.94-3.18-.7-5.21,1.8-8.1,2-10.29,1.59-15,4.85-15.62,10.66,2.66,1.48,3.62,4.77,7.78,4.56h0a27.08,27.08,0,0,0,15.4-1.19c3.31-1,6.67-2.23,10.14-.58a30.11,30.11,0,0,0,20,1.08c6.67-1.5,12.48-2,18.38,1a5.11,5.11,0,0,0,5.33,0,37.35,37.35,0,0,0,12.46-4.7c1.42-.8,2.09-1.84,4.4-.8,7.09,3.21,14.57,2.11,21.75-.15a10.23,10.23,0,0,1,7.54-.09,39.32,39.32,0,0,0,26.41.11c2.14-.63,4.33-1.64,6.3-.55,4.65,2.56,9.82,1.56,14.82,2,6.39.55,12-2.48,18.21-2.32a16.31,16.31,0,0,0,4.26,1.91,2.7,2.7,0,0,1,1.16.26c6.6,2.67,13.27,1.26,19.93,0a16,16,0,0,1,6.65.09A25,25,0,0,1,270,162c2.59.69,5.54.08,8,1.33l3.61.27a32.73,32.73,0,0,0,3.79.8A34.88,34.88,0,0,1,295,165.4c9,.43,10.09-.28,10.75-6.22l0,0h.08C306.94,156.32,303.81,154.83,302.73,152.72Z"/><path class="cls-21" d="M291.58,222.3c-38.33,2.14-76.73,3-115.13,3.37-25.8.21-51.55,0-77.3,0h0c-10.49-1.28-21.07-.68-31.6-1.12C58.69,224.3,54.64,229,57.13,236c2.1,5.88,8.24,6.78,14.2,8.12,18,1.78,36.1.86,54.16,1.15a6.72,6.72,0,0,1,4.34.9c21.49,0,43,.12,64.43-.12,13-.11,26.06-.62,39.06-1.34,19.8-1.1,39.46-3.18,59-6,3.46-1.83,8.79-1.84,9.54-6.32l.06,0C304.27,225.33,300.71,221.79,291.58,222.3Z"/><path id="Trazado_5039" data-name="Trazado 5039" class="cls-22" d="M202.31,195.09c1.45.07,2.89.1,4.34.2,3.47.27,5.52,1.45,4.2,4.57a18.52,18.52,0,0,0-.43,8.72c.29,5.33-2.66,8-9.33,8.66-13.43,1.26-19.9-2.31-21.12-13.1-1-9-2.09-18.16,2.32-26.9,3-6,9.33-8.75,16.91-7.75,1.33.19,3.2.08,3.16,1.74s-1.69,2-3.11,1.84c-6.89-.81-8.78,2.89-10.12,7.09a46.31,46.31,0,0,0-1,26.08,9.76,9.76,0,0,0,3,5.1,9,9,0,0,0,7.81,2.22,5.3,5.3,0,0,0,4.17-4.73,57.76,57.76,0,0,0,.75-6.56c.34-2.56-.71-3.81-4.2-3.56-1.82.12-4.77.58-4.77-1.65,0-2.48,3-1.84,5.09-2,.8,0,1.52,0,2.25,0Z"/><path id="Trazado_5040" data-name="Trazado 5040" class="cls-22" d="M137.87,212.77a13,13,0,0,1-13.11,4.69,10.77,10.77,0,0,1-9.48-8.62,33.44,33.44,0,0,1-1.1-8.73c-.22-9.1-.23-18.21-.33-27.3,0-1.6-.4-3.62,2.47-3.64a3.28,3.28,0,0,1,3.45,3.1v.29c.12,5.33.27,10.57,0,15.83-.33,6.94,1.47,13.73,1.85,20.62.14,2.66,2.46,3.68,5.33,4.21a5.13,5.13,0,0,0,6-2.74,37,37,0,0,0,3.89-15.86c.58-7.61.75-15.25,1.1-22.87.08-1.82-.72-4,3.18-4,3.36,0,4,1.76,3.65,3.84-1.83,12.5-.21,25.32-4.61,37.54C139.45,210.4,139.32,211.87,137.87,212.77Z"/><path id="Trazado_5041" data-name="Trazado 5041" class="cls-22" d="M234.52,189c2.77,1.4,1.27,2.39-.68,2.8a23.23,23.23,0,0,1-5.4.12c-1.8,0-2.54.41-2.56,2,0,5.71-.24,11.43-.6,17.13-.17,2.67.84,3.77,4.28,3.42a50.82,50.82,0,0,1,6.53,0c1.34,0,2.67.32,2.67,1.64S237.42,218,236.2,218c-4.7.09-9.45.22-14.13-.1-2.76-.18-2.66-2.31-2.84-4.13a158.22,158.22,0,0,1,0-24.63,58.09,58.09,0,0,0,0-13.18c-.74-5.08,1.34-6.65,7.75-6.24a83.21,83.21,0,0,1,9,1.45c1.22.23,2.67.63,2.43,2s-1.77,1.63-3.24,1.88c-2.94.52-6.59-3-8.61.2-1.33,2.15-.61,5.17-.79,7.81-.1,1.61-.15,3.23-.24,4.84,2.68,1.71,6.08,0,9,1.12Z"/><path id="Trazado_5042" data-name="Trazado 5042" class="cls-22" d="M287.57,194.56a25.42,25.42,0,0,1-7,.09c-1.2-.32-2.66-.56-2.66-1.8s1.42-1.79,2.66-1.88c4.65-.36,9.32-.58,14-.66,1.54,0,3.52.44,3.5,2.1s-1.86,2-3.51,2.12C292.23,194.64,289.92,194.56,287.57,194.56Z"/><path id="Trazado_5043" data-name="Trazado 5043" class="cls-22" d="M63.33,194.07a26.38,26.38,0,0,1,7.21,0c1.06.29,2.19.51,2.29,1.57S72,197.38,71,197.52a89.65,89.65,0,0,1-15.62.64c-1.27-.06-2.51-.61-2.43-1.93s1.23-1.68,2.51-2A26.82,26.82,0,0,1,63.33,194.07Z"/><path id="Trazado_5044" data-name="Trazado 5044" class="cls-22" d="M282.32,203.08A25.62,25.62,0,0,1,292.37,209c.84.84.2,1.64-.66,2.26a2.56,2.56,0,0,1-2.94.16c-2.8-1.8-5.55-3.65-8.29-5.49a1.59,1.59,0,0,1-.64-2C280.16,203,281.05,203,282.32,203.08Z"/><path id="Trazado_5045" data-name="Trazado 5045" class="cls-22" d="M61.75,177c2.76,1.93,6,4.19,9.21,6.53.29.22.15,1.16-.17,1.56a2.2,2.2,0,0,1-2.44.4A29,29,0,0,1,59,180.31a1.59,1.59,0,0,1-.5-2.18c0-.08.11-.15.16-.22C59.22,177.28,60,176.88,61.75,177Z"/><path id="Trazado_5046" data-name="Trazado 5046" class="cls-22" d="M288.85,176.29c.08,1.91-6,7.4-8.12,7.52s-2.9-.92-1.85-2.13a42.64,42.64,0,0,1,6.65-6.37C286.82,174.34,288.58,174.66,288.85,176.29Z"/><path id="Trazado_5047" data-name="Trazado 5047" class="cls-2" d="M53.31,236.85c2.26,2.89,1.76,6.41,5.52,8.29,1.33.65.37,1.51-.75,1.93-1.92.75-5.25-.66-5.62,2.43-.63-.18-1.47-.22-1.82-.56a3.4,3.4,0,0,1-.49-4.51A8.93,8.93,0,0,0,53.31,236.85Z"/><path id="Trazado_5048" data-name="Trazado 5048" class="cls-22" d="M70.24,208.4c-.72,1.89-2.66,3-4.08,4.54a2.76,2.76,0,0,1-3.4.55c-1.58-.85-1.12-2.07-.15-3,1.56-1.57,2.76-3.51,5.59-3.92,1.11.31,1.45,1.13,2,1.87Z"/><path id="Trazado_5049" data-name="Trazado 5049" class="cls-23" d="M73.73,269c1,3.75-4.13,3.92-5.52,6.26-6-2.08-6-2.46.24-6.46A5.56,5.56,0,0,1,73.73,269Z"/><path id="Trazado_5050" data-name="Trazado 5050" class="cls-22" d="M300.16,217.55c1.51-.17,2.77.39,2.67,1.24-.43,3-3.63,4.22-6.42,5.5a1.34,1.34,0,0,1-1.83-.46,1.37,1.37,0,0,1-.15-1,9.49,9.49,0,0,1,5.73-5.29Z"/><path id="Trazado_5052" data-name="Trazado 5052" class="cls-24" d="M263,152.58a13.13,13.13,0,0,0-1.81.58c-1.6.73-3.23,2.66-5.05.76-2.12-2.13,1.49-2.2,2.36-3.28a10.23,10.23,0,0,1,1.86-1.41c1.49-.49,3.2-.77,4.17.37S264.42,151.88,263,152.58Z"/><path id="Trazado_5054" data-name="Trazado 5054" class="cls-22" d="M132.51,194.12c-.12.11-.22.27-.36.32-1.91.8-3.49,4-5.53,2.08-1.47-1.33,1.91-2.89,3.72-4C132.28,192,133.55,192,132.51,194.12Z"/><path id="Trazado_5055" data-name="Trazado 5055" class="cls-25" d="M239.08,159.18c6.66,1.65,13.33.15,19.93,0A22.39,22.39,0,0,1,239.08,159.18Z"/><path id="Trazado_5057" data-name="Trazado 5057" class="cls-26" d="M164.87,153.14c-.37,2-2.67,2-4.37,2.57-1,.33-2.44.09-2.28-1.09.26-1.9,2.53-2.2,4.29-2.75a1.8,1.8,0,0,1,2.3,1.08l.06.19Z"/><path id="Trazado_5058" data-name="Trazado 5058" class="cls-27" d="M257.7,222.67c1.64-.09,2.93.42,2.41,1.34a5.91,5.91,0,0,1-4.34,3c-.68.12-1.9-.29-1.62-1.25A4,4,0,0,1,257.7,222.67Z"/><path id="Trazado_5059" data-name="Trazado 5059" class="cls-22" d="M58.16,167.88c1.86-.31,2.47.42,2.38,1.33-.2,1.88-2.36,2.33-4,3-1.21.46-2.18-.22-1.95-1.33C54.94,169.16,56.88,168.56,58.16,167.88Z"/><path id="Trazado_5061" data-name="Trazado 5061" class="cls-28" d="M222.93,161c-2.67,1.54-5.15,3.21-8.81,2.07a4.67,4.67,0,0,1,4.79-3C220.45,159.86,222.33,158.55,222.93,161Z"/><path id="Trazado_5063" data-name="Trazado 5063" class="cls-29" d="M99.12,222.91c-2.29,1.87-3.43,4.88-8.28,3.59C93.67,225,94.44,221.56,99.12,222.91Z"/><path id="Trazado_5064" data-name="Trazado 5064" class="cls-22" d="M70.24,208.4a1.77,1.77,0,0,1-2-1.5,2.23,2.23,0,0,1,0-.37c1-.73,1.45-2.66,3.4-1.09s-1.16,1.89-1.37,3Z"/><path id="Trazado_5069" data-name="Trazado 5069" class="cls-30" d="M285.56,150.54a12.73,12.73,0,0,1,9.45,1.91l-5.21.07C288.76,151.34,285.57,153.18,285.56,150.54Z"/><path id="Trazado_5070" data-name="Trazado 5070" class="cls-2" d="M59.55,262.41c-.47,2.14-1.8,3-4,3.64C55.87,264.23,56.25,262.76,59.55,262.41Z"/><path id="Trazado_5071" data-name="Trazado 5071" class="cls-31" d="M97.33,162.59c-1,1.76-2,3-4.29,2.94a1,1,0,0,1-.52-.83C92.94,162.82,94.32,162.09,97.33,162.59Z"/><path id="Trazado_5072" data-name="Trazado 5072" class="cls-32" d="M116.45,166.56c1.13-1.33,2.46-3.12,4.52-1.53,1.33,1.05-.51,2.11-1.78,2.82C118.1,167.68,117,167.5,116.45,166.56Z"/><path id="Trazado_5073" data-name="Trazado 5073" class="cls-22" d="M234.52,189c-3-.37-6.4,1.34-9-1.13C228.42,188.68,231.76,187.31,234.52,189Z"/><path id="Trazado_5074" data-name="Trazado 5074" class="cls-22" d="M291,170.55c-1,0-1.77-.4-1.81-1.18a1.82,1.82,0,0,1,1.92-1.72h0c.82,0,1.89,0,1.8,1A2.09,2.09,0,0,1,291,170.55Z"/><path id="Trazado_5076" data-name="Trazado 5076" class="cls-33" d="M52.49,224.32a2.31,2.31,0,0,1-2,2.35c-.78.17-2,0-1.6-1a4,4,0,0,1,2-1.91C51.66,223.39,52.49,223.88,52.49,224.32Z"/><path id="Trazado_5077" data-name="Trazado 5077" class="cls-34" d="M219.27,224.9c-1.23,1.26-2.58,1.42-3.5-.12s0-2.67,2-3.2c1.34.85,1.19,2.14,1.48,3.32Z"/><path id="Trazado_5078" data-name="Trazado 5078" class="cls-35" d="M219.27,224.9c-1.82-.72-1.47-2.07-1.49-3.32.24-.53.55-1,1.34-.64l1.53,2c.22,1-.15,1.67-1.38,1.94Z"/><path id="Trazado_5080" data-name="Trazado 5080" class="cls-36" d="M116.46,166.56a2.69,2.69,0,0,1,2.75,1.33c-1,1-2.35,1.74-3.71.7C114.5,167.79,115.49,167,116.46,166.56Z"/><path id="Trazado_5081" data-name="Trazado 5081" class="cls-37" d="M73.73,269l-5.33-.2c1.61-1,3-2.79,5.33-1A7.62,7.62,0,0,1,73.73,269Z"/><path id="Trazado_5082" data-name="Trazado 5082" class="cls-38" d="M233.66,157a4.62,4.62,0,0,1,4.26,1.91C235.9,159.15,234,159.16,233.66,157Z"/><path id="Trazado_5084" data-name="Trazado 5084" class="cls-22" d="M132.51,194.13c0-1.16-1-1.48-2.17-1.59.89-.65,1.91-1.57,3-.49C134.05,192.73,133.59,193.63,132.51,194.13Z"/><path id="Trazado_5087" data-name="Trazado 5087" class="cls-39" d="M222.93,155.68c-1.07-1.1-2.67-.73-4-.9a4.27,4.27,0,0,1,4.66-.91C224.84,154.48,224.15,155.23,222.93,155.68Z"/><path id="Trazado_5088" data-name="Trazado 5088" class="cls-25" d="M269.92,161l-1.64.28h-2.66l-.08-1.93A4.9,4.9,0,0,1,269.92,161Z"/><path id="Trazado_5098" data-name="Trazado 5098" class="cls-40" d="M139.31,98.74c-1.2,0-2.52-.14-2.35-1.33s1.55-1.71,2.95-1.71c1.05,0,2.52-.14,2.57,1.06C142.56,98.37,140.87,98.58,139.31,98.74Z"/><path id="Trazado_5099" data-name="Trazado 5099" class="cls-41" d="M193,91.37c1.11,0,2.23.29,2.51,1.23s-.66,1.52-1.8,1.56a2,2,0,0,1-2.24-1.49C191.28,91.92,192.1,91.48,193,91.37Z"/><path id="Trazado_5100" data-name="Trazado 5100" class="cls-42" d="M222.74,97.16c-2.61.6-3.92.2-4.53-1.21-.26-.62.34-1.08,1.08-1a3.41,3.41,0,0,1,3.45,2.25Z"/><path id="Trazado_5101" data-name="Trazado 5101" class="cls-43" d="M164.35,91.29c.85,0,1.88.11,1.9.94,0,1.33-1.33,1.15-2.29,1.1-.78,0-1.84-.2-1.6-1.16S163.48,91.29,164.35,91.29Z"/><path id="Trazado_5102" data-name="Trazado 5102" class="cls-44" d="M247,103.09a4.51,4.51,0,0,1,4.09,2.11c-1.83-.16-3.79.55-5.44-.53C245.64,104.65,246.57,103.7,247,103.09Z"/><path id="Trazado_5103" data-name="Trazado 5103" class="cls-45" d="M155,105.21c-1.2-.21-2.33-.29-1.88-1.23.21-.44,1.33-.76,2-.82s2-.12,1.5,1C156.37,104.65,155.42,105,155,105.21Z"/><path id="Trazado_5105" data-name="Trazado 5105" class="cls-44" d="M243,101l4,2.12C245.72,102.37,241.73,104.93,243,101Z"/><path id="Trazado_5106" data-name="Trazado 5106" class="cls-46" d="M149.54,260.88c13.13,3.73,27,4.21,40.68,5.73C175.29,271.21,162.31,266.52,149.54,260.88Z"/><path id="Trazado_5107" data-name="Trazado 5107" class="cls-47" d="M199.66,269a15.59,15.59,0,0,1,13.55.83A42.56,42.56,0,0,1,199.66,269Z"/><path id="Trazado_5108" data-name="Trazado 5108" class="cls-48" d="M148.44,139.69h69.32c.48.68.28,1.17-.62,1.48-1.2.09-2.41,0-3.62,0-21.33,0-42.53.08-63.82,0C148.7,141,148.3,140.49,148.44,139.69Z"/><path id="Trazado_5109" data-name="Trazado 5109" class="cls-49" d="M217.73,136.46h21.32c-4.92,2.24-10.25.79-15.38,1a78.48,78.48,0,0,1-17.72-1Z"/><path id="Trazado_5111" data-name="Trazado 5111" class="cls-50" d="M148.44,139.69v1l-.82.48c-4.35.15-8.71,0-13.07,0a7.25,7.25,0,0,1-2-.2c-.38-.29-.51-.58-.42-.9s.2-.47.32-.47Z"/><path id="Trazado_5112" data-name="Trazado 5112" class="cls-51" d="M132.45,139.69v1a22.34,22.34,0,0,1-10.66,0,2,2,0,0,1-.63-.1,3.7,3.7,0,0,1-.62-.63Z"/><path id="Trazado_5113" data-name="Trazado 5113" class="cls-52" d="M75.17,145.11c-2,1.71-4.45.84-6.74.95C70,142.35,72.66,144.48,75.17,145.11Z"/><path id="Trazado_5114" data-name="Trazado 5114" class="cls-53" d="M121.77,140.77h10.66c.43.24.56.47.4.66a.65.65,0,0,1-.46.31H121.7C121.74,141.42,121.76,141.09,121.77,140.77Z"/><path id="Trazado_5115" data-name="Trazado 5115" class="cls-50" d="M89.82,142.93c3.29-2.16,7.11-.67,10.66-1a1.15,1.15,0,0,1-.87,1.45A31.85,31.85,0,0,1,89.82,142.93Z"/><path id="Trazado_5116" data-name="Trazado 5116" class="cls-54" d="M100.4,142.9a8.42,8.42,0,0,1,.09-1h10.66a3.51,3.51,0,0,1-.08,1,34.22,34.22,0,0,1-9.74.46Z"/><path id="Trazado_5117" data-name="Trazado 5117" class="cls-55" d="M249.66,141.89c3.55.36,7.37-1.09,10.66,1a32,32,0,0,1-9.81.4c-.75-.3-1-.78-.85-1.44Z"/><path id="Trazado_5118" data-name="Trazado 5118" class="cls-56" d="M89.82,142.93H100.4c.43.25.55.49.39.7a.61.61,0,0,1-.48.31H89.64A4.37,4.37,0,0,0,89.82,142.93Z"/><path id="Trazado_5119" data-name="Trazado 5119" class="cls-57" d="M249.76,142.9h10.57a4.35,4.35,0,0,0,.11,1H249.78l-.53-.52Z"/><path id="Trazado_5120" data-name="Trazado 5120" class="cls-58" d="M217.72,140.74v-1h10.66c.48.64.3,1.13-.51,1.49A34.91,34.91,0,0,1,217.72,140.74Z"/><path id="Trazado_5121" data-name="Trazado 5121" class="cls-59" d="M228.36,140.77V139.7c2.07.2,4.8-.76,5.34,2h-5.34c-.49-.22-.65-.43-.5-.64A.68.68,0,0,1,228.36,140.77Z"/><path class="cls-8" d="M284.17,124.57l-.13.05.22-.2a32.86,32.86,0,0,0-10.13-13c-.19-.12-.39-.22-.59-.33a42.25,42.25,0,0,0-18.17-12.24,2.29,2.29,0,0,0-.2-.31c-11.67-6.25-25-8.63-38.53-10.66-15.57-2.34-31.31-1.76-47-2a1.32,1.32,0,0,0-1.33-.44,8,8,0,0,0-2.51,1.33c-4.17.47-8.36.79-12.49,1.34-17,2.34-34,4.62-49.18,11.67l-4.7,1.4a17.64,17.64,0,0,0-8.1,3.32,119.39,119.39,0,0,0-13.14,10.14c-5.6,5-10.4,10-12.34,16.56-1.58,5.67-5.5,10.86-5.5,16.87,3.12,2,5.17-.78,7.84-1.1,2.42-1.94,5.18-1.06,7.85-.6a44.85,44.85,0,0,0,13.2-1.43,9.26,9.26,0,0,0,1.84-.76c3.24-1.47,6.74-.61,10.13-.81,3.29,0,6.61,0,9.89,0a31.37,31.37,0,0,0,9.94-.78,1.59,1.59,0,0,0,1.12-1.33c.68,0-3-1.85.51-.69a42.33,42.33,0,0,0,11,.68h93.66a12.46,12.46,0,0,1,7,1.47,25.06,25.06,0,0,0,7.52.66h7.46c3.26.16,6.63-.63,9.78.7a10,10,0,0,0,1.74.76,17.53,17.53,0,0,0,4.89.6A13.47,13.47,0,0,1,273,146.5a8.66,8.66,0,0,0,1.84.68c2.68.56,5.39.67,8.16,1.33s5.72,1.87,8.39-.39A50.65,50.65,0,0,0,284.17,124.57ZM208.41,137c-.28,0-.49.51-.52.24s0-.34-.58-.37c2.36.06,4.36.12,6.21.11C211.82,137,210.12,137.05,208.41,137Zm40.41-32.78a1.15,1.15,0,0,1-1.15-.58A6.19,6.19,0,0,0,248.82,104.2Zm-31.2,32.43h1.62l-1.79.12Z"/><path id="Trazado_5123" data-name="Trazado 5123" class="cls-60" d="M249.66,141.89a3.81,3.81,0,0,0,.1,1,13.63,13.63,0,0,1-8,0,6.22,6.22,0,0,0-.08-1Z"/><path id="Trazado_5124" data-name="Trazado 5124" class="cls-61" d="M273.92,146.06c-2.76-.17-5.75.95-8.18-1a13.11,13.11,0,0,1,7.89,0,8.07,8.07,0,0,0,.29,1Z"/><path id="Trazado_5125" data-name="Trazado 5125" class="cls-62" d="M273.61,145h-7.89v-1C268.35,144.28,271.26,143.19,273.61,145Z"/><path id="Trazado_5126" data-name="Trazado 5126" class="cls-63" d="M148.41,140.74h66.64c.44.2.6.4.48.63s-.27.33-.42.33H148.48c-.43-.22-.56-.45-.42-.66a.56.56,0,0,1,.46-.31Z"/><path id="Trazado_5127" data-name="Trazado 5127" class="cls-64" d="M148.44,140.81v1h-16v-1Z"/><path id="Trazado_5128" data-name="Trazado 5128" class="cls-65" d="M215.09,141.76a4.35,4.35,0,0,0-.07-1h13.33v1Z"/><path id="Trazado_5129" data-name="Trazado 5129" class="cls-66" d="M100.37,143.94c0-.33.07-.67.1-1h10.66C107.77,145,103.93,143.58,100.37,143.94Z"/><path id="Trazado_5130" data-name="Trazado 5130" class="cls-66" d="M241.73,142.93h8v1C247.09,143.69,244.12,144.83,241.73,142.93Z"/><path id="Trazado_5131" data-name="Trazado 5131" class="cls-67" d="M197.18,238.71H184.65c-1.16,0-2.36-.29-2.23-1.42a2.25,2.25,0,0,1,2.32-1.61c3.8,0,7.88-1.11,12.44,3Z"/><path id="Trazado_5132" data-name="Trazado 5132" class="cls-68" d="M248,232.2c2.52.33,5.84-.7,6.25,2,.26,1.76-3,2-4.09,1.63-2.27-.69-6.29,1-6.65-2-.29-2.26,3.08-1.1,4.49-1.62Z"/><path id="Trazado_5133" data-name="Trazado 5133" class="cls-69" d="M284.13,227.48c-.72,2-2.89,2.4-5.09,2.57-1.49.11-3.76.23-3.59-1.42.29-2.52,3.59-2.11,5.69-2.67a2.19,2.19,0,0,1,2.87,1.16A2.53,2.53,0,0,1,284.13,227.48Z"/><path id="Trazado_5134" data-name="Trazado 5134" class="cls-70" d="M224.33,230c1.86.43,4.52-.6,4.59,1.33s-2.55,1.94-4.48,1.95-4.69.12-4.58-1.85C220,229.08,223.11,230.8,224.33,230Z"/><path id="Trazado_5135" data-name="Trazado 5135" class="cls-71" d="M132.51,235.56a17.59,17.59,0,0,1-11,.18A13.65,13.65,0,0,1,132.51,235.56Z"/><path id="Trazado_5136" data-name="Trazado 5136" class="cls-72" d="M160.83,233.07a10.61,10.61,0,0,1-8.86.53C154.77,231.66,157.83,232.51,160.83,233.07Z"/><path id="Trazado_5137" data-name="Trazado 5137" class="cls-73" d="M284.76,155c-1.8-1.07-5.77,1.1-6.25-1.79-.29-1.73,2.81-1.85,4.74-1.62s4.73.45,4.73,2.74C288,156,286.21,155.36,284.76,155Z"/><path id="Trazado_5140" data-name="Trazado 5140" class="cls-74" d="M58.36,159.13l5.78-4.38C63.87,157.6,61.51,158.7,58.36,159.13Z"/><path id="Trazado_5141" data-name="Trazado 5141" class="cls-75" d="M229.27,148.83a3.91,3.91,0,0,1,5.09.95c.22.26-.24,1.33-.37,1.33A5,5,0,0,1,229.27,148.83Z"/><path id="Trazado_5142" data-name="Trazado 5142" class="cls-76" d="M297.19,156.62a.89.89,0,0,1-.76,1,.85.85,0,0,1-.39,0c-1.34-.19-2.76-.47-3-1.7-.2-1,1-1,1.85-.94A2.49,2.49,0,0,1,297.19,156.62Z"/><path id="Trazado_5143" data-name="Trazado 5143" class="cls-77" d="M70.73,156c-.72-.45-1.51-.7-1.58-1.05-.24-1,.85-1.1,1.69-1.13s2-.23,1.73.85C72.45,155.14,71.44,155.48,70.73,156Z"/><path id="Trazado_5145" data-name="Trazado 5145" class="cls-78" d="M82.61,231.79a8.17,8.17,0,0,1-8.93.61c-.26-.12-.27-1.16,0-1.33C76.73,229,79.33,230.88,82.61,231.79Z"/><path id="Trazado_5146" data-name="Trazado 5146" class="cls-79" d="M101.2,238.32c0,1.15-1,1.41-2.2,1.44-1.76,0-3.76.15-4.46-1.49s1.06-1.58,2.31-1.65C98.67,236.53,100.37,236.72,101.2,238.32Z"/><path id="Trazado_5147" data-name="Trazado 5147" class="cls-80" d="M74.62,236.57c-1.44,2.29-2.86,2.31-4.34,1.65-.38-.16-.45-.81-.66-1.24Z"/><path id="Trazado_5148" data-name="Trazado 5148" class="cls-22" d="M104.31,187.9c5.68-8.87.62-17.81-10.76-20-5.17-1-7.1.29-6.89,4.56.09,2.05.18,4.1.17,6.15a316.86,316.86,0,0,1-1.77,33.32c-.46,4.36,1.16,5.54,6.65,5.11,9.75-.76,15.13-5.92,15-14.86A9.49,9.49,0,0,0,104.8,195a4.85,4.85,0,0,1-.79-6.81C104.11,188.12,104.2,188,104.31,187.9Zm-11.25-1.56c-.15-1.74,0-3.51,0-6,.11-1.77.22-4.25.45-6.65.08-.86.31-1.85,1.61-2A2.35,2.35,0,0,1,97.51,173a14.94,14.94,0,0,1,.12,14,3.31,3.31,0,0,1-3.2,2C92.24,188.91,93.14,187.29,93.06,186.34ZM96.43,212A4.27,4.27,0,0,1,93,213c-1.58-.45-.8-1.76-.86-2.66-.13-1.91,0-3.82,0-5.72h.12c.17-2.79.32-5.57.56-8.35.2-2.34,1.57-2.32,3.51-1.06,4.85,3.15,4.94,13.69.09,16.72Z"/><path id="Trazado_5149" data-name="Trazado 5149" class="cls-22" d="M267.92,214.59a56.66,56.66,0,0,1-7.83-16.28,11.39,11.39,0,0,1,2-12c5.25-7.45,3.49-16.3-10.32-16.91-5.51-.26-6.77.45-6.59,5.13.5,13,1.17,26.06,1.82,39.08.07,1.52-.92,3.42,1.56,4.25a4.71,4.71,0,0,0,3.1-.13c2.17-1.14,1.1-2.9.7-4.4a67.51,67.51,0,0,1-1-19.45l1.59-.17c1.69,4.88,3.34,9.77,5.08,14.66A22.73,22.73,0,0,0,263,217.1a3.9,3.9,0,0,0,5.14,1.05c1.8-1.16.69-2.42-.2-3.56Zm-16.47-25.12V175.14c0-1-.81-2.66,1.34-2.89a4.33,4.33,0,0,1,4.54,2.48C259.58,178.75,257.24,185.63,251.45,189.47Z"/><path id="Trazado_5150" data-name="Trazado 5150" class="cls-22" d="M174.81,214.18a58.21,58.21,0,0,1-7.9-16.26c-1.76-4.45-.8-7.81,1.89-12.18,5.33-8.52,3.07-15.7-9.13-16.92-6.53-.64-7.57.15-7.58,5.56,0,13.33,2.1,26.66,1.46,40-.09,2,.68,3.18,3.35,3,3.22-.2,3.09-1.83,2.5-3.76a47.29,47.29,0,0,1-.81-20.6c3.23,4,4,8.6,5.6,13A26.48,26.48,0,0,0,170,216.77a3.84,3.84,0,0,0,4.79.95C176.62,216.67,175.7,215.29,174.81,214.18Zm-16.62-25v-14.1c0-1.34-1-3.32,1.76-3.45a4.33,4.33,0,0,1,4.25,2.89C166.14,178.71,164,184.92,158.19,189.19Z"/><path class="cls-81" d="M340.11,266.27l.08-.16c-6.56-1.12-12.18-4.81-18.34-7-4.07-1.47-5.39-4.69-5.23-9,.22-5.89.06-11.79-.13-17.69-.05-1.92.85-4.6-1.24-5.57-1.85-.87-3.46,1.13-5.1,2.23a121.34,121.34,0,0,1-46.92,18c-2.55,1.8-5.49.75-8.22,1.14a5.25,5.25,0,0,0-2.66,1.05l-5.11.46c-4.93,1-10,1.14-14.87,2.31a507.27,507.27,0,0,1-103.81,0c-2-.62-4.12-.55-6.15-1.08-3.31-.31-6.81.63-10-1.21l-3.92-.45c-2.77-.77-5.54-1.48-8.3-2.24l-5-.43c-2.67-1-5.51-1.33-8.17-2.44a141.64,141.64,0,0,1-47.33-19.07c-2.41,1.93-1,4.33-.72,6.58l.4,1.36c1.52,3,.77,6.32,1.25,9.47a7.19,7.19,0,0,0,.6,1.8c1.95,3.93,3.13,7.85.47,11.93-6,3.67-12.08,7.14-17.8,11.14-2.61,1.84-5.81,5,.4,6.86A5.24,5.24,0,0,1,28.43,277a18.61,18.61,0,0,0,9,5.54h0A9.19,9.19,0,0,1,41.84,285a147.69,147.69,0,0,0,37.23,13.82c2.66,1.08,5.49,1.31,8.16,2.49,4.93.64,9.44,3.27,14.54,3.13,3.18,1.39,7,1,9.83,3.59a99.81,99.81,0,0,1,16,1.48l12.89.4A31.24,31.24,0,0,0,147,311c17,1.18,34.06.7,51.08.52a60,60,0,0,0,17.1-1.63l5.33-.48c4.84-1.77,10-1.43,14.94-2.35l6.37-.38a55.39,55.39,0,0,1,9.61-2.32c13.88-1.22,27.06-5.57,40.19-9.89,7.6-2.51,15.61-4.34,22.26-9.25,1.37-2.28,3.65-1.34,5.57-1.68a4.7,4.7,0,0,0,2.4-1.16l-.15-.36a3.57,3.57,0,0,0-.2-5.57c-2.35-1.29-4.43,1.46-6.79.56.22-1.63,1.73-1.83,2.66-2.67,5.32-2.08,4.8,3.76,7.24,5.63a1.54,1.54,0,0,0,1.12-.35c1.26-1.2,3-1.57,4.31-2.66,4.23-.38,6.6-4.24,10.24-5.71a3.41,3.41,0,0,0,.61-.65A3.11,3.11,0,0,0,340.11,266.27Z"/><path id="Trazado_5152" data-name="Trazado 5152" class="cls-82" d="M321.64,282c-.07-1.84.66-3.88-1.34-5.24a37.49,37.49,0,0,1-4-4.08c5.43-1.78,7.29-.14,8.18,7.24C324.3,281.67,323.14,282.1,321.64,282Z"/><path id="Trazado_5153" data-name="Trazado 5153" class="cls-83" d="M220.43,309.41c4.49-4.06,9.84-2.28,14.94-2.35A32,32,0,0,1,220.43,309.41Z"/><path id="Trazado_5154" data-name="Trazado 5154" class="cls-84" d="M241.75,306.68a10,10,0,0,1,9.61-2.31A14.05,14.05,0,0,1,241.75,306.68Z"/><path id="Trazado_5155" data-name="Trazado 5155" class="cls-82" d="M313.81,285.21c.24-4,3.18-2.66,5.33-2.89.54,1.62-.6,2-1.7,2.44Z"/><path id="Trazado_5156" data-name="Trazado 5156" class="cls-82" d="M325.7,279.63A3.85,3.85,0,0,1,330,277C329.39,279.21,327.63,279.54,325.7,279.63Z"/><path id="Trazado_5157" data-name="Trazado 5157" class="cls-85" d="M317.45,284.77l1.71-2.44h2.66C321.36,285.13,319.52,285.16,317.45,284.77Z"/><path id="Trazado_5158" data-name="Trazado 5158" class="cls-86" d="M41.9,252.17V244c3.79,3.67,3.7,8.1-.24,12.25Z"/><path id="Trazado_5159" data-name="Trazado 5159" class="cls-87" d="M247.26,249.65A25.59,25.59,0,0,1,232.39,252C237,249,242.09,249.15,247.26,249.65Z"/><path id="Trazado_5160" data-name="Trazado 5160" class="cls-88" d="M111.32,306.64l-2.84.42c-2.44-.37-5.19,0-6.76-2.66A11.06,11.06,0,0,1,111.32,306.64Z"/><path id="Trazado_5161" data-name="Trazado 5161" class="cls-89" d="M128.55,251.94l-6.65.07c-1.45-1.7-4.8,1.22-5.41-2.4A17.93,17.93,0,0,1,128.55,251.94Z"/><path id="Trazado_5162" data-name="Trazado 5162" class="cls-90" d="M116.45,249.61l5.41,2.4c-3.3-.11-7,1.33-9.42-2.36Z"/><path id="Trazado_5163" data-name="Trazado 5163" class="cls-91" d="M41.68,242.82c-.8-1.44-1.6-2.89-2.39-4.37V233A10.85,10.85,0,0,1,41.68,242.82Z"/><path id="Trazado_5164" data-name="Trazado 5164" class="cls-92" d="M24.27,274.21c1-.72,2.39-2.27,3-2,2.09.87.85,3.11,1.12,4.76-2,.11-3.13-1.34-4.16-2.76Z"/><path id="Trazado_5165" data-name="Trazado 5165" class="cls-93" d="M95.16,246.53A9.35,9.35,0,0,1,87,244.09,8.64,8.64,0,0,1,95.16,246.53Z"/><path id="Trazado_5166" data-name="Trazado 5166" class="cls-94" d="M108.52,249.19a9.42,9.42,0,0,1-8.3-2.24A8.56,8.56,0,0,1,108.52,249.19Z"/><path id="Trazado_5167" data-name="Trazado 5167" class="cls-95" d="M255,249.33l-2.67-.14c1.71-4.39,5.34-1.78,8.13-2.38-.55,3.73-4.06.72-5.46,2.52Z"/><path id="Trazado_5168" data-name="Trazado 5168" class="cls-96" d="M79,298.79a8.61,8.61,0,0,1,8.15,2.49A9.48,9.48,0,0,1,79,298.79Z"/><path id="Trazado_5169" data-name="Trazado 5169" class="cls-97" d="M255,249.33l5.45-2.52,2.73.2C261.39,251.18,257.82,248.81,255,249.33Z"/><path id="Trazado_5170" data-name="Trazado 5170" class="cls-98" d="M37.48,282.52c2.1-.39,4-.43,4.35,2.46C39.79,285.29,38.6,284,37.48,282.52Z"/><path id="Trazado_5172" data-name="Trazado 5172" class="cls-99" d="M236.25,263l-1.44,1.46c-2.67-1.08-5.25,0-7.87.15-1.33.87-2.31.61-2.81-1,3.31-4.34,7.65-4.48,12.34-3.2a2.1,2.1,0,0,1,.7,1.33,1.65,1.65,0,0,1-.92,1.27Z"/><path id="Trazado_5173" data-name="Trazado 5173" class="cls-99" d="M316.4,272.7c3-.32,4.3,1,4,4.08a3.56,3.56,0,0,0-.58.31c-2.47,2-6,4.3-7.91,1.33-2.38-3.64,3.51-3.21,4.49-5.72Z"/><path id="Trazado_5174" data-name="Trazado 5174" class="cls-100" d="M89.83,289c-.09.49-.2,1-.29,1.46a13.09,13.09,0,0,1-2,0c-2.67-.41-5.92,1.34-7.69-2.16-.16-.3.54-1.54.79-1.53C83.82,287,87.75,284.12,89.83,289Z"/><path id="Trazado_5175" data-name="Trazado 5175" class="cls-101" d="M173.75,267.28a12.66,12.66,0,0,0-6.66-1.73c.53-2.78,2.75-3.38,4.92-3.68,2-.29,4.4-.47,5.05,2S175,266.31,173.75,267.28Z"/><path id="Trazado_5176" data-name="Trazado 5176" class="cls-102" d="M277.46,253.8c-1.23.87-1.85,1.6-2.6,1.79-2.66.64-5.1,3-8,1.33a1.33,1.33,0,0,1-.27-1.86,1.27,1.27,0,0,1,.38-.35c3.11-1.57,6.26-3.82,10.49-.91Z"/><path id="Trazado_5177" data-name="Trazado 5177" class="cls-103" d="M192.32,302.69l1.47-2.66a5.2,5.2,0,0,1,6.66.24c.73.64,1.09,1.57.16,2.19-2.66,1.76-5.46,2.89-8.29.23Z"/><path id="Trazado_5179" data-name="Trazado 5179" class="cls-104" d="M299.47,249.15c2.11-3.38,4.34-5.14,7.7-4.73a1.47,1.47,0,0,1,1,1.82,1.39,1.39,0,0,1-.16.35c-1.91,3.17-4.77,3-8.54,2.56Z"/><path id="Trazado_5180" data-name="Trazado 5180" class="cls-105" d="M124.9,263.08c.74-.16,1.9-3.3,2.13-.09a125.29,125.29,0,0,1-.29,17.65c-2-5.26.35-11-1.81-16.16-.48-.3-.64-.61-.5-.93S124.74,263.08,124.9,263.08Z"/><path id="Trazado_5183" data-name="Trazado 5183" class="cls-106" d="M120.49,260.38a4.94,4.94,0,0,0,0,1.33c-.34.12-.67.22-1,.31a14.52,14.52,0,0,1-8.23-3.22C115.19,256.43,117.69,259.42,120.49,260.38Z"/><path id="Trazado_5184" data-name="Trazado 5184" class="cls-107" d="M44.17,276.62c-2.37-.24-5.23,1.34-6.81-1.76-.13-.26.58-1.42,1-1.47A4.9,4.9,0,0,1,44.17,276.62Z"/><path id="Trazado_5185" data-name="Trazado 5185" class="cls-108" d="M210.86,270.39l-2.49-3.14c3-1.92,6.27-1.33,9.49-1.33a1.72,1.72,0,0,1-.21,2.39,8.2,8.2,0,0,1-1.07.32h-4.21C211.85,269.17,211.72,270.1,210.86,270.39Z"/><path id="Trazado_5186" data-name="Trazado 5186" class="cls-109" d="M244.42,297a21.94,21.94,0,0,1-2.23-10.57l2.22-1.33C244.41,289,244.42,293,244.42,297Z"/><path id="Trazado_5188" data-name="Trazado 5188" class="cls-110" d="M102.05,270a7.73,7.73,0,0,1,.91,5.09l-4.65.22c-1.43-.63-1.16-1.61-.55-2.67Z"/><path id="Trazado_5190" data-name="Trazado 5190" class="cls-111" d="M215.18,279.18c1.86,4,1,8.24,1.34,12.37C213.45,287.72,215.84,283.27,215.18,279.18Z"/><path id="Trazado_5191" data-name="Trazado 5191" class="cls-112" d="M53.31,242.9c-1.16-.5-2.59-.82-2.67-2.37a1.26,1.26,0,0,1,1.2-1.31,1.29,1.29,0,0,1,.59.11c1.21.36,2.46.89,2.56,2.48C55,243.08,54.26,243.17,53.31,242.9Z"/><path id="Trazado_5192" data-name="Trazado 5192" class="cls-113" d="M173.8,283.63h5v1.47c-1.17.89-1.62,2.84-3.57,2.66-.83-1.29-2-2.41-1.48-4.13Z"/><path id="Trazado_5193" data-name="Trazado 5193" class="cls-114" d="M142.7,267.64l2.16,1.84c-.64.53-1.2,1.33-1.93,1.54-1.25.35-2.13-.39-2.24-1.73-.05-1,.55-1.65,2-1.65Z"/><path id="Trazado_5194" data-name="Trazado 5194" class="cls-115" d="M228.34,287.75a8.65,8.65,0,0,1,0,10.87,1.94,1.94,0,0,1,0-2.67Z"/><path id="Trazado_5195" data-name="Trazado 5195" class="cls-116" d="M120.38,297.31a4,4,0,0,0,2.67,3,2.47,2.47,0,0,1-3.43.66,2.83,2.83,0,0,1-.48-.43,1.83,1.83,0,0,1,0-3.22C119.53,296.66,120,296.63,120.38,297.31Z"/><path id="Trazado_5196" data-name="Trazado 5196" class="cls-117" d="M183.16,304l5.1,1.5,1.48.8C187.06,306.93,184.12,308.41,183.16,304Z"/><path id="Trazado_5197" data-name="Trazado 5197" class="cls-118" d="M133.67,273.77a10,10,0,0,1-1.1.73c.47-3.73-1.68-7.79,1.41-11.18a7.7,7.7,0,0,1,.11,5.33Z"/><path id="Trazado_5198" data-name="Trazado 5198" class="cls-119" d="M99.1,290.3v4.34c-2.67-1.47-1.17-3.68-.87-5.61.13-.84,1.14-.58.53.09C98.63,289.32,99,289.94,99.1,290.3Z"/><path id="Trazado_5199" data-name="Trazado 5199" class="cls-120" d="M236.6,262c0-.54-.08-1.07-.11-1.6h7.89a8.28,8.28,0,0,1,0,1.22C241.93,264.35,239.19,262.37,236.6,262Z"/><path id="Trazado_5200" data-name="Trazado 5200" class="cls-108" d="M223.51,263.27l-3.36,2.14-2.33.55C218.3,261.91,221.27,263.4,223.51,263.27Z"/><path id="Trazado_5202" data-name="Trazado 5202" class="cls-121" d="M223.19,302.57l6.23.08C227.27,305.12,225.25,304.8,223.19,302.57Z"/><path id="Trazado_5203" data-name="Trazado 5203" class="cls-122" d="M131.31,282.41l-.67,7.81-.78.06c.41-2.65-1.3-5.67,1.45-7.87Z"/><path id="Trazado_5204" data-name="Trazado 5204" class="cls-123" d="M99.1,265.73l.55-7.9C100.66,260.56,101.48,263.27,99.1,265.73Z"/><path id="Trazado_5205" data-name="Trazado 5205" class="cls-124" d="M120.38,297.31h-1.33v-6.66C121.83,292.43,120.37,295,120.38,297.31Z"/><path id="Trazado_5206" data-name="Trazado 5206" class="cls-125" d="M124.45,300c1.12,0,2.09-1.74,3.31-.35a1.14,1.14,0,0,1-.17,1.08c-1.33,1-2.29.41-3.16-.72Z"/><path id="Trazado_5207" data-name="Trazado 5207" class="cls-126" d="M205.76,268.59c2.76,2.81.75,5.66.09,8.54-.25,1.13-.3,2.41-1.77,1.19-1.2-1,.49-1.9.37-2.92-.54-2.43-2.16-5.11,1.31-6.81Z"/><path id="Trazado_5208" data-name="Trazado 5208" class="cls-7" d="M233.62,274.05a17.27,17.27,0,0,1,.87-6.38c1.89-8.56,3-9.75,10.32-7.85,1-.52-.46.86,0,1.8a43.3,43.3,0,0,1,2.73,12.67c.5,8.33,2.45,16,2.89,24.32.09,1.86.93,4.73-1.16,4.87s-2.42-2.46-2.53-4.87c0-.81-.08-1.62-.1-2.44-.33-9.14-2.9-16.64-4.16-25.72-.47-3.34.69-6.83-1.68-7.33s-1.67,1.63-2.21,4.22A73.85,73.85,0,0,0,236.85,282c0,3.64-1.33,7-1.33,10.67-1.16,3-.1,6.19-.11,9.33,0,2.66-.68,3.57-2.48,2.66-1.33-1-1-2.66-1-4.29a179.67,179.67,0,0,1,.9-20.75Z"/><path id="Trazado_5209" data-name="Trazado 5209" class="cls-7" d="M261,288.39a16.09,16.09,0,0,1-.62,6.43c-1.58,8.62-2.66,9.86-10.74,8.28-1.06.56.44-.89,0-1.8A40.63,40.63,0,0,1,246,288.76c-1-8.3-3.51-15.88-4.43-24.19-.2-1.84-1.34-4.68,1-4.92,2-.21,2.76,2.34,3,4.75.08.81.18,1.63.26,2.44.84,9.13,4,16.49,5.89,25.52.68,3.31-.39,6.87,2.21,7.25s1.71-1.7,2.16-4.32a67.34,67.34,0,0,0,1.09-14.66c-.17-3.64,1.06-7,.92-10.66,1.08-3-.22-6.19-.39-9.33-.14-2.73.54-3.6,2.54-2.83,1.47,1,1.26,2.67,1.33,4.25a163.58,163.58,0,0,1,.15,20.77Z"/><path id="Trazado_5210" data-name="Trazado 5210" class="cls-7" d="M112.29,261a5.84,5.84,0,0,0-5.14,4.39A37.47,37.47,0,0,0,105,292a10,10,0,0,0,6.46,6.85,8.1,8.1,0,0,0,8.17-.24c3.76-3.06-.18,2.73-.27-1.09-.08-3.09,4-2.67,0-4.57-1.67-.82-5.33-2-4.25-6.86.48-2,6.52,4.18,8.25,4.14,2.66-.07-8.52-28.52-2.26-31.63,3.8-1.88,10.77,24.78,9.34,28.5a24.92,24.92,0,0,0-.34,5.85c0,1.72,7.52,10.09,7.36,11.25-.41,2.89-9.06-2.67-11.36-2a40,40,0,0,1-7.91,1.25c-11.1,1.19-18.76-2.31-21.54-9.63-2.48-6.53-.8-13.27-1.63-19.86,2-7.73,3.39-15.73,15.92-17a16,16,0,0,1,8.49.1c2.66,1.17,2,2.09-.38,2.78C116.89,260.6,114.31,259.39,112.29,261Z"/><path id="Trazado_5211" data-name="Trazado 5211" class="cls-7" d="M65.63,285.43c-2.76,0-5.44.15-5.73-2-.27-1.89,2.31-1.93,4.12-2.17l1.57-.18c3.83-.38,7.49-2.39,11.47-.79a1.49,1.49,0,0,1,.35,1.67C74.08,285,69.36,284.77,65.63,285.43Z"/><path id="Trazado_5212" data-name="Trazado 5212" class="cls-7" d="M65.6,300.47c2-6.45,5.34-9.51,12.84-10.42C76,295.06,72.06,297.62,65.6,300.47Z"/><path id="Trazado_5213" data-name="Trazado 5213" class="cls-7" d="M73.55,271.48c-4.2,1.33-8.37,2.13-12.63-1.34C65.78,270,69.88,268.76,73.55,271.48Z"/><path id="Trazado_5214" data-name="Trazado 5214" class="cls-7" d="M88.19,266.72a6.55,6.55,0,0,1-4.67,3.09c-1.48.25-1.85-.87-1.61-1.62a5.57,5.57,0,0,1,4.6-3.12C88,264.75,88,265.87,88.19,266.72Z"/><path id="Trazado_5215" data-name="Trazado 5215" class="cls-7" d="M68.85,261c2-3.64,4.57-2.55,7.49-2.27C74.32,261.66,71.51,260.55,68.85,261Z"/><path id="Trazado_5216" data-name="Trazado 5216" class="cls-7" d="M89.76,290.21c-1.72.82-2.47,2.67-5.5,2.9A5.46,5.46,0,0,1,88,287.92C89.58,288.19,90.24,289,89.76,290.21Z"/><path id="Trazado_5217" data-name="Trazado 5217" class="cls-7" d="M127.36,261.16a7.26,7.26,0,0,0,1.22-.22c2.8-.18,2.9,1,1.9,2.6,0,.79-.12,1.57-.23,2.35l-2.84-1.24C125.32,263.51,126.37,262.31,127.36,261.16Z"/><path id="Trazado_5218" data-name="Trazado 5218" class="cls-7" d="M82.28,307.37c1.33-1.56,3.57-3.25,5.42-1.76,2.13,1.74-.87,2.45-2.45,3.2a4,4,0,0,1-3-1.45Z"/><path id="Trazado_5219" data-name="Trazado 5219" class="cls-7" d="M130.47,263.53a2.41,2.41,0,0,0-1.89-2.55l2-2.09c5.68,1.6,2.24,3.13-.11,4.64Z"/><path id="Trazado_5220" data-name="Trazado 5220" class="cls-7" d="M273.05,263.64c1.33-.66,3-1.93,4-.69,1.18,1.44-.7,2.58-2.28,3.38-3,.1-2.7-1.18-1.72-2.69Z"/><path id="Trazado_5221" data-name="Trazado 5221" class="cls-7" d="M89.75,290.22,88,287.93c1.24-1.16,3-2.51,4.37-.87,1.06,1.27-.82,2.56-2.64,3.16Z"/><path id="Trazado_5222" data-name="Trazado 5222" class="cls-7" d="M273.05,263.64a2.37,2.37,0,0,0,1.78,2.67c-2.86,2.28-4.46,1.69-5-1.42l1.56-1.33Z"/><path id="Trazado_5223" data-name="Trazado 5223" class="cls-7" d="M82.28,307.36a3.18,3.18,0,0,1,3,1.45c-1.09,1.06-2.39,1.88-3.91.68C81.07,309.26,81.93,308.09,82.28,307.36Z"/><path id="Trazado_5224" data-name="Trazado 5224" class="cls-7" d="M70.18,277.25c.16.87-.58.93-1.33.92-.94,0-2.12.4-2.59-.61-.13-.29-1.16-1.26.49-1.19,1.18.05,2.53-.19,3.43.88Z"/><path id="Trazado_5225" data-name="Trazado 5225" class="cls-7" d="M168.62,289.26c-.76,1.54-1.51,3.09-2.26,4.63-4.3,8.94-9.59,10.93-23.08,8.68-1.95.52-2.41-.71-3.08-1.7a25.61,25.61,0,0,1-3.38-13q-.31-13.19-.42-26.38c0-1.95-1.33-5,2.67-5.08,3.58,0,4.3,2.67,4.28,5.21v2.57a159.28,159.28,0,0,0,1.46,28.87,6.39,6.39,0,0,0,6.4,6.15,6.66,6.66,0,0,0,7.73-4.29,45.25,45.25,0,0,0,3.63-15.09c.35-3.83.83-7.65,1.33-11.48,2.4-3.1.73-6.52,1-9.77.25-2.89,1.58-3.74,4.86-2.78,2.37,1.12,1.71,2.85,1.55,4.57-.92,9.62-1.76,19.26-2.67,28.88Z"/><path id="Trazado_5226" data-name="Trazado 5226" class="cls-7" d="M169.66,255.83c-3.64.15-4.08,2.12-4,4.48a25.82,25.82,0,0,1-.28,8.94c-.7,1.88-1-.45-1.58-.86,0-3.36-.22-6.66-.17-10.08C163.66,254.48,166.05,254.09,169.66,255.83Z"/><path id="Trazado_5227" data-name="Trazado 5227" class="cls-7" d="M180.43,256.16c-1.6-.09-3.63,1.79-4.75-.29-.77-1.42.56-2.26,2.44-2.44,3.23-.28,2.37,1.43,2.18,2.84Z"/><path id="Trazado_5228" data-name="Trazado 5228" class="cls-7" d="M144.28,310.14l-3.12.87c-3.67-2.5,1.1-2.66,1.79-4a1.77,1.77,0,0,1,2.48-.18l.1.1C146.72,308.32,144.82,309.1,144.28,310.14Z"/><path id="Trazado_5229" data-name="Trazado 5229" class="cls-7" d="M154.41,265.29c1-.29,1.68.29,1.59.83a3,3,0,0,1-1.34,2,1.21,1.21,0,0,1-2-1C152.69,266.18,153.32,265.55,154.41,265.29Z"/><path id="Trazado_5230" data-name="Trazado 5230" class="cls-7" d="M232.06,274.05a16.24,16.24,0,0,1,1-6.4c2.08-8.55,3.29-9.75,11.21-7.87,1.1-.52-.48.86,0,1.8a39.68,39.68,0,0,1,2.89,12.66c.52,8.33,2.6,16,3,24.33.09,1.84,1,4.72-1.34,4.87-2.06.12-2.66-2.46-2.66-4.87l-.12-2.44c-.31-9.14-3.07-16.63-4.4-25.72-.49-3.33.78-6.84-1.78-7.32s-1.82,1.63-2.43,4.24A67.75,67.75,0,0,0,235.53,282c0,3.64-1.47,7-1.53,10.66-1.25,3-.14,6.19-.15,9.33,0,2.73-.75,3.57-2.66,2.66-1.43-1-1.12-2.66-1.11-4.29a163.51,163.51,0,0,1,1-20.75Z"/><path id="Trazado_5231" data-name="Trazado 5231" class="cls-7" d="M259.44,288.75a16.09,16.09,0,0,1-.62,6.43c-1.58,8.62-2.66,9.86-10.74,8.29-1.07.55.44-.87,0-1.8a40.77,40.77,0,0,1-3.64-12.55c-1-8.3-3.52-15.87-4.44-24.19-.2-1.84-1.33-4.67,1-4.91,2.05-.22,2.76,2.34,3,4.76.08.79.17,1.61.26,2.42.83,9.13,4,16.49,5.89,25.52.68,3.32-.39,6.87,2.21,7.25s1.71-1.69,2.17-4.32A67.91,67.91,0,0,0,255.6,281c-.17-3.62,1.07-7,.92-10.66,1.08-3-.22-6.18-.39-9.33-.14-2.73.54-3.6,2.53-2.82,1.48,1,1.27,2.66,1.34,4.25a163.74,163.74,0,0,1,.15,20.78Z"/><path id="Trazado_5232" data-name="Trazado 5232" class="cls-7" d="M231.45,304.81l-3.12.87c-3.68-2.51,1.09-2.67,1.78-4a1.77,1.77,0,0,1,2.48-.17l.11.1C233.84,303,232,303.77,231.45,304.81Z"/><path id="Trazado_5233" data-name="Trazado 5233" class="cls-7" d="M250.63,265.29c1-.29,1.67.29,1.58.83a2.92,2.92,0,0,1-1.34,2,1.22,1.22,0,0,1-1.7-.2,1.27,1.27,0,0,1-.26-.84C248.92,266.18,249.55,265.55,250.63,265.29Z"/><path id="Trazado_5234" data-name="Trazado 5234" class="cls-7" d="M250,256.83a5.81,5.81,0,0,1,2-.73c.9,0,1.34.73.82,1.33a4.13,4.13,0,0,1-2.08.53c-.16,0-.4-.65-.7-1.13Z"/><path id="Trazado_5235" data-name="Trazado 5235" class="cls-7" d="M119.49,257.18l-8.49-.09A9.76,9.76,0,0,1,119.49,257.18Z"/><path id="Trazado_5236" data-name="Trazado 5236" class="cls-7" d="M304.91,279.82a1.93,1.93,0,0,1-1.89,2c-4.41.76-8.8,1.73-13.26,2.15-2.12.19-3.47-1.1-2-3s13.45-3.8,15.79-2.39a7.57,7.57,0,0,1,1.32,1.27Z"/><path id="Trazado_5237" data-name="Trazado 5237" class="cls-7" d="M303,294.3a12.25,12.25,0,0,1-11.86-2.67c4.34-.39,9.33-2.89,11.78,2.67l.25.25Z"/><path id="Trazado_5238" data-name="Trazado 5238" class="cls-7" d="M293.81,270a3.36,3.36,0,0,1-.12,1.26,1.27,1.27,0,0,1-1.48.4c-2.35-.2-4.4,3.61-5.52,1.71-1.85-3.14,3.15-4.37,5.25-6.41,1.58.7,2.55,1.51,1.87,3Z"/><path id="Trazado_5239" data-name="Trazado 5239" class="cls-7" d="M176.43,302.29l.29-43.62c7.16-3.81,14.23-.77,21.32.16,0,4.68-3.76,3.12-6.94,2.93-2.57-.16-6.3-2.45-6.94,2-.63,3.84-1.79,7.69.72,11.4,2.81,1.09,8.12-2.93,8.68,2.76a8.38,8.38,0,0,1-5.33.63c-4-.29-4.9,1.33-4.76,4.22a78.83,78.83,0,0,1,0,12.1c-.46,4.34,1.1,6.37,6.87,5.76a13.15,13.15,0,0,1,6.95.51c1,0,1.44.45,1.41,1.25A29.54,29.54,0,0,1,176.43,302.29Z"/><path id="Trazado_5240" data-name="Trazado 5240" class="cls-7" d="M197.25,301.08c-17.85.35-14.34,1.1-14.57-11.62v-3.2c.11-8.48.11-8.48,10.83-8.39-2.22,2.8-8.16-.84-8.75,2.35A94.58,94.58,0,0,0,184,298.8c0,1.53,2.33,1.33,3.91,1.33C191.09,300.35,194.36,299.43,197.25,301.08Z"/><path id="Trazado_5241" data-name="Trazado 5241" class="cls-7" d="M184.87,275.1c-4.09-3.64-2.43-7.52-.72-11.39C185.1,267.48,183.17,271.37,184.87,275.1Z"/><path id="Trazado_5242" data-name="Trazado 5242" class="cls-7" d="M204,302.29l.29-43.62c7.16-3.81,14.24-.77,21.33.16,0,4.68-3.79,3.12-7,2.93-2.57-.16-6.3-2.45-6.94,2-.63,3.84-1.78,7.69.72,11.4,2.81,1.09,8.12-2.93,8.68,2.76a8.37,8.37,0,0,1-5.33.63c-4-.29-4.89,1.33-4.76,4.22a78.83,78.83,0,0,1,0,12.1c-.46,4.34,1.09,6.37,6.86,5.76a13.25,13.25,0,0,1,7,.51c1,0,1.44.45,1.41,1.25A29.52,29.52,0,0,1,204,302.29Z"/><path id="Trazado_5243" data-name="Trazado 5243" class="cls-7" d="M224.79,301.08c-17.86.35-14.36,1.1-14.57-11.62v-3.2c.11-8.48.11-8.48,10.82-8.39-2.21,2.8-8.15-.84-8.74,2.35a93.82,93.82,0,0,0-.72,18.58c0,1.53,2.33,1.33,3.89,1.33C218.64,300.35,221.92,299.43,224.79,301.08Z"/><path id="Trazado_5244" data-name="Trazado 5244" class="cls-7" d="M212.44,275.1c-4.11-3.64-2.43-7.52-.72-11.39C212.67,267.48,210.74,271.37,212.44,275.1Z"/><path id="Trazado_5245" data-name="Trazado 5245" class="cls-7" d="M269.89,289.32a2.91,2.91,0,0,1-4.1.47,1.55,1.55,0,0,1-.27-.24c-1.24-1.67,1.07-2.24,2.52-2.89C271.1,286.43,270.73,287.76,269.89,289.32Z"/><path id="Trazado_5246" data-name="Trazado 5246" class="cls-7" d="M293.81,270l-1.87-3c.95-1.34,2.67-3.11,4-1.88C298.22,267,295.42,268.57,293.81,270Z"/><path id="Trazado_5247" data-name="Trazado 5247" class="cls-7" d="M280.33,305c-1.09,0-1.18-.91-1-1.7a2.58,2.58,0,0,1,2.56-2c1.33-.09,1.88.76,1.54,1.62A3.16,3.16,0,0,1,280.33,305Z"/><path id="Trazado_5248" data-name="Trazado 5248" class="cls-7" d="M269.88,289.32a2.66,2.66,0,0,0-1.85-2.66c1.34-1.16,3.25-2.28,4.53-.83C274.25,287.75,271.81,288.63,269.88,289.32Z"/><path id="Trazado_5249" data-name="Trazado 5249" class="cls-7" d="M292.21,271.64a2.51,2.51,0,0,1,1.48-.4c1.43.79,2.49,2.31.89,2.89S292.47,272.86,292.21,271.64Z"/></g></g></svg>