<svg id="Camada_1" data-name="Camada 1" xmlns="http://www.w3.org/2000/svg" viewBox="0 0 110 110"><defs><style>.cls-1{fill:#506467;}.cls-2{fill:none;}</style></defs><title>ICONS-VERDE-R01</title><path class="cls-1" d="M12.16,14.73a4.69,4.69,0,1,0,4.69,4.69A4.69,4.69,0,0,0,12.16,14.73Zm0,6.18a1.49,1.49,0,1,1,1.5-1.49A1.49,1.49,0,0,1,12.16,20.91Z"/><path class="cls-1" d="M24.11,14.73a4.69,4.69,0,1,0,4.69,4.69A4.69,4.69,0,0,0,24.11,14.73Zm0,6.18a1.49,1.49,0,1,1,1.49-1.49A1.5,1.5,0,0,1,24.11,20.91Z"/><path class="cls-1" d="M36.06,14.73a4.69,4.69,0,1,0,4.69,4.69A4.7,4.7,0,0,0,36.06,14.73Zm0,6.18a1.49,1.49,0,1,1,1.49-1.49A1.5,1.5,0,0,1,36.06,20.91Z"/><polyline class="cls-2" points="54.13 30.34 3.68 30.34 3.68 83.62 54.13 83.62"/><path class="cls-2" d="M3.57,93A3.84,3.84,0,0,0,7,96.82l.4,0h95.06l.39,0A3.84,3.84,0,0,0,106.31,93V86.94H3.57Z"/><path class="cls-2" d="M106.31,15.63a3.84,3.84,0,0,0-3.84-3.84H7.52a3.85,3.85,0,0,0-3.84,3.84V27.14H106.31Z"/><path class="cls-1" d="M107.91,40.14a1.6,1.6,0,0,0,1.6-1.6l.12-22.91a7,7,0,0,0-7-7H7.41a7.05,7.05,0,0,0-7,7V93a7,7,0,0,0,6,7,7.48,7.48,0,0,0,1.07.08h95.06a7.48,7.48,0,0,0,1.07-.08,7,7,0,0,0,6-7V48.45a1.6,1.6,0,0,0-3.2,0V83.74H3.82V30.34H106.31v8.2A1.6,1.6,0,0,0,107.91,40.14Zm-1.6,46.8V93a3.84,3.84,0,0,1-3.45,3.82l-.39,0H7.41l-.4,0A3.84,3.84,0,0,1,3.57,93V86.94ZM54.73,27.14h-51V15.63a3.85,3.85,0,0,1,3.84-3.84h95a3.84,3.84,0,0,1,3.84,3.84V27.14Z"/><path class="cls-1" d="M41,68.12a1.81,1.81,0,0,1-1.19-.44L28,57.6c-.41-.35-1.65-.86-1.65-1.4s1.24-1,1.65-1.39L38.85,44.72a1.83,1.83,0,0,1,2.58.21c.66.77,1.57,1.92.8,2.58L32,56.2l10.21,8.7A1.83,1.83,0,0,1,41,68.12Z"/><path class="cls-1" d="M64.42,68.12a1.83,1.83,0,0,1-1.18-3.22l10.2-8.7-10.2-8.69c-.77-.66-1.87-1.81-1.21-2.58a1.83,1.83,0,0,1,2.58-.21L77.46,54.81a1.84,1.84,0,0,1,0,2.79L65.61,67.68A1.79,1.79,0,0,1,64.42,68.12Z"/><path class="cls-1" d="M48.54,75.69a2.45,2.45,0,0,1-.38,0,1.84,1.84,0,0,1-1.42-2.17l6.39-35.05a1.83,1.83,0,1,1,3.58.75L50.33,74.23A1.84,1.84,0,0,1,48.54,75.69Z"/></svg>