<svg id="Camada_1" data-name="Camada 1" xmlns="http://www.w3.org/2000/svg" viewBox="0 0 110 110"><defs><style>.cls-1{fill:#506467;}</style></defs><title>ICONS-VERDE-R01</title><polygon class="cls-1" points="55 76.59 54.99 76.61 41.39 72.94 40.48 62.79 28.24 62.79 29.99 82.34 54.99 89.27 55 89.26 80.02 82.35 83.36 44.95 84.47 32.47 85.56 20.3 55 20.3 24.44 20.3 25.23 31.8 72.4 31.67 71.49 44.05 26.44 44.58 27.65 56.14 70.46 56.02 68.61 72.92 55 76.59"/><polygon class="cls-1" points="103.27 0 94.47 99.31 55 110.34 15.52 99.3 6.73 0 0.01 0 0.01 110.71 110.72 110.71 110.72 0 103.27 0"/></svg>