<svg xmlns="http://www.w3.org/2000/svg" viewBox="0 0 260 260"><defs><style>.cls-1{isolation:isolate;}.cls-2{fill:#72999b;}.cls-3,.cls-7{fill:#fff;}.cls-3,.cls-6,.cls-7{stroke:#231f20;stroke-miterlimit:10;}.cls-3{stroke-width:6px;}.cls-4{fill:#cfebe8;}.cls-5{fill:#f2665f;opacity:0.7;mix-blend-mode:multiply;}.cls-6{fill:none;stroke-width:3px;}.cls-11,.cls-8{fill:#231f20;}.cls-9{fill:#f26765;}.cls-10{fill:#010101;}.cls-11{font-size:52.1px;font-family:HelveticaNowText-Black, Helvetica Now Text ;font-weight:800;}</style></defs><title>cv</title><g class="cls-1"><g id="Camada_1" data-name="Camada 1"><path class="cls-2" d="M192.13,252.89H18.39a9.54,9.54,0,0,1-9.54-9.54V27.61a9.54,9.54,0,0,1,9.54-9.54H192.13a9.54,9.54,0,0,1,9.54,9.54V243.35A9.54,9.54,0,0,1,192.13,252.89Z"/><path class="cls-3" d="M200.24,244.72H26.51A9.56,9.56,0,0,1,17,235.17V19.43a9.55,9.55,0,0,1,9.55-9.54H200.24a9.55,9.55,0,0,1,9.55,9.54V235.17A9.56,9.56,0,0,1,200.24,244.72Z"/><polygon class="cls-4" points="163.29 178.19 189.53 194.11 242.58 101.26 217.05 86.12 163.29 178.19"/><circle class="cls-5" cx="65.44" cy="71.05" r="32.77"/><circle class="cls-6" cx="67.76" cy="73.63" r="32.77"/><ellipse class="cls-7" cx="67.67" cy="85.36" rx="15.33" ry="20.13"/><path class="cls-8" d="M77.42,73.56C72.13,80.81,64.53,87.62,56,91.28c-3,1.31-3.35,1.1-5-1.76a31.66,31.66,0,0,1-2.66-6.2,36.48,36.48,0,0,1-1.52-12.75c.47-8.56,3.59-16.83,7.71-24.44l.15,4.62c2.94-6.48,5.95-13.42,4.71-20.39A21.16,21.16,0,0,1,61.61,36a27.72,27.72,0,0,0-1.35-13.17A61.06,61.06,0,0,0,68,32.19l1.18-4.94c3.09,8.31,11.23,13.93,15.74,21.62,3.79,6.45,4.84,14.15,4,21.5a64.68,64.68,0,0,1-6.61,21.2C78.71,85.8,77,80.24,77.42,73.56Z"/><ellipse class="cls-8" cx="65.99" cy="89.88" rx="0.73" ry="1.69"/><ellipse class="cls-8" cx="69.67" cy="89.88" rx="0.73" ry="1.69"/><path class="cls-9" d="M244.15,71.45h0A15.26,15.26,0,0,0,223.29,77L216.2,89.32l26.45,15.28,7.09-12.29A15.27,15.27,0,0,0,244.15,71.45Z"/><path class="cls-10" d="M139.15,214.17H113.38a4.77,4.77,0,1,0,0,9.54h25.77a4.77,4.77,0,0,0,0-9.54Z"/><path class="cls-10" d="M139.15,187.44H71.37a4.78,4.78,0,0,0,0,9.55h67.78a4.78,4.78,0,0,0,0-9.55Z"/><path class="cls-10" d="M139.15,160.71H71.37a4.78,4.78,0,0,0,0,9.55h67.78a4.78,4.78,0,0,0,0-9.55Z"/><path class="cls-10" d="M54.36,135.38a4.77,4.77,0,1,0,1.4,3.38A4.79,4.79,0,0,0,54.36,135.38Z"/><path class="cls-10" d="M54.36,162.11a4.77,4.77,0,1,0,1.4,3.38A4.81,4.81,0,0,0,54.36,162.11Z"/><path class="cls-10" d="M51,187.44a4.78,4.78,0,1,0,3.38,1.4A4.8,4.8,0,0,0,51,187.44Z"/><path class="cls-10" d="M139.15,134H71.37a4.78,4.78,0,0,0,0,9.55h67.78a4.78,4.78,0,0,0,0-9.55Z"/><path class="cls-10" d="M246.54,67.32a20,20,0,0,0-27.39,7.33l-60.06,104a4.7,4.7,0,0,0-.61,1.85l-4.23,37.87a4.76,4.76,0,0,0,4.74,5.3,4.84,4.84,0,0,0,2.84-.92l30.68-22.6a4.78,4.78,0,0,0,1.3-1.46l60.06-104A20.06,20.06,0,0,0,246.54,67.32ZM165,208.63l2.21-19.78,13.81,8Zm23-18.81-18.19-10.5,48.2-83.48,18.19,10.5Zm57.68-99.89-4.71,8.15-18.19-10.5,4.71-8.15a10.5,10.5,0,1,1,18.19,10.5Z"/><text class="cls-11" transform="translate(115.54 84.44)">CV</text></g></g></svg>