<svg id="Camada_1" data-name="Camada 1" xmlns="http://www.w3.org/2000/svg" xmlns:xlink="http://www.w3.org/1999/xlink" viewBox="0 0 110 110"><defs><style>.cls-1{fill:none;}.cls-2{clip-path:url(#clip-path);}.cls-3{fill:#506467;}</style><clipPath id="clip-path"><rect class="cls-1" x="0.76" y="0.6" width="108.63" height="109.59"/></clipPath></defs><title>ICONS-VERDE-R01</title><g id="Grupo_612" data-name="Grupo 612"><g class="cls-2"><g id="Grupo_611" data-name="Grupo 611"><g id="Grupo_610" data-name="Grupo 610"><path id="Trazado_5275" data-name="Trazado 5275" class="cls-3" d="M55.07.6a54.8,54.8,0,0,0,0,109.59A54.8,54.8,0,0,0,55.07.6M85.76,74.31,56.32,89a2.75,2.75,0,0,1-2.5,0L24.39,74.31a2.86,2.86,0,0,1-1.27-3.81,2.8,2.8,0,0,1,3.75-1.29h0L55.08,83.31,83.27,69.22A2.8,2.8,0,0,1,87,70.48v0a2.85,2.85,0,0,1-1.28,3.81m0-10.82L56.33,78.21a2.84,2.84,0,0,1-2.51,0L24.39,63.49a2.84,2.84,0,0,1-1.27-3.8,2.8,2.8,0,0,1,3.75-1.29h0L55.07,72.5,83.26,58.4A2.8,2.8,0,0,1,87,59.64l0,0a2.84,2.84,0,0,1-1.28,3.81m0-10.82L56.32,67.39a2.75,2.75,0,0,1-2.5,0L24.39,52.68a2.86,2.86,0,0,1-1.27-3.81,2.82,2.82,0,0,1,3.75-1.3l0,0L55.08,61.68,83.27,47.59A2.8,2.8,0,0,1,87,48.85v0a2.85,2.85,0,0,1-1.28,3.81m0-11.35L56.33,56.05a2.78,2.78,0,0,1-2.51,0L24.39,41.33a2.85,2.85,0,0,1-1.25-3.84,2.8,2.8,0,0,1,1.25-1.25L53.83,21.52a2.82,2.82,0,0,1,2.5,0L85.77,36.24A2.85,2.85,0,0,1,87,40.07a3,3,0,0,1-1.26,1.26"/></g></g></g></g></svg>