<svg xmlns="http://www.w3.org/2000/svg" width="48.483" height="48.914" viewBox="0 0 48.483 48.914">
    <defs>
        <style>
            .cls-1{fill:none}.cls-2{clip-path:url(#clip-path)}.cls-3{fill:#406063}
        </style>
        <clipPath id="clip-path">
            <path id="Trazado_5276" d="M0 31.664h48.483V-17.25H0z" class="cls-1" data-name="Trazado 5276" transform="translate(0 17.25)"/>
        </clipPath>
    </defs>
    <g id="Grupo_612" data-name="Grupo 612" transform="translate(0 17.25)">
        <g id="Grupo_611" class="cls-2" data-name="Grupo 611" transform="translate(0 -17.25)">
            <g id="Grupo_610" data-name="Grupo 610" transform="translate(-.001 .001)">
                <path id="Trazado_5275" d="M15.692 0a24.458 24.458 0 0 0 0 48.914 24.458 24.458 0 0 0 0-48.914m13.7 32.9l-13.141 6.568a1.237 1.237 0 0 1-1.117 0L2 32.9a1.275 1.275 0 0 1-.567-1.7 1.251 1.251 0 0 1 1.684-.573l12.579 6.289 12.581-6.289a1.252 1.252 0 0 1 1.684.573 1.275 1.275 0 0 1-.57 1.7m0-4.829l-13.137 6.57a1.261 1.261 0 0 1-1.117 0L2 28.072a1.273 1.273 0 0 1-.567-1.7 1.252 1.252 0 0 1 1.681-.572l12.578 6.29 12.582-6.29a1.247 1.247 0 0 1 1.684.573 1.271 1.271 0 0 1-.57 1.7m0-4.826l-13.137 6.566a1.249 1.249 0 0 1-1.117 0L2 23.246a1.275 1.275 0 0 1-.567-1.7 1.251 1.251 0 0 1 1.684-.573l12.579 6.289 12.581-6.289a1.252 1.252 0 0 1 1.684.573 1.274 1.274 0 0 1-.57 1.7m0-5.067l-13.137 6.57a1.237 1.237 0 0 1-1.117 0L2 18.179a1.273 1.273 0 0 1 0-2.271l13.14-6.57a1.243 1.243 0 0 1 1.114 0l13.14 6.57a1.272 1.272 0 0 1 0 2.271" class="cls-3" data-name="Trazado 5275" transform="translate(8.549)"/>
            </g>
        </g>
    </g>
</svg>
