<svg id="Camada_1" data-name="Camada 1" xmlns="http://www.w3.org/2000/svg" viewBox="0 0 110 110"><defs><style>.cls-1{fill:#506467;}</style></defs><title>ICONS-VERDE-R01</title><path class="cls-1" d="M55.21.89a54.32,54.32,0,1,0,54.32,54.32A54.32,54.32,0,0,0,55.21.89Zm0,19.08L87.36,40H23.06ZM87.76,72h0a5.81,5.81,0,0,1-5.82,5.82H28.49A5.81,5.81,0,0,1,22.67,72V41.29a5.55,5.55,0,0,1,.09-1L53.47,59.45l.12.06.12.06a3.44,3.44,0,0,0,.67.26l.07,0a3.29,3.29,0,0,0,.76.09h0a3.22,3.22,0,0,0,.76-.09l.07,0a3.44,3.44,0,0,0,.67-.26l.13-.06.11-.06L87.67,40.29a6.64,6.64,0,0,1,.09,1V72Z"/></svg>