<svg id="Camada_1" data-name="Camada 1" xmlns="http://www.w3.org/2000/svg" viewBox="0 0 110 110"><defs><style>.cls-1{fill:#506467;}</style></defs><title>ICONS-VERDE-R01</title><path class="cls-1" d="M35.64,17c3.7,3.83,7.31,7.6,11,11.3A3.9,3.9,0,0,1,48,31.82c-.56,3.79.43,6.81,4.16,8.56,1.65.77.77,2.36.79,3.53.09,7,0,14,.07,21,0,3.74.12,7-3.59,9.75-3.16,2.36-2.09,6.64,0,9.34a7,7,0,0,0,9.39,1.8c3.2-2,6.31-5.77,3.68-9-5.42-6.72-3-14.12-3.48-21.25-.31-4.57-.06-9.17-.06-15,4.15,4.26,7.47,7.65,10.76,11.07a2.27,2.27,0,0,1,.76,2.87c-1.49,4.38,1.42,6.83,4.81,8.95s5.87.13,8.11-2.07c1.91-1.88,3.45-4.1,2.11-7-1.52-3.25-3.93-6.2-7.61-5.85-2.76.26-4.08-.76-5.63-2.38C70.24,44,68.15,41.8,66,39.75c-1.85-1.74-3.12-3.4-3.1-6.31a6.83,6.83,0,0,0-7.54-7c-3.3.19-4.74-2-6.48-3.82-2.94-3.11-8.51-5.81-8.23-9.31.27-3.33,5.29-6.33,8.3-9.38C52.75,0,57.28.08,61.25,4.05,76.09,18.87,90.68,34,105.87,48.42c2.73,2.59,4,4.94,4.13,7.18v-56H0V53.28L29.92,22.87Z"/><path class="cls-1" d="M105.65,64.13Q95.45,74.41,85.16,84.61,72.13,97.5,59,110.28H51A23,23,0,0,1,45.55,106Q25,85.37,4.31,64.79A16,16,0,0,1,0,58.28v52.37H110V56.29C109.9,59,108.26,61.51,105.65,64.13Z"/></svg>