<svg xmlns="http://www.w3.org/2000/svg" width="48.5" height="48.188" viewBox="0 0 48.5 48.188">
    <defs>
        <style>
            .cls-1{fill:none}.cls-2{clip-path:url(#clip-path)}.cls-3{fill:#4f6366}
        </style>
        <clipPath id="clip-path">
            <path id="Trazado_5272" d="M0 31.2h48.5v-48.188H0z" class="cls-1" data-name="Trazado 5272" transform="translate(0 16.988)"/>
        </clipPath>
    </defs>
    <g id="Grupo_606" data-name="Grupo 606" transform="translate(0 16.988)">
        <g id="Grupo_605" class="cls-2" data-name="Grupo 605" transform="translate(0 -16.988)">
            <g id="Grupo_604" data-name="Grupo 604" transform="translate(-.001 -.002)">
                <path id="Trazado_5271" d="M29.3 7.965a24.368 24.368 0 0 0-8.825-8.989A23.405 23.405 0 0 0 8.3-4.337 23.405 23.405 0 0 0-3.873-1.024 24.368 24.368 0 0 0-12.7 7.965a24.487 24.487 0 0 0-3.254 12.4 24.3 24.3 0 0 0 4.626 14.521 23.783 23.783 0 0 0 11.954 8.92 1.4 1.4 0 0 0 1.262-.224 1.265 1.265 0 0 0 .411-.964l-.017-1.736a282.133 282.133 0 0 1-.014-2.862l-.726.128a9.383 9.383 0 0 1-1.753.113 13.358 13.358 0 0 1-2.2-.227 4.857 4.857 0 0 1-2.116-.964 4.056 4.056 0 0 1-1.387-1.977l-.318-.74a8.189 8.189 0 0 0-.993-1.64 3.851 3.851 0 0 0-1.373-1.223l-.221-.159a2.4 2.4 0 0 1-.411-.389 1.736 1.736 0 0 1-.284-.448c-.062-.15-.011-.275.159-.372a2 2 0 0 1 .913-.145l.633.1a4.634 4.634 0 0 1 1.563.772 5.146 5.146 0 0 1 1.536 1.67 5.576 5.576 0 0 0 1.753 2.008 3.661 3.661 0 0 0 2.068.692 8.952 8.952 0 0 0 1.8-.159 6.175 6.175 0 0 0 1.421-.485 5.245 5.245 0 0 1 1.546-3.31 21.4 21.4 0 0 1-3.238-.581 12.72 12.72 0 0 1-2.967-1.254 8.53 8.53 0 0 1-2.542-2.153A10.485 10.485 0 0 1-6.525 23.9a16.333 16.333 0 0 1-.647-4.822 9.479 9.479 0 0 1 2.494-6.628 8.785 8.785 0 0 1 .221-6.561 4.353 4.353 0 0 1 2.715.434A18.793 18.793 0 0 1 .9 7.562q.834.515 1.342.868a22.374 22.374 0 0 1 12.124 0l1.2-.772a16.908 16.908 0 0 1 2.9-1.415 4.075 4.075 0 0 1 2.559-.355 8.7 8.7 0 0 1 .252 6.561 9.484 9.484 0 0 1 2.493 6.626 16.506 16.506 0 0 1-.647 4.839 9.952 9.952 0 0 1-1.674 3.376 8.822 8.822 0 0 1-2.556 2.139 12.688 12.688 0 0 1-2.97 1.254 21.336 21.336 0 0 1-3.237.582 5.78 5.78 0 0 1 1.642 4.564v6.785a1.287 1.287 0 0 0 .394.964 1.351 1.351 0 0 0 1.248.227 23.783 23.783 0 0 0 11.951-8.924 24.316 24.316 0 0 0 4.626-14.521A24.544 24.544 0 0 0 29.3 7.965" class="cls-3" data-name="Trazado 5271" transform="translate(15.951 4.337)"/>
            </g>
        </g>
    </g>
</svg>
