<svg id="Camada_1" data-name="Camada 1" xmlns="http://www.w3.org/2000/svg" viewBox="0 0 421.28 511.42"><defs><style>.cls-1{fill:#b2b3b3;}.cls-2,.cls-5,.cls-7{fill:#fff;}.cls-11,.cls-12,.cls-2,.cls-4,.cls-5{stroke:#231f20;}.cls-11,.cls-12,.cls-2,.cls-4,.cls-5,.cls-7{stroke-miterlimit:10;}.cls-11,.cls-2{stroke-width:2px;}.cls-13,.cls-3{fill:#231f20;}.cls-4{fill:none;}.cls-6{fill:#070808;}.cls-7{stroke:#070808;}.cls-8{font-size:33px;}.cls-10,.cls-8,.cls-9{fill:#333;}.cls-13,.cls-8,.cls-9{font-family:CourierNewPS-BoldMT, Courier New;font-weight:700;}.cls-9{font-size:30px;}.cls-10{opacity:0.79;isolation:isolate;}.cls-11{fill:#f9b8ab;}.cls-12{fill:#f2665f;stroke-width:3px;}.cls-13{font-size:41.62px;letter-spacing:-0.07em;}</style></defs><title>Carolina PORTAFOLIO</title><ellipse class="cls-1" cx="287.07" cy="459.21" rx="116.18" ry="10.78"/><ellipse class="cls-1" cx="81.87" cy="459.21" rx="33.63" ry="10.78"/><path class="cls-2" d="M79.24,341.28c3.33,4.85,4,8.27,8.15,12.43,7.28-12.8,30.78-28.67,30.78-28.67s-25.83,31.1-31,45.06"/><path class="cls-2" d="M57,409.77c5.43,15.79,9.3,27.59,14.07,43.6-1.6-14.77,1.36-25.56,3.09-40.31l.81-6.9"/><path class="cls-2" d="M69.31,408.28Q81.57,431.2,94.44,453.8c-2.94-13.27-4-26.87-5-40.41l-.78-10.67"/><path class="cls-3" d="M61.49,345.28c-5.52,13.41-8.82,19.65-16.05,37.09-2.93,7.06-5.79,14.12-14.22,24.65,16.31,9.85,26.84,13,42,12.07s22.06-4.89,36.09-12.81c-4.1-5.13-6.13-7-10.57-14.77C96,386.7,90.83,377.94,87.12,370.1c-10.29-21.8-8.07-23.23-10.5-27.72C72.58,334.89,62.32,343.29,61.49,345.28Z"/><ellipse class="cls-2" cx="65.45" cy="314.42" rx="24.01" ry="31.53"/><path class="cls-3" d="M80.73,296c-8.3,11.35-20.19,22-33.54,27.75-4.77,2-5.26,1.72-7.8-2.77a48.9,48.9,0,0,1-4.16-9.71,57,57,0,0,1-2.37-20c.73-13.4,5.61-26.34,12.07-38.27l.23,7.25c4.61-10.16,9.31-21,7.38-31.94A32.74,32.74,0,0,1,56,237.16a43.49,43.49,0,0,0-2.1-20.63A94.93,94.93,0,0,0,66,231.17l1.85-7.74c4.84,13,17.59,21.81,24.66,33.85,5.93,10.11,7.57,22.17,6.18,33.67a101.44,101.44,0,0,1-10.35,33.2C82.74,315.12,80.11,306.41,80.73,296Z"/><ellipse class="cls-3" cx="62.82" cy="321.51" rx="1.15" ry="2.64"/><ellipse class="cls-3" cx="68.59" cy="321.51" rx="1.15" ry="2.64"/><path class="cls-4" d="M64,331.31c5.74-.91,10-3.08,14.56-7.16C76.62,330,74,334.58,68.59,338.31"/><path class="cls-3" d="M71.82,459.21c1.43,0-.08-12.77,0-19,0,.13-5.62.41-5.62.41s1.87,5.82,2.67,8.73C69.84,453,70.36,459.19,71.82,459.21Z"/><path class="cls-3" d="M97.11,460.47c-1.43.71-6.09-11.32-9.18-16.83.07.11,5.83-2.36,5.83-2.36s.94,6.06,1.56,9C96.09,454,98.57,459.75,97.11,460.47Z"/><polyline class="cls-5" points="87.13 370.1 82.02 358.55 76.63 342.38 79.24 341.28"/><path class="cls-2" d="M56.58,356.76c15.82,7.62,27.05,9.8,44.14,5.8-6.31,5.14-15.39,6.24-18.34,6.6a69.79,69.79,0,0,1-21-.22,39.92,39.92,0,0,1-19-8.55l15-15.91,4,.8Z"/><path class="cls-6" d="M161.13,193.66c.73,11.7-6.33,33.26-8.83,42.25-5.44,19.53-36.93,50.16-44.37,46.72,16.15-6.37,26-30.79,29.2-47.36,3.44-17.82.87-44-5.25-44.56-32.83-3.08-61.79-13.86-82.95-40.41-6.66-8.37-10-18-12-28.11a108.77,108.77,0,0,1-2.24-18c-.59-23.06,11.6-39.23,30.11-51.28a165.71,165.71,0,0,1,48.56-21.63c17.21-4.52,34.35-10,51.89-12.4,25.57-3.53,51.46-5.34,77.37-3.86,16.92,1,33.86,1.94,50.67,3.85,11.32,1.29,22.84,3.12,33.55,6.77,9.8,3.34,18.81,9.16,27.87,14.39,13.73,7.94,24.9,18.67,31.88,32.86,11,22.43,13.42,45.46-.34,67.55C372.65,162.19,353,176,327.71,183.6c-22.84,6.92-45.92,7-69.15,8.1-11.18.54-22.35,1.68-33.54,1.88-17.74.32-35.49.09-53.23.08Z"/><path class="cls-7" d="M157.29,192.75C158,204.45,151,226,148.45,235c-5.43,19.53-36.92,50.16-44.36,46.73,16.15-6.38,26-30.8,29.19-47.36,3.44-17.83.88-44-5.25-44.56-32.82-3.09-61.78-13.86-82.94-40.42-6.66-8.36-10.05-17.94-12-28.11a109.72,109.72,0,0,1-2.25-18C30.24,80.18,42.43,64,60.93,52A166.29,166.29,0,0,1,109.5,30.33c17.21-4.51,34.35-10,51.89-12.4,25.57-3.53,51.46-5.33,77.37-3.85,16.91,1,33.86,1.93,50.67,3.85,11.32,1.29,22.84,3.12,33.55,6.77,9.8,3.34,18.81,9.15,27.87,14.39C364.57,47,375.75,57.76,382.72,72c11,22.43,13.43,45.46-.33,67.54-13.58,21.79-33.25,35.54-58.52,43.2-22.85,6.92-45.92,7-69.15,8.09-11.19.55-22.36,1.69-33.55,1.89-17.73.32-35.48.08-53.22.08Z"/><text class="cls-8" transform="translate(81.27 77.13) scale(0.8 1)"><tspan xml:space="preserve">Hi! I´m  Carolina</tspan></text><text class="cls-9" transform="translate(48.6 113.71) scale(0.8 1)">Front-end developer and <tspan x="0" y="36">interface designer</tspan></text><g id="Grupo_600" data-name="Grupo 600"><path id="Trazado_5268-2" data-name="Trazado 5268-2" class="cls-10" d="M282.6,213.63A120.65,120.65,0,1,1,162,334.28,120.65,120.65,0,0,1,282.6,213.63Z"/><path id="Trazado_5267" data-name="Trazado 5267" class="cls-11" d="M273.32,208.48A120.65,120.65,0,1,1,152.67,329.13,120.65,120.65,0,0,1,273.32,208.48Z"/><circle id="Elipse_71-2" data-name="Elipse 71-2" class="cls-10" cx="282.6" cy="329.13" r="95.9"/><circle id="Elipse_66-2" data-name="Elipse 66-2" class="cls-12" cx="273.32" cy="329.13" r="95.9"/></g><text class="cls-13" transform="translate(194.23 377.21) rotate(-27.17) scale(0.7 1)">Find it out!</text></svg>