<svg id="Camada_1" data-name="Camada 1" xmlns="http://www.w3.org/2000/svg" viewBox="0 0 271.72 321.72"><defs><style>.cls-1{opacity:0.6;}.cls-2{fill:#f2665f;opacity:0.61;isolation:isolate;}.cls-3,.cls-4{fill:#fff;}.cls-4,.cls-6{stroke:#231f20;stroke-miterlimit:10;}.cls-5{fill:#231f20;}.cls-6{fill:none;}</style></defs><title>icon-carol</title><g class="cls-1"><circle id="Elipse_66-2" data-name="Elipse 66-2" class="cls-2" cx="143.18" cy="202.6" r="93"/></g><ellipse class="cls-3" cx="150.82" cy="249.8" rx="33.63" ry="10.78"/><path class="cls-4" d="M147.5,137.71c3.33,4.85,4,8.28,8.14,12.43,7.29-12.79,30.78-28.66,30.78-28.66s-25.82,31.09-31,45.05"/><path class="cls-4" d="M125.2,206.2c5.43,15.79,9.3,27.6,14.07,43.6-1.6-14.76,1.36-25.56,3.1-40.31l.81-6.89"/><path class="cls-4" d="M138.26,204.57q12.26,22.92,25.13,45.51c-2.95-13.26-3.95-26.86-4.95-40.41L157.66,199"/><path class="cls-5" d="M129.75,141.71c-5.53,13.41-8.83,19.66-16.06,37.09-2.93,7.07-5.78,14.12-14.21,24.65,16.31,9.85,26.83,13,42,12.07s22.06-4.89,36.09-12.81c-4.11-5.13-6.13-7-10.57-14.77-2.73-4.81-7.89-13.57-11.59-21.41-10.29-21.79-8.07-23.23-10.5-27.72C140.83,131.32,130.57,139.72,129.75,141.71Z"/><ellipse class="cls-4" cx="133.71" cy="110.86" rx="24.01" ry="31.53"/><path class="cls-5" d="M149,92.39c-8.29,11.35-20.18,22-33.54,27.75-4.76,2-5.25,1.72-7.8-2.77a49.63,49.63,0,0,1-4.15-9.7,57.26,57.26,0,0,1-2.38-20c.73-13.41,5.62-26.35,12.07-38.28l.24,7.25c4.6-10.15,9.31-21,7.38-31.94a33.07,33.07,0,0,1,3.42,8.86A43.56,43.56,0,0,0,122.11,13a94.82,94.82,0,0,0,12.1,14.63l1.85-7.74c4.83,13,17.58,21.81,24.65,33.85,5.94,10.11,7.57,22.17,6.19,33.68a101.7,101.7,0,0,1-10.35,33.19C151,111.55,148.37,102.84,149,92.39Z"/><ellipse class="cls-5" cx="131.07" cy="117.94" rx="1.15" ry="2.64"/><ellipse class="cls-5" cx="136.85" cy="117.94" rx="1.15" ry="2.64"/><path class="cls-6" d="M132.22,127.75c5.74-.92,10-3.09,14.57-7.17-1.91,5.87-4.54,10.44-9.94,14.16"/><path class="cls-5" d="M140.08,255.64c1.43,0-.09-12.77,0-19,0,.13-5.63.41-5.63.41s1.88,5.83,2.67,8.74C138.09,249.42,138.61,255.62,140.08,255.64Z"/><path class="cls-5" d="M165.36,254.28c-1.42.71-6.08-11.32-9.17-16.84.06.12,5.83-2.35,5.83-2.35s.94,6,1.55,9C164.34,247.82,166.82,253.56,165.36,254.28Z"/><polyline class="cls-4" points="155.38 166.53 150.27 154.98 144.88 138.81 147.5 137.71"/><path class="cls-4" d="M124.84,153.19c15.81,7.62,27,9.8,44.14,5.8-6.32,5.14-15.39,6.24-18.34,6.6a70.12,70.12,0,0,1-21-.21,40,40,0,0,1-19-8.56l15-15.91,4,.8Z"/></svg>