<svg xmlns="http://www.w3.org/2000/svg" width="125" height="124" viewBox="0 0 125 124">
    <defs>
        <style>
            .cls-1{fill:#f7b32c}.cls-2,.cls-3{fill:#4f1a0f}.cls-3{font-size:15px;font-family:Roboto-Bold,Roboto;font-weight:700}.cls-4{filter:url(#Elipse_63)}
        </style>
        <filter id="Elipse_63" width="125" height="124" x="0" y="0" filterUnits="userSpaceOnUse">
            <feOffset dy="3"/>
            <feGaussianBlur result="blur" stdDeviation="3"/>
            <feFlood flood-opacity=".161"/>
            <feComposite in2="blur" operator="in"/>
            <feComposite in="SourceGraphic"/>
        </filter>
    </defs>
    <g id="Componente_15_1" data-name="Componente 15 – 1" transform="translate(9 6)">
        <g class="cls-4" transform="translate(-9 -6)">
            <ellipse id="Elipse_63-2" cx="53.5" cy="53" class="cls-1" data-name="Elipse 63" rx="53.5" ry="53" transform="translate(9 6)"/>
        </g>
        <g id="Grupo_589" data-name="Grupo 589" transform="translate(23.247 19.47)">
            <path id="serving-dish" d="M47.447 23.262h-1.72a20.779 20.779 0 0 0-1.9-7.514.725.725 0 1 0-1.315.611 19.341 19.341 0 0 1 1.763 6.9H11.064a.725.725 0 0 0 0 1.45h36.383a.666.666 0 0 1 .665.665v.885a.666.666 0 0 1-.665.665H2.115a.666.666 0 0 1-.665-.665v-.885a.666.666 0 0 1 .665-.665h5.57a.725.725 0 1 0 0-1.45h-2.4A19.536 19.536 0 0 1 23.477 5.084h.008q.3-.019.585-.03h.115l.2-.005h.391c.173 0 .346 0 .519.008h.153c.133 0 .266.011.4.019l.211.012A19.551 19.551 0 0 1 40.9 13.533a.725.725 0 1 0 1.2-.821A21 21 0 0 0 27.753 3.8a3.53 3.53 0 0 0 .565-1.914c0-.394-.176-1.12-1.353-1.554a7.267 7.267 0 0 0-4.367 0C21.42.769 21.245 1.5 21.245 1.89a3.534 3.534 0 0 0 .562 1.91A20.992 20.992 0 0 0 3.836 23.261H2.115A2.118 2.118 0 0 0 0 25.377v.885a2.117 2.117 0 0 0 2.115 2.115h7.81a8.984 8.984 0 0 0-1.113.9l-.014.014a.657.657 0 0 0-.063.067l-3.442 4.18a2 2 0 0 0-2.729.566l-1.354 2a2.006 2.006 0 0 0 .532 2.78l9.263 6.293a1.989 1.989 0 0 0 1.121.347 2.035 2.035 0 0 0 .381-.036 1.988 1.988 0 0 0 1.281-.843l1.354-2a2.005 2.005 0 0 0-.532-2.78l-.053-.036A4.687 4.687 0 0 1 17 38.354a15.933 15.933 0 0 1 5.862.1 13.849 13.849 0 0 0 5.909-.318l2.67-.738a13.744 13.744 0 0 0 4.865-2.46l.032-.027 4.583-4.059a2.237 2.237 0 0 0 .682-2.472h5.848a2.117 2.117 0 0 0 2.115-2.115v-.885a2.117 2.117 0 0 0-2.115-2.115zM24.781 1.45a3.4 3.4 0 0 1 2.087.47 2.087 2.087 0 0 1-.924 1.7 20.879 20.879 0 0 0-.423-.019h-.142c-.2-.006-.4-.009-.6-.009h-.423l-.207.005-.249.009-.284.014a2.087 2.087 0 0 1-.923-1.7 3.4 3.4 0 0 1 2.087-.47zm5.2 27.276a2.391 2.391 0 0 0-.192-.35h6.954l-3.007 1.99-4.286 1.24h-.146a2.466 2.466 0 0 0 .676-2.88zm-7.862-.35l-1.046.218-.809-.218zm-8.177 13.453l-1.353 2a.552.552 0 0 1-.768.147l-9.263-6.297a.553.553 0 0 1-.147-.767l1.354-2a.551.551 0 0 1 .768-.147l.5.34 8.767 5.956a.553.553 0 0 1 .142.768zM40.028 29.7a.638.638 0 0 0-.05.04l-4.588 4.064A12.3 12.3 0 0 1 31.051 36l-2.67.738a12.378 12.378 0 0 1-5.286.286 17.262 17.262 0 0 0-6.426-.08 6.158 6.158 0 0 0-3.317 2.066L6.5 34.352l3.326-4.039a6.825 6.825 0 0 1 4.381-1.936h.029a5.465 5.465 0 0 1 1.506.28l.32.088 4.8 1.3a.725.725 0 0 0 .337.009l6.287-1.311a1.081 1.081 0 0 1 .822.16.973.973 0 0 1 .346.413 1.014 1.014 0 0 1-.469 1.311l-2.145 1.136a.725.725 0 0 0 .355 1.365l3.182-.069a.731.731 0 0 0 .186-.028l4.483-1.3a.727.727 0 0 0 .2-.092l4.523-2.994c.38-.234.885-.427 1.154-.031a.863.863 0 0 1-.093 1.091zm0 0" class="cls-2" transform="translate(7.426)"/>
            <text id="KITCHEN" class="cls-3" transform="translate(-.247 60.53)">
                <tspan x="0" y="0">KITCHEN</tspan>
            </text>
        </g>
    </g>
</svg>
