<svg id="Camada_1" data-name="Camada 1" xmlns="http://www.w3.org/2000/svg" viewBox="0 0 116.18 154.36"><defs><style>.cls-1{fill:#cfebe8;}.cls-2{fill:none;}.cls-2,.cls-3{stroke:#231f20;stroke-miterlimit:10;}.cls-3{fill:#fff;}.cls-4{fill:#231f20;}</style></defs><title>icon-carol</title><circle class="cls-1" cx="55.18" cy="91.46" r="51.32"/><circle class="cls-2" cx="58.8" cy="95.5" r="51.32"/><ellipse class="cls-3" cx="55.66" cy="103.86" rx="24.01" ry="31.53"/><path class="cls-4" d="M70.94,85.4c-8.3,11.35-20.19,22-33.55,27.74-4.76,2-5.25,1.73-7.79-2.76a48.9,48.9,0,0,1-4.16-9.71,57.2,57.2,0,0,1-2.38-20c.73-13.4,5.62-26.34,12.07-38.27l.24,7.25c4.6-10.16,9.31-21,7.38-31.94a33.07,33.07,0,0,1,3.42,8.86A43.49,43.49,0,0,0,44.06,6,93.88,93.88,0,0,0,56.16,20.6L58,12.87c4.83,13,17.59,21.81,24.65,33.85,5.94,10.11,7.57,22.16,6.19,33.67a101.75,101.75,0,0,1-10.35,33.2C73,104.56,70.32,95.85,70.94,85.4Z"/><ellipse class="cls-4" cx="53.03" cy="110.95" rx="1.15" ry="2.64"/><ellipse class="cls-4" cx="58.8" cy="110.95" rx="1.15" ry="2.64"/><path class="cls-2" d="M54.18,120.75c5.74-.91,10-3.08,14.56-7.16-1.91,5.87-4.54,10.43-9.94,14.16"/></svg>