<svg id="Camada_1" data-name="Camada 1" xmlns="http://www.w3.org/2000/svg" viewBox="0 0 109.98 110"><defs><style>.cls-1{fill:#506467;fill-rule:evenodd;}</style></defs><title>ICONS-VERDE-R01</title><path class="cls-1" d="M45,37.12c-.86,3.45-6.07,23.34-6.07,23.34H51.69S46,40.57,45.17,37.12Z"/><path class="cls-1" d="M0,0V110H110V0ZM58,85,53.56,70.22H37.08L33,85H19.45L37.08,27.39H54.15L72,85ZM90.1,85h-13V43.22h13V85ZM83.52,38.08c-4.09,0-6.85-2.92-6.75-6.49-.1-3.77,2.66-6.59,6.85-6.59a6.51,6.51,0,0,1,6.91,6.59C90.53,35.16,87.81,38.08,83.52,38.08Z"/></svg>