<svg id="Camada_1" data-name="Camada 1" xmlns="http://www.w3.org/2000/svg" viewBox="0 0 110 110"><defs><style>.cls-1{fill:#506467;fill-rule:evenodd;}</style></defs><title>ICONS-VERDE-R01</title><path class="cls-1" d="M64.62,52.31c-5.73,0-8.7,5.13-8.7,11.53C55.92,70.72,59.3,75,64.55,75A7.36,7.36,0,0,0,71.84,69a10.17,10.17,0,0,0,.34-2.9V60.78A15.66,15.66,0,0,0,72,58.52,7.56,7.56,0,0,0,64.62,52.31Z"/><path class="cls-1" d="M.17.34V110H109.83V.34Zm37.4,83.81H24.88V28.23H37.57Zm36.35,0-.55-6h-.19c-2.57,4.55-7.48,6.89-12.69,6.89-9.64,0-17.33-8.22-17.33-20.83C43,50.55,51.6,42.67,61.31,42.67c5,0,8.89,1.75,10.71,4.57h.16v-22H84.79V72c0,4.57.19,9.41.33,12.13Z"/></svg>