<svg id="Camada_1" data-name="Camada 1" xmlns="http://www.w3.org/2000/svg" viewBox="0 0 110 110"><defs><style>.cls-1{fill:#506467;}</style></defs><title>ICONS-VERDE-R01</title><path class="cls-1" d="M29.41,43.66a5.25,5.25,0,0,0,5.28-5,5.35,5.35,0,0,0-5.07-5.28,5.11,5.11,0,0,0-5.17,5.06A5,5,0,0,0,29.41,43.66Z"/><path class="cls-1" d="M76.66,47.82A9.6,9.6,0,0,1,65.1,42.76c-.48-1-.85-1.66-2.17-1.64a2.4,2.4,0,0,0-2.43,1.66A9.61,9.61,0,0,1,52,48.3a3.78,3.78,0,0,0-2.44,1.26,30.21,30.21,0,0,1-13.29,10,3.83,3.83,0,0,1-2.8-.21,10.91,10.91,0,0,1-5.83-9.83A8.25,8.25,0,0,0,27.25,48c-2.78,4-4.45,8.11-4.27,12.77.28,7.23,5.09,11.64,12.26,10.39,4.21-.73,8.31-2.58,12.22-4.43,6.35-3,12.65-5.91,19.73-6.75a22.63,22.63,0,0,0,6.69-1.8c4.29-2,6.23-7,4.42-10.78Z"/><path class="cls-1" d="M59,30.73a2,2,0,0,0,.2,1.51,19.48,19.48,0,0,0,1.85,3.19,2.36,2.36,0,0,0,1.66.93,2.84,2.84,0,0,0,1.82-1,12.54,12.54,0,0,0,1.59-2.84,2.4,2.4,0,0,0,.2-1.72C65.26,28.34,64,26,62.69,23.18,61.34,25.91,60.13,28.3,59,30.73Z"/><path class="cls-1" d="M51.82,43.66a5.14,5.14,0,0,0-.06-10.27,5.14,5.14,0,0,0,.06,10.27Z"/><path class="cls-1" d="M49.68,89.78c-2.85-.22-4.85,1.52-5.52,5H54C53.84,91.7,52.3,90,49.68,89.78Z"/><path class="cls-1" d="M0,.19v110H110V.19ZM35.1,102.66c-.23,3.88-4.28,5.89-8.89,5.43a6.94,6.94,0,0,1-6.51-6.81c-.09-1.5.33-2.57,1.87-2.38a3,3,0,0,1,2.1,1.69c.58,2.44,1.75,3.89,4.4,3.55,2.8-.37,3.17-2.54,3.19-4.76,0-6.59,0-13.19,0-20.15h3.95C35.23,87.13,35.56,94.92,35.1,102.66Zm12.48,1.62a4.45,4.45,0,0,0,6.05-2c1.4-2.45,3-1.76,4.8-1-.36,4.45-5.18,7.94-11.6,6.61-5.49-1.14-8.46-6.76-7.19-13.26,1.17-6,5.55-9,11.55-8.15,5.06.76,8,5.49,7.17,11.91H44.1A5.18,5.18,0,0,0,47.58,104.28Zm29.52,1c-2.61,3.15-6.23,3.27-9.82,2.67-3.41-.58-5.67-2.63-6.12-6.55,2-.87,3.41-1.51,4.54,1.09,1,2.37,4.66,3.08,6.94,1.62a3.54,3.54,0,0,0,1.51-2.36c0-.59-1-1.55-1.67-1.82-2.18-.83-4.46-1.4-6.69-2.09-2.63-.81-4.17-2.58-4.16-5.35s1.68-4.68,4.36-5.59c3.9-1.33,9.06-.24,10.59,2.46.5.88,1.2,2.12.44,3.25s-2.51-.44-3.66-.91-2.06-1.82-3-1.71c-1.6.17-4.15,0-3.93,1.89s1.48,2,2.79,2.59c1.73.81,3.7,1.1,5.49,1.81A5.6,5.6,0,0,1,77.1,105.23Zm-6.83-41A72,72,0,0,0,49,71.16a51.28,51.28,0,0,1-12.87,4.6c-10.94,2-19.6-6.84-17.7-17.84.64-3.75,2.19-7.35,3.46-11a2.58,2.58,0,0,0-.12-2.75A9.72,9.72,0,1,1,38.1,33.69c2.84,4.93,1.09,10.78-4.08,13.63-1.94,1.06-2.23,2.89-.86,5.37s1.91,2.52,4.32,1.17a24.7,24.7,0,0,0,8.38-7.37C40.22,41.2,40.77,32.91,48.78,29c-3-8.84-6-17.7-9.05-26.79H85.62l-9,26.8c3.08,1.32,5.79,3.24,6.43,6.61.42,2.18-.13,4.54-.25,6.81,0,.68-.36,1.47-.13,2C85.83,52.23,82.32,62.5,70.27,64.23Zm18.18,43.68c-3.53.57-5.63-1.2-5.75-4.81-.09-2.74.07-5.49,0-8.23-.07-2,.84-4.44-2.18-5.31A7.6,7.6,0,0,1,81,87c.4-.94,1.67-1.8,1.6-2.62-.23-2.68,1.31-3.59,3.93-4.48.11,2.35.2,4.33.26,5.49l3.28,3.28-3.33,2.48c0,3.23-.11,7.08.09,10.92,0,.73,1.33,1.36,2,2.12a7.26,7.26,0,0,1,1.55,2.4C90.38,106.84,89.16,107.79,88.45,107.91Z"/><path class="cls-1" d="M54.49,29,62.7,12.58l8.35,16.94a9.12,9.12,0,0,0,.82-1.32c2.38-7,4.75-14,7.22-21.33H46.24c2.58,7.57,5.07,14.9,7.57,22.23Z"/><path class="cls-1" d="M73.73,33.38a5.21,5.21,0,0,0-5,5.26A5.15,5.15,0,0,0,79,38.44,5.26,5.26,0,0,0,73.73,33.38Z"/></svg>