<svg id="Camada_1" data-name="Camada 1" xmlns="http://www.w3.org/2000/svg" viewBox="0 0 110 110"><defs><style>.cls-1{fill:#506467;}</style></defs><title>ICONS-VERDE-R01</title><path class="cls-1" d="M109.5.42Q55,.44.51.42c-.54,0-.66.12-.66.66q0,54.48,0,109c0,.54.12.66.66.66q27.25,0,54.5,0t54.49,0c.54,0,.66-.12.66-.66q0-54.48,0-109C110.16.54,110,.42,109.5.42ZM59.91,69.94h0c0,5.74,0,11.48,0,17.23a17.71,17.71,0,0,1-1.07,6.11,12.06,12.06,0,0,1-7.7,7.67A19.57,19.57,0,0,1,37,100.62a15.33,15.33,0,0,1-7.91-7.57c-.18-.35-.16-.52.19-.73q3.83-2.28,7.61-4.61c.33-.2.47-.15.65.18a20.7,20.7,0,0,0,1.81,2.75A6.44,6.44,0,0,0,47,92.24c1.59-.71,2.14-2.16,2.42-3.75a14.58,14.58,0,0,0,.17-2.64q0-17,0-34c0-.71.19-.85.86-.84,2.85,0,5.7,0,8.55,0,1,0,1,0,1,.92Zm37,28.22a17,17,0,0,1-8.27,3.55,24.29,24.29,0,0,1-14.76-1.94,18.2,18.2,0,0,1-8-7.72c-.25-.45-.25-.64.24-.92,2.48-1.39,4.93-2.83,7.38-4.27.38-.23.56-.21.81.19a11.73,11.73,0,0,0,5.55,5,11.06,11.06,0,0,0,7.79.26c2.76-.94,4.08-3.23,3.45-5.85a4.67,4.67,0,0,0-1.71-2.58,22.72,22.72,0,0,0-5.16-2.77,68.81,68.81,0,0,1-8-3.78c-3.42-2.09-6.09-4.81-7.07-8.82-1.06-4.34-.75-8.52,2-12.26a14.08,14.08,0,0,1,9.75-5.57,19.59,19.59,0,0,1,2.66-.2c3.64,0,6.74.56,9.53,2.3a16.3,16.3,0,0,1,5.29,5.66c.17.27.1.4-.15.55q-3.69,2.35-7.36,4.73c-.3.2-.42.14-.6-.15A15.94,15.94,0,0,0,89.15,62a6.44,6.44,0,0,0-7-2.25,4.49,4.49,0,0,0-2,7.57,12.65,12.65,0,0,0,4,2.46,97,97,0,0,1,9,4.21A16.57,16.57,0,0,1,100,80.51C102.41,85.12,102.62,93.54,96.91,98.16Z"/></svg>