<svg id="Camada_1" data-name="Camada 1" xmlns="http://www.w3.org/2000/svg" xmlns:xlink="http://www.w3.org/1999/xlink" viewBox="0 0 110 110"><defs><style>.cls-1{fill:none;}.cls-2{clip-path:url(#clip-path);}.cls-3{fill:#506467;}</style><clipPath id="clip-path"><rect class="cls-1" x="1.37" y="0.38" width="108.23" height="109.15"/></clipPath></defs><title>ICONS-VERDE-R01</title><g id="Grupo_603" data-name="Grupo 603"><g class="cls-2"><g id="Grupo_602" data-name="Grupo 602"><g id="Grupo_601" data-name="Grupo 601"><path id="Trazado_5269" data-name="Trazado 5269" class="cls-3" d="M55.48.38a54.58,54.58,0,0,0,0,109.15A54.58,54.58,0,0,0,55.48.38M39.75,82.88H26.57v-40H39.75ZM33.17,37.42h-.09a6.91,6.91,0,1,1-.51-13.82,5.12,5.12,0,0,1,.68,0,6.92,6.92,0,1,1,.61,13.82,5.3,5.3,0,0,1-.69,0M87.28,82.88H74.1V61.49c0-5.38-1.91-9-6.68-9a7.2,7.2,0,0,0-6.76,4.86,9.13,9.13,0,0,0-.43,3.24V82.88H47.05s.17-36.24,0-40H60.22v5.66A13.09,13.09,0,0,1,72.1,42c8.67,0,15.18,5.72,15.18,18Z"/></g></g></g></g></svg>