<svg xmlns="http://www.w3.org/2000/svg" width="48.5" height="48.914" viewBox="0 0 48.5 48.914">
    <defs>
        <style>
            .cls-1{fill:none}.cls-2{clip-path:url(#clip-path)}.cls-3{fill:#4f6366}
        </style>
        <clipPath id="clip-path">
            <path id="Trazado_5270" d="M0 31.528h48.5v-48.914H0z" class="cls-1" data-name="Trazado 5270" transform="translate(0 17.386)"/>
        </clipPath>
    </defs>
    <g id="Grupo_603" data-name="Grupo 603" transform="translate(0 17.386)">
        <g id="Grupo_602" class="cls-2" data-name="Grupo 602" transform="translate(0 -17.386)">
            <g id="Grupo_601" data-name="Grupo 601" transform="translate(.001 .001)">
                <path id="Trazado_5269" d="M15.63 0a24.458 24.458 0 0 0 0 48.914A24.458 24.458 0 0 0 15.63 0M8.582 36.971H2.677V19.052h5.905zM5.631 16.6h-.04a3.1 3.1 0 1 1 .079-6.192 3.1 3.1 0 1 1-.039 6.192m24.248 20.371h-5.905v-9.585c0-2.411-.855-4.054-2.993-4.054a3.235 3.235 0 0 0-3.03 2.18 4.136 4.136 0 0 0-.194 1.452v10.007h-5.906s.079-16.239 0-17.918h5.905v2.537a5.857 5.857 0 0 1 5.323-2.96c3.885 0 6.8 2.563 6.8 8.066z" class="cls-3" data-name="Trazado 5269" transform="translate(8.619)"/>
            </g>
        </g>
    </g>
</svg>
