<svg xmlns="http://www.w3.org/2000/svg" viewBox="0 0 330.02 134.92"><defs><style>.cls-1{fill:#0b0b0b;}.cls-2{fill:#cfebe8;}.cls-3{fill:#231f20;}.cls-4,.cls-6,.cls-8{fill:#fff;}.cls-4,.cls-5,.cls-6{stroke:#231f20;stroke-miterlimit:10;}.cls-4{stroke-width:2px;}.cls-5,.cls-7{fill:none;}.cls-5{stroke-width:3px;}.cls-7{stroke:#000;}</style></defs><title>logo-avatar</title><g id="Camada_1" data-name="Camada 1"><path class="cls-1" d="M127.86,40.28a10.67,10.67,0,0,1,8.52,4.09,1,1,0,0,1,0,1.24l-2.74,3.56a.53.53,0,0,1-.88,0A6.44,6.44,0,0,0,128,46.93c-4,0-6.9,4.13-6.9,9.06s3,8.94,6.93,8.94a6.59,6.59,0,0,0,4.72-2.12.59.59,0,0,1,.91,0l2.75,3.65a1,1,0,0,1,0,1.19A10.93,10.93,0,0,1,127.86,72c-7,0-12.71-7-12.71-15.8S120.82,40.28,127.86,40.28Z"/><path class="cls-1" d="M143.35,60.26a5.6,5.6,0,0,1,2.71.7c0-1.71-.21-2.59-1.9-2.59a12.23,12.23,0,0,0-3.52.66c-.53.22-.78-.27-.85-.93l-.31-2.77c-.11-.75.21-1,.52-1.19a20.12,20.12,0,0,1,4.69-.66c4.36,0,5.94,2.29,5.94,7.48v9.73a.79.79,0,0,1-.66.84h-1.55c-.21,0-.46-.09-.64-.58l-.49-1.18A5.43,5.43,0,0,1,143,72c-2.78,0-4.86-2.34-4.86-5.81S140.14,60.26,143.35,60.26Zm.91,7.39a1.79,1.79,0,0,0,1.55-1.93,1.75,1.75,0,0,0-1.55-1.85,1.71,1.71,0,0,0-1.51,1.85A1.77,1.77,0,0,0,144.26,67.65Z"/><path class="cls-1" d="M154.22,54.76a.77.77,0,0,1,.67-.84h1.66c.38,0,.53.27.63.53l.63,1.94c.71-1.28,2-2.91,3.84-2.91s3.31.88,2.82,1.9l-1.73,3.52c-.14.3-.38.57-.77.39a2.11,2.11,0,0,0-.85-.22c-1.05,0-1.86,1-1.86,2.51v9.11c0,.53-.21.84-.78.84h-3.59a.8.8,0,0,1-.67-.84Z"/><path class="cls-1" d="M172.46,53.48c4,0,7.32,4.23,7.32,9.2S176.47,72,172.46,72s-7.32-4.23-7.32-9.29S168.44,53.48,172.46,53.48Zm0,12.81c1.55,0,2.78-1.63,2.78-3.61s-1.23-3.52-2.78-3.52-2.78,1.58-2.78,3.52S170.91,66.29,172.46,66.29Z"/><path class="cls-1" d="M182.49,41.56a.8.8,0,0,1,.67-.84H187a.8.8,0,0,1,.67.84V70.69a.8.8,0,0,1-.67.84h-3.87a.8.8,0,0,1-.67-.84Z"/><path class="cls-1" d="M191.29,45.12c0-1.93,1.23-3.52,2.78-3.52s2.82,1.59,2.82,3.52-1.27,3.48-2.82,3.48S191.29,47.06,191.29,45.12Zm.21,9.64a.77.77,0,0,1,.67-.84H196a.77.77,0,0,1,.67.84V70.69a.8.8,0,0,1-.67.84h-3.87a.8.8,0,0,1-.67-.84Z"/><path class="cls-1" d="M200.51,54.76a.77.77,0,0,1,.67-.84h1.65a.8.8,0,0,1,.64.53l.56,1.76a6.24,6.24,0,0,1,5-2.73c4.36,0,6.68,4.18,6.68,9.2v8a.79.79,0,0,1-.67.84h-3.76a.77.77,0,0,1-.67-.84V62.46c0-1.76-.81-3.3-2.39-3.3a2.88,2.88,0,0,0-2.68,3.08v8.45c0,.4-.14.84-.63.84h-3.7a.8.8,0,0,1-.67-.84Z"/><path class="cls-1" d="M223.32,60.26A5.55,5.55,0,0,1,226,61c0-1.71-.21-2.59-1.9-2.59a12.3,12.3,0,0,0-3.52.66c-.53.22-.77-.27-.84-.93l-.32-2.77c-.11-.75.21-1,.53-1.19a20,20,0,0,1,4.68-.66c4.36,0,6,2.29,6,7.48v9.73a.8.8,0,0,1-.67.84h-1.55c-.21,0-.46-.09-.63-.58l-.5-1.18A5.43,5.43,0,0,1,223,72c-2.78,0-4.85-2.34-4.85-5.81S220.12,60.26,223.32,60.26Zm.92,7.39a1.79,1.79,0,0,0,1.55-1.93,1.77,1.77,0,0,0-1.55-1.85,1.71,1.71,0,0,0-1.52,1.85A1.76,1.76,0,0,0,224.24,67.65Z"/><path class="cls-1" d="M254,40.33a12.19,12.19,0,0,1,8.59,4.13.9.9,0,0,1,.07,1.19l-2.78,3.7a.63.63,0,0,1-.95,0,5.78,5.78,0,0,0-4.61-2.11c-3.84,0-6.94,4-6.94,8.89s3.13,8.76,7,8.76a6.82,6.82,0,0,0,3.13-.71V61.67h-2.21a.72.72,0,0,1-.67-.79V56.52c0-.48.28-.84.67-.84h7.07c.35,0,.64.4.64.84l0,11.84a1.19,1.19,0,0,1-.28.7A15.35,15.35,0,0,1,254,71.92c-7,0-12.64-7-12.64-15.75S247,40.33,254,40.33Z"/><path class="cls-1" d="M265.91,54.76a.77.77,0,0,1,.67-.84h3.77a.77.77,0,0,1,.67.84V62.9c0,1.81.81,3.39,2.25,3.39s2.11-1.63,2.11-3.13v-8.4c0-.7.39-.84.74-.84h3.59a.77.77,0,0,1,.67.84V70.69a.8.8,0,0,1-.67.84h-1.65c-.32,0-.57-.31-.67-.62l-.53-1.63c-.92,1.1-2,2.69-4.75,2.69-4.19,0-6.2-4.23-6.2-9.24Z"/><path class="cls-1" d="M284,45.12c0-1.93,1.23-3.52,2.78-3.52s2.82,1.59,2.82,3.52-1.27,3.48-2.82,3.48S284,47.06,284,45.12Zm.21,9.64a.77.77,0,0,1,.67-.84h3.87a.77.77,0,0,1,.67.84V70.69a.8.8,0,0,1-.67.84h-3.87a.8.8,0,0,1-.67-.84Z"/><path class="cls-1" d="M299.18,53.48a6,6,0,0,1,2.92.84V41.56a.8.8,0,0,1,.67-.84h3.9a.79.79,0,0,1,.67.84V70.69a.79.79,0,0,1-.67.84H305c-.35,0-.6-.4-.74-.88l-.42-1.46A5.89,5.89,0,0,1,299.14,72c-4,0-7-4.18-7-9.24C292.17,56.52,295.41,53.48,299.18,53.48Zm.67,12.81c1.61,0,2.81-1.58,2.81-3.61s-1.2-3.52-2.81-3.52S297,60.7,297,62.68,298.23,66.29,299.85,66.29Z"/><path class="cls-1" d="M317.37,53.48c4,0,7.33,4.23,7.33,9.2S321.39,72,317.37,72s-7.32-4.23-7.32-9.29S313.36,53.48,317.37,53.48Zm0,12.81c1.55,0,2.79-1.63,2.79-3.61s-1.24-3.52-2.79-3.52-2.78,1.58-2.78,3.52S315.83,66.29,317.37,66.29Z"/><path class="cls-1" d="M116.59,99.21H115c-.23,0-.34-.23-.34-.43v-.43a.4.4,0,0,1,.34-.43h1.59V93.4c0-3.89,1.69-5.71,4-5.71a3.83,3.83,0,0,1,3,1.42.5.5,0,0,1,0,.53l-.26.46a.25.25,0,0,1-.45,0,3.33,3.33,0,0,0-2.3-1.13c-1.66,0-2.82,1.36-2.82,4.39v4.52h3.9a.36.36,0,0,1,.35.4v.5c0,.23-.11.39-.35.39h-3.9V110.7a.4.4,0,0,1-.35.43h-.47a.4.4,0,0,1-.34-.43Z"/><path class="cls-1" d="M124.19,98.35a.4.4,0,0,1,.34-.43h.32c.16,0,.29.14.32.37l.1,1.35a4,4,0,0,1,3.3-2,3.6,3.6,0,0,1,1.64.4.47.47,0,0,1,.29.59l-.21.66a.27.27,0,0,1-.43.17,2.73,2.73,0,0,0-1.37-.4,3.77,3.77,0,0,0-3.14,2.28v9.41c0,.26-.1.43-.34.43h-.53c-.19,0-.29-.2-.29-.43Z"/><path class="cls-1" d="M137.18,97.59c2.95,0,5.3,3.14,5.3,6.9s-2.35,7-5.3,7-5.31-3.11-5.31-7S134.19,97.59,137.18,97.59Zm0,12.51c2.32,0,4.14-2.47,4.14-5.61S139.5,99,137.18,99s-4.17,2.48-4.17,5.51S134.83,110.1,137.18,110.1Z"/><path class="cls-1" d="M145.71,98.35a.4.4,0,0,1,.36-.43h.27c.18,0,.29.14.32.33l.1,1.42a5.27,5.27,0,0,1,3.91-2.08c3,0,4.25,2.35,4.25,6v7.07a.4.4,0,0,1-.35.43h-.47a.4.4,0,0,1-.34-.43v-7.07c0-3-1.14-4.62-3.15-4.62-2.16,0-3.66,2.12-3.77,2.28v9.41c0,.26-.11.43-.34.43H146c-.19,0-.29-.2-.29-.43Z"/><path class="cls-1" d="M159.22,99.21H158c-.26,0-.32-.16-.32-.43v-.53a.3.3,0,0,1,.32-.33h1.24V94.33c0-.27.16-.43.34-.43l.45,0a.39.39,0,0,1,.35.42v3.63H164c.21,0,.34.2.34.43v.43c0,.27-.13.43-.34.43h-3.67v8.42c0,1.55.13,2.41,1.37,2.41a4.9,4.9,0,0,0,2.4-.89c.24-.17.34,0,.42.13l.19.39a.46.46,0,0,1-.08.57,4.67,4.67,0,0,1-3.06,1.22c-2.19,0-2.38-1.62-2.38-3.73Z"/><path class="cls-1" d="M168.46,103.07v-.36c0-.26.13-.43.32-.43h6a.38.38,0,0,1,.35.43v.36a.4.4,0,0,1-.35.43h-6C168.59,103.5,168.46,103.3,168.46,103.07Z"/><path class="cls-1" d="M184.51,97.59c2.77,0,4.78,2.55,4.78,6,0,.53,0,1.29-.4,1.29h-8.42c.11,2.84,1.75,5.22,4.12,5.22a4.94,4.94,0,0,0,3.12-1.23c.23-.19.34-.23.47,0l.27.47a.49.49,0,0,1-.11.53,5.62,5.62,0,0,1-3.83,1.55c-3.22,0-5.2-3.11-5.2-7S181.29,97.59,184.51,97.59Zm3.62,6.14c0-2.57-1.24-4.82-3.62-4.82s-3.88,2.12-4,4.82Z"/><path class="cls-1" d="M192.41,98.35a.4.4,0,0,1,.37-.43H193c.18,0,.29.14.32.33l.1,1.42a5.29,5.29,0,0,1,3.91-2.08c3,0,4.25,2.35,4.25,6v7.07a.4.4,0,0,1-.34.43h-.48a.4.4,0,0,1-.34-.43v-7.07c0-3-1.14-4.62-3.14-4.62-2.17,0-3.67,2.12-3.78,2.28v9.41c0,.26-.1.43-.34.43h-.5c-.19,0-.29-.2-.29-.43Z"/><path class="cls-1" d="M209.91,97.59a4.76,4.76,0,0,1,3.25,1.32V88.45c0-.23.13-.43.34-.43H214c.16,0,.32.2.32.43V110.7a.4.4,0,0,1-.34.43h-.27c-.21,0-.34-.14-.37-.43l-.08-1.16a4.74,4.74,0,0,1-3.64,1.92c-2.74,0-4.88-3.07-4.88-6.93S206.9,97.59,209.91,97.59Zm-.24,12.55a4.21,4.21,0,0,0,3.49-2.35V100.4A4.52,4.52,0,0,0,210,99c-2.42,0-4.14,2.38-4.14,5.52S207.45,110.14,209.67,110.14Z"/><path class="cls-1" d="M228.47,97.59a4.75,4.75,0,0,1,3.24,1.32V88.45a.39.39,0,0,1,.35-.43h.47c.16,0,.32.2.32.43V110.7a.4.4,0,0,1-.34.43h-.27c-.21,0-.34-.14-.37-.43l-.08-1.16a4.74,4.74,0,0,1-3.64,1.92c-2.74,0-4.88-3.07-4.88-6.93S225.46,97.59,228.47,97.59Zm-.24,12.55a4.17,4.17,0,0,0,3.48-2.35V100.4A4.48,4.48,0,0,0,228.57,99c-2.43,0-4.14,2.38-4.14,5.52S226,110.14,228.23,110.14Z"/><path class="cls-1" d="M241.3,97.59c2.77,0,4.78,2.55,4.78,6,0,.53,0,1.29-.4,1.29h-8.42c.1,2.84,1.74,5.22,4.12,5.22a4.89,4.89,0,0,0,3.11-1.23c.24-.19.34-.23.48,0l.26.47a.47.47,0,0,1-.11.53,5.6,5.6,0,0,1-3.82,1.55c-3.22,0-5.2-3.11-5.2-7S238.08,97.59,241.3,97.59Zm3.61,6.14c0-2.57-1.24-4.82-3.61-4.82s-3.88,2.12-4,4.82Z"/><path class="cls-1" d="M247.63,98.42c-.1-.26-.08-.5.16-.5h.58c.13,0,.27.07.35.3l3.82,10.89h0l3.85-10.89c.08-.23.22-.3.35-.3h.58c.24,0,.26.24.16.5l-4.6,12.74c-.08.2-.18.3-.31.3h-.11c-.16,0-.24-.07-.32-.3Z"/><path class="cls-1" d="M264.4,97.59c2.77,0,4.78,2.55,4.78,6,0,.53,0,1.29-.4,1.29h-8.42c.1,2.84,1.74,5.22,4.12,5.22a4.89,4.89,0,0,0,3.11-1.23c.24-.19.34-.23.48,0l.26.47a.47.47,0,0,1-.11.53,5.6,5.6,0,0,1-3.82,1.55c-3.22,0-5.2-3.11-5.2-7S261.18,97.59,264.4,97.59Zm3.61,6.14c0-2.57-1.24-4.82-3.61-4.82s-3.88,2.12-4,4.82Z"/><path class="cls-1" d="M272.29,88.45a.4.4,0,0,1,.34-.43h.48a.4.4,0,0,1,.34.43V110.7c0,.26-.1.43-.34.43h-.53c-.18,0-.29-.2-.29-.43Z"/><path class="cls-1" d="M277.47,88.45a.4.4,0,0,1,.34-.43h.47a.4.4,0,0,1,.35.43V110.7c0,.26-.11.43-.35.43h-.52c-.19,0-.29-.2-.29-.43Z"/><path class="cls-1" d="M287.15,97.59c3,0,5.31,3.14,5.31,6.9s-2.35,7-5.31,7-5.3-3.11-5.3-7S284.17,97.59,287.15,97.59Zm0,12.51c2.33,0,4.15-2.47,4.15-5.61S289.48,99,287.15,99s-4.17,2.48-4.17,5.51S284.8,110.1,287.15,110.1Z"/><path class="cls-1" d="M296.82,120.6a.4.4,0,0,1-.35.43H296a.4.4,0,0,1-.34-.43V98.35a.41.41,0,0,1,.37-.43h.29c.19,0,.29.1.32.33l.08.93a4.81,4.81,0,0,1,3.45-1.59c2.93,0,5.1,3.07,5.1,6.94s-2.22,6.93-5.33,6.93a4.32,4.32,0,0,1-3.14-1.36Zm3-10.53c2.56,0,4.3-2.44,4.3-5.58s-1.61-5.54-4-5.54a4,4,0,0,0-3.28,1.85v7.72A3.89,3.89,0,0,0,299.83,110.07Z"/><path class="cls-1" d="M313,97.59c2.77,0,4.78,2.55,4.78,6,0,.53,0,1.29-.4,1.29h-8.42c.11,2.84,1.75,5.22,4.12,5.22a4.94,4.94,0,0,0,3.12-1.23c.23-.19.34-.23.47,0l.27.47a.47.47,0,0,1-.11.53,5.62,5.62,0,0,1-3.83,1.55c-3.22,0-5.2-3.11-5.2-7S309.75,97.59,313,97.59Zm3.62,6.14c0-2.57-1.24-4.82-3.62-4.82s-3.88,2.12-4,4.82Z"/><path class="cls-1" d="M320.87,98.35a.4.4,0,0,1,.34-.43h.32c.16,0,.29.14.31.37l.11,1.35a3.93,3.93,0,0,1,3.3-2,3.69,3.69,0,0,1,1.64.4.49.49,0,0,1,.29.59l-.22.66c-.07.24-.23.27-.42.17a2.77,2.77,0,0,0-1.37-.4,3.77,3.77,0,0,0-3.14,2.28v9.41c0,.26-.11.43-.34.43h-.53c-.19,0-.29-.2-.29-.43Z"/><circle class="cls-2" cx="55.18" cy="72.02" r="51.32"/><path class="cls-3" d="M49.76,108.06c-5.53,13.41,1.08-3.46-6.15,14-2.93,7.07,35.24,8,31.53.15-10.29-21.79-7.82-12.53-10.25-17C60.84,97.67,50.58,106.07,49.76,108.06Z"/><path class="cls-4" d="M49.83,113c15.82,7.63,19.53,8.4,36.62,4.4-6.31,5.15-7.87,7.64-10.82,8a69.79,69.79,0,0,1-21-.22,39.92,39.92,0,0,1-19-8.55l15-15.91,4,.8Z"/><circle class="cls-5" cx="58.8" cy="76.06" r="51.32"/><path class="cls-4" d="M69.64,114.5c-14.36,7.62-17.72,8.4-33.24,4.4,5.73,5.15,7.14,7.64,9.82,8a57.87,57.87,0,0,0,19-.22,34.8,34.8,0,0,0,17.2-8.56L68.82,102.22l-3.64.8Z"/><ellipse class="cls-6" cx="57.6" cy="70.86" rx="30.01" ry="39.41"/><path class="cls-3" d="M42.17,63.33C52.33,72,63.4,77.3,79.76,81.66c5.83,1.56,6.43,1.32,9.54-2.11a32.41,32.41,0,0,0,5.1-7.39,28.35,28.35,0,0,0,2.9-15.22c-.89-10.21-6.87-20.07-14.78-29.16l-.29,5.52c-5.63-7.74-11.4-16-9-24.33A20.72,20.72,0,0,0,69,15.71,21.6,21.6,0,0,1,71.59,0,94.28,94.28,0,0,1,56.78,11.15l-2.27-5.9C48.59,15.17,33,21.87,24.32,31.05a28.42,28.42,0,0,0-7.57,25.66c1.7,8.76,6.47,20.56,12.9,28.52C36.44,78.34,42.92,71.29,42.17,63.33Z"/><path id="bezier52" class="cls-7" d="M69.87,93.06c0,2.73-5.39,4.94-12.05,4.94s-12.06-2.22-12.06-4.94,5.39-5,12.06-5,12.05,2.21,12.05,5Z"/><path id="bezier53" class="cls-8" d="M41.6,82.58,40,90l32,6.82,1.59-7.45Z"/><ellipse class="cls-3" cx="54.66" cy="82.58" rx="1.15" ry="2.64"/><ellipse class="cls-3" cx="60.44" cy="82.58" rx="1.15" ry="2.64"/></g></svg>