<svg xmlns="http://www.w3.org/2000/svg" viewBox="0 0 345.94 113.38"><defs><style>.cls-1{isolation:isolate;}.cls-2{fill:#414042;}.cls-2,.cls-4{mix-blend-mode:multiply;}.cls-3{fill:#cfebe8;}.cls-4{fill:#f2665f;opacity:0.24;}.cls-5{fill:#231f20;}.cls-6,.cls-7,.cls-9{fill:#fff;}.cls-6,.cls-7{stroke:#231f20;stroke-miterlimit:10;}.cls-6{stroke-width:2px;}.cls-8{fill:none;stroke:#000;}</style></defs><title>logo-avatar</title><g class="cls-1"><g id="Camada_1" data-name="Camada 1"><path class="cls-2" d="M125.66,48.24a.65.65,0,0,1,.51.29l1.34,1.83a11.35,11.35,0,0,1-3.76,3.49,10.55,10.55,0,0,1-5.32,1.26,10.34,10.34,0,0,1-5-1.18,11,11,0,0,1-3.78-3.3,15.73,15.73,0,0,1-2.43-5.09,23.58,23.58,0,0,1-.86-6.54,22.11,22.11,0,0,1,.92-6.53,15.72,15.72,0,0,1,2.6-5.1,11.79,11.79,0,0,1,4-3.32,11.33,11.33,0,0,1,5.15-1.17,10.06,10.06,0,0,1,4.8,1.08,12.24,12.24,0,0,1,3.58,2.92l-1.11,2a1.32,1.32,0,0,1-.28.36.65.65,0,0,1-.46.15.78.78,0,0,1-.48-.21c-.18-.14-.38-.32-.61-.52s-.51-.43-.83-.66a7.39,7.39,0,0,0-2.64-1.18,8.44,8.44,0,0,0-2-.21,7.92,7.92,0,0,0-3.7.87,8.56,8.56,0,0,0-2.9,2.48,12,12,0,0,0-1.89,3.91,18.44,18.44,0,0,0-.68,5.17,18.74,18.74,0,0,0,.68,5.26,12.55,12.55,0,0,0,1.85,3.91,8.08,8.08,0,0,0,2.77,2.43,7.44,7.44,0,0,0,3.45.83,11.18,11.18,0,0,0,2-.16,6.78,6.78,0,0,0,1.67-.52,6.38,6.38,0,0,0,1.42-.89,11.39,11.39,0,0,0,1.33-1.29A.82.82,0,0,1,125.66,48.24Z"/><path class="cls-2" d="M144.6,54.76h-1.39a1.35,1.35,0,0,1-.74-.18,1,1,0,0,1-.37-.75l-.35-2.07c-.47.53-.93,1-1.37,1.42A8.13,8.13,0,0,1,139,54.24a6.83,6.83,0,0,1-1.58.65,7.57,7.57,0,0,1-1.85.22,5,5,0,0,1-1.95-.37A4.16,4.16,0,0,1,132,53.65,5.16,5.16,0,0,1,131,51.81a8.05,8.05,0,0,1-.4-2.64,5.88,5.88,0,0,1,.59-2.55A5.79,5.79,0,0,1,133,44.44a10.69,10.69,0,0,1,3.39-1.55,18.36,18.36,0,0,1,5.12-.61V40.53a7.2,7.2,0,0,0-.89-4A3,3,0,0,0,138,35.24a4.62,4.62,0,0,0-1.93.36,7.21,7.21,0,0,0-1.35.82q-.57.45-1,.81a1.22,1.22,0,0,1-.82.37.81.81,0,0,1-.55-.21,1.52,1.52,0,0,1-.38-.52l-.56-1.25A10.3,10.3,0,0,1,134.6,33a8.23,8.23,0,0,1,3.79-.88A5.49,5.49,0,0,1,143,34.41a7.83,7.83,0,0,1,1.19,2.66,13.61,13.61,0,0,1,.41,3.43Zm-8.13-2.4a5.15,5.15,0,0,0,1.51-.21,5.28,5.28,0,0,0,1.3-.6,6.57,6.57,0,0,0,1.16-.93,11.3,11.3,0,0,0,1.08-1.25v-4.6a16.89,16.89,0,0,0-3.68.34,8.71,8.71,0,0,0-2.46.9,3.56,3.56,0,0,0-1.38,1.3,3.29,3.29,0,0,0-.44,1.68,4.65,4.65,0,0,0,.23,1.53,3,3,0,0,0,.62,1,2.3,2.3,0,0,0,.91.6A3.34,3.34,0,0,0,136.47,52.36Z"/><path class="cls-2" d="M149.35,54.76V32.47h1.8a.86.86,0,0,1,.7.24,1.62,1.62,0,0,1,.26.84l.22,3.47a10.26,10.26,0,0,1,2.26-3.64,4.38,4.38,0,0,1,3.16-1.31,4,4,0,0,1,1.33.21,4.23,4.23,0,0,1,1.11.59l-.4,2.92c-.08.37-.27.55-.55.55a2.26,2.26,0,0,1-.75-.21,3.89,3.89,0,0,0-1.43-.21,3.6,3.6,0,0,0-2.74,1.19,9.47,9.47,0,0,0-1.84,3.46V54.76Z"/><path class="cls-2" d="M170.75,32.12a7.58,7.58,0,0,1,3.53.81A7.68,7.68,0,0,1,177,35.24a11.33,11.33,0,0,1,1.69,3.62,19.38,19.38,0,0,1,0,9.49A11.27,11.27,0,0,1,177,52a7.68,7.68,0,0,1-12.42,0,11.09,11.09,0,0,1-1.71-3.61,19.06,19.06,0,0,1,0-9.49,11.14,11.14,0,0,1,1.71-3.62,7.44,7.44,0,0,1,6.21-3.12Zm0,19.89a4.29,4.29,0,0,0,3.95-2.22,12.29,12.29,0,0,0,1.3-6.17,12.41,12.41,0,0,0-1.3-6.2,4.29,4.29,0,0,0-3.95-2.22,4.56,4.56,0,0,0-2.32.57,4.65,4.65,0,0,0-1.65,1.65,8.32,8.32,0,0,0-1,2.65,19.26,19.26,0,0,0,0,7.1,8.14,8.14,0,0,0,1,2.62,4.62,4.62,0,0,0,1.65,1.64A4.56,4.56,0,0,0,170.75,52Z"/><path class="cls-2" d="M186.59,22.35V54.76h-3.13V22.35Z"/><path class="cls-2" d="M196.31,25.47a2.9,2.9,0,0,1-.19,1.07,3,3,0,0,1-.49.88,2.29,2.29,0,0,1-.71.61,1.86,1.86,0,0,1-.86.22,1.83,1.83,0,0,1-.86-.22,2.37,2.37,0,0,1-.7-.61,3,3,0,0,1-.49-.88,3.38,3.38,0,0,1-.17-1.07,3.6,3.6,0,0,1,.17-1.09,3,3,0,0,1,.49-.9,2.33,2.33,0,0,1,.7-.6,1.72,1.72,0,0,1,.86-.22,1.75,1.75,0,0,1,.86.22,2.25,2.25,0,0,1,.71.6,3,3,0,0,1,.49.9A3.09,3.09,0,0,1,196.31,25.47Zm-.71,7V54.76h-3.13V32.47Z"/><path class="cls-2" d="M201.13,54.76V32.47H203q.66,0,.84.81l.25,2.42a10.79,10.79,0,0,1,2.59-2.59,5.72,5.72,0,0,1,3.32-1,5.4,5.4,0,0,1,2.58.6,5.27,5.27,0,0,1,1.86,1.72,8.34,8.34,0,0,1,1.14,2.67,14.25,14.25,0,0,1,.39,3.46V54.76h-3.14V40.57a7.05,7.05,0,0,0-.92-3.93,3.16,3.16,0,0,0-2.82-1.4,4.45,4.45,0,0,0-2.6.84,9.4,9.4,0,0,0-2.23,2.26V54.76Z"/><path class="cls-2" d="M233.8,54.76h-1.39a1.33,1.33,0,0,1-.74-.18,1,1,0,0,1-.37-.75L231,51.76c-.47.53-.93,1-1.38,1.42a7.44,7.44,0,0,1-1.41,1.06,6.58,6.58,0,0,1-1.57.65,7.65,7.65,0,0,1-1.86.22,5,5,0,0,1-1.94-.37,4.2,4.2,0,0,1-1.58-1.09,5.3,5.3,0,0,1-1.06-1.84,7.8,7.8,0,0,1-.4-2.64,6,6,0,0,1,.58-2.55,5.82,5.82,0,0,1,1.88-2.18,10.74,10.74,0,0,1,3.38-1.55,18.49,18.49,0,0,1,5.13-.61V40.53a7.2,7.2,0,0,0-.89-4,3,3,0,0,0-2.63-1.34,4.59,4.59,0,0,0-1.93.36,7.31,7.31,0,0,0-1.36.82c-.38.3-.71.57-1,.81a1.24,1.24,0,0,1-.82.37.79.79,0,0,1-.55-.21,1.52,1.52,0,0,1-.38-.52l-.57-1.25A10.45,10.45,0,0,1,223.8,33a8.22,8.22,0,0,1,3.78-.88,5.59,5.59,0,0,1,2.66.62,5.45,5.45,0,0,1,1.95,1.72,7.84,7.84,0,0,1,1.2,2.66,13.61,13.61,0,0,1,.41,3.43Zm-8.14-2.4a5.17,5.17,0,0,0,1.52-.21,5.06,5.06,0,0,0,1.29-.6,6.23,6.23,0,0,0,1.16-.93,12.52,12.52,0,0,0,1.09-1.25v-4.6a16.82,16.82,0,0,0-3.68.34,8.91,8.91,0,0,0-2.47.9,3.7,3.7,0,0,0-1.38,1.3,3.28,3.28,0,0,0-.43,1.68,4.65,4.65,0,0,0,.23,1.53,2.84,2.84,0,0,0,.62,1,2.23,2.23,0,0,0,.91.6A3.25,3.25,0,0,0,225.66,52.36Z"/><path class="cls-2" d="M257.08,51.65a13.36,13.36,0,0,0,1.87-.12,10.09,10.09,0,0,0,1.62-.36,10.55,10.55,0,0,0,1.42-.58,15.46,15.46,0,0,0,1.34-.78v-7h-3.91a.68.68,0,0,1-.54-.24.92.92,0,0,1-.2-.59V39.6h7.75V51.7a14.25,14.25,0,0,1-2,1.49,11.48,11.48,0,0,1-2.2,1.07,13,13,0,0,1-2.51.64,18.77,18.77,0,0,1-2.91.21,10.78,10.78,0,0,1-5-1.18,11.72,11.72,0,0,1-3.94-3.3,15.93,15.93,0,0,1-2.58-5.09,21.81,21.81,0,0,1-.92-6.54,22.59,22.59,0,0,1,.9-6.57,15.51,15.51,0,0,1,2.59-5.1A11.83,11.83,0,0,1,251.91,24a12.14,12.14,0,0,1,5.35-1.16,13.59,13.59,0,0,1,2.78.27,11.66,11.66,0,0,1,2.38.79,10.48,10.48,0,0,1,2,1.26,12.44,12.44,0,0,1,1.75,1.66l-1,1.94a.9.9,0,0,1-.78.59,1.08,1.08,0,0,1-.61-.24l-1-.75a7.65,7.65,0,0,0-1.33-.85,9.09,9.09,0,0,0-1.84-.69,9.89,9.89,0,0,0-2.53-.29,8.2,8.2,0,0,0-6.79,3.36,11.94,11.94,0,0,0-1.87,3.91,19.17,19.17,0,0,0-.65,5.16,19.28,19.28,0,0,0,.68,5.34,12.12,12.12,0,0,0,1.91,4,8.55,8.55,0,0,0,2.92,2.49A8.15,8.15,0,0,0,257.08,51.65Z"/><path class="cls-2" d="M273.89,32.47V46.68a7,7,0,0,0,.93,3.92A3.17,3.17,0,0,0,277.64,52a4.57,4.57,0,0,0,2.58-.81,8.64,8.64,0,0,0,2.24-2.27V32.47h3.13V54.76h-1.86c-.45,0-.73-.28-.85-.82l-.24-2.4A10.67,10.67,0,0,1,280,54.13a5.76,5.76,0,0,1-3.31,1,5.18,5.18,0,0,1-4.45-2.31,8.07,8.07,0,0,1-1.14-2.66,14.93,14.93,0,0,1-.37-3.46V32.47Z"/><path class="cls-2" d="M294.94,25.47a2.9,2.9,0,0,1-.19,1.07,3,3,0,0,1-.49.88,2.29,2.29,0,0,1-.71.61,1.87,1.87,0,0,1-.87.22,1.82,1.82,0,0,1-.85-.22,2.37,2.37,0,0,1-.7-.61,3,3,0,0,1-.49-.88,3.38,3.38,0,0,1-.17-1.07,3.6,3.6,0,0,1,.17-1.09,3,3,0,0,1,.49-.9,2.33,2.33,0,0,1,.7-.6,1.71,1.71,0,0,1,.85-.22,1.76,1.76,0,0,1,.87.22,2.25,2.25,0,0,1,.71.6,3,3,0,0,1,.49.9A3.09,3.09,0,0,1,294.94,25.47Zm-.71,7V54.76H291.1V32.47Z"/><path class="cls-2" d="M312.31,54.76c-.45,0-.73-.28-.85-.82l-.28-2.7A10.42,10.42,0,0,1,308.57,54a5.64,5.64,0,0,1-3.37,1,5.37,5.37,0,0,1-2.78-.73,6.16,6.16,0,0,1-2.13-2.17,11.55,11.55,0,0,1-1.36-3.56,23.25,23.25,0,0,1-.47-4.91A18.64,18.64,0,0,1,299,39.1a12.41,12.41,0,0,1,1.52-3.68A7.8,7.8,0,0,1,302.93,33a6,6,0,0,1,3.24-.89,5.32,5.32,0,0,1,2.8.7A7.13,7.13,0,0,1,311,34.71V22.35h3.13V54.76Zm-6.07-2.86a4.33,4.33,0,0,0,2.68-.88A8.73,8.73,0,0,0,311,48.53V37.75a5.39,5.39,0,0,0-1.89-2,4.66,4.66,0,0,0-2.28-.58A4.25,4.25,0,0,0,303,37.35a12.44,12.44,0,0,0-1.33,6.34,20,20,0,0,0,.3,3.73,8.17,8.17,0,0,0,.88,2.55,3.64,3.64,0,0,0,1.42,1.46A4,4,0,0,0,306.24,51.9Z"/><path class="cls-2" d="M326.65,32.12a7.44,7.44,0,0,1,6.21,3.12,11.33,11.33,0,0,1,1.69,3.62,19.38,19.38,0,0,1,0,9.49A11.27,11.27,0,0,1,332.86,52a7.68,7.68,0,0,1-12.42,0,11.09,11.09,0,0,1-1.71-3.61,19.06,19.06,0,0,1,0-9.49,11.14,11.14,0,0,1,1.71-3.62,7.44,7.44,0,0,1,6.21-3.12Zm0,19.89a4.29,4.29,0,0,0,4-2.22,12.29,12.29,0,0,0,1.3-6.17,12.41,12.41,0,0,0-1.3-6.2,4.29,4.29,0,0,0-4-2.22,4.56,4.56,0,0,0-2.32.57,4.65,4.65,0,0,0-1.65,1.65,8.32,8.32,0,0,0-1,2.65,19.26,19.26,0,0,0,0,7.1,8.14,8.14,0,0,0,1,2.62,4.62,4.62,0,0,0,1.65,1.64A4.56,4.56,0,0,0,326.65,52Z"/><path class="cls-2" d="M115,73.58v1h-7.15v7.14H114v1h-6.19v7.8h-1v-17Z"/><path class="cls-2" d="M119.09,82.88v7.68h-1v-17h3.47a4.84,4.84,0,0,1,3.51,1.13A4.48,4.48,0,0,1,126.25,78a5.59,5.59,0,0,1-.27,1.78,4.38,4.38,0,0,1-.77,1.41,4.21,4.21,0,0,1-1.22,1,4.49,4.49,0,0,1-1.6.51,1.63,1.63,0,0,1,.41.48l4.68,7.35h-.85a.46.46,0,0,1-.27-.08.64.64,0,0,1-.21-.24l-4.35-6.88a1.19,1.19,0,0,0-.35-.38,1.26,1.26,0,0,0-.58-.1Zm0-.92h2.36a4.59,4.59,0,0,0,1.62-.27,3.22,3.22,0,0,0,1.21-.77,3.34,3.34,0,0,0,.75-1.21,4.71,4.71,0,0,0,.26-1.6,3.51,3.51,0,0,0-1-2.69,4,4,0,0,0-2.76-.87h-2.49Z"/><path class="cls-2" d="M141.64,82.06a12.8,12.8,0,0,1-.47,3.57,8.43,8.43,0,0,1-1.33,2.74,6.07,6.07,0,0,1-2,1.75,5.89,5.89,0,0,1-5.26,0,6.11,6.11,0,0,1-2-1.75,8.64,8.64,0,0,1-1.33-2.74,13.76,13.76,0,0,1,0-7.13,8.48,8.48,0,0,1,1.33-2.73,6,6,0,0,1,2-1.76,5.51,5.51,0,0,1,2.62-.63,5.65,5.65,0,0,1,2.64.62,6,6,0,0,1,2,1.76,8.43,8.43,0,0,1,1.33,2.74A12.78,12.78,0,0,1,141.64,82.06Zm-1,0a12,12,0,0,0-.39-3.19,7.2,7.2,0,0,0-1.11-2.4A4.94,4.94,0,0,0,137.4,75a4.8,4.8,0,0,0-2.24-.52A4.68,4.68,0,0,0,133,75a5,5,0,0,0-1.73,1.51,7.21,7.21,0,0,0-1.12,2.4,13,13,0,0,0,0,6.39,7.25,7.25,0,0,0,1.12,2.39,4.84,4.84,0,0,0,1.73,1.5,4.68,4.68,0,0,0,2.21.52,4.73,4.73,0,0,0,4-2,7.24,7.24,0,0,0,1.11-2.39A12,12,0,0,0,140.62,82.06Z"/><path class="cls-2" d="M145.53,73.62a.59.59,0,0,1,.16.18l8.79,14.72c0-.24,0-.48,0-.7V73.58h.86v17h-.47a.4.4,0,0,1-.36-.24l-8.83-14.74c0,.24,0,.47,0,.68v14.3h-.85v-17h.48A.41.41,0,0,1,145.53,73.62Z"/><path class="cls-2" d="M168.22,73.58v1h-4.77V90.56h-1V74.62h-4.8v-1Z"/><path class="cls-2" d="M167.79,83h4.46v1h-4.46Z"/><path class="cls-2" d="M183.37,73.58v1h-7.15v6.86h5.95v1h-5.95v7.08h7.15v1h-8.14v-17Z"/><path class="cls-2" d="M187.27,73.62a.59.59,0,0,1,.16.18l8.79,14.72c0-.24,0-.48,0-.7V73.58h.86v17h-.47a.4.4,0,0,1-.36-.24L187.4,75.58c0,.24,0,.47,0,.68v14.3h-.85v-17h.48A.41.41,0,0,1,187.27,73.62Z"/><path class="cls-2" d="M212.53,82.06a12.13,12.13,0,0,1-.48,3.54,8.09,8.09,0,0,1-1.32,2.68,5.76,5.76,0,0,1-4.68,2.28h-5v-17h5a5.69,5.69,0,0,1,4.68,2.28,7.94,7.94,0,0,1,1.32,2.67A12.1,12.1,0,0,1,212.53,82.06Zm-1,0a11.4,11.4,0,0,0-.4-3.17,7.21,7.21,0,0,0-1.1-2.35,4.82,4.82,0,0,0-1.73-1.46,4.88,4.88,0,0,0-2.23-.51h-4v15h4a5,5,0,0,0,2.23-.5A5,5,0,0,0,210,87.59a7.21,7.21,0,0,0,1.1-2.35A11.43,11.43,0,0,0,211.51,82.06Z"/><path class="cls-2" d="M230.82,82.06a12.14,12.14,0,0,1-.47,3.54A8.09,8.09,0,0,1,229,88.28a5.76,5.76,0,0,1-4.69,2.28h-5v-17h5A5.69,5.69,0,0,1,229,75.86a7.94,7.94,0,0,1,1.32,2.67A12.11,12.11,0,0,1,230.82,82.06Zm-1,0a11.79,11.79,0,0,0-.4-3.17,7,7,0,0,0-1.11-2.35,4.71,4.71,0,0,0-1.72-1.46,4.89,4.89,0,0,0-2.24-.51h-4v15h4a5,5,0,0,0,2.24-.5,4.83,4.83,0,0,0,1.72-1.47,7,7,0,0,0,1.11-2.35A11.81,11.81,0,0,0,229.81,82.06Z"/><path class="cls-2" d="M242.12,73.58v1H235v6.86h5.95v1H235v7.08h7.15v1H234v-17Z"/><path class="cls-2" d="M243.46,73.58h.77a.28.28,0,0,1,.22.09.53.53,0,0,1,.14.23L249.22,88a8.34,8.34,0,0,1,.29,1.17,8.38,8.38,0,0,1,.28-1.17l4.62-14.09a.68.68,0,0,1,.14-.23.29.29,0,0,1,.22-.09h.77l-5.6,17h-.88Z"/><path class="cls-2" d="M265.84,73.58v1h-7.15v6.86h5.95v1h-5.95v7.08h7.15v1H257.7v-17Z"/><path class="cls-2" d="M270,89.51h6.44v1h-7.42v-17h1Z"/><path class="cls-2" d="M290.22,82.06a12.8,12.8,0,0,1-.47,3.57,8.64,8.64,0,0,1-1.33,2.74,6.07,6.07,0,0,1-2,1.75,5.71,5.71,0,0,1-2.64.62,5.6,5.6,0,0,1-2.62-.62,6,6,0,0,1-2.05-1.75,8.64,8.64,0,0,1-1.33-2.74,13.76,13.76,0,0,1,0-7.13,8.48,8.48,0,0,1,1.33-2.73A5.93,5.93,0,0,1,281.12,74a5.48,5.48,0,0,1,2.62-.63,5.71,5.71,0,0,1,2.64.62,6,6,0,0,1,2,1.76,8.64,8.64,0,0,1,1.33,2.74A12.78,12.78,0,0,1,290.22,82.06Zm-1,0a12,12,0,0,0-.39-3.19,7.62,7.62,0,0,0-1.11-2.4A4.88,4.88,0,0,0,286,75a5,5,0,0,0-4.45,0,5,5,0,0,0-1.72,1.51,7.22,7.22,0,0,0-1.13,2.4,13,13,0,0,0,0,6.39,7.26,7.26,0,0,0,1.13,2.39,4.89,4.89,0,0,0,1.72,1.5,4.85,4.85,0,0,0,6.18-1.5,7.66,7.66,0,0,0,1.11-2.39A12,12,0,0,0,289.2,82.06Z"/><path class="cls-2" d="M294.68,83.72v6.84h-1v-17h3.51a4.68,4.68,0,0,1,3.6,1.3A5.31,5.31,0,0,1,302,78.62a6.16,6.16,0,0,1-.33,2,4.7,4.7,0,0,1-.95,1.61,4.34,4.34,0,0,1-1.52,1.06,5.14,5.14,0,0,1-2,.38Zm0-1h2.53a4,4,0,0,0,1.61-.31,3.61,3.61,0,0,0,1.2-.86,3.79,3.79,0,0,0,.76-1.31,4.76,4.76,0,0,0,.27-1.63,4.35,4.35,0,0,0-1-3,3.7,3.7,0,0,0-2.87-1h-2.53Z"/><path class="cls-2" d="M313,73.58v1H305.8v6.86h5.95v1H305.8v7.08H313v1h-8.14v-17Z"/><path class="cls-2" d="M317.42,82.88v7.68h-1v-17h3.47a4.81,4.81,0,0,1,3.51,1.13A4.44,4.44,0,0,1,324.58,78a5.89,5.89,0,0,1-.26,1.78,4.41,4.41,0,0,1-.78,1.41,4.17,4.17,0,0,1-1.21,1,4.61,4.61,0,0,1-1.61.51,1.65,1.65,0,0,1,.42.48l4.67,7.35H325a.5.5,0,0,1-.27-.08.64.64,0,0,1-.21-.24l-4.35-6.88a1.19,1.19,0,0,0-.35-.38,1.26,1.26,0,0,0-.58-.1Zm0-.92h2.36a4.51,4.51,0,0,0,1.62-.27,3.22,3.22,0,0,0,1.21-.77,3.51,3.51,0,0,0,.76-1.21,4.71,4.71,0,0,0,.25-1.6,3.47,3.47,0,0,0-.95-2.69,3.94,3.94,0,0,0-2.76-.87h-2.49Z"/><circle class="cls-3" cx="47.8" cy="58.87" r="39.78"/><circle class="cls-4" cx="57.24" cy="59.92" r="39.78"/><path class="cls-5" d="M46.29,84.47c-4.29,10.4.84-2.68-4.77,10.84-2.27,5.47,27.31,6.19,24.44.11C58,78.53,59.9,85.7,58,82.22,54.88,76.42,46.92,82.93,46.29,84.47Z"/><path class="cls-6" d="M46.34,88.3c12.26,5.91,15.14,6.51,28.38,3.41-4.89,4-6.09,5.92-8.38,6.2a54.3,54.3,0,0,1-16.25-.16,31,31,0,0,1-14.68-6.63L47,78.78l3.11.62Z"/><path class="cls-6" d="M61.7,89.47C50.57,95.38,48,96,35.93,92.88c4.44,4,5.53,5.92,7.61,6.2a44.52,44.52,0,0,0,14.75-.17,26.83,26.83,0,0,0,13.33-6.63L61.06,80l-2.82.62Z"/><ellipse class="cls-7" cx="52.36" cy="55.64" rx="23.26" ry="30.55"/><path class="cls-5" d="M40.4,50.77C48.28,57.09,56.86,61,69.54,64.17c4.52,1.14,5,1,7.4-1.54a23.5,23.5,0,0,0,3.94-5.41A19.62,19.62,0,0,0,83.14,46.1c-.69-7.47-5.33-14.67-11.46-21.32l-.22,4c-4.37-5.66-8.84-11.72-7-17.79A15.09,15.09,0,0,0,61.2,16a15,15,0,0,1,2-11.49,73.48,73.48,0,0,1-11.48,8.15L50,8.31c-4.59,7.25-16.69,12.15-23.4,18.86A20,20,0,0,0,20.7,45.93a50.74,50.74,0,0,0,10,20.85C36,61.75,41,56.59,40.4,50.77Z"/><path id="bezier52" class="cls-8" d="M61.87,72.85c0,2.11-4.17,3.83-9.34,3.83S43.19,75,43.19,72.85,47.37,69,52.53,69s9.34,1.72,9.34,3.84Z"/><path id="bezier53" class="cls-9" d="M40,64.73,38.73,70.5l24.79,5.28L64.75,70Z"/><ellipse class="cls-5" cx="50.09" cy="64.73" rx="0.89" ry="2.05"/><ellipse class="cls-5" cx="54.56" cy="64.73" rx="0.89" ry="2.05"/></g></g></svg>