<svg xmlns="http://www.w3.org/2000/svg" viewBox="0 0 350 350"><defs><style>.cls-1{fill:#cfebe8;}.cls-2{fill:#fff;}.cls-3{fill:#f2665f;}.cls-4{fill:#72999b;}.cls-5{fill:#333;}.cls-6{fill:#f9b8ab;}</style></defs><title>PROJETOS</title><g id="Camada_1" data-name="Camada 1"><rect class="cls-1" x="-1.19" y="18.97" width="343.73" height="330.98"/><rect class="cls-2" x="11.66" y="0.1" width="337.42" height="337.42"/><path class="cls-3" d="M156.34,194.28a16.49,16.49,0,0,1,9.32-4.69,3.62,3.62,0,1,0-1.06-7.16,23.75,23.75,0,0,0-13.38,6.74L130.36,210a23.91,23.91,0,0,0,33.82,33.82L185,223a23.68,23.68,0,0,0,6.66-12.89,3.62,3.62,0,1,0-7.13-1.21,16.62,16.62,0,0,1-4.64,9l-20.86,20.86a16.69,16.69,0,1,1-23.6-23.6Z"/><path class="cls-3" d="M203.93,198.48a3.62,3.62,0,1,0-7.08,1.49,29.31,29.31,0,0,1-7.95,26.88L168,247.71a29.37,29.37,0,1,1-41.54-41.54l20.86-20.86a29.54,29.54,0,0,1,28.19-7.64,3.62,3.62,0,0,0,1.82-7,36.78,36.78,0,0,0-35.12,9.54l-20.86,20.86a36.61,36.61,0,0,0,51.77,51.77L194,232a36.53,36.53,0,0,0,9.91-33.49Z"/><path class="cls-3" d="M207.85,227.8a16.56,16.56,0,0,1-8.62,4.57,3.62,3.62,0,0,0,.68,7.17,4,4,0,0,0,.69-.06A23.84,23.84,0,0,0,213,232.91l20.86-20.86A23.91,23.91,0,1,0,200,178.23l-20.86,20.86A23.76,23.76,0,0,0,173,209.78a3.62,3.62,0,1,0,7,1.87,16.68,16.68,0,0,1,4.3-7.45l20.86-20.86a16.69,16.69,0,1,1,23.6,23.6Z"/><path class="cls-3" d="M242.8,169.25a36.65,36.65,0,0,0-51.77,0l-20.86,20.86a36.47,36.47,0,0,0-9.8,34,3.62,3.62,0,0,0,7.06-1.6,29.26,29.26,0,0,1,7.86-27.28l20.86-20.86a29.37,29.37,0,1,1,41.54,41.54l-20.86,20.86a29.26,29.26,0,0,1-27.57,7.79,3.62,3.62,0,1,0-1.67,7,36.86,36.86,0,0,0,8.56,1,36.34,36.34,0,0,0,25.79-10.73L242.8,221a36.64,36.64,0,0,0,0-51.77Z"/><path class="cls-4" d="M66.8,267.23H297.39v13H66.8Z"/><path class="cls-5" d="M47.5,288.92a3.62,3.62,0,0,0,3.62-3.62V131.89a3.63,3.63,0,0,1,3.62-3.62H309.45a3.63,3.63,0,0,1,3.62,3.62V285.3a3.62,3.62,0,0,0,7.24,0V131.89A10.87,10.87,0,0,0,309.45,121H54.74a10.87,10.87,0,0,0-10.86,10.85V285.3A3.62,3.62,0,0,0,47.5,288.92Z"/><path class="cls-5" d="M66.8,139.13a3.62,3.62,0,0,0-3.62,3.62V280.23a3.62,3.62,0,0,0,3.62,3.62H297.39a3.62,3.62,0,0,0,3.62-3.62V142.75a3.62,3.62,0,0,0-3.62-3.62Zm227,137.49H70.42V146.36H293.77V276.62Z"/><path class="cls-5" d="M328,294.71H36.17a15.44,15.44,0,1,0,0,30.87H328a15.44,15.44,0,0,0,0-30.87Zm0,23.64H36.17a8.21,8.21,0,1,1,0-16.41H328a8.21,8.21,0,1,1,0,16.41Z"/></g><g id="Camada_2" data-name="Camada 2"><path class="cls-6" d="M179.34,27.88H297.62c7.95,0,12.78,4.83,12.79,12.77q0,27,0,54c0,7.39-5,12.37-12.37,12.37H60.66c-7.39,0-12.37-5-12.38-12.36q0-27.2,0-54.4c0-7.38,5-12.36,12.36-12.37Z"/><path class="cls-3" d="M74.25,62.66c4.78-5.92,6.67-5.86,9.87.17.53-.84,1-1.68,1.54-2.42a4.35,4.35,0,0,1,4.25-2,4,4,0,0,1,3.47,3.61c.81,6.82.27,13.68.32,20.53,0,1.4-1.06,1.32-2,1.34-1.38,0-1.47-.93-1.47-2,0-4.8,0-9.6,0-14.4A16.06,16.06,0,0,0,90,63.89c-.51-2-1.77-2.5-3.15-.75a10.09,10.09,0,0,0-2.53,6.76c.14,3.84,0,7.68,0,11.52,0,1.6-.26,2.6-2.22,2.54s-1.72-1.35-1.72-2.55c0-5.07,0-10.15,0-15.22,0-1.45.5-3.51-1.24-4-2-.53-2.48,1.72-3.32,3A8.2,8.2,0,0,0,74.61,70c.09,3.84,0,7.68,0,11.52,0,1.27.1,2.44-1.8,2.5s-2.21-1-2.2-2.56c0-6.31,0-12.62.06-18.92,0-1.17-.85-3,1.37-3.24C74.76,58.94,73.51,61.27,74.25,62.66Z"/><path class="cls-3" d="M215.12,62.58c2.22-1.36,3.38-2.95,5.26-3.65,4.49-1.67,9.08.33,10,4.82,1.28,6.09.44,12.3.62,18.46,0,1.54-.93,1.68-2.16,1.74-1.78.09-2-.94-2-2.33,0-4.25.07-8.51,0-12.76-.09-4.8-1.64-7.06-4.6-7-3.14.11-6.72,4.07-6.78,7.58-.05,3.7,0,7.41,0,11.11,0,1.51.63,3.43-2.17,3.38-2.57,0-1.92-1.81-1.93-3.16,0-6.17-.06-12.34,0-18.51,0-1.16-.79-2.87,1.52-3.1S214.83,60.86,215.12,62.58Z"/><path class="cls-3" d="M274.27,84.93c-1.61-.26-3.22-.62-4.85-.75-1.81-.15-2.35-1.09-2.1-2.73.31-1.93,1.67-.83,2.56-.82,2.84,0,5.62,1.29,8.54.21,1.48-.55,2.9-.91,3.12-2.77.25-2.08-1.11-3-2.72-3.59-2.16-.84-4.42-1.45-6.54-2.39-2.78-1.23-4.93-3.11-4.77-6.52s2.25-5.39,5.39-6.46a18.61,18.61,0,0,1,9.34-.35c1.41.23,2.22,1,2,2.51-.24,1.75-1.55,1.21-2.54,1.18-2-.07-4-1-6.1-.35-1.69.55-3.66.77-3.81,3.08-.13,2,1.49,2.8,3,3.44s3.09,1.07,4.64,1.63c5.09,1.85,6.76,3.89,6.39,7.78-.33,3.45-3.11,5.85-7.84,6.59a24,24,0,0,1-3.7,0Z"/><path class="cls-3" d="M168.39,65c0,3.84.18,7.7-.06,11.53-.19,3,.64,4.32,3.85,4,1.35-.14,3.75-1,3.54,1.89-.18,2.47-2.29,1.41-3.56,1.45-4.39.13-8.78.07-13.18,0-1.26,0-2.92.5-2.84-1.8.08-2,1.54-1.79,2.65-1.6,4.67.8,5.84-1.21,5.55-5.64a179.33,179.33,0,0,1,0-18.11c.11-3.1-.57-4.74-4-4.14a9.49,9.49,0,0,1-2.06,0c-1.09-.05-1.27-.77-1.27-1.68s.35-1.56,1.39-1.58c.27,0,.55,0,.82,0,9.2-.87,9.2-.87,9.2,8.32Z"/><path class="cls-3" d="M195.89,69.92c0,1.51.1,3,0,4.52-.32,3.89-.21,7.27,5.31,6.08,1.17-.24,2.11.17,2.12,1.73s-1,1.68-2.16,1.68H185.53c-1,0-1.86-.17-1.92-1.52s.7-1.77,2-1.94c6.14-.87,6.14-.9,6.14-7.23,0-1.51-.1-3,0-4.52.3-3.85.29-7.3-5.28-6.11-1.22.26-2.08-.33-2-1.84,0-1.31.81-1.57,1.88-1.56.27,0,.54,0,.82,0C195.89,58.74,195.89,58.74,195.89,69.92Z"/><path class="cls-3" d="M244.48,71.48c-1.66,3.07-.44,6.38-.75,9.57-.14,1.52.19,3-2.22,2.93-2.13-.06-2-1.34-2-2.74V52c0-1.38-.2-2.7,2-2.77,2.39-.08,2.23,1.36,2.22,2.92,0,4.66-.06,9.32,0,14,0,1.28-.65,2.77.73,3.81A1.09,1.09,0,0,1,244.48,71.48Z"/><path class="cls-3" d="M244.48,71.48c0-.5,0-1,0-1.51,2.65-2.76,5.45-5.38,7.89-8.31,2-2.43,4.27-3,7.62-2-3,3-5.67,5.88-8.59,8.48-2,1.81-2.39,3.11-.24,5.19,3.22,3.12,6.12,6.57,9.42,10.17-3.22,1-5.53.61-7.57-2C250.33,78,247.33,74.78,244.48,71.48Z"/><path class="cls-3" d="M138,69c1.64,0,3.28,0,4.93,0,1.32,0,2,.45,2,1.91s-.85,1.53-1.9,1.52c-3.56,0-7.12,0-10.69,0-1.13,0-1.76-.38-1.76-1.66s.49-1.77,1.68-1.77Q135.15,69,138,69Z"/><path class="cls-3" d="M192.59,49.26c2.66.05,3.86,1.27,3.84,3.27a3.22,3.22,0,0,1-6.44.23A3.17,3.17,0,0,1,192.59,49.26Z"/><path class="cls-3" d="M120,51.65c0-1.77-.58-2.39-2.36-2.38s-2,1-1.91,2.39c0,.55-.06,1.1,0,1.64.46,3.64.25,6.53-4.8,5.14a6.68,6.68,0,0,0-3.2.4,10.41,10.41,0,0,0-8.12,8.85C98.79,73.09,98.27,78.77,103,83c2.2,2,4.83,2.21,7.67,1.1,2-.77,3.25-2.38,5.12-3.82.44,1.68-.12,4,2.7,3.65,1.68-.21,1.52-1.25,1.52-2.32C120,71.64,119.94,61.65,120,51.65Zm-8.29,28.14c-3.2,2.34-6.15,1.64-7.46-2.06a16.33,16.33,0,0,1,.12-11.64,7.34,7.34,0,0,1,10-3.48c2.81,1.63.62,4.53,1.31,6.7C116.47,73.63,115.29,77.17,111.71,79.79Z"/></g></svg>