<svg id="Camada_1" data-name="Camada 1" xmlns="http://www.w3.org/2000/svg" viewBox="0 0 110 110"><defs><style>.cls-1{fill:#506467;}.cls-2{fill:none;}</style></defs><title>ICONS-VERDE-R01</title><path class="cls-1" d="M98.8,36.37a.36.36,0,0,1,.25,0l2,1.19a.2.2,0,0,1,.12.21v2.34a.25.25,0,0,1-.12.21l-2,1.18a.36.36,0,0,1-.25,0l-2-1.18a.2.2,0,0,1-.12-.21V37.77a.2.2,0,0,1,.12-.21Z"/><path class="cls-2" d="M.33,49.7a.61.61,0,0,0,.64,0l6.29-3.61A1.33,1.33,0,0,0,7.89,45V37.28a1.34,1.34,0,0,1,.64-1.12l2.67-1.55a1.32,1.32,0,0,1,.64-.18,1.21,1.21,0,0,1,.64.18l2.67,1.55a1.28,1.28,0,0,1,.64,1.12V45a1.32,1.32,0,0,0,.64,1.13l6.31,3.61a.61.61,0,0,0,.64,0,.67.67,0,0,0,.3-.54l.06-16.46a1.34,1.34,0,0,0-.63-1.13l-10.6-6.1a2.05,2.05,0,0,0-.58-.18h-.12a1,1,0,0,0-.58.18L.64,31.57A1.33,1.33,0,0,0,0,32.7L0,49.16A.59.59,0,0,0,.33,49.7Z"/><path class="cls-2" d="M84.42,72.39h.82V70.7h.7c.29,0,.35.12.41.35,0,.06.17,1.11.17,1.28h.88a4.41,4.41,0,0,1-.24-1.11c-.11-.52-.11-.87-.7-.93a.88.88,0,0,0,.76-1c0-1.11-1-1.11-1.46-1.11H84.42Zm.76-3.5h.64c.18,0,.59,0,.59.58a.57.57,0,0,1-.65.59h-.64Z"/><path class="cls-2" d="M81.13,13.63l-6.31-3.52a.61.61,0,0,0-.64,0,.67.67,0,0,0-.3.54V27a.52.52,0,0,1-.22.39.41.41,0,0,1-.45,0l-2.67-1.51a1.19,1.19,0,0,0-1.28,0L58.63,32A1.29,1.29,0,0,0,58,33.06V45.33a1.34,1.34,0,0,0,.64,1.12l10.63,6.14a1.23,1.23,0,0,0,1.28,0l10.62-6.14a1.27,1.27,0,0,0,.64-1.12V14.75A1.28,1.28,0,0,0,81.13,13.63ZM73.81,41.26a.32.32,0,0,1-.15.27L70,43.63a.32.32,0,0,1-.33,0L66,41.53a.32.32,0,0,1-.15-.27V37a.32.32,0,0,1,.15-.27l3.65-2.1a.32.32,0,0,1,.33,0l3.64,2.1a.32.32,0,0,1,.15.27Z"/><path class="cls-2" d="M61.79,90.18c-5.07,0-6.24-1.28-6.59-3.79a.48.48,0,0,0-.52-.47H52.17a.54.54,0,0,0-.58.53c0,3.26,1.75,7.11,10.14,7.11,6.07,0,9.57-2.39,9.57-6.59s-2.8-5.31-8.69-6.06S56,79.68,56,78.28c0-1.17.52-2.68,5-2.68,4,0,5.42.81,6,3.5a.58.58,0,0,0,.53.41H70a.5.5,0,0,0,.4-.18.52.52,0,0,0,.18-.41c-.35-4.55-3.38-6.7-9.57-6.7-5.48,0-8.74,2.27-8.74,6.18,0,4.2,3.26,5.36,8.51,5.89,6.3.64,6.77,1.57,6.77,2.8C67.57,89.25,65.82,90.18,61.79,90.18Z"/><path class="cls-2" d="M77.13,68,57.88,56.93a4.11,4.11,0,0,0-4,0L34.61,68a4,4,0,0,0-2,3.5V93.68a4.08,4.08,0,0,0,2,3.5l5,2.92c2.45,1.22,3.32,1.22,4.43,1.22,3.62,0,5.72-2.22,5.72-6V73.38a.52.52,0,0,0-.53-.52H46.8a.53.53,0,0,0-.58.52v22c0,1.69-1.75,3.38-4.61,1.93l-5.25-3a.61.61,0,0,1-.29-.52V71.57a.62.62,0,0,1,.29-.52L55.55,60a.51.51,0,0,1,.58,0L75.32,71.05a.61.61,0,0,1,.3.52V93.74a.6.6,0,0,1-.3.52L56.08,105.35a.57.57,0,0,1-.59,0l-5-2.92a.45.45,0,0,0-.47-.06,12.24,12.24,0,0,1-2.92,1.34c-.29.12-.76.29.18.82l6.41,3.79a4.3,4.3,0,0,0,2,.52,4.75,4.75,0,0,0,2.1-.58L77.13,97.18a3.93,3.93,0,0,0,2-3.5V71.52A4.06,4.06,0,0,0,77.13,68Z"/><path class="cls-2" d="M82,70.29a3.74,3.74,0,0,0,7.47,0,3.8,3.8,0,0,0-3.73-3.73A3.76,3.76,0,0,0,82,70.29Zm6.83,0a3.09,3.09,0,1,1-3.09-3.09A3.07,3.07,0,0,1,88.8,70.29Z"/><path class="cls-1" d="M70,34.67a.32.32,0,0,0-.33,0L66,36.77a.32.32,0,0,0-.15.27v4.22a.32.32,0,0,0,.15.27l3.65,2.1a.32.32,0,0,0,.33,0l3.64-2.1a.32.32,0,0,0,.15-.27V37a.32.32,0,0,0-.15-.27Z"/><path class="cls-1" d="M41,34.67a.34.34,0,0,0-.34,0L37,36.77a.32.32,0,0,0-.15.27v4.22a.32.32,0,0,0,.15.27l3.64,2.1a.34.34,0,0,0,.34,0l3.64-2.1a.32.32,0,0,0,.15-.27V37a.32.32,0,0,0-.15-.27Z"/><path class="cls-1" d="M82.62,70.29a3.09,3.09,0,1,0,3.09-3.09A3.07,3.07,0,0,0,82.62,70.29Zm4.6-1a.88.88,0,0,1-.76,1c.59.06.59.41.7.93a4.41,4.41,0,0,0,.24,1.11h-.88c0-.17-.17-1.22-.17-1.28-.06-.23-.12-.35-.41-.35h-.7v1.69h-.82v-4.2h1.34C86.23,68.19,87.22,68.19,87.22,69.3Z"/><path class="cls-1" d="M87.72,31.76l10.63-6.14a1.21,1.21,0,0,1,1.27,0l10.38,6V0H0V32.7a1.33,1.33,0,0,1,.64-1.13l10.59-6.1a1,1,0,0,1,.58-.18h.12a2.05,2.05,0,0,1,.58.18l10.6,6.1a1.34,1.34,0,0,1,.63,1.13l-.06,16.46a.67.67,0,0,1-.3.54.61.61,0,0,1-.64,0l-6.31-3.61A1.32,1.32,0,0,1,15.79,45V37.28a1.28,1.28,0,0,0-.64-1.12l-2.67-1.55a1.21,1.21,0,0,0-.64-.18,1.32,1.32,0,0,0-.64.18L8.53,36.16a1.34,1.34,0,0,0-.64,1.12V45a1.33,1.33,0,0,1-.63,1.13L1,49.7a.61.61,0,0,1-.64,0,.59.59,0,0,1-.3-.54L0,32.7V110H110V37l-6.25,3.61a.6.6,0,0,1-.63,0,.56.56,0,0,1-.34-.54v-3a.66.66,0,0,0-.33-.55l-3.31-1.91a.61.61,0,0,0-.64,0l-3.31,1.91a.58.58,0,0,0-.33.55v3.86a.63.63,0,0,0,.33.54l10.69,6.14a.57.57,0,0,1,.33.54.64.64,0,0,1-.33.55L99.5,52.25a1.3,1.3,0,0,1-1.24,0l-10.54-6a1.34,1.34,0,0,1-.64-1.12V32.88A1.29,1.29,0,0,1,87.72,31.76Zm-35,13.36a1.26,1.26,0,0,1-.64,1.09l-10.56,6.1a1.35,1.35,0,0,1-.52.15h-.05a1,1,0,0,1-.24,0,.39.39,0,0,1-.15,0,1,1,0,0,1-.32-.12l-10.56-6.1A1.23,1.23,0,0,1,29,45.12V32.91a1.26,1.26,0,0,1,.64-1.09l0,0v0l0,0,10.5-6.06a1.49,1.49,0,0,1,.52-.15h.12a.75.75,0,0,1,.24,0h0a1.53,1.53,0,0,1,.39.14l6.3,3.65L52,31.79a.41.41,0,0,1,.13.1,1.25,1.25,0,0,1,.54,1ZM79.17,93.68a3.93,3.93,0,0,1-2,3.5L57.88,108.26a4.75,4.75,0,0,1-2.1.58,4.3,4.3,0,0,1-2-.52l-6.41-3.79c-.94-.53-.47-.7-.18-.82a12.24,12.24,0,0,0,2.92-1.34.45.45,0,0,1,.47.06l5,2.92a.57.57,0,0,0,.59,0L75.32,94.26a.6.6,0,0,0,.3-.52V71.57a.61.61,0,0,0-.3-.52L56.13,60a.51.51,0,0,0-.58,0L36.36,71.05a.62.62,0,0,0-.29.52V93.74a.61.61,0,0,0,.29.52l5.25,3c2.86,1.45,4.61-.24,4.61-1.93v-22a.53.53,0,0,1,.58-.52h2.45a.52.52,0,0,1,.53.52V95.31c0,3.79-2.1,6-5.72,6-1.11,0-2,0-4.43-1.22l-5-2.92a4.08,4.08,0,0,1-2-3.5V71.52a4,4,0,0,1,2-3.5L53.86,56.93a4.11,4.11,0,0,1,4,0L77.13,68a4.06,4.06,0,0,1,2,3.5ZM60.8,84.29c-5.25-.53-8.51-1.69-8.51-5.89,0-3.91,3.26-6.18,8.74-6.18,6.19,0,9.22,2.15,9.57,6.7a.52.52,0,0,1-.18.41.5.5,0,0,1-.4.18H67.51A.58.58,0,0,1,67,79.1c-.58-2.69-2-3.5-6-3.5-4.44,0-5,1.51-5,2.68,0,1.4.58,1.81,6.59,2.63S71.3,82.77,71.3,87s-3.5,6.59-9.57,6.59c-8.39,0-10.14-3.85-10.14-7.11a.54.54,0,0,1,.58-.53h2.51a.48.48,0,0,1,.52.47c.35,2.51,1.52,3.79,6.59,3.79,4,0,5.78-.93,5.78-3.09C67.57,85.86,67.1,84.93,60.8,84.29Zm21-39a1.27,1.27,0,0,1-.64,1.12L70.54,52.59a1.23,1.23,0,0,1-1.28,0L58.63,46.45A1.34,1.34,0,0,1,58,45.33V33.06A1.29,1.29,0,0,1,58.63,32l10.63-6.13a1.19,1.19,0,0,1,1.28,0l2.67,1.51a.41.41,0,0,0,.45,0,.52.52,0,0,0,.22-.39V10.65a.67.67,0,0,1,.3-.54.61.61,0,0,1,.64,0l6.31,3.52a1.28,1.28,0,0,1,.67,1.12Zm7.64,25a3.74,3.74,0,1,1-3.73-3.73A3.8,3.8,0,0,1,89.44,70.29Z"/><path class="cls-1" d="M86.41,69.47c0-.58-.41-.58-.59-.58h-.64l-.06,1.17h.64A.57.57,0,0,0,86.41,69.47Z"/><path class="cls-1" d="M40.94,52.46a1,1,0,0,1-.24,0A1,1,0,0,0,40.94,52.46Z"/><path class="cls-1" d="M41.14,25.59a1.14,1.14,0,0,1,.34.12l3.64,2.1,2.69,1.55-6.3-3.65a1.53,1.53,0,0,0-.39-.14l0,0Z"/><polygon class="cls-1" points="29.66 46.21 40.23 52.31 38.71 51.43 29.66 46.21"/><path class="cls-1" d="M40.55,52.43a1,1,0,0,1-.32-.12A1,1,0,0,0,40.55,52.43Z"/><polygon class="cls-1" points="29.73 31.74 29.7 31.76 29.71 31.79 29.73 31.78 29.73 31.74"/><polygon class="cls-1" points="29.73 31.78 29.71 31.79 29.73 31.81 29.73 31.78"/><path class="cls-1" d="M52.17,31.89a.41.41,0,0,0-.13-.1l-4.23-2.43,4.26,2.46Z"/><path class="cls-1" d="M41,52.46h0Z"/><path class="cls-1" d="M40.7,52.45a.39.39,0,0,1-.15,0A.39.39,0,0,0,40.7,52.45Z"/><path class="cls-1" d="M40.23,25.71a1.3,1.3,0,0,1,.64-.18h-.12a1.49,1.49,0,0,0-.52.15l-10.5,6.06v0Z"/><path class="cls-1" d="M41.11,25.56a.75.75,0,0,0-.24,0,1.18,1.18,0,0,1,.25,0Z"/></svg>