<svg id="Camada_1" data-name="Camada 1" xmlns="http://www.w3.org/2000/svg" viewBox="0 0 350 350"><defs><style>.cls-1{fill:#cfebe8;}.cls-2{fill:#fff;}.cls-3{fill:#edf0f1;}.cls-4{fill:#555f74;}.cls-5{fill:#f4f4f5;}.cls-6{fill:#f9b8ab;}.cls-7{fill:#4b6064;}.cls-8{fill:#aad0d2;}.cls-9{fill:#f2665f;}</style></defs><title>PROJETOS</title><rect class="cls-1" x="-0.27" y="18.87" width="343.73" height="330.98"/><rect class="cls-2" x="12.58" width="337.42" height="337.42"/><rect class="cls-3" x="40.35" y="91.68" width="279.8" height="213.67" transform="translate(-16.65 16.5) rotate(-5.01)"/><path class="cls-4" d="M334.46,297.34,45.59,322.68,26,99.69,314.91,74.36ZM54.84,311.65,323.43,288.1,305.66,85.38,37.06,108.93Z"/><rect class="cls-5" x="60.7" y="112.03" width="239.11" height="172.97" transform="translate(-16.65 16.5) rotate(-5.01)"/><circle class="cls-6" cx="102.21" cy="191.95" r="23.24"/><polygon class="cls-7" points="297.44 224.55 291.87 219.37 226.17 168.96 178.07 231.9 208.29 257.25 230.44 275.82 301.39 269.6 297.44 224.55"/><polygon class="cls-8" points="73.33 289.6 230.44 275.82 208.29 257.25 147.84 206.55 72.89 284.53 73.33 289.6"/><path class="cls-9" d="M307.94,273.33c5.25-4.64,13.43-7.4,20.3-4.25,9.25,4.25,12.45,14.83,9.18,24.18a17.15,17.15,0,0,1-3.41,6,30.08,30.08,0,0,1-15.26,9.95l-31.38,8.94-13.68-29.63a30,30,0,0,1-2.4-18.06,17.09,17.09,0,0,1,2.32-6.48c4.95-8.58,15.06-13.05,24.31-8.8C304.79,258.32,308,266.32,307.94,273.33Z"/><path class="cls-9" d="M70,27.87C13.92,35.38,17.2,96,45,104.09c2.86.85,2.3-.58,3.44-9.76a2.13,2.13,0,0,0-.79-2c-15.6-13.82-9-47.4,22.11-51.57,45.07-6,45,57.45,16.19,61.31-7.42,1-13.73-4.1-13-11.54,1-8.88,3.89-18.67,3.06-24.86-2.09-15.6-25-10.17-22.26,10.5a25.26,25.26,0,0,0,3.7,10.4S54,117.78,53.4,123.62c-.73,6.69,3.26,30.48,5.56,26.45.61-1.07,7.92-15.17,9.2-24.83.47-3.52,2.41-17.81,2.41-17.81,3.09,4.17,10.79,7,18.44,5.95,22.78-3,36.57-25.28,33.24-50.13C119,39.44,96.21,24.35,70,27.87Z"/><path class="cls-9" d="M172.76,134.6c-7.39,8.35-18.85,8.68-23.77,1.55-1.69,3.07-3.79,5.61-7.15,6.8-3.9,1.38-6.35.81-8.91-2.28-1.92,2.28-4.12,4.06-7.25,4.37-4,.38-6.35-1.28-6.51-5.31a75.21,75.21,0,0,1,.68-9.45c.13-1.45.46-2.89.49-4.33,0-2.5-1.64-3.75-4.08-3.06a6.65,6.65,0,0,0-4.87,5.72c-.86,5-1.61,10-2.17,15.09-.23,2-.89,3.07-3,3a11,11,0,0,0-1.38.15c-2.63.3-2.63.3-2.69-2.7-.62.61-1,1-1.47,1.46a9.61,9.61,0,0,1-6.12,2.93c-3.53.31-5.88-1.33-6.09-4.9a47.37,47.37,0,0,1,.57-8.47c.5-4.2,1.2-8.37,1.71-12.56a2,2,0,0,1,2-2c5.21-.88,5.17-.91,4.43,4.27-.61,4.25-1.15,8.51-1.71,12.77a7.85,7.85,0,0,0-.11,1.18c0,1.43-.29,3.15,1.42,3.78a3.36,3.36,0,0,0,4.11-1.66,25,25,0,0,0,2.82-6.86c.87-4.2,1.3-8.49,1.8-12.75.19-1.59.81-2.38,2.46-2.44,1.42,0,2.83-.29,4.31-.46l.28,2.52a13.54,13.54,0,0,1,1.39-1.21,22.43,22.43,0,0,1,3.7-2.25c5.21-2.06,9.56.68,9.57,6.24,0,3.21-.69,6.42-1.06,9.63a9.61,9.61,0,0,0-.17,3.14c.24,1,.92,2.36,1.65,2.53.92.22,2.19-.46,3.1-1.06a3.36,3.36,0,0,0,1.18-2c1-4.9,1.86-9.81,2.85-15.16l-5.13.58a18.87,18.87,0,0,1,.65-4.35c.22-.58,1.46-1,2.24-1,2.17,0,3.11-.9,3.09-3a19.93,19.93,0,0,1,.35-3c.52-3.91,2.16-5.45,6-5.72,1.36-.09,1.3.84,1.2,1.72-.27,2.23-.59,4.45-.87,6.68-.09.64-.13,1.27-.21,2.18,1.49-.17,2.73-.26,4-.46,1.39-.23,2,.19,1.77,1.68-.4,3.28-.35,3.42-3.81,3.63-2.1.12-3,.82-3.13,3-.29,3.88-1.06,7.72-1.36,11.6-.08,1,.57,2.82,1.32,3.09a4.29,4.29,0,0,0,3.52-.81c2.26-1.85,3.11-4.52,3.23-7.4.21-5.45,1.8-10.3,6.22-13.81a14,14,0,0,1,10.77-3.07c3.61.45,6.1,2.48,6.72,5.27.89,3.95-.43,7.58-3.53,9.59s-6.63,2.53-10.26,2.45c-.73,0-1.45-.08-2.17-.12a5.65,5.65,0,0,0,5.35,6.46,13.48,13.48,0,0,0,13.59-11.17c.58-3.92,1.18-7.84,1.65-11.77a1.89,1.89,0,0,1,2-2c1.6-.11,3.19-.34,5-.54l-.37,3.79.53.38a5.59,5.59,0,0,1,.87-1.58,20.56,20.56,0,0,1,4.25-3.44c4.73-2.3,9.34.9,9.1,6.14,0,.91-.16,1.82-.24,2.73,1.44.91,1.83.12,2.22-1.08,2.12-6.67,6.81-10.42,13.57-10.93,4.5-.35,8.15,1.77,9.17,5.32a8.56,8.56,0,0,1-5,10.29c-2.83,1.09-6,1.27-9,1.81a9.69,9.69,0,0,1-1.94,0,5.45,5.45,0,0,0,5.1,6.33,14.75,14.75,0,0,0,11.14-4.32,3.81,3.81,0,0,0,.8-1.33c.94-2.44,2.68-3.51,4.65-2.81,1.61.57,2,1.94,1.35,4.51,2.4,2,7,2.56,9.66.92a3.25,3.25,0,0,0,1.55-2.25,3.68,3.68,0,0,0-1.61-2.45,10.73,10.73,0,0,0-3.17-1c-1.72-.48-3.49-.81-5.16-1.41a7.06,7.06,0,0,1-5.13-6.17,7.67,7.67,0,0,1,3.56-7.84,20.15,20.15,0,0,1,4.54-1.86,20.37,20.37,0,0,1,3-.56c-.39-.75-.68-1.31-1-1.85A14.07,14.07,0,0,1,238,84.67c4.87-4.3,13-4.88,18.08-1.26,4.34,3.06,5.46,7.41,4.86,12.41-.22,1.82-.43,3.63-.67,5.73,1.68-.19,3.11-.33,4.53-.52,1.22-.16,1.86,0,1.66,1.56-.43,3.4-.36,3.41-3.89,3.81-3.1.35-3.09.35-3.49,3.4-.46,3.47-1,6.93-1.37,10.41-.19,1.62-.48,3.48,1.65,4.14,1.91.6,4-.72,4.56-3.12s1.74-2.64,3.66-2.32c.44,4.43-3.52,10.14-8.45,11.06-.45.08-.91.16-1.37.21-4.53.52-7.27-1.75-7-6.3.32-4.94,1.09-9.85,1.66-14.77,0-.38.09-.76.16-1.43a29.48,29.48,0,0,0-3,.19c-1.42.22-1.73-.41-1.62-1.68.3-3.25.26-3.34,3.57-3.64,1.49-.13,2.07-.75,2.19-2.15.22-2.49.72-5,.73-7.47,0-4.47-2-7.13-5.53-7.83a9.39,9.39,0,0,0-10.36,5.19,12.19,12.19,0,0,0,3.3,13.55c.92.76,1.91,1.43,2.79,2.23,1.65,1.51,1.92,3.42.75,4.72a3.24,3.24,0,0,1-4.92-.33c-1.8-2.47-4.07-2.23-6.35-1.57a4.25,4.25,0,0,0-2.45,2.38c-.53,1.46.61,2.51,2,2.94,2.08.65,4.23,1.07,6.31,1.7,2.7.82,5.31,1.82,6.35,4.83,1.35,3.89-.29,7.83-4.17,10.09a16.54,16.54,0,0,1-17.76-1.21c-3.34,1.78-6.32,3.78-9.6,5-3.71,1.39-7.68,1.56-11.33-.56a10.29,10.29,0,0,1-5.17-8.85c-.17-2.74-1.69-3.51-4.27-2.33a10.43,10.43,0,0,1-4.14,1,2.75,2.75,0,0,1-3-2.61,2.55,2.55,0,0,1,2.29-3c1-.19,1.77-.57,1.46-1.59a3.55,3.55,0,0,0-1.59-2.16c-1.79-.64-3.16.44-4.26,1.78-2.26,2.76-3.13,6.11-3.79,9.49-.69,3.56-1.18,7.16-1.66,10.76a2.06,2.06,0,0,1-2.14,2.06C172.7,139.27,172.71,139.32,172.76,134.6ZM154.92,126a48.72,48.72,0,0,0,6.62-.81,3.73,3.73,0,0,0,2.92-4A4.68,4.68,0,0,0,162.8,118c-1.64-1-3.49-.32-4.94.88C155.83,120.51,155.23,122.86,154.92,126Zm50.73-6.12c2.7.51,5.22.58,7.53-.86a4.25,4.25,0,0,0,1.41-5.87c-1-1.52-3.28-1.77-5.33-.47C206.68,114.34,206,116.94,205.65,119.91Z"/></svg>