<svg xmlns="http://www.w3.org/2000/svg" viewBox="0 0 350 350"><defs><style>.cls-1{fill:#cfebe8;}.cls-2{fill:#fff;}.cls-3{fill:#333;}.cls-4{fill:#f2665f;}.cls-5{fill:#ef4129;}.cls-6{fill:#4d251e;}.cls-7{fill:#eceadc;}.cls-8{fill:#aad0d2;}.cls-9{fill:#c07f69;}.cls-10{fill:#ffce58;}.cls-11{fill:#b159a2;}.cls-12{fill:#aabb5b;}.cls-13{fill:#efefd2;}.cls-14{fill:#fdded5;}.cls-15{fill:#e76454;}.cls-16{fill:#d9be6f;}.cls-17{fill:#6c505c;}.cls-18{fill:#9ec1e3;}</style></defs><title>poketmon</title><g id="Camada_1" data-name="Camada 1"><rect class="cls-1" x="-0.13" y="19.68" width="343.73" height="330.98"/><rect class="cls-2" x="12.72" y="0.81" width="337.42" height="337.42"/></g><g id="Camada_2" data-name="Camada 2"><path class="cls-3" d="M92.42,55.93H44.32a8.67,8.67,0,0,0-8.66,8.65v18a32.71,32.71,0,1,0,65.42,0v-18A8.66,8.66,0,0,0,92.42,55.93Z"/><path class="cls-2" d="M68.07,87.41A29.77,29.77,0,0,0,97.7,57.52H38.44A29.77,29.77,0,0,0,68.07,87.41Z"/><path class="cls-3" d="M68.07,88.79a31.18,31.18,0,0,1-31-31.27,1.38,1.38,0,0,1,1.38-1.38H97.7a1.38,1.38,0,0,1,1.38,1.38A31.18,31.18,0,0,1,68.07,88.79ZM39.86,58.9a28.23,28.23,0,0,0,56.42,0Z"/><path class="cls-4" d="M78.29,29.94a30.08,30.08,0,0,0-10.22-1.79A29.5,29.5,0,0,0,38.44,57.52H97.7a29.16,29.16,0,0,0-9.38-21.43"/><path class="cls-3" d="M97.7,58.9H38.44a1.38,1.38,0,0,1-1.38-1.38,31.06,31.06,0,0,1,41.7-28.87,1.38,1.38,0,1,1-1,2.59,28.34,28.34,0,0,0-37.95,24.9H96.28a27.57,27.57,0,0,0-8.9-19,1.39,1.39,0,1,1,1.89-2,30.79,30.79,0,0,1,9.81,22.45A1.38,1.38,0,0,1,97.7,58.9Z"/><path class="cls-5" d="M84.36,33c-.49-.33-1-.64-1.51-.93"/><path class="cls-6" d="M84.36,34.41a1.33,1.33,0,0,1-.76-.23c-.47-.31-.95-.6-1.44-.88a1.39,1.39,0,0,1,1.39-2.4c.53.31,1.06.63,1.57,1a1.38,1.38,0,0,1,.39,1.92A1.37,1.37,0,0,1,84.36,34.41Z"/><path class="cls-7" d="M77.53,57.78a9.46,9.46,0,1,1-9.46-9.46A9.45,9.45,0,0,1,77.53,57.78Z"/><path class="cls-3" d="M68.07,68.63A10.85,10.85,0,1,1,78.92,57.78,10.87,10.87,0,0,1,68.07,68.63Zm0-18.93a8.08,8.08,0,1,0,8.08,8.08A8.08,8.08,0,0,0,68.07,49.7Z"/><path class="cls-7" d="M72.19,57.78a4.12,4.12,0,1,1-4.12-4.12A4.12,4.12,0,0,1,72.19,57.78Z"/><path class="cls-3" d="M68.07,63.28a5.5,5.5,0,1,1,5.5-5.5A5.51,5.51,0,0,1,68.07,63.28Zm0-8.24a2.74,2.74,0,1,0,2.74,2.74A2.74,2.74,0,0,0,68.07,55Z"/><path class="cls-2" d="M68.35,97.55A1.38,1.38,0,0,1,67,96.17V92a1.39,1.39,0,0,1,2.77,0v4.15A1.38,1.38,0,0,1,68.35,97.55Z"/><path class="cls-2" d="M68.35,107.23A1.38,1.38,0,0,1,67,105.85V101.7a1.39,1.39,0,0,1,2.77,0v4.15A1.38,1.38,0,0,1,68.35,107.23Z"/><path class="cls-2" d="M65.58,100.32H61.43a1.39,1.39,0,0,1,0-2.77h4.15a1.39,1.39,0,0,1,0,2.77Z"/><path class="cls-2" d="M75.26,100.32H71.11a1.39,1.39,0,0,1,0-2.77h4.15a1.39,1.39,0,0,1,0,2.77Z"/><path class="cls-3" d="M31.45,48.11a4.25,4.25,0,0,1-4.08-3,4.26,4.26,0,1,1,5.32,2.85A4.43,4.43,0,0,1,31.45,48.11Zm0-5.76a1.59,1.59,0,0,0-.43.06,1.51,1.51,0,0,0-.89.73A1.46,1.46,0,0,0,30,44.28a1.48,1.48,0,0,0,1.87,1,1.5,1.5,0,0,0-.44-2.93Z"/><path class="cls-2" d="M68.3,103.25A4.27,4.27,0,1,1,72.57,99,4.26,4.26,0,0,1,68.3,103.25Zm0-5.76A1.5,1.5,0,1,0,69.8,99,1.5,1.5,0,0,0,68.3,97.49Z"/><path class="cls-3" d="M99,36.35A1.38,1.38,0,0,1,98,34l4.08-4.07a1.38,1.38,0,0,1,2,1.95L100,36A1.38,1.38,0,0,1,99,36.35Z"/><path class="cls-3" d="M103.08,36.35a1.37,1.37,0,0,1-1-.4L98,31.87a1.38,1.38,0,0,1,2-1.95L104.05,34a1.39,1.39,0,0,1,0,2A1.36,1.36,0,0,1,103.08,36.35Z"/><path class="cls-3" d="M48.24,28.18a2.31,2.31,0,1,1-2.31-2.31A2.31,2.31,0,0,1,48.24,28.18Z"/><path class="cls-3" d="M109.24,97.62a2.31,2.31,0,1,1-2.31-2.31A2.31,2.31,0,0,1,109.24,97.62Z"/><path class="cls-4" d="M110.28,57.57v.75a12.2,12.2,0,0,1,3.64-3.17,8.85,8.85,0,0,1,4.28-1,9.91,9.91,0,0,1,5.27,1.48,10.2,10.2,0,0,1,3.81,4.32,15,15,0,0,1,1.4,6.74,16.35,16.35,0,0,1-.81,5.26,11.74,11.74,0,0,1-2.21,4,9.63,9.63,0,0,1-3.34,2.5,9.85,9.85,0,0,1-4.12.87,8.65,8.65,0,0,1-4.47-1.06,12.82,12.82,0,0,1-3.45-3.14v9.32q0,4.1-3,4.1A2.4,2.4,0,0,1,105,87.49a6.65,6.65,0,0,1-.57-3.08V57.61a3.9,3.9,0,0,1,.78-2.65,2.67,2.67,0,0,1,2.11-.87,2.79,2.79,0,0,1,2.15.9A3.69,3.69,0,0,1,110.28,57.57Zm12.17,9a10.72,10.72,0,0,0-.75-4.22,6.15,6.15,0,0,0-2.08-2.71,5,5,0,0,0-3-.94,5.51,5.51,0,0,0-4.33,2c-1.18,1.35-1.76,3.34-1.76,6a8.65,8.65,0,0,0,1.75,5.77,5.48,5.48,0,0,0,4.34,2.06,5,5,0,0,0,2.87-.9,6.17,6.17,0,0,0,2.11-2.7A10.68,10.68,0,0,0,122.45,66.6Z"/><path class="cls-4" d="M156.91,66.71a14.6,14.6,0,0,1-.87,5.12,11.21,11.21,0,0,1-2.5,4,10.92,10.92,0,0,1-3.91,2.59,14,14,0,0,1-5.12.89,13.35,13.35,0,0,1-5.07-.91,11.17,11.17,0,0,1-6.4-6.6,15.67,15.67,0,0,1,0-10.27,11.31,11.31,0,0,1,2.48-4A11,11,0,0,1,139.44,55a14.79,14.79,0,0,1,10.19,0,11,11,0,0,1,6.43,6.59A15,15,0,0,1,156.91,66.71Zm-6.23,0A9.34,9.34,0,0,0,149,60.8a5.46,5.46,0,0,0-4.5-2.12,5.54,5.54,0,0,0-3.2,1,5.88,5.88,0,0,0-2.14,2.78,11.35,11.35,0,0,0-.75,4.3,11.09,11.09,0,0,0,.74,4.25,6,6,0,0,0,2.11,2.79A5.85,5.85,0,0,0,149,72.59,9.32,9.32,0,0,0,150.68,66.71Z"/><path class="cls-4" d="M177.27,76.49l-5.49-9-3.36,3.19V75.6a3.81,3.81,0,0,1-.95,2.77,3,3,0,0,1-2.17,1,2.8,2.8,0,0,1-2.25-1,4.22,4.22,0,0,1-.82-2.82V49.08a5.27,5.27,0,0,1,.8-3.15,2.65,2.65,0,0,1,2.27-1.08,2.86,2.86,0,0,1,2.28,1,4.33,4.33,0,0,1,.84,2.89V63.78l7-7.33a16,16,0,0,1,2-1.86,2.68,2.68,0,0,1,1.66-.5,2.65,2.65,0,0,1,1.93.74,2.44,2.44,0,0,1,.78,1.85c0,.91-.85,2.12-2.53,3.64l-3.3,3,6.37,10c.47.75.81,1.31,1,1.7a2.27,2.27,0,0,1,.31,1.1,3.24,3.24,0,0,1-.81,2.33,2.76,2.76,0,0,1-2.12.85,2.36,2.36,0,0,1-1.75-.61A14.19,14.19,0,0,1,177.27,76.49Z"/><path class="cls-4" d="M204.06,68.23H191.91a8.17,8.17,0,0,0,.86,3.73A5.69,5.69,0,0,0,198,75.22a7.69,7.69,0,0,0,2-.26,7,7,0,0,0,1.78-.82,12.25,12.25,0,0,0,1.59-1.2c.49-.42,1.12-1,1.89-1.73a2,2,0,0,1,1.36-.41,2.24,2.24,0,0,1,1.55.53,1.85,1.85,0,0,1,.59,1.48,4,4,0,0,1-.66,2,7.77,7.77,0,0,1-2,2.16,10.91,10.91,0,0,1-3.34,1.72,14.28,14.28,0,0,1-4.63.68q-6,0-9.3-3.41t-3.32-9.25a15.34,15.34,0,0,1,.82-5.11,11.24,11.24,0,0,1,2.38-4,10.45,10.45,0,0,1,3.87-2.58,13.86,13.86,0,0,1,5.1-.9A12,12,0,0,1,204,55.58a10,10,0,0,1,3.9,4,10.46,10.46,0,0,1,1.3,5c0,1.57-.45,2.58-1.34,3A8.45,8.45,0,0,1,204.06,68.23Zm-12.15-3.52h11.26a7.59,7.59,0,0,0-1.71-4.77,5.18,5.18,0,0,0-3.93-1.58A5,5,0,0,0,193.72,60,8,8,0,0,0,191.91,64.71Z"/><path class="cls-4" d="M214.75,54.63h.68V50.9c0-1,0-1.78.08-2.35a3.35,3.35,0,0,1,.45-1.47,2.78,2.78,0,0,1,1-1,2.94,2.94,0,0,1,1.53-.4,3,3,0,0,1,2.13.89,2.55,2.55,0,0,1,.81,1.44,13.5,13.5,0,0,1,.17,2.42v4.23h2.28a2.88,2.88,0,0,1,2,.63,2.07,2.07,0,0,1,.69,1.6,1.78,1.78,0,0,1-1,1.75,6.32,6.32,0,0,1-2.83.5h-1.16V70.53a20.49,20.49,0,0,0,.1,2.24,2.28,2.28,0,0,0,.55,1.28,1.9,1.9,0,0,0,1.44.49,7.68,7.68,0,0,0,1.48-.2,7.54,7.54,0,0,1,1.46-.19,1.87,1.87,0,0,1,1.35.6,2,2,0,0,1,.6,1.49,2.49,2.49,0,0,1-1.63,2.3,11.12,11.12,0,0,1-4.71.79,8.15,8.15,0,0,1-4.41-1,4.54,4.54,0,0,1-2-2.71,18.36,18.36,0,0,1-.47-4.62V59.11h-.82a3,3,0,0,1-2-.63,2.11,2.11,0,0,1-.71-1.62,2,2,0,0,1,.74-1.6A3.23,3.23,0,0,1,214.75,54.63Z"/><path class="cls-4" d="M242.59,73.74,237.24,52.5v23a4.19,4.19,0,0,1-.85,2.87,3.14,3.14,0,0,1-4.49,0,4.13,4.13,0,0,1-.86-2.88V49.13c0-1.46.37-2.44,1.13-3a5.51,5.51,0,0,1,3.07-.76h2.1a8.21,8.21,0,0,1,2.74.34A2.33,2.33,0,0,1,241.34,47a19.78,19.78,0,0,1,.93,2.89l4.85,18.26L252,49.88a19.78,19.78,0,0,1,.93-2.89,2.35,2.35,0,0,1,1.27-1.23,8.13,8.13,0,0,1,2.74-.34H259a5.51,5.51,0,0,1,3.07.76,3.31,3.31,0,0,1,1.14,3V75.51a4.19,4.19,0,0,1-.86,2.87,2.88,2.88,0,0,1-2.28,1,2.83,2.83,0,0,1-2.21-1,4.19,4.19,0,0,1-.86-2.87v-23l-5.35,21.24c-.35,1.38-.63,2.39-.85,3a4.23,4.23,0,0,1-1.22,1.76,3.54,3.54,0,0,1-2.45.79,3.75,3.75,0,0,1-2-.51,3.62,3.62,0,0,1-1.27-1.31,7.73,7.73,0,0,1-.72-1.76C243,75.11,242.77,74.44,242.59,73.74Z"/><path class="cls-4" d="M293,66.71a14.6,14.6,0,0,1-.87,5.12,11.21,11.21,0,0,1-2.5,4,10.92,10.92,0,0,1-3.91,2.59,14,14,0,0,1-5.12.89,13.35,13.35,0,0,1-5.07-.91,11.17,11.17,0,0,1-6.4-6.6,15.67,15.67,0,0,1,0-10.27,11.17,11.17,0,0,1,2.48-4A11,11,0,0,1,275.48,55a14.79,14.79,0,0,1,10.19,0,11,11,0,0,1,6.42,6.59A14.75,14.75,0,0,1,293,66.71Zm-6.23,0A9.28,9.28,0,0,0,285,60.8a5.42,5.42,0,0,0-4.49-2.12,5.59,5.59,0,0,0-3.21,1,5.92,5.92,0,0,0-2.13,2.78,12.72,12.72,0,0,0,0,8.55,6.09,6.09,0,0,0,2.12,2.79,5.47,5.47,0,0,0,3.24,1A5.41,5.41,0,0,0,285,72.59,9.26,9.26,0,0,0,286.72,66.71Z"/><path class="cls-4" d="M303.48,57.52v.75a10.75,10.75,0,0,1,3.58-3.17,9.5,9.5,0,0,1,4.47-1,8.84,8.84,0,0,1,4.39,1.07,6.8,6.8,0,0,1,2.89,3,7.17,7.17,0,0,1,.79,2.46,23.83,23.83,0,0,1,.19,3.36V75.56a4.12,4.12,0,0,1-.86,2.82,2.82,2.82,0,0,1-2.21,1,2.88,2.88,0,0,1-2.26-1,4.15,4.15,0,0,1-.86-2.8V65.21a10.35,10.35,0,0,0-.85-4.7c-.57-1.08-1.71-1.62-3.4-1.62a5,5,0,0,0-3,1,5.64,5.64,0,0,0-2,2.71,19.61,19.61,0,0,0-.46,5.19v7.78a4,4,0,0,1-.87,2.83,3,3,0,0,1-2.26.94,2.82,2.82,0,0,1-2.21-1,4.1,4.1,0,0,1-.87-2.8v-18a3.9,3.9,0,0,1,.78-2.65,2.67,2.67,0,0,1,2.11-.87,2.94,2.94,0,0,1,1.48.38,2.85,2.85,0,0,1,1.06,1.16A4.19,4.19,0,0,1,303.48,57.52Z"/><path class="cls-8" d="M338.89,218.73a58.51,58.51,0,1,1-58.51-58.5A58.51,58.51,0,0,1,338.89,218.73Z"/><path class="cls-8" d="M260.68,257.87a46.93,46.93,0,1,1-46.93-46.94A46.93,46.93,0,0,1,260.68,257.87Z"/><path class="cls-8" d="M140.49,214.54A62.39,62.39,0,1,1,78.1,152.15,62.39,62.39,0,0,1,140.49,214.54Z"/><path class="cls-6" d="M262.29,266.3a1,1,0,0,1-1-1v-3.11a1,1,0,1,1,2.05,0v3.11A1,1,0,0,1,262.29,266.3Z"/><path class="cls-6" d="M262.29,259a1,1,0,0,1-1-1V254.9a1,1,0,1,1,2.05,0V258A1,1,0,0,1,262.29,259Z"/><path class="cls-6" d="M267.47,261.11h-3.11a1,1,0,0,1,0-2.06h3.11a1,1,0,0,1,0,2.06Z"/><path class="cls-6" d="M260.21,261.11H257.1a1,1,0,0,1,0-2.06h3.11a1,1,0,1,1,0,2.06Z"/><path class="cls-6" d="M207.56,305a3.17,3.17,0,0,1-2.8-4.67,3.13,3.13,0,0,1,1.88-1.54,3.17,3.17,0,0,1,3.72,4.53,3.13,3.13,0,0,1-1.88,1.54A2.89,2.89,0,0,1,207.56,305Zm0-4.29a1.13,1.13,0,0,0-1.07,1.44,1.11,1.11,0,0,0,.54.66,1.15,1.15,0,0,0,.85.09,1.09,1.09,0,0,0,.66-.55,1.14,1.14,0,0,0,.09-.85A1.12,1.12,0,0,0,207.56,300.74Z"/><path class="cls-6" d="M261.08,289.59a3.17,3.17,0,1,1,3-4.09,3.11,3.11,0,0,1-.24,2.41,3.13,3.13,0,0,1-2.8,1.68Zm0-4.29a1.19,1.19,0,0,0-.32.05,1.12,1.12,0,0,0-.75,1.39,1.11,1.11,0,0,0,.54.66,1.17,1.17,0,0,0,.86.09,1.12,1.12,0,0,0,.66-.55,1.09,1.09,0,0,0,.08-.85A1.12,1.12,0,0,0,261.08,285.3Z"/><path class="cls-6" d="M259.46,307.15a1.06,1.06,0,0,1-.73-.3,1,1,0,0,1,0-1.46l3-3a1,1,0,0,1,1.45,1.46l-3,3A1,1,0,0,1,259.46,307.15Z"/><path class="cls-6" d="M262.5,307.15a1,1,0,0,1-.73-.3l-3-3a1,1,0,0,1,1.46-1.46l3,3a1,1,0,0,1-.72,1.76Z"/><path class="cls-6" d="M208.53,262.36a1,1,0,0,1-.73-.3,1,1,0,0,1,0-1.45l4-4a1,1,0,1,1,1.46,1.45l-4,4A1,1,0,0,1,208.53,262.36Z"/><path class="cls-6" d="M212.56,262.36a1,1,0,0,1-.73-.3l-4-4a1,1,0,1,1,1.46-1.45l4,4a1,1,0,0,1,0,1.45A1,1,0,0,1,212.56,262.36Z"/><path class="cls-9" d="M244.92,270.23l20.77,3.29L250.44,288l3.29,20.76-18.48-10-18.73,9.54,3.82-20.67-14.86-14.86L226.32,270l9.54-18.73Z"/><path class="cls-6" d="M253.73,309.79a1,1,0,0,1-.49-.12l-18-9.76L217,309.2a1,1,0,0,1-1.48-1.1L219.23,288l-14.48-14.49a1,1,0,0,1-.25-1.05,1,1,0,0,1,.84-.69L225.65,269,235,250.8a1,1,0,0,1,.91-.57h0a1,1,0,0,1,.91.59l8.83,18.48,20.23,3.21a1,1,0,0,1,.54,1.76l-14.84,14.11,3.2,20.22a1,1,0,0,1-.43,1A1,1,0,0,1,253.73,309.79Zm-18.48-12.08a1.05,1.05,0,0,1,.49.13l16.65,9-3-18.71a1,1,0,0,1,.31-.9l13.72-13.05-18.7-3a1.05,1.05,0,0,1-.77-.57l-8.16-17.09-8.59,16.87a1,1,0,0,1-.79.55l-18.77,2.48,13.39,13.4a1,1,0,0,1,.28.91l-3.44,18.62,16.87-8.59A1,1,0,0,1,235.25,297.71Z"/><path class="cls-10" d="M251,280.66h-3.27a12.31,12.31,0,0,0-3.52-6.75l3.23-3.23a2.06,2.06,0,0,0-2.91-2.91l-3.77,3.76a12.37,12.37,0,0,0-5.2-1.15,12.23,12.23,0,0,0-5.49,1.3l-2.89-4a2.06,2.06,0,1,0-3.33,2.42l2.89,4a12.32,12.32,0,0,0-3.34,6.57h-2.87a2.06,2.06,0,0,0-2.06,2.06v0a2.06,2.06,0,0,0,2.06,2.06h2.87a12.33,12.33,0,0,0,3.34,6.56l-2.89,4a2.06,2.06,0,0,0,3.33,2.43l2.89-4a12.16,12.16,0,0,0,3.44,1.11v4.31a2.06,2.06,0,0,0,4.11,0v-4.31a11.83,11.83,0,0,0,3.14-1l3.77,3.77a2.06,2.06,0,1,0,2.91-2.91l-3.24-3.24a12.27,12.27,0,0,0,3.53-6.74H251a2.06,2.06,0,0,0,2.06-2.06v0A2.06,2.06,0,0,0,251,280.66Z"/><path class="cls-6" d="M235.52,302.28a3.08,3.08,0,0,1-3.08-3.08v-3.47a12.5,12.5,0,0,1-2.07-.67l-2.4,3.3a3.09,3.09,0,1,1-5-3.63l2.39-3.29a13.31,13.31,0,0,1-2.85-5.61h-2a3.1,3.1,0,0,1,0-6.2h2a13.25,13.25,0,0,1,2.85-5.61L223,270.73a3.08,3.08,0,0,1,.68-4.32,3,3,0,0,1,2.29-.55,3,3,0,0,1,2,1.23l2.4,3.3a13.29,13.29,0,0,1,10.12-.08l3.27-3.27a3.09,3.09,0,0,1,4.37,4.36l-2.53,2.53a13.28,13.28,0,0,1,2.93,5.7H251a3.1,3.1,0,0,1,0,6.2h-2.43a13.19,13.19,0,0,1-2.93,5.69l2.53,2.53a3.09,3.09,0,0,1-4.37,4.36l-3.27-3.27a12.42,12.42,0,0,1-1.88.59v3.47A3.08,3.08,0,0,1,235.52,302.28ZM230,292.75a1,1,0,0,1,.46.11,11.5,11.5,0,0,0,3.15,1,1,1,0,0,1,.86,1v4.31a1,1,0,0,0,2.05,0v-4.31a1,1,0,0,1,.86-1,11.46,11.46,0,0,0,2.88-.89,1,1,0,0,1,1.16.2l3.76,3.77a1,1,0,1,0,1.46-1.46l-3.23-3.23a1,1,0,0,1-.3-.73,1,1,0,0,1,.3-.73,11.19,11.19,0,0,0,3.23-6.18,1,1,0,0,1,1-.86H251a1,1,0,0,0,0-2.08h-3.27a1,1,0,0,1-1-.86,11.19,11.19,0,0,0-3.23-6.19,1,1,0,0,1-.3-.73,1,1,0,0,1,.3-.73l3.23-3.23a1,1,0,0,0,.3-.73,1.06,1.06,0,0,0-.3-.73,1,1,0,0,0-1.46,0l-3.76,3.77a1,1,0,0,1-1.16.21,11.23,11.23,0,0,0-9.8.13,1,1,0,0,1-1.29-.32l-2.89-4a1,1,0,0,0-.68-.41,1,1,0,0,0-.76.19,1,1,0,0,0-.41.67,1,1,0,0,0,.18.76l2.89,4a1,1,0,0,1-.09,1.32,11.27,11.27,0,0,0-3.07,6,1,1,0,0,1-1,.86h-2.87a1,1,0,0,0,0,2.08h2.87a1,1,0,0,1,1,.86,11.24,11.24,0,0,0,3.07,6,1,1,0,0,1,.09,1.33l-2.89,4a1,1,0,0,0-.18.77,1,1,0,0,0,.41.67,1,1,0,0,0,.76.18,1,1,0,0,0,.68-.41l2.89-4A1,1,0,0,1,230,292.75Z"/><path class="cls-11" d="M241.45,282.73a5.93,5.93,0,1,1-5.93-5.93A5.92,5.92,0,0,1,241.45,282.73Z"/><path class="cls-6" d="M235.52,289.68a7,7,0,1,1,7-6.95A7,7,0,0,1,235.52,289.68Zm0-11.85a4.9,4.9,0,1,0,4.9,4.9A4.9,4.9,0,0,0,235.52,277.83Z"/><path class="cls-2" d="M240.67,278.61a2.06,2.06,0,1,1-2.06-2.06A2.06,2.06,0,0,1,240.67,278.61Z"/><path class="cls-6" d="M310.55,167.94a1.28,1.28,0,0,1-1.28-1.27V163a1.28,1.28,0,1,1,2.56,0v3.7A1.27,1.27,0,0,1,310.55,167.94Z"/><path class="cls-6" d="M310.55,159.32a1.28,1.28,0,0,1-1.28-1.28v-3.69a1.28,1.28,0,1,1,2.56,0V158A1.28,1.28,0,0,1,310.55,159.32Z"/><path class="cls-6" d="M316.71,161.78H313a1.28,1.28,0,1,1,0-2.55h3.69a1.28,1.28,0,1,1,0,2.55Z"/><path class="cls-6" d="M308.09,161.78h-3.7a1.28,1.28,0,1,1,0-2.55h3.7a1.28,1.28,0,1,1,0,2.55Z"/><path class="cls-6" d="M307.77,229.14a3.91,3.91,0,0,1-1.85-.47,3.93,3.93,0,0,1-1.62-5.34,3.94,3.94,0,0,1,7.25.72h0a4,4,0,0,1-2.63,4.92A4.11,4.11,0,0,1,307.77,229.14Zm0-5.34a1.39,1.39,0,0,0-.4.06,1.4,1.4,0,0,0-.83.68,1.39,1.39,0,0,0,1.63,2,1.39,1.39,0,0,0,.93-1.73,1.36,1.36,0,0,0-.68-.82A1.34,1.34,0,0,0,307.78,223.8Z"/><path class="cls-6" d="M243.81,167.12a3.95,3.95,0,1,1,3.95-4A3.95,3.95,0,0,1,243.81,167.12Zm0-5.34a1.39,1.39,0,1,0,1.39,1.39A1.4,1.4,0,0,0,243.81,161.78Z"/><path class="cls-12" d="M267.08,177.13s3.83-20.46,25.57-12.79,10.23,42.2,21.74,51.15c0,0-21.1,12.15-31.33-35.16,0,0-2.56-20.46-14.07-2.56Z"/><path class="cls-6" d="M308.36,218.17a15.63,15.63,0,0,1-6.38-1.38c-9.06-4-15.85-16.2-20.17-36.19-.41-3.21-1.89-8.33-4.21-8.85-1-.25-3.42.31-7.53,6.71a1.28,1.28,0,0,1-1.48.52l-1.92-.64a1.28,1.28,0,0,1-.85-1.45c.07-.37,1.78-9.1,9.13-13.34,4.87-2.8,11-2.94,18.13-.41,13.46,4.75,14.88,19,16.12,31.57.83,8.43,1.62,16.39,6,19.77a1.27,1.27,0,0,1-.14,2.12A14.35,14.35,0,0,1,308.36,218.17Zm-31.18-49a4.19,4.19,0,0,1,1,.12c4.8,1.09,6,9.91,6.16,10.91,5.13,23.69,13,31.72,18.64,34.26a12.75,12.75,0,0,0,9.11.63c-3.87-4.43-4.63-12.07-5.43-20.1-1.22-12.39-2.49-25.2-14.43-29.41-6.42-2.27-11.8-2.2-16,.22-4.63,2.67-6.7,7.58-7.49,10.07C271.83,171.35,274.61,169.14,277.18,169.14Z"/><path class="cls-6" d="M261,161.44a1.26,1.26,0,0,1-.9-.37,1.28,1.28,0,0,1,0-1.81l3.77-3.77a1.28,1.28,0,0,1,1.8,1.81l-3.77,3.77A1.24,1.24,0,0,1,261,161.44Z"/><path class="cls-6" d="M264.78,161.44a1.26,1.26,0,0,1-.9-.37l-3.77-3.77a1.28,1.28,0,1,1,1.8-1.81l3.77,3.77a1.28,1.28,0,0,1,0,1.81A1.26,1.26,0,0,1,264.78,161.44Z"/><path class="cls-13" d="M286.05,224a26.88,26.88,0,1,1,7.1-8.3"/><path class="cls-6" d="M269.63,230.84a28.14,28.14,0,1,1,24.64-14.56,1.28,1.28,0,0,1-2.24-1.23,25.47,25.47,0,1,0-6.76,7.9,1.28,1.28,0,0,1,1.56,2,27.86,27.86,0,0,1-11.12,5.19A28.24,28.24,0,0,1,269.63,230.84Z"/><path class="cls-6" d="M289,222.6a1.28,1.28,0,0,1-.93-2.16,24.36,24.36,0,0,0,1.71-2,1.28,1.28,0,0,1,2,1.57c-.59.75-1.22,1.48-1.88,2.17A1.28,1.28,0,0,1,289,222.6Z"/><path class="cls-2" d="M257.52,196.49a15.53,15.53,0,0,0-1.78-1.77,3.68,3.68,0,0,0-5.49.89c-1.65,2.74-1.89,6.58-1.85,9.07a3.42,3.42,0,0,0,2.68,3.27,16.6,16.6,0,0,0,2.68.37,9.48,9.48,0,0,1-.75-3.7A9.58,9.58,0,0,1,257.52,196.49Z"/><path class="cls-6" d="M253.76,209.6h-.09a18.38,18.38,0,0,1-2.87-.4,4.69,4.69,0,0,1-3.67-4.49c-.06-2.83.25-6.81,2-9.76a4.91,4.91,0,0,1,3.39-2.3,5,5,0,0,1,4,1.09,15.86,15.86,0,0,1,1.93,1.92,1.28,1.28,0,0,1-.29,1.91,8.29,8.29,0,0,0-3.26,10.26,1.28,1.28,0,0,1-.14,1.24A1.27,1.27,0,0,1,253.76,209.6Zm-.39-14.46a1.81,1.81,0,0,0-.4,0,2.29,2.29,0,0,0-1.63,1.09c-1.53,2.55-1.7,6.35-1.66,8.39a2.16,2.16,0,0,0,1.69,2.05l.59.12a10.91,10.91,0,0,1-.23-2.21,10.78,10.78,0,0,1,3.87-8.31c-.23-.22-.45-.42-.68-.61A2.42,2.42,0,0,0,253.37,195.14Z"/><path class="cls-5" d="M261.31,203.89a18.49,18.49,0,0,0-3.79-7.4,9.58,9.58,0,0,0-4.51,8.13,9.48,9.48,0,0,0,.75,3.7,18.61,18.61,0,0,0,4.88-.28A3.33,3.33,0,0,0,261.31,203.89Z"/><path class="cls-6" d="M255.1,209.65c-.48,0-.95,0-1.43-.05a1.29,1.29,0,0,1-1.09-.78,10.91,10.91,0,0,1-.85-4.2,10.8,10.8,0,0,1,5.11-9.21,1.27,1.27,0,0,1,1.65.25,19.91,19.91,0,0,1,4.06,7.9,4.55,4.55,0,0,1-.55,3.63,4.71,4.71,0,0,1-3.12,2.11A20.93,20.93,0,0,1,255.1,209.65Zm-.43-2.56a18.82,18.82,0,0,0,3.74-.3,2.19,2.19,0,0,0,1.43-1,2,2,0,0,0,.24-1.61,17.74,17.74,0,0,0-2.8-6,8.28,8.28,0,0,0-2.61,8.85Z"/><path class="cls-2" d="M255.57,200.79a1.92,1.92,0,1,1-1.92-1.92A1.92,1.92,0,0,1,255.57,200.79Z"/><path class="cls-2" d="M280.47,196.49a14.77,14.77,0,0,1,1.78-1.77,3.68,3.68,0,0,1,5.49.89c1.65,2.74,1.89,6.58,1.84,9.07A3.41,3.41,0,0,1,286.9,208a16.33,16.33,0,0,1-2.67.37,9.48,9.48,0,0,0,.75-3.7A9.6,9.6,0,0,0,280.47,196.49Z"/><path class="cls-6" d="M284.23,209.6a1.27,1.27,0,0,1-1-.53,1.28,1.28,0,0,1-.14-1.24,8.29,8.29,0,0,0-3.26-10.26,1.26,1.26,0,0,1-.29-1.91,15.86,15.86,0,0,1,1.93-1.92,5,5,0,0,1,4-1.09,4.93,4.93,0,0,1,3.39,2.3c1.77,3,2.08,6.93,2,9.76a4.69,4.69,0,0,1-3.67,4.49,18.52,18.52,0,0,1-2.88.4Zm-1.84-13.29A10.83,10.83,0,0,1,286,206.83l.59-.12a2.17,2.17,0,0,0,1.69-2.05c0-2-.13-5.84-1.66-8.39a2.31,2.31,0,0,0-1.63-1.09,2.44,2.44,0,0,0-2,.52C282.84,195.89,282.62,196.09,282.39,196.31Z"/><path class="cls-5" d="M276.67,203.89a18.62,18.62,0,0,1,3.8-7.4,9.6,9.6,0,0,1,4.51,8.13,9.48,9.48,0,0,1-.75,3.7,18.61,18.61,0,0,1-4.88-.28A3.34,3.34,0,0,1,276.67,203.89Z"/><path class="cls-6" d="M282.89,209.65a20.85,20.85,0,0,1-3.78-.35,4.75,4.75,0,0,1-3.13-2.11,4.54,4.54,0,0,1-.54-3.63,19.78,19.78,0,0,1,4.06-7.9,1.27,1.27,0,0,1,1.65-.25,10.8,10.8,0,0,1,5.11,9.21,10.91,10.91,0,0,1-.85,4.2,1.29,1.29,0,0,1-1.09.78C283.84,209.63,283.37,209.65,282.89,209.65Zm-5-5.43a2,2,0,0,0,.24,1.61,2.14,2.14,0,0,0,1.43,1,18.76,18.76,0,0,0,3.74.3,8.28,8.28,0,0,0-2.61-8.85A17.74,17.74,0,0,0,277.91,204.22Z"/><path class="cls-2" d="M286.26,200.79a1.92,1.92,0,1,1-1.92-1.92A1.92,1.92,0,0,1,286.26,200.79Z"/><path class="cls-6" d="M280.73,215.45h-5.21a1.26,1.26,0,0,1-.73-.23c-6.34-4.4-11.27-.26-11.48-.09a1.29,1.29,0,0,1-.84.32h-5.22a1.28,1.28,0,0,1,0-2.56H262a11.9,11.9,0,0,1,13.87,0h4.82a1.28,1.28,0,0,1,0,2.56Z"/><path class="cls-14" d="M275.52,214.17c-7.29-5-13,0-13,0H260.3c4.36,11.2,14.45,9,17.68,0Z"/><path class="cls-6" d="M269,223c-4.2,0-7.8-3.06-9.88-8.41a1.24,1.24,0,0,1,.13-1.18,1.29,1.29,0,0,1,1.06-.56H262a11.9,11.9,0,0,1,13.87,0H278a1.28,1.28,0,0,1,1,.54,1.31,1.31,0,0,1,.15,1.17c-1.82,5.07-5.77,8.39-10.07,8.44Zm-6.71-7.59c1.68,3.23,4.07,5,6.72,5h.08c2.74,0,5.34-2,6.95-5h-.51a1.24,1.24,0,0,1-.73-.23c-6.34-4.4-11.27-.26-11.48-.09a1.29,1.29,0,0,1-.84.32Z"/><path class="cls-15" d="M263.08,218.88c3.63,4,8.55,3.6,11.95.12a9.31,9.31,0,0,0-11.95-.12Z"/><path class="cls-6" d="M269,223h-.18a9.23,9.23,0,0,1-6.7-3.31,1.29,1.29,0,0,1-.33-.94,1.25,1.25,0,0,1,.44-.88,10.6,10.6,0,0,1,13.65.14,1.26,1.26,0,0,1,.42.91,1.3,1.3,0,0,1-.36.93A9.75,9.75,0,0,1,269,223Zm-3.92-4a6.29,6.29,0,0,0,3.79,1.45,6.75,6.75,0,0,0,4.11-1.39A8.38,8.38,0,0,0,265.09,219Z"/><path class="cls-8" d="M180.58,254.21A48.25,48.25,0,1,1,132.33,206,48.25,48.25,0,0,1,180.58,254.21Z"/><path class="cls-6" d="M149.78,246.41a1.18,1.18,0,0,1-.85-.35,1.21,1.21,0,0,1,0-1.71l2.56-2.56a1.21,1.21,0,1,1,1.71,1.71l-2.56,2.56A1.2,1.2,0,0,1,149.78,246.41Z"/><path class="cls-6" d="M143.81,252.39A1.24,1.24,0,0,1,143,252a1.21,1.21,0,0,1,0-1.71l2.56-2.56a1.21,1.21,0,0,1,1.71,0,1.2,1.2,0,0,1,0,1.7L144.66,252A1.22,1.22,0,0,1,143.81,252.39Z"/><path class="cls-6" d="M146.37,246.41a1.2,1.2,0,0,1-.86-.35L143,243.5a1.21,1.21,0,0,1,1.71-1.71l2.56,2.56a1.21,1.21,0,0,1,0,1.71A1.16,1.16,0,0,1,146.37,246.41Z"/><path class="cls-6" d="M152.34,252.39a1.24,1.24,0,0,1-.85-.35l-2.56-2.57a1.2,1.2,0,0,1,0-1.7,1.21,1.21,0,0,1,1.71,0l2.56,2.56a1.21,1.21,0,0,1,0,1.71A1.24,1.24,0,0,1,152.34,252.39Z"/><path class="cls-6" d="M150.28,309.31a3.72,3.72,0,0,1-3.56-2.65,3.73,3.73,0,0,1,7.13-2.16h0a3.73,3.73,0,0,1-2.48,4.65A3.69,3.69,0,0,1,150.28,309.31Zm0-5a1.21,1.21,0,0,0-.38.06,1.33,1.33,0,0,0-.78.63,1.34,1.34,0,0,0-.1,1,1.31,1.31,0,0,0,.64.78,1.29,1.29,0,0,0,1,.09,1.3,1.3,0,0,0,.87-1.63,1.29,1.29,0,0,0-.64-.77A1.21,1.21,0,0,0,150.29,304.27Z"/><path class="cls-6" d="M89.88,261.61a3.73,3.73,0,1,1,3.73-3.73A3.73,3.73,0,0,1,89.88,261.61Zm0-5a1.31,1.31,0,1,0,1.31,1.31A1.31,1.31,0,0,0,89.88,256.57Z"/><path class="cls-6" d="M88,307a1.16,1.16,0,0,1-.85-.35,1.2,1.2,0,0,1,0-1.71l3.56-3.56a1.21,1.21,0,0,1,1.7,1.71l-3.56,3.56A1.16,1.16,0,0,1,88,307Z"/><path class="cls-12" d="M145.34,267.22a12.46,12.46,0,0,0-4.92-8l-8-5.91a17,17,0,0,1-3.87-4,4.29,4.29,0,0,0-3.51-1.92h-7a4.29,4.29,0,0,0-3.51,1.92,17,17,0,0,1-3.87,4l-8,5.91a12.46,12.46,0,0,0-4.92,8A12.32,12.32,0,0,0,98.94,275a7.94,7.94,0,0,0,7,4.18h31.08a7.94,7.94,0,0,0,7-4.18A12.32,12.32,0,0,0,145.34,267.22Z"/><path class="cls-6" d="M137.05,280.41H106a9.12,9.12,0,0,1-8.1-4.82,13.55,13.55,0,0,1,4-17.29l8-5.91a15.46,15.46,0,0,0,3.6-3.71,5.53,5.53,0,0,1,4.5-2.43h7a5.53,5.53,0,0,1,4.5,2.43,15.65,15.65,0,0,0,3.6,3.71l8,5.91a13.62,13.62,0,0,1,5.4,8.71h0a13.66,13.66,0,0,1-1.38,8.58A9.11,9.11,0,0,1,137.05,280.41Zm-19-31.75a3.09,3.09,0,0,0-2.51,1.39,18,18,0,0,1-4.16,4.28l-8,5.91A11.13,11.13,0,0,0,100,274.46a6.69,6.69,0,0,0,6,3.54h31.08a6.69,6.69,0,0,0,6-3.54,11.17,11.17,0,0,0,1.14-7h0a11.22,11.22,0,0,0-4.45-7.18l-8-5.91a18,18,0,0,1-4.16-4.28,3.09,3.09,0,0,0-2.51-1.39Z"/><path class="cls-6" d="M137.21,280.72a1.18,1.18,0,0,1-.26,0,1.21,1.21,0,0,1-.92-1.44c3.08-14.38-8.72-28.2-11.12-30.82a1.21,1.21,0,1,1,1.78-1.63c3.57,3.9,14.94,17.81,11.7,33A1.2,1.2,0,0,1,137.21,280.72Z"/><path class="cls-6" d="M105.81,280.72a1.2,1.2,0,0,1-1.18-1c-3.24-15.15,8.13-29.06,11.7-33a1.21,1.21,0,1,1,1.78,1.63c-2.4,2.62-14.2,16.44-11.12,30.82a1.21,1.21,0,0,1-.92,1.44A1.18,1.18,0,0,1,105.81,280.72Z"/><path class="cls-6" d="M121.31,280a1.21,1.21,0,0,1-1.21-1.21V247.54a1.21,1.21,0,0,1,2.42,0v31.21A1.21,1.21,0,0,1,121.31,280Z"/><path class="cls-16" d="M96.93,274.34l-1.48-6a3.67,3.67,0,0,1,4.44-4.44l6,1.48a2.92,2.92,0,0,1,1.37,4.91l-5.44,5.44A2.93,2.93,0,0,1,96.93,274.34Z"/><path class="cls-6" d="M99.8,277.78a4.17,4.17,0,0,1-4-3.15l-1.48-6a4.87,4.87,0,0,1,5.9-5.9l6,1.48a4.14,4.14,0,0,1,1.94,6.94l-5.44,5.43A4.06,4.06,0,0,1,99.8,277.78Zm-1.69-3.73a1.71,1.71,0,0,0,2.88.81l5.44-5.44a1.72,1.72,0,0,0-.81-2.89l-6-1.48a2.46,2.46,0,0,0-3,3Z"/><path class="cls-16" d="M146.09,274.34l1.48-6a3.67,3.67,0,0,0-4.44-4.44l-6,1.48a2.93,2.93,0,0,0-1.37,4.91l5.44,5.44A2.93,2.93,0,0,0,146.09,274.34Z"/><path class="cls-6" d="M143.22,277.78a4.06,4.06,0,0,1-2.9-1.22l-5.44-5.43a4.14,4.14,0,0,1,1.94-6.94l6-1.48a4.87,4.87,0,0,1,5.9,5.9l-1.48,6a4.17,4.17,0,0,1-4,3.15ZM144,265a2.46,2.46,0,0,0-.6.07l-6,1.48a1.72,1.72,0,0,0-.81,2.89l5.44,5.44a1.72,1.72,0,0,0,2.89-.81l1.48-6a2.48,2.48,0,0,0-.65-2.33A2.44,2.44,0,0,0,144,265Zm2.07,9.36h0Z"/><path class="cls-6" d="M91.57,307a1.16,1.16,0,0,1-.85-.35l-3.56-3.56a1.21,1.21,0,1,1,1.7-1.71l3.56,3.56a1.2,1.2,0,0,1,0,1.71A1.16,1.16,0,0,1,91.57,307Z"/><path class="cls-6" d="M102.5,247.8a1.17,1.17,0,0,1-.85-.36,1.2,1.2,0,0,1,0-1.71l3.56-3.55a1.2,1.2,0,1,1,1.7,1.7l-3.56,3.56A1.17,1.17,0,0,1,102.5,247.8Z"/><path class="cls-6" d="M106.06,247.8a1.17,1.17,0,0,1-.85-.36l-3.56-3.56a1.2,1.2,0,0,1,1.7-1.7l3.56,3.56a1.21,1.21,0,0,1-.85,2.06Z"/><path class="cls-16" d="M137,306.84a25.38,25.38,0,1,1,6.71-7.84"/><path class="cls-6" d="M121.46,313.34a26.58,26.58,0,1,1,23.32-13.76,1.21,1.21,0,0,1-2.12-1.16,24.15,24.15,0,1,0-15.94,11.92,23.69,23.69,0,0,0,9.55-4.46,1.21,1.21,0,0,1,1.48,1.91,26.2,26.2,0,0,1-10.5,4.91A26.61,26.61,0,0,1,121.46,313.34Z"/><path class="cls-6" d="M119.53,301.11A1.16,1.16,0,0,1,119,301l-1.83-.92a1.21,1.21,0,0,1,1.08-2.16l1.83.92a1.2,1.2,0,0,1,.54,1.62A1.22,1.22,0,0,1,119.53,301.11Z"/><path class="cls-6" d="M123.49,301.11a1.22,1.22,0,0,1-1.08-.67,1.2,1.2,0,0,1,.54-1.62l1.83-.92a1.21,1.21,0,1,1,1.08,2.16L124,301A1.16,1.16,0,0,1,123.49,301.11Z"/><path class="cls-6" d="M139.79,305.55a1.21,1.21,0,0,1-.87-2c.56-.59,1.11-1.22,1.61-1.86a1.2,1.2,0,1,1,1.9,1.48,26.54,26.54,0,0,1-1.77,2.05A1.2,1.2,0,0,1,139.79,305.55Z"/><path class="cls-2" d="M110.07,280.89a14.61,14.61,0,0,0-1.68-1.67,3.48,3.48,0,0,0-5.19.85c-1.55,2.58-1.78,6.21-1.74,8.56a3.24,3.24,0,0,0,2.53,3.09,17.09,17.09,0,0,0,2.53.35,9,9,0,0,1,3.55-11.18Z"/><path class="cls-6" d="M106.52,293.28h-.08a18.09,18.09,0,0,1-2.72-.37,4.44,4.44,0,0,1-3.46-4.25c-.06-2.66.24-6.43,1.91-9.21a4.64,4.64,0,0,1,3.2-2.17,4.74,4.74,0,0,1,3.8,1,17.35,17.35,0,0,1,1.82,1.82,1.21,1.21,0,0,1,.28,1,1.25,1.25,0,0,1-.56.84,7.8,7.8,0,0,0-3.07,9.68,1.22,1.22,0,0,1-1.12,1.68Zm-.36-13.66-.39,0a2.17,2.17,0,0,0-1.53,1c-1.45,2.41-1.61,6-1.57,7.92a2,2,0,0,0,1.59,1.93l.56.12a10.44,10.44,0,0,1-.22-2.09,10.17,10.17,0,0,1,3.66-7.84c-.22-.21-.43-.41-.64-.58A2.3,2.3,0,0,0,106.16,279.62Z"/><path class="cls-5" d="M113.65,287.88a17.51,17.51,0,0,0-3.58-7,9,9,0,0,0-3.55,11.18,17.85,17.85,0,0,0,4.61-.27A3.15,3.15,0,0,0,113.65,287.88Z"/><path class="cls-6" d="M107.78,293.32c-.45,0-.89,0-1.34-.05a1.18,1.18,0,0,1-1-.73,10.11,10.11,0,0,1-.81-4,10.22,10.22,0,0,1,4.83-8.7,1.22,1.22,0,0,1,1.56.24,18.69,18.69,0,0,1,3.83,7.46,4.31,4.31,0,0,1-.51,3.43,4.47,4.47,0,0,1-3,2A19.36,19.36,0,0,1,107.78,293.32Zm-.4-2.42a17.34,17.34,0,0,0,3.53-.28,2,2,0,0,0,1.35-.91,1.88,1.88,0,0,0,.23-1.52,16.79,16.79,0,0,0-2.65-5.64,7.79,7.79,0,0,0-2.82,6A7.71,7.71,0,0,0,107.38,290.9Z"/><path class="cls-2" d="M108.23,285a1.82,1.82,0,1,1-1.81-1.81A1.81,1.81,0,0,1,108.23,285Z"/><path class="cls-2" d="M131.74,280.89a15.45,15.45,0,0,1,1.68-1.67,3.48,3.48,0,0,1,5.19.85c1.55,2.58,1.78,6.21,1.74,8.56a3.23,3.23,0,0,1-2.53,3.09,16.91,16.91,0,0,1-2.53.35,9,9,0,0,0-3.55-11.18Z"/><path class="cls-6" d="M135.29,293.28a1.2,1.2,0,0,1-1-.51,1.22,1.22,0,0,1-.13-1.17,7.84,7.84,0,0,0-3.08-9.68,1.21,1.21,0,0,1-.55-.84,1.18,1.18,0,0,1,.28-1,14.21,14.21,0,0,1,1.82-1.82,4.74,4.74,0,0,1,3.79-1,4.68,4.68,0,0,1,3.21,2.17c1.67,2.78,2,6.55,1.91,9.21a4.46,4.46,0,0,1-3.47,4.25,18.09,18.09,0,0,1-2.72.37Zm-1.73-12.56a10.2,10.2,0,0,1,3.65,7.85,9.76,9.76,0,0,1-.22,2.09l.56-.12a2,2,0,0,0,1.59-1.93c0-1.93-.12-5.51-1.56-7.92a2.21,2.21,0,0,0-1.54-1,2.3,2.3,0,0,0-1.85.5C134,280.32,133.77,280.52,133.56,280.72Z"/><path class="cls-5" d="M128.16,287.88a17.51,17.51,0,0,1,3.58-7,9,9,0,0,1,3.55,11.18,17.88,17.88,0,0,1-4.61-.27A3.15,3.15,0,0,1,128.16,287.88Z"/><path class="cls-6" d="M134,293.32a19.44,19.44,0,0,1-3.57-.33,4.45,4.45,0,0,1-3-2,4.27,4.27,0,0,1-.52-3.43,18.58,18.58,0,0,1,3.84-7.46,1.2,1.2,0,0,1,1.55-.24,10.22,10.22,0,0,1,4.83,8.7,10.11,10.11,0,0,1-.81,4,1.18,1.18,0,0,1-1,.73C134.93,293.3,134.48,293.32,134,293.32Zm-4.71-5.13a1.88,1.88,0,0,0,.23,1.52,2,2,0,0,0,1.35.91,18.21,18.21,0,0,0,3.53.28,7.71,7.71,0,0,0,.36-2.33,7.79,7.79,0,0,0-2.82-6A16.79,16.79,0,0,0,129.32,288.19Z"/><path class="cls-2" d="M137.21,285a1.82,1.82,0,1,1-1.81-1.81A1.81,1.81,0,0,1,137.21,285Z"/><path class="cls-12" d="M115.47,268.65l2.42,4.83h3.62l3.62-4.83-1.21-2.42Z"/><path class="cls-6" d="M121.51,274.69h-3.62a1.2,1.2,0,0,1-1.08-.67l-2.42-4.83a1.21,1.21,0,0,1,.75-1.7l8.45-2.42a1.23,1.23,0,0,1,1.42.62l1.2,2.42a1.2,1.2,0,0,1-.11,1.26l-3.62,4.83A1.21,1.21,0,0,1,121.51,274.69Zm-2.88-2.42h2.28l2.81-3.75-.43-.85-6.09,1.74Z"/><path class="cls-12" d="M124.25,280.84v-4.18l4.18-2.09v4.18Z"/><path class="cls-6" d="M124.25,282.05a1.18,1.18,0,0,1-.63-.18,1.21,1.21,0,0,1-.58-1v-4.18a1.21,1.21,0,0,1,.67-1.08l4.18-2.09a1.19,1.19,0,0,1,1.17.05,1.21,1.21,0,0,1,.58,1v4.18a1.2,1.2,0,0,1-.67,1.08l-4.18,2.09A1.26,1.26,0,0,1,124.25,282.05Zm1.21-4.64v1.48l1.76-.89v-1.48Z"/><path class="cls-12" d="M113.82,274.74l-2.21.8,3.1,5.13,2.92-2.31Z"/><path class="cls-6" d="M114.71,281.88l-.21,0a1.21,1.21,0,0,1-.82-.57l-3.11-5.12a1.24,1.24,0,0,1-.1-1,1.18,1.18,0,0,1,.72-.73l2.22-.8a1.19,1.19,0,0,1,1.24.26l3.81,3.62a1.2,1.2,0,0,1-.08,1.82l-2.92,2.31A1.2,1.2,0,0,1,114.71,281.88Zm-1.31-5.7,1.64,2.69.75-.59-2.26-2.15Z"/><path class="cls-8" d="M217.63,180a49.69,49.69,0,1,1-49.69-49.69A49.69,49.69,0,0,1,217.63,180Z"/><path class="cls-6" d="M220.32,121a2.21,2.21,0,0,1-1.56-3.77l4-4a2.21,2.21,0,1,1,3.13,3.12l-4,4A2.2,2.2,0,0,1,220.32,121Z"/><path class="cls-6" d="M210.92,130.42a2.21,2.21,0,0,1-1.56-3.77l4-4a2.21,2.21,0,0,1,3.12,3.13l-4,4A2.2,2.2,0,0,1,210.92,130.42Z"/><path class="cls-6" d="M215,121a2.19,2.19,0,0,1-1.56-.64l-4-4a2.21,2.21,0,0,1,3.12-3.12l4,4A2.21,2.21,0,0,1,215,121Z"/><path class="cls-6" d="M224.35,130.42a2.23,2.23,0,0,1-1.57-.64l-4-4a2.21,2.21,0,0,1,3.12-3.13l4,4a2.21,2.21,0,0,1-1.56,3.77Z"/><path class="cls-6" d="M101.68,154.29l-4-4a2.21,2.21,0,0,1,3.13-3.12l4,4a2.21,2.21,0,0,1-3.12,3.13Z"/><path class="cls-6" d="M92.28,144.89l-4-4a2.21,2.21,0,0,1,3.12-3.13l4,4a2.21,2.21,0,0,1-3.12,3.12Z"/><path class="cls-6" d="M97.65,144.89a2.21,2.21,0,0,1,0-3.12l4-4a2.21,2.21,0,1,1,3.12,3.12l-4,4A2.21,2.21,0,0,1,97.65,144.89Z"/><path class="cls-6" d="M88.26,154.29a2.2,2.2,0,0,1,0-3.12l4-4a2.21,2.21,0,0,1,3.13,3.12l-4,4A2.21,2.21,0,0,1,88.26,154.29Z"/><path class="cls-6" d="M185.72,272.9a6.81,6.81,0,1,1,6.82-6.81A6.82,6.82,0,0,1,185.72,272.9Zm0-9.2a2.4,2.4,0,1,0,2.4,2.39A2.39,2.39,0,0,0,185.72,263.7Z"/><path class="cls-6" d="M154.16,136.37a2.22,2.22,0,0,1-1.56-3.78l6.51-6.51a2.21,2.21,0,1,1,3.12,3.13l-6.51,6.51A2.21,2.21,0,0,1,154.16,136.37Z"/><path class="cls-10" d="M222.19,148.14,202.74,159.4l18.19,16.1,9.38-19.24Z"/><path class="cls-3" d="M220.93,177.71a2.23,2.23,0,0,1-1.47-.56l-18.19-16.1a2.21,2.21,0,0,1,.36-3.56l19.46-11.26a2.21,2.21,0,0,1,2.66.35l8.12,8.12a2.19,2.19,0,0,1,.42,2.53l-9.38,19.24a2.23,2.23,0,0,1-1.55,1.2A3.28,3.28,0,0,1,220.93,177.71ZM206.5,159.77l13.71,12.15,7.42-15.21-5.8-5.81Z"/><path class="cls-17" d="M239,138.42l-16.82,9.72,8.12,8.12Z"/><path class="cls-3" d="M230.31,158.47a2.19,2.19,0,0,1-1.56-.65l-8.12-8.11a2.21,2.21,0,0,1,.46-3.48l16.81-9.72a2.21,2.21,0,0,1,3.09,2.88l-8.7,17.84a2.22,2.22,0,0,1-1.62,1.21A2.19,2.19,0,0,1,230.31,158.47Zm-4.52-9.85,3.89,3.89,4.17-8.56Z"/><path class="cls-10" d="M144.61,148.14l19.46,11.26-18.19,16.1-9.38-19.24Z"/><path class="cls-3" d="M145.88,177.71a3.13,3.13,0,0,1-.43,0,2.21,2.21,0,0,1-1.55-1.2l-9.39-19.24a2.21,2.21,0,0,1,.43-2.53l8.11-8.12a2.23,2.23,0,0,1,2.67-.35l19.45,11.26a2.19,2.19,0,0,1,.36,3.56l-18.19,16.1A2.2,2.2,0,0,1,145.88,177.71Zm-6.71-21,7.42,15.21,13.72-12.14L145,150.9Z"/><path class="cls-17" d="M127.8,138.42l16.81,9.72-8.11,8.12Z"/><path class="cls-3" d="M136.5,158.47l-.37,0a2.24,2.24,0,0,1-1.62-1.21l-8.7-17.84a2.21,2.21,0,0,1,3.09-2.88l16.82,9.72a2.24,2.24,0,0,1,1.08,1.63,2.2,2.2,0,0,1-.63,1.85l-8.11,8.11A2.2,2.2,0,0,1,136.5,158.47ZM133,144l4.18,8.56,3.89-3.89Z"/><path class="cls-6" d="M161.6,132.83l-6.11-6.12a2.07,2.07,0,1,0-2.93,2.93l6.11,6.12a2.07,2.07,0,1,0,2.93-2.93Z"/><path class="cls-10" d="M149.46,227a46.39,46.39,0,1,1,15,11.44"/><path class="cls-3" d="M184.5,245.17a48.44,48.44,0,0,1-21-4.77,2.21,2.21,0,1,1,1.91-4,44,44,0,1,0-14.3-10.89,2.21,2.21,0,0,1-3.33,2.9,48.07,48.07,0,0,1-10-18.67,48.57,48.57,0,1,1,46.76,35.42Z"/><path class="cls-3" d="M158,236.88a2.17,2.17,0,0,1-1.26-.4,48.53,48.53,0,0,1-3.92-3,2.21,2.21,0,0,1,2.88-3.36,44.36,44.36,0,0,0,3.56,2.76,2.21,2.21,0,0,1-1.26,4Z"/><path class="cls-3" d="M212.34,200.56a2.21,2.21,0,0,1-2.21-2.21,3.54,3.54,0,0,0-7.08,0,2.21,2.21,0,1,1-4.41,0,8,8,0,0,1,15.9,0A2.2,2.2,0,0,1,212.34,200.56Z"/><path class="cls-3" d="M166,200.56a2.21,2.21,0,0,1-2.21-2.21,3.54,3.54,0,0,0-7.07,0,2.21,2.21,0,0,1-4.42,0,8,8,0,0,1,15.91,0A2.21,2.21,0,0,1,166,200.56Z"/><path class="cls-6" d="M123.32,123.71a2.86,2.86,0,1,1-2.86-2.86A2.85,2.85,0,0,1,123.32,123.71Z"/><path class="cls-6" d="M244.78,163.46a2.86,2.86,0,1,1-2.86-2.86A2.86,2.86,0,0,1,244.78,163.46Z"/><path class="cls-15" d="M225.83,215.36a7.1,7.1,0,1,1-7.09-7.1A7.08,7.08,0,0,1,225.83,215.36Z"/><path class="cls-3" d="M218.74,224.66a9.31,9.31,0,1,1,9.3-9.3A9.32,9.32,0,0,1,218.74,224.66Zm0-14.19a4.89,4.89,0,1,0,4.89,4.89A4.89,4.89,0,0,0,218.74,210.47Z"/><path class="cls-15" d="M157.37,215.36a7.1,7.1,0,1,1-7.09-7.1A7.08,7.08,0,0,1,157.37,215.36Z"/><path class="cls-3" d="M150.28,224.66a9.31,9.31,0,1,1,9.3-9.3A9.32,9.32,0,0,1,150.28,224.66Zm0-14.19a4.89,4.89,0,1,0,4.89,4.89A4.89,4.89,0,0,0,150.28,210.47Z"/><path class="cls-3" d="M192.41,214.67a14,14,0,0,1-9.13-3.5c-7.29,5.83-14.23,2.48-14.55,2.33a2.21,2.21,0,0,1,2-4c.27.12,5.61,2.54,11.15-3a2.21,2.21,0,0,1,3.33.24,9.48,9.48,0,0,0,11.09,2.69,2.21,2.21,0,0,1,1.64,4.1A14.69,14.69,0,0,1,192.41,214.67Z"/><path class="cls-15" d="M183.4,208.1c-4.57,4.57-9.12,4.56-11.65,4.05.74,4.77,2.59,12.8,5.84,18.64a6.47,6.47,0,0,0,11.15.22,35.07,35.07,0,0,0,5.07-18.63A11.86,11.86,0,0,1,183.4,208.1Z"/><path class="cls-3" d="M183.21,236.3H183a8.59,8.59,0,0,1-7.32-4.43c-4-7.14-5.67-16.64-6.1-19.38a2.21,2.21,0,0,1,2.62-2.51c2.37.48,6,.26,9.66-3.44a2.22,2.22,0,0,1,3.32.22,9.53,9.53,0,0,0,8.37,3.42,2.22,2.22,0,0,1,1.75.54,2.26,2.26,0,0,1,.74,1.67,37.72,37.72,0,0,1-5.4,19.79A8.69,8.69,0,0,1,183.21,236.3Zm-8.79-21.73a55.7,55.7,0,0,0,5.1,15.15,4.14,4.14,0,0,0,3.57,2.16,4.42,4.42,0,0,0,3.78-2,32,32,0,0,0,4.65-15.19,13.92,13.92,0,0,1-8.22-3.5A14.82,14.82,0,0,1,174.42,214.57Z"/><path class="cls-6" d="M44.93,159a1.24,1.24,0,0,1-.88-2.12l2.27-2.27a1.24,1.24,0,0,1,1.76,0,1.26,1.26,0,0,1,0,1.76l-2.27,2.27A1.24,1.24,0,0,1,44.93,159Z"/><path class="cls-6" d="M39.63,164.34a1.28,1.28,0,0,1-.88-.36,1.26,1.26,0,0,1,0-1.76L41,160a1.24,1.24,0,1,1,1.76,1.75L40.51,164A1.24,1.24,0,0,1,39.63,164.34Z"/><path class="cls-6" d="M41.9,159a1.28,1.28,0,0,1-.88-.36l-2.27-2.27a1.26,1.26,0,0,1,0-1.76,1.24,1.24,0,0,1,1.76,0l2.27,2.27A1.24,1.24,0,0,1,41.9,159Z"/><path class="cls-6" d="M47.2,164.34a1.24,1.24,0,0,1-.88-.36l-2.27-2.28A1.24,1.24,0,1,1,45.81,160l2.27,2.27a1.26,1.26,0,0,1,0,1.76A1.24,1.24,0,0,1,47.2,164.34Z"/><path class="cls-6" d="M44.45,228.58a3.82,3.82,0,0,1-3.67-2.73,3.83,3.83,0,0,1,7.34-2.22h0a3.85,3.85,0,0,1-3.67,5Zm0-5.19a1.35,1.35,0,0,0-.64,2.54,1.37,1.37,0,0,0,1,.1,1.35,1.35,0,0,0,.25-2.48A1.32,1.32,0,0,0,44.45,223.39Z"/><path class="cls-6" d="M76.77,168.23a3.84,3.84,0,1,1,3.84-3.83A3.84,3.84,0,0,1,76.77,168.23Zm0-5.18a1.35,1.35,0,1,0,1.35,1.35A1.34,1.34,0,0,0,76.77,163.05Z"/><path class="cls-6" d="M112,168.13a1.68,1.68,0,1,1-1.68-1.68A1.68,1.68,0,0,1,112,168.13Z"/><path class="cls-18" d="M87.83,187.12s2.54-7.6,14.47-11.36a6,6,0,0,1,7,2.78c2.76,4.84,5.47,13.79-2.78,24.11Z"/><path class="cls-6" d="M106.47,203.89a1.23,1.23,0,0,1-.8-.29L87,188.07a1.23,1.23,0,0,1-.39-1.35c.11-.33,2.88-8.24,15.27-12.15a7.24,7.24,0,0,1,8.41,3.35c2.72,4.78,6,14.44-2.89,25.5a1.25,1.25,0,0,1-.85.46ZM89.35,186.76l16.92,14.1c6.62-9,4.73-16.73,1.9-21.71a4.74,4.74,0,0,0-5.5-2.21C93.61,179.8,90.31,184.84,89.35,186.76Z"/><path class="cls-6" d="M107.19,228.65a1.24,1.24,0,0,1-.88-2.12l3.67-3.67a1.24,1.24,0,0,1,1.76,1.76l-3.67,3.67A1.24,1.24,0,0,1,107.19,228.65Z"/><path class="cls-18" d="M65.47,187.12s-2.53-7.6-14.46-11.36a6,6,0,0,0-7,2.78c-2.75,4.84-5.47,13.79,2.79,24.11Z"/><path class="cls-6" d="M46.84,203.89h-.13a1.21,1.21,0,0,1-.84-.46C37,192.36,40.25,182.7,43,177.92a7.25,7.25,0,0,1,8.41-3.35c12.39,3.91,15.16,11.82,15.27,12.15a1.25,1.25,0,0,1-.38,1.35L47.63,203.6A1.2,1.2,0,0,1,46.84,203.89Zm2.43-27.16a4.8,4.8,0,0,0-4.14,2.42c-2.83,5-4.72,12.72,1.91,21.71L64,186.76c-1-1.92-4.27-7-13.33-9.82A4.59,4.59,0,0,0,49.27,176.73Z"/><path class="cls-6" d="M110.86,228.65a1.24,1.24,0,0,1-.88-.36l-3.67-3.67a1.24,1.24,0,0,1,0-1.76,1.26,1.26,0,0,1,1.76,0l3.67,3.67a1.26,1.26,0,0,1,0,1.76A1.24,1.24,0,0,1,110.86,228.65Z"/><path class="cls-18" d="M105.47,194.11a19.71,19.71,0,0,1,3,10.42C108.51,218,94.21,229,76.59,229s-31.92-11-31.92-24.46S59,180.07,76.59,180.07a37.85,37.85,0,0,1,21.07,6.09"/><path class="cls-6" d="M76.59,230.23c-18.29,0-33.17-11.53-33.17-25.7s14.88-25.71,33.17-25.71a39.21,39.21,0,0,1,21.77,6.31,1.24,1.24,0,0,1,.34,1.72,1.25,1.25,0,0,1-1.73.34,36.74,36.74,0,0,0-20.38-5.88c-16.92,0-30.68,10.42-30.68,23.22s13.76,23.21,30.68,23.21,30.67-10.41,30.67-23.21a18.43,18.43,0,0,0-2.85-9.77,1.24,1.24,0,0,1,2.12-1.3,20.83,20.83,0,0,1,3.22,11.07C109.75,218.7,94.87,230.23,76.59,230.23Z"/><path class="cls-2" d="M82.54,191.66l-5.89,6-4.47-5.87a4.37,4.37,0,0,0-4.44-1.63c-11.06,2.66-19,10.1-19,18.89,0,11,12.51,19.94,28,19.94s27.95-8.93,27.95-19.94c0-8.45-7.37-15.65-17.77-18.55A4.36,4.36,0,0,0,82.54,191.66Z"/><path class="cls-6" d="M76.65,230.23c-16.1,0-29.19-9.5-29.19-21.18,0-9.15,8-17.23,20-20.1A5.59,5.59,0,0,1,73.16,191l3.61,4.72,4.88-5a5.6,5.6,0,0,1,5.51-1.49c11.35,3.16,18.69,10.92,18.69,19.75C105.85,220.73,92.75,230.23,76.65,230.23Zm-7.94-38.94a3,3,0,0,0-.67.08C57.22,194,50,201.07,50,209.05c0,10.31,12,18.69,26.7,18.69s26.71-8.38,26.71-18.69c0-7.57-6.78-14.54-16.87-17.36a3.12,3.12,0,0,0-3.06.84l-5.89,6a1.25,1.25,0,0,1-1,.37,1.23,1.23,0,0,1-.91-.49l-4.47-5.86A3.15,3.15,0,0,0,68.71,191.29Zm13.83.37h0Z"/><path class="cls-6" d="M103.16,192.22a1.22,1.22,0,0,1-.94-.43,25.29,25.29,0,0,0-1.84-1.9,1.25,1.25,0,1,1,1.69-1.83,28.61,28.61,0,0,1,2,2.1,1.25,1.25,0,0,1-.94,2.06Z"/><path class="cls-15" d="M67.7,218.15a16.59,16.59,0,0,1,5.1-7.76,5,5,0,0,1,6.42-.23,14.15,14.15,0,0,1,5.35,8.29A3.56,3.56,0,0,1,81,222.67H71.17a3.57,3.57,0,0,1-3.47-4.52"/><path class="cls-6" d="M81,223.92H71.17a4.93,4.93,0,0,1-3.9-2,4.68,4.68,0,0,1-.77-4.16h0A18,18,0,0,1,72,209.46a6.28,6.28,0,0,1,8-.28,15.47,15.47,0,0,1,5.8,9,4.68,4.68,0,0,1-1,3.92A4.85,4.85,0,0,1,81,223.92ZM68.89,218.5a2.26,2.26,0,0,0,.37,2,2.38,2.38,0,0,0,1.91,1H81a2.41,2.41,0,0,0,1.86-.89,2.2,2.2,0,0,0,.46-1.84,12.87,12.87,0,0,0-4.92-7.57,3.75,3.75,0,0,0-4.81.19A15.55,15.55,0,0,0,68.89,218.5Z"/><path class="cls-2" d="M85,204.5a17.67,17.67,0,0,1,9.78,0"/><path class="cls-6" d="M94.82,205.75a1.49,1.49,0,0,1-.36-.05,16.36,16.36,0,0,0-9.1,0,1.25,1.25,0,0,1-1.52-.89,1.24,1.24,0,0,1,.88-1.52,19,19,0,0,1,10.46,0,1.25,1.25,0,0,1-.36,2.44Z"/><path class="cls-2" d="M57.09,204.5a17.67,17.67,0,0,1,9.78,0"/><path class="cls-6" d="M66.87,205.75a1.49,1.49,0,0,1-.36-.05,16.27,16.27,0,0,0-9.1,0,1.25,1.25,0,1,1-.64-2.41,19,19,0,0,1,10.46,0,1.25,1.25,0,0,1-.36,2.44Z"/><path class="cls-2" d="M84.62,218.92l-5.45-1.55.69,5.3H81A3.57,3.57,0,0,0,84.62,218.92Z"/><path class="cls-6" d="M81,223.92H79.86a1.25,1.25,0,0,1-1.24-1.09l-.68-5.31a1.22,1.22,0,0,1,.42-1.1,1.28,1.28,0,0,1,1.16-.25L85,217.73a1.25,1.25,0,0,1,.9,1.11,4.76,4.76,0,0,1-1.28,3.54A4.86,4.86,0,0,1,81,223.92ZM81,221.43H81a2.34,2.34,0,0,0,1.72-.75,2.2,2.2,0,0,0,.51-.85l-2.62-.75Z"/><path class="cls-2" d="M72.73,217.37l-5.14,1.47a3.58,3.58,0,0,0,3.58,3.83h.88Z"/><path class="cls-6" d="M72.05,223.92h-.88a4.9,4.9,0,0,1-3.57-1.57,4.78,4.78,0,0,1-1.25-3.62,1.24,1.24,0,0,1,.89-1.09l5.15-1.47a1.23,1.23,0,0,1,1.15.25,1.25,1.25,0,0,1,.43,1.1l-.69,5.31A1.25,1.25,0,0,1,72.05,223.92Zm-3.14-4.17a2.37,2.37,0,0,0,2,1.67l.3-2.34Z"/><path class="cls-6" d="M39.62,157.32a1.94,1.94,0,1,1-1.94-1.94A1.94,1.94,0,0,1,39.62,157.32Z"/></g></svg>