<svg id="Camada_1" data-name="Camada 1" xmlns="http://www.w3.org/2000/svg" viewBox="0 0 300 300"><defs><style>.cls-1{fill:#72999b;}.cls-2{fill:#9cd7d3;}.cls-16,.cls-18,.cls-3{fill:#fff;}.cls-15,.cls-16,.cls-3{stroke:#231f20;stroke-miterlimit:10;}.cls-3{stroke-width:3px;}.cls-4{fill:#231f20;}.cls-14,.cls-5{fill:#333;}.cls-6{fill:#e3e3e3;}.cls-7{fill:#f6f5f5;}.cls-8{fill:#e7e7e6;}.cls-9{fill:#efefef;}.cls-10{fill:#dcdbda;}.cls-11{fill:#e1e2e1;}.cls-12{fill:#dddedd;}.cls-13{fill:#f1f2b4;}.cls-14{font-size:32px;font-family:HelveticaNowText-Regular, Helvetica Now Text ;}.cls-15{fill:none;}.cls-17{fill:#010101;}</style></defs><title>Carolina PORTAFOLIO</title><circle class="cls-1" cx="124.36" cy="169.57" r="114.95"/><circle class="cls-2" cx="136.67" cy="163.79" r="114.95"/><path class="cls-3" d="M124.41,214.2c22.81,11,34,14.41,58.62,8.64-9.11,7.43-22.19,9-26.45,9.53-10,1.24-20.28,1.48-30.23-.31s-7.31-2.38-15-9c-4.57-9.66-10-18.69-2.76-26.34l8.41,7.47Z"/><path d="M94.73,238q14.8,0,29.63,0l-.61-1.27c-14.85-31.44-11.64-33.51-15.15-40C102.76,186,88,198.07,86.78,201c-6,14.44-10.11,23.12-16.18,37.06C78.64,238,86.69,238,94.73,238Z"/><ellipse class="cls-3" cx="92.49" cy="156.45" rx="34.62" ry="45.47"/><path class="cls-4" d="M114.52,129.81c-12,16.37-29.11,31.76-48.38,40-6.87,2.95-7.57,2.49-11.24-4a70.74,70.74,0,0,1-6-14A82.69,82.69,0,0,1,45.47,123c1.06-19.33,8.11-38,17.41-55.2l.34,10.45C69.86,63.65,76.65,48,73.86,32.23A47.56,47.56,0,0,1,78.8,45a62.7,62.7,0,0,0-3-29.74,137.19,137.19,0,0,0,17.45,21.1L95.88,25.2c7,18.77,25.36,31.46,35.56,48.83,8.55,14.58,10.91,32,8.91,48.57a146.62,146.62,0,0,1-14.92,47.88C117.43,157.45,113.63,144.89,114.52,129.81Z"/><ellipse class="cls-4" cx="99.14" cy="163.79" rx="1.66" ry="3.81"/><ellipse class="cls-4" cx="107.46" cy="163.79" rx="1.66" ry="3.81"/><path class="cls-5" d="M147.11,278.17c2.13-.21,4.27-.47,6.42-.8a115.56,115.56,0,0,0,58-26.76c-.82-3.26-3.62-2.31-5.65-2.37-7.24-.24-14.49,0-21.73-.16-1.43,0-3.12,0-3.58-1.9-.37-1.54.62-2.44,1.78-3.2a6,6,0,0,0,1.8-1.64c1-2.53,1.2-5-.76-7.2a4,4,0,0,0-1.85-.71c-9.31-.43-18.63-.26-28-.09a4,4,0,0,0-3.54,1.58c-2,3.28-5.2,3.1-8.38,3.1H124.36q-14.82,0-29.63,0c-8,0-16.09,0-24.13,0q-6.91,0-13.83.07c-2.29,0-5.13-.66-6.24,2.53a130.37,130.37,0,0,0,13.58,12.65,114.32,114.32,0,0,0,27.52,16.42A113,113,0,0,0,147.11,278.17Z"/><path class="cls-6" d="M183.54,234.6c0-.33,0-.66,0-1a6.76,6.76,0,0,1,0-8.4c1.91-1.26,4.1-1.18,6.24-1.19q18.14-.06,36.25,0c2.28,0,4.7-.26,6.54,1.62-3.45,6.34-7.39,12.31-13,17-10.95,1.15-21.92.47-32.88.36a4.12,4.12,0,0,1-3.12-1.35Z"/><path class="cls-7" d="M183.54,241.62c10.28,0,20.56,0,30.84,0,1.74,0,3.69-.67,5.16,1a37.46,37.46,0,0,1-8,8c-2.67-2-5.74-.85-8.6-.94-6.44-.19-12.88,0-19.32-.08-2.31,0-5.1.89-5.17-3.27C178.38,242.47,180.08,241.28,183.54,241.62Z"/><path class="cls-8" d="M280.23,116.61c-11.31,0-22.62,0-33.93,0-2.21,0-8.42-.07-10.07-.06-9.23.06-18.46,0-27.69,0l-60.84,0c-4.43,0-4,4.32-4.16,10.42,2.26,1.44,4.81,1.15,7.27,1.15q23.92.06,47.84,0c5.77,0,11.55-.38,16.89,2.46l.24.14c-2.68,2.11.59,4.46.58,6.67,1.74,4.67,4.39,8.91,6.34,13.47a4.39,4.39,0,0,0,1.71,1.61c-.28,3.53,2.31,6.24,3.15,9.44,1.81,3.44,2.85,7.24,4.92,10.55.6.75,1.1,1.71,2.33,1,1.74-1.62-.34-6.22,4.32-5.56,3.19-.2,6.33.53,9.51.44a54.3,54.3,0,0,1,6.86-.5c-1.76,2.33-3.11,4.74-1.55,7.73-1.61-.56-1-2.36-1.28-3.58-.53-2.11-1.21-3.78-3.88-2.84.21,8.21-.28,8.62-9.11,7.64-.49-.06-1-.18-1.47-.22a3.69,3.69,0,0,0-2.77.78c-.7,3.59,2.35,6,2.93,9.18,1.43,2.93,2.13,6.4,5,8.33a2.23,2.23,0,0,0-.38,1c.32,2.54,2,4.55,2.72,6.91.65,1.61,1.29,3.23,2.68,4.21a3.3,3.3,0,0,0,.31,2.08c.42,1,.87,2,1.28,3a45,45,0,0,0,2.17,5.28,5.44,5.44,0,0,0,2.27,2.33,1.14,1.14,0,0,0-.09.16c-.09.22,0,.45.25.67,1.34,1.39,1.58,3.22,2,5,8,2.18,16.05.66,24.08.94,6.07.22,7.83-1.82,7.92-7.92h0v-12h0q0-6,0-12h0v-17h0v-13h0v-12h0v-20c0-1.66,0-3.33,0-5v-2.49C288.53,116.84,288.32,116.61,280.23,116.61Z"/><path class="cls-9" d="M238.52,166.62c3.37-.05,6.74-.2,10,1a1.38,1.38,0,0,1,0,2c2.42,1.74,2.53,4.36,1.78,6.7-.87,2.72-3.57,1.71-5.6,1.74s-4.24,1.14-6.2-.44A10.77,10.77,0,0,1,238.52,166.62Z"/><path class="cls-10" d="M285.35,219.9v-.21l-2.54-3h0c-.56-1.74-.84-3.56-2.57-4.94l-1.28-3h0l-1.26-2c-.86-1.64-1.71-3.29-2.57-4.94h0L271.31,196h0c0-.33,0-.66,0-1-1.61-3-4.32-5.62-5.11-8.9h0l-5.09-7.89c.27-1.47.37-2.91-1.31-4a1.92,1.92,0,0,1-1.25-2l-6.38-9.89-5.1-9.89a1.93,1.93,0,0,1-1.27-2l-7.65-11.87c.76-2.66-3.32-4.26-2.55-6.92-2.19-3.24-5.53-4.09-10.27-4.06-27.13.21-54.27.1-81.4.1v10.88h0q-.16,3.41-.31,6.81l-.12,4.21a.58.58,0,0,0,.33.81c-1.62,2.08-.05,9.45,0,11.91h0q-.1,3.45-.23,6.9a1.75,1.75,0,0,0,.15,2.9c-2.4,3.38-.29,12.35,0,13.94v26.7c0,1.32,0,2.64,0,4h0v4.32a4.78,4.78,0,0,0-.44.46c-.56,5.14,4.33,5.45,8.77,5.56,12,.28,24.08.13,36.13.07,2.34,0,4.66-.18,6.52-1.5l62.56,0,30.54-.06C289.36,222.9,288.28,221.07,285.35,219.9Zm-63.66-48.67a4.9,4.9,0,0,0-.42-2.58,1.93,1.93,0,0,1,.66,1c.31,2.25,1.07,4.89-1.62,6.14-2.34,1.09-4.09-.31-5.26-2.4a8.35,8.35,0,0,0-1.31-2c1.14-1.13,2.26-2.31,2.66.77.22,1.71.9,3.33,3.07,2.92S221.59,172.87,221.69,171.23Zm-44.33,3.31c-.78-.91-1-2.25-1.72-3.14,1.67-2.13,2.87-5.68,6.48-2a8.08,8.08,0,0,0,.91,1.78l.17.15C181.2,172.26,178.93,172.7,177.36,174.54Zm16.29-3.07c3.07-4.34,4.55-4.63,8-1.56.43.38.83.78,1.24,1.17a3.12,3.12,0,0,0-1.41,1.79c-.49,1.56-1.37,1.5-2.87,2C195.06,175.94,194.86,173,193.65,171.47Z"/><path class="cls-11" d="M183.53,171.62l-4.81-1.74,4.79-.31C183.52,170.25,183.52,170.94,183.53,171.62Z"/><path class="cls-12" d="M197.73,169.62c.54.27,1.17.37,1.28.67.27.74-.28,1.18-1,1.14a1.32,1.32,0,0,1-1-.72C197,170.46,197.46,170.05,197.73,169.62Z"/><path class="cls-3" d="M79.69,217.5c22.81,11,39,14.14,63.66,8.37-9.1,7.42-22.19,9-26.45,9.52-10,1.24-20.27,1.49-30.22-.31S67,229.32,59.34,222.74l21.65-23L86.78,201Z"/><rect class="cls-13" x="173.78" y="153.73" width="94.47" height="29.81"/><text class="cls-14" transform="translate(177.75 180.27)">&lt;lab&gt;</text><rect class="cls-15" x="85.84" y="175.15" width="26.6" height="9.59" rx="4.79"/><line class="cls-16" x1="91.18" y1="175.42" x2="91.18" y2="184.74"/><line class="cls-16" x1="97.14" y1="175.42" x2="97.14" y2="184.74"/><line class="cls-16" x1="102.76" y1="175.42" x2="102.76" y2="184.74"/><line class="cls-16" x1="107.46" y1="175.42" x2="107.46" y2="184.74"/><line class="cls-16" x1="91.18" y1="168.9" x2="100.79" y2="168.9"/><line class="cls-16" x1="104.77" y1="168.9" x2="114.39" y2="168.9"/><path class="cls-17" d="M201.14,31.34a26.63,26.63,0,0,0-20.39,9.41,22.67,22.67,0,1,0-10.69,42.66h.2a13.28,13.28,0,0,0,12.4,8.4,13.44,13.44,0,0,0,12-7.5,26.88,26.88,0,1,0,6.47-53Z"/><path class="cls-18" d="M201.14,81.73a23.64,23.64,0,0,1-6.95-1,1.68,1.68,0,0,0-2.07,1A10,10,0,0,1,173,81.19,2,2,0,0,0,171.17,80H171c-.33,0-.65,0-1,0a19.32,19.32,0,1,1,10.19-35.7,1.68,1.68,0,0,0,2.22-.4,23.51,23.51,0,1,1,18.67,37.78Z"/><circle class="cls-17" cx="170.9" cy="98.53" r="6.72"/><circle class="cls-18" cx="170.9" cy="98.53" r="3.36"/><circle class="cls-17" cx="155.79" cy="106.93" r="5.04"/><circle class="cls-18" cx="155.79" cy="106.93" r="1.68"/><path class="cls-17" d="M169.34,60.15a10.19,10.19,0,0,0,.92,2.18l-1.11,1.4a1.16,1.16,0,0,0,.08,1.52l1.91,1.91a1.16,1.16,0,0,0,1.53.09l1.38-1.1a10.52,10.52,0,0,0,2.27,1l.21,1.78a1.15,1.15,0,0,0,1.14,1h2.7a1.14,1.14,0,0,0,1.13-1l.2-1.72a10.06,10.06,0,0,0,2.43-1l1.35,1.06a1.16,1.16,0,0,0,1.52-.08l1.91-1.91a1.14,1.14,0,0,0,.08-1.52l-1-1.33A10.25,10.25,0,0,0,189,60l1.61-.19a1.13,1.13,0,0,0,1-1.13V56a1.15,1.15,0,0,0-1-1.14L189,54.67a10.09,10.09,0,0,0-1-2.36l1-1.23a1.15,1.15,0,0,0-.09-1.52L187,47.65a1.15,1.15,0,0,0-1.52-.09l-1.2,1a10.12,10.12,0,0,0-2.49-1.05l-.18-1.55a1.14,1.14,0,0,0-1.13-1h-2.71a1.14,1.14,0,0,0-1.13,1l-.18,1.55a10.24,10.24,0,0,0-2.55,1.08l-1.24-1a1.16,1.16,0,0,0-1.53.09l-1.91,1.91a1.15,1.15,0,0,0-.08,1.52l1,1.32a9.76,9.76,0,0,0-.94,2.38l-1.67.19a1.15,1.15,0,0,0-1,1.14v2.7a1.15,1.15,0,0,0,1,1.14Zm9.79-7.31a4.47,4.47,0,1,1-4.47,4.47A4.47,4.47,0,0,1,179.13,52.84Z"/><path class="cls-17" d="M205.84,60.82l-1.43-1.21a1.13,1.13,0,0,0-1.5,0l-.79.74a8.07,8.07,0,0,0-2.1-.68l-.22-1.08a1.13,1.13,0,0,0-1.2-.91l-1.86.16a1.13,1.13,0,0,0-1,1.09l0,1.1a8.17,8.17,0,0,0-2,1.06l-.94-.63a1.14,1.14,0,0,0-1.49.22L190,62.15a1.11,1.11,0,0,0,0,1.5l.82.88a8.33,8.33,0,0,0-.61,2l-1.17.24a1.14,1.14,0,0,0-.91,1.2l.16,1.86a1.13,1.13,0,0,0,1.09,1l1.27,0a8.54,8.54,0,0,0,.9,1.72l-.71,1.07a1.14,1.14,0,0,0,.22,1.49l1.42,1.21a1.13,1.13,0,0,0,1.5,0l.94-.88a8.08,8.08,0,0,0,1.91.63l.26,1.27a1.14,1.14,0,0,0,1.2.91l1.86-.16a1.14,1.14,0,0,0,1-1.09l0-1.25a8.37,8.37,0,0,0,1.91-1l1,.68a1.13,1.13,0,0,0,1.49-.21l1.2-1.43a1.12,1.12,0,0,0,0-1.5l-.83-.88a8,8,0,0,0,.66-2l1.13-.23a1.12,1.12,0,0,0,.9-1.2l-.16-1.86a1.13,1.13,0,0,0-1.09-1l-1.13,0a8.23,8.23,0,0,0-1-1.87l.62-.93A1.11,1.11,0,0,0,205.84,60.82Zm-7,10.75a3.66,3.66,0,1,1,3.33-3.95A3.66,3.66,0,0,1,198.83,71.57Z"/><path class="cls-17" d="M175.85,76.57a1.14,1.14,0,0,0-1,1.12v1.14a1.13,1.13,0,0,0,1,1.14l.84.11a6.41,6.41,0,0,0,.6,1.46l-.55.67a1.13,1.13,0,0,0,.07,1.5l.8.82a1.12,1.12,0,0,0,1.5.1l.68-.52a6.46,6.46,0,0,0,1.5.66l.09.87a1.12,1.12,0,0,0,1.11,1l1.15,0a1.14,1.14,0,0,0,1.14-1l.1-.82a6.91,6.91,0,0,0,1.63-.64l.63.51a1.12,1.12,0,0,0,1.5-.06l.82-.8a1.13,1.13,0,0,0,.11-1.51l-.49-.63a6.37,6.37,0,0,0,.69-1.58l.75-.08a1.14,1.14,0,0,0,1-1.11V77.81a1.13,1.13,0,0,0-1-1.13l-.73-.1a6.92,6.92,0,0,0-.62-1.58l.46-.56a1.13,1.13,0,0,0-.07-1.5l-.8-.82a1.12,1.12,0,0,0-1.5-.11l-.55.42a6.69,6.69,0,0,0-1.65-.71L185,71a1.14,1.14,0,0,0-1.11-1h-1.15a1.14,1.14,0,0,0-1.14,1l-.09.7a7,7,0,0,0-1.7.7l-.57-.46a1.12,1.12,0,0,0-1.5.07l-.82.8a1.12,1.12,0,0,0-.11,1.5l.49.63a6.58,6.58,0,0,0-.65,1.58Zm7.39-1.29a3,3,0,1,1-3,2.94A3,3,0,0,1,183.24,75.28Z"/></svg>