<svg xmlns="http://www.w3.org/2000/svg" viewBox="0 0 300 300"><defs><style>.cls-1{isolation:isolate;}.cls-2{fill:#72999b;}.cls-3{fill:#9cd7d3;}.cls-15,.cls-17,.cls-4{fill:#fff;}.cls-16,.cls-17,.cls-4{stroke:#231f20;stroke-miterlimit:10;}.cls-4{stroke-width:3px;}.cls-5{fill:#231f20;}.cls-6{fill:#333;}.cls-7{fill:#e3e3e3;}.cls-8{fill:#f6f5f5;}.cls-9{fill:#e7e7e6;}.cls-10{fill:#efefef;}.cls-11{fill:#dcdbda;}.cls-12{fill:#e1e2e1;}.cls-13{fill:#dddedd;}.cls-14,.cls-20{fill:#f2665f;}.cls-14,.cls-19{opacity:0.7;mix-blend-mode:multiply;}.cls-16{fill:none;}.cls-18{fill:#010101;}</style></defs><title>programming</title><g class="cls-1"><g id="Camada_1" data-name="Camada 1"><circle class="cls-2" cx="124.36" cy="169.57" r="114.95"/><circle class="cls-3" cx="136.67" cy="163.79" r="114.95"/><path class="cls-4" d="M124.41,214.2c22.81,11,34,14.41,58.62,8.64-9.11,7.43-22.19,9-26.45,9.53-10,1.24-20.28,1.48-30.23-.31s-7.31-2.38-15-9c-4.57-9.66-10-18.69-2.76-26.34l8.41,7.47Z"/><path d="M94.73,238q14.8,0,29.63,0l-.61-1.27c-14.85-31.44-11.64-33.51-15.15-40C102.76,186,88,198.07,86.78,201c-6,14.44-10.11,23.12-16.18,37.06C78.64,238,86.69,238,94.73,238Z"/><ellipse class="cls-4" cx="92.49" cy="156.45" rx="34.62" ry="45.47"/><path class="cls-5" d="M114.52,141.47a122.23,122.23,0,0,1-48.38,28.85c-6.87,2.13-7.57,1.79-11.24-2.88a45,45,0,0,1-6-10.09,44.06,44.06,0,0,1-3.43-20.76c1.06-13.94,8.11-27.39,17.41-39.79l.34,7.53c6.64-10.55,13.43-21.86,10.64-33.2a29.28,29.28,0,0,1,4.94,9.21,33.48,33.48,0,0,0-3-21.44A115.13,115.13,0,0,0,93.21,74.11l2.67-8c7,13.52,25.36,22.67,35.56,35.19,8.55,10.51,10.91,23,8.91,35s-7.36,23.65-14.92,34.51C117.43,161.39,113.63,152.34,114.52,141.47Z"/><ellipse class="cls-5" cx="99.14" cy="163.79" rx="1.66" ry="3.81"/><ellipse class="cls-5" cx="107.46" cy="163.79" rx="1.66" ry="3.81"/><path class="cls-6" d="M147.11,278.17c2.13-.21,4.27-.47,6.42-.8a115.56,115.56,0,0,0,58-26.76c-.82-3.26-3.62-2.31-5.65-2.37-7.24-.24-14.49,0-21.73-.16-1.43,0-3.12,0-3.58-1.9-.37-1.54.62-2.44,1.78-3.2a6,6,0,0,0,1.8-1.64c1-2.53,1.2-5-.76-7.2a4,4,0,0,0-1.85-.71c-9.31-.43-18.63-.26-28-.09a4,4,0,0,0-3.54,1.58c-2,3.28-5.2,3.1-8.38,3.1H124.36q-14.82,0-29.63,0c-8,0-16.09,0-24.13,0q-6.91,0-13.83.07c-2.29,0-5.13-.66-6.24,2.53a130.37,130.37,0,0,0,13.58,12.65,114.32,114.32,0,0,0,27.52,16.42A113,113,0,0,0,147.11,278.17Z"/><path class="cls-7" d="M183.54,234.6c0-.33,0-.66,0-1a6.76,6.76,0,0,1,0-8.4c1.91-1.26,4.1-1.18,6.24-1.19q18.14-.06,36.25,0c2.28,0,4.7-.26,6.54,1.62-3.45,6.34-7.39,12.31-13,17-10.95,1.15-21.92.47-32.88.36a4.12,4.12,0,0,1-3.12-1.35Z"/><path class="cls-8" d="M183.54,241.62c10.28,0,20.56,0,30.84,0,1.74,0,3.69-.67,5.16,1a37.46,37.46,0,0,1-8,8c-2.67-2-5.74-.85-8.6-.94-6.44-.19-12.88,0-19.32-.08-2.31,0-5.1.89-5.17-3.27C178.38,242.47,180.08,241.28,183.54,241.62Z"/><path class="cls-9" d="M280.23,116.61c-11.31,0-22.62,0-33.93,0-2.21,0-8.42-.07-10.07-.06-9.23.06-18.46,0-27.69,0l-60.84,0c-4.43,0-4,4.32-4.16,10.42,2.26,1.44,4.81,1.15,7.27,1.15q23.92.06,47.84,0c5.77,0,11.55-.38,16.89,2.46l.24.14c-2.68,2.11.59,4.46.58,6.67,1.74,4.67,4.39,8.91,6.34,13.47a4.39,4.39,0,0,0,1.71,1.61c-.28,3.53,2.31,6.24,3.15,9.44,1.81,3.44,2.85,7.24,4.92,10.55.6.75,1.1,1.71,2.33,1,1.74-1.62-.34-6.22,4.32-5.56,3.19-.2,6.33.53,9.51.44a54.3,54.3,0,0,1,6.86-.5c-1.76,2.33-3.11,4.74-1.55,7.73-1.61-.56-1-2.36-1.28-3.58-.53-2.11-1.21-3.78-3.88-2.84.21,8.21-.28,8.62-9.11,7.64-.49-.06-1-.18-1.47-.22a3.69,3.69,0,0,0-2.77.78c-.7,3.59,2.35,6,2.93,9.18,1.43,2.93,2.13,6.4,5,8.33a2.23,2.23,0,0,0-.38,1c.32,2.54,2,4.55,2.72,6.91.65,1.61,1.29,3.23,2.68,4.21a3.3,3.3,0,0,0,.31,2.08c.42,1,.87,2,1.28,3a45,45,0,0,0,2.17,5.28,5.44,5.44,0,0,0,2.27,2.33,1.14,1.14,0,0,0-.09.16c-.09.22,0,.45.25.67,1.34,1.39,1.58,3.22,2,5,8,2.18,16.05.66,24.08.94,6.07.22,7.83-1.82,7.92-7.92h0v-12h0q0-6,0-12h0v-17h0v-13h0v-12h0v-20c0-1.66,0-3.33,0-5v-2.49C288.53,116.84,288.32,116.61,280.23,116.61Z"/><path class="cls-10" d="M238.52,166.62c3.37-.05,6.74-.2,10,1a1.38,1.38,0,0,1,0,2c2.42,1.74,2.53,4.36,1.78,6.7-.87,2.72-3.57,1.71-5.6,1.74s-4.24,1.14-6.2-.44A10.77,10.77,0,0,1,238.52,166.62Z"/><path class="cls-11" d="M271.31,196h0c0-.33-36.47-61.63-35.7-64.29-2.19-3.24-5.53-4.09-10.27-4.06-27.13.21-54.27.1-81.4.1,0,3.63-.14,89-.14,89h0c0,1.44,3.89,10.23,8.33,10.34,12,.28,125.57-1.44,135.75-1.46C289.36,222.9,272.58,197.94,271.31,196Z"/><path class="cls-12" d="M183.53,171.62l-4.81-1.74,4.79-.31C183.52,170.25,183.52,170.94,183.53,171.62Z"/><path class="cls-13" d="M197.73,169.62c.54.27,1.17.37,1.28.67.27.74-.28,1.18-1,1.14a1.32,1.32,0,0,1-1-.72C197,170.46,197.46,170.05,197.73,169.62Z"/><path class="cls-4" d="M79.69,217.5c22.81,11,60.79-2.27,67,15.53-3.16-9-19.58,8.49-29.8,2.36-10,1.24-20.27,1.49-30.22-.31S67,229.32,59.34,222.74l21.65-23L86.78,201Z"/><rect class="cls-14" x="198.01" y="191.67" width="55.28" height="17.45"/><path class="cls-15" d="M201.21,200.61l10.25-3.89v1.68l-8.54,3.13,8.54,3.11v1.68l-10.25-3.87Z"/><path class="cls-15" d="M215.54,207.2h-1.72V193.87h1.72Z"/><path class="cls-15" d="M227.06,205.93h.28v1.27h-.92c-1,0-1.59-.47-1.67-1.42a3.48,3.48,0,0,1-1.42,1.22,4.67,4.67,0,0,1-2.08.45,3.57,3.57,0,0,1-2.38-.74,2.61,2.61,0,0,1-.86-2.07q0-2.58,3.3-3l2.47-.31a.68.68,0,0,0,.69-.74v-.41c0-1-.72-1.5-2.17-1.5a2.65,2.65,0,0,0-1.6.4,1.72,1.72,0,0,0-.59,1.33H218.4q.25-3.15,4-3.15t3.78,3.09v4.76a.92.92,0,0,0,.19.65A.9.9,0,0,0,227.06,205.93Zm-5.49.19a3.1,3.1,0,0,0,2-.7,2,2,0,0,0,.86-1.61v-1.34l-2.88.43c-1.25.18-1.87.74-1.87,1.66a1.42,1.42,0,0,0,.49,1.15A2.08,2.08,0,0,0,221.57,206.12Z"/><path class="cls-15" d="M233.87,197.34a3.79,3.79,0,0,1,3,1.31,5.14,5.14,0,0,1,1.14,3.5,6,6,0,0,1-1.14,3.78,3.92,3.92,0,0,1-4.93,1,3.13,3.13,0,0,1-1.25-1.25v1.51h-1.5V193.87h1.72v4.85A3.38,3.38,0,0,1,233.87,197.34Zm-2.24,7.6a2.4,2.4,0,0,0,2,1,2.29,2.29,0,0,0,2-1.05,4.81,4.81,0,0,0,.71-2.73,3.79,3.79,0,0,0-.7-2.47,2.38,2.38,0,0,0-2-.87,2.51,2.51,0,0,0-2,.9,3.82,3.82,0,0,0-.76,2.55A4.17,4.17,0,0,0,231.63,204.94Z"/><path class="cls-15" d="M239.85,198.4v-1.68l10.24,3.89v1.84l-10.24,3.87v-1.68l8.54-3.11Z"/><rect class="cls-16" x="85.84" y="175.15" width="26.6" height="9.59" rx="4.79"/><line class="cls-17" x1="91.18" y1="175.42" x2="91.18" y2="184.74"/><line class="cls-17" x1="97.14" y1="175.42" x2="97.14" y2="184.74"/><line class="cls-17" x1="102.76" y1="175.42" x2="102.76" y2="184.74"/><line class="cls-17" x1="107.46" y1="175.42" x2="107.46" y2="184.74"/><line class="cls-17" x1="91.18" y1="167.9" x2="100.79" y2="167.9"/><line class="cls-17" x1="104.77" y1="167.9" x2="114.39" y2="167.9"/><path class="cls-18" d="M201.14,31.34a26.63,26.63,0,0,0-20.39,9.41,22.67,22.67,0,1,0-10.69,42.66h.2a13.28,13.28,0,0,0,12.4,8.4,13.44,13.44,0,0,0,12-7.5,26.88,26.88,0,1,0,6.47-53Z"/><path class="cls-15" d="M201.14,81.73a23.64,23.64,0,0,1-6.95-1,1.68,1.68,0,0,0-2.07,1A10,10,0,0,1,173,81.19,2,2,0,0,0,171.17,80H171c-.33,0-.65,0-1,0a19.32,19.32,0,1,1,10.19-35.7,1.68,1.68,0,0,0,2.22-.4,23.51,23.51,0,1,1,18.67,37.78Z"/><circle class="cls-18" cx="170.9" cy="98.53" r="6.72"/><circle class="cls-15" cx="170.9" cy="98.53" r="3.36"/><circle class="cls-18" cx="155.79" cy="106.93" r="5.04"/><circle class="cls-15" cx="155.79" cy="106.93" r="1.68"/><path class="cls-18" d="M169.34,60.15a10.19,10.19,0,0,0,.92,2.18l-1.11,1.4a1.16,1.16,0,0,0,.08,1.52l1.91,1.91a1.16,1.16,0,0,0,1.53.09l1.38-1.1a10.52,10.52,0,0,0,2.27,1l.21,1.78a1.15,1.15,0,0,0,1.14,1h2.7a1.14,1.14,0,0,0,1.13-1l.2-1.72a10.06,10.06,0,0,0,2.43-1l1.35,1.06a1.16,1.16,0,0,0,1.52-.08l1.91-1.91a1.14,1.14,0,0,0,.08-1.52l-1-1.33A10.25,10.25,0,0,0,189,60l1.61-.19a1.13,1.13,0,0,0,1-1.13V56a1.15,1.15,0,0,0-1-1.14L189,54.67a10.09,10.09,0,0,0-1-2.36l1-1.23a1.15,1.15,0,0,0-.09-1.52L187,47.65a1.15,1.15,0,0,0-1.52-.09l-1.2,1a10.12,10.12,0,0,0-2.49-1.05l-.18-1.55a1.14,1.14,0,0,0-1.13-1h-2.71a1.14,1.14,0,0,0-1.13,1l-.18,1.55a10.24,10.24,0,0,0-2.55,1.08l-1.24-1a1.16,1.16,0,0,0-1.53.09l-1.91,1.91a1.15,1.15,0,0,0-.08,1.52l1,1.32a9.76,9.76,0,0,0-.94,2.38l-1.67.19a1.15,1.15,0,0,0-1,1.14v2.7a1.15,1.15,0,0,0,1,1.14Zm9.79-7.31a4.47,4.47,0,1,1-4.47,4.47A4.47,4.47,0,0,1,179.13,52.84Z"/><path class="cls-18" d="M205.84,60.82l-1.43-1.21a1.13,1.13,0,0,0-1.5,0l-.79.74a8.07,8.07,0,0,0-2.1-.68l-.22-1.08a1.13,1.13,0,0,0-1.2-.91l-1.86.16a1.13,1.13,0,0,0-1,1.09l0,1.1a8.17,8.17,0,0,0-2,1.06l-.94-.63a1.14,1.14,0,0,0-1.49.22L190,62.15a1.11,1.11,0,0,0,0,1.5l.82.88a8.33,8.33,0,0,0-.61,2l-1.17.24a1.14,1.14,0,0,0-.91,1.2l.16,1.86a1.13,1.13,0,0,0,1.09,1l1.27,0a8.54,8.54,0,0,0,.9,1.72l-.71,1.07a1.14,1.14,0,0,0,.22,1.49l1.42,1.21a1.13,1.13,0,0,0,1.5,0l.94-.88a8.08,8.08,0,0,0,1.91.63l.26,1.27a1.14,1.14,0,0,0,1.2.91l1.86-.16a1.14,1.14,0,0,0,1-1.09l0-1.25a8.37,8.37,0,0,0,1.91-1l1,.68a1.13,1.13,0,0,0,1.49-.21l1.2-1.43a1.12,1.12,0,0,0,0-1.5l-.83-.88a8,8,0,0,0,.66-2l1.13-.23a1.12,1.12,0,0,0,.9-1.2l-.16-1.86a1.13,1.13,0,0,0-1.09-1l-1.13,0a8.23,8.23,0,0,0-1-1.87l.62-.93A1.11,1.11,0,0,0,205.84,60.82Zm-7,10.75a3.66,3.66,0,1,1,3.33-3.95A3.66,3.66,0,0,1,198.83,71.57Z"/><path class="cls-18" d="M175.85,76.57a1.14,1.14,0,0,0-1,1.12v1.14a1.13,1.13,0,0,0,1,1.14l.84.11a6.41,6.41,0,0,0,.6,1.46l-.55.67a1.13,1.13,0,0,0,.07,1.5l.8.82a1.12,1.12,0,0,0,1.5.1l.68-.52a6.46,6.46,0,0,0,1.5.66l.09.87a1.12,1.12,0,0,0,1.11,1l1.15,0a1.14,1.14,0,0,0,1.14-1l.1-.82a6.91,6.91,0,0,0,1.63-.64l.63.51a1.12,1.12,0,0,0,1.5-.06l.82-.8a1.13,1.13,0,0,0,.11-1.51l-.49-.63a6.37,6.37,0,0,0,.69-1.58l.75-.08a1.14,1.14,0,0,0,1-1.11V77.81a1.13,1.13,0,0,0-1-1.13l-.73-.1a6.92,6.92,0,0,0-.62-1.58l.46-.56a1.13,1.13,0,0,0-.07-1.5l-.8-.82a1.12,1.12,0,0,0-1.5-.11l-.55.42a6.69,6.69,0,0,0-1.65-.71L185,71a1.14,1.14,0,0,0-1.11-1h-1.15a1.14,1.14,0,0,0-1.14,1l-.09.7a7,7,0,0,0-1.7.7l-.57-.46a1.12,1.12,0,0,0-1.5.07l-.82.8a1.12,1.12,0,0,0-.11,1.5l.49.63a6.58,6.58,0,0,0-.65,1.58Zm7.39-1.29a3,3,0,1,1-3,2.94A3,3,0,0,1,183.24,75.28Z"/><g class="cls-19"><path class="cls-20" d="M258.11,147.89q1.47,2.28,2.72,4.7c.55-1.3,1-2.63,1.46-4C260.91,148.31,259.51,148.07,258.11,147.89Z"/><path class="cls-20" d="M260.83,157c-.83,1.6-1.73,3.17-2.71,4.69a42.29,42.29,0,0,0,4.17-.73C261.86,159.61,261.38,158.28,260.83,157Z"/><path class="cls-20" d="M242.34,152.59c.41-.8.84-1.6,1.3-2.38s.92-1.55,1.41-2.31a42.25,42.25,0,0,0-4.17.72C241.31,150,241.79,151.29,242.34,152.59Z"/><path class="cls-20" d="M246.42,163.71h0a46.13,46.13,0,0,1-6.07-.94c-1.28,5-.95,8.79.91,9.86s5.34-.57,9-4.14A47.9,47.9,0,0,1,246.42,163.71Z"/><path class="cls-20" d="M247.46,161.92a56.79,56.79,0,0,0,8.25,0,55,55,0,0,0,4.12-7.13,54.31,54.31,0,0,0-4.12-7.13,54.1,54.1,0,0,0-8.25,0,54.31,54.31,0,0,0-4.12,7.13A55,55,0,0,0,247.46,161.92Zm4.13-11.14a4,4,0,1,1-4,4A4,4,0,0,1,251.59,150.78Z"/><path class="cls-20" d="M254.3,145.69c-.85-1.12-1.76-2.2-2.71-3.24-1,1-1.87,2.12-2.72,3.24Q251.59,145.56,254.3,145.69Z"/><path class="cls-20" d="M251.59,164c-.9,0-1.81,0-2.72-.07.85,1.12,1.76,2.2,2.71,3.24,1-1,1.87-2.12,2.72-3.24C253.38,163.92,252.48,164,251.59,164Z"/><path class="cls-20" d="M245.05,161.68q-.74-1.14-1.41-2.31c-.46-.78-.89-1.58-1.3-2.39-.55,1.3-1,2.63-1.46,4C242.21,161.25,243.6,161.5,245.05,161.68Z"/><path class="cls-20" d="M246.42,145.86a47.78,47.78,0,0,1,3.85-4.77c-2.92-2.86-5.7-4.47-7.68-4.47a2.7,2.7,0,0,0-1.33.32c-1.86,1.08-2.19,4.82-.91,9.86A47.86,47.86,0,0,1,246.42,145.86Z"/><path class="cls-20" d="M239,160.5a48.18,48.18,0,0,1,2.22-5.71h0a47.29,47.29,0,0,1-2.22-5.72c-5,1.41-8.1,3.57-8.1,5.72S234,159.09,239,160.5Z"/><path class="cls-20" d="M229.06,132v22.79c0-3.12,3.44-5.83,9.48-7.52-1.55-6.06-.92-10.39,1.78-12s6.83.12,11.27,4.43c4.43-4.31,8.6-6,11.26-4.43s3.33,5.89,1.79,12c6,1.69,9.47,4.4,9.47,7.52s-3.44,5.82-9.47,7.52c1.54,6.06.91,10.39-1.79,11.95a4.37,4.37,0,0,1-2.26.57c-2.51,0-5.68-1.76-9-5-3.32,3.24-6.49,5-9,5a4.41,4.41,0,0,1-2.27-.57c-2.7-1.56-3.33-5.89-1.78-11.95-6-1.7-9.48-4.41-9.48-7.52v22.33h45.12V132Z"/><path class="cls-20" d="M256.75,145.86h0a47.38,47.38,0,0,1,6.07.94c1.28-5,.95-8.78-.91-9.86s-5.34.57-9,4.15A47.78,47.78,0,0,1,256.75,145.86Z"/><path class="cls-20" d="M256.75,163.71h0a47.9,47.9,0,0,1-3.85,4.78c2.93,2.85,5.7,4.47,7.68,4.47h0a2.59,2.59,0,0,0,1.32-.33c1.86-1.07,2.19-4.81.91-9.86A46.13,46.13,0,0,1,256.75,163.71Z"/><path class="cls-20" d="M261.91,154.78h0a46.13,46.13,0,0,1,2.22,5.71c5-1.41,8.1-3.56,8.1-5.71s-3.08-4.31-8.1-5.72A45,45,0,0,1,261.91,154.78Z"/></g><path class="cls-14" d="M192.56,135.8l-32.85,11.75c-.17.06-.19.11-.13.27q5.88,16.43,11.75,32.85c.06.16.11.19.27.13L188,174.92,204.46,169c.16-.06.18-.11.12-.27q-5.88-16.43-11.75-32.85C192.77,135.76,192.72,135.74,192.56,135.8Zm-7.45,26.3h0q.93,2.6,1.85,5.2a5.41,5.41,0,0,1,.34,1.95,3.89,3.89,0,0,1-1.49,3.15,6.28,6.28,0,0,1-4.28,1.42,5,5,0,0,1-3.21-1.43c-.09-.09-.1-.14,0-.24l1.8-2.21c.08-.1.13-.1.22,0a5.75,5.75,0,0,0,.84.63,2,2,0,0,0,2.45-.33,1.42,1.42,0,0,0,.33-1.39,4.8,4.8,0,0,0-.24-.82L180,157.78c-.08-.21,0-.28.17-.35.86-.29,1.72-.61,2.57-.91.29-.11.29-.11.39.17C183.82,158.5,184.46,160.3,185.11,162.1Zm14.2,4.52a5.52,5.52,0,0,1-2.11,2,7.82,7.82,0,0,1-4.66,1,5.86,5.86,0,0,1-3.26-1.46c-.12-.11-.14-.17,0-.3.6-.69,1.18-1.39,1.76-2.09.1-.11.15-.12.27,0a3.7,3.7,0,0,0,2.21.91,3.52,3.52,0,0,0,2.38-.76,1.54,1.54,0,0,0,.41-2.14,1.49,1.49,0,0,0-.8-.59,7.27,7.27,0,0,0-1.85-.28,21.77,21.77,0,0,1-2.8-.28,4.69,4.69,0,0,1-3.82-5.8,4.5,4.5,0,0,1,2.34-2.73,6.48,6.48,0,0,1,.78-.35,5.59,5.59,0,0,1,3.12-.34,5.31,5.31,0,0,1,2.21,1.14c.08.06.07.11,0,.18l-1.71,2.22c-.07.09-.11.09-.19,0a4.3,4.3,0,0,0-.51-.36,2,2,0,0,0-2.33.07,1.44,1.44,0,0,0,.19,2.51,4.16,4.16,0,0,0,1.48.3c1,.09,2.12.11,3.17.3a5.29,5.29,0,0,1,2.77,1.23A4.77,4.77,0,0,1,199.31,166.62Z"/></g></g></svg>