<svg id="Camada_1" data-name="Camada 1" xmlns="http://www.w3.org/2000/svg" viewBox="0 0 110 110"><defs><style>.cls-1{fill:#506467;}</style></defs><title>ICONS-VERDE-R01</title><path class="cls-1" d="M70.82,38.74q3.59,5.57,6.62,11.45C78.79,47,80,43.79,81,40.51,77.63,39.77,74.24,39.17,70.82,38.74Z"/><path class="cls-1" d="M77.45,60.91q-3,5.88-6.62,11.44c3.42-.42,6.81-1,10.17-1.77C80,67.31,78.79,64.08,77.45,60.91Z"/><path class="cls-1" d="M32.37,50.19c1-2,2.05-3.9,3.16-5.81s2.25-3.77,3.45-5.63c-3.41.42-6.8,1-10.16,1.77Q30.37,45.44,32.37,50.19Z"/><path class="cls-1" d="M42.32,77.31h0A115.11,115.11,0,0,1,27.53,75c-3.14,12.29-2.33,21.41,2.22,24s13-1.4,22-10.11A114.06,114.06,0,0,1,42.32,77.31Z"/><path class="cls-1" d="M44.86,72.93a132.35,132.35,0,0,0,20.11,0A132.22,132.22,0,0,0,75,55.55,131.17,131.17,0,0,0,65,38.17a132.22,132.22,0,0,0-20.1,0A130.14,130.14,0,0,0,34.8,55.55,132.35,132.35,0,0,0,44.86,72.93Zm10-27.15a9.79,9.79,0,1,1-9.79,9.79A9.79,9.79,0,0,1,54.91,45.78Z"/><path class="cls-1" d="M61.52,33.38c-2.07-2.74-4.29-5.37-6.61-7.9q-3.49,3.8-6.61,7.9Q54.9,33.05,61.52,33.38Z"/><path class="cls-1" d="M54.91,77.89q-3.27,0-6.62-.17c2.07,2.74,4.29,5.37,6.61,7.9q3.49-3.8,6.62-7.9C59.29,77.83,57.08,77.89,54.91,77.89Z"/><path class="cls-1" d="M39,72.35c-1.2-1.85-2.36-3.72-3.46-5.63s-2.15-3.85-3.16-5.81q-2,4.75-3.55,9.68C32,71.31,35.43,71.91,39,72.35Z"/><path class="cls-1" d="M42.32,33.79a114.06,114.06,0,0,1,9.39-11.64C44.57,15.2,37.81,11.25,33,11.25a6.43,6.43,0,0,0-3.22.79c-4.55,2.63-5.36,11.74-2.22,24A115.11,115.11,0,0,1,42.32,33.79Z"/><path class="cls-1" d="M24.33,69.49a113.63,113.63,0,0,1,5.4-13.93h0a113.77,113.77,0,0,1-5.4-13.94C12.09,45.05,4.58,50.31,4.58,55.55S12.09,66.05,24.33,69.49Z"/><path class="cls-1" d="M0,0V55.55C0,48,8.39,41.34,23.09,37.22c-3.77-14.78-2.23-25.34,4.36-29.14s16.65.3,27.46,10.8c10.8-10.49,21-14.52,27.45-10.8s8.14,14.36,4.37,29.13c14.7,4.13,23.09,10.75,23.09,18.34s-8.4,14.21-23.1,18.33C90.49,88.65,89,99.22,82.36,103a10.85,10.85,0,0,1-5.51,1.41c-6.11,0-13.85-4.31-21.95-12.19-8.09,7.88-15.83,12.19-21.93,12.19A10.91,10.91,0,0,1,27.45,103c-6.59-3.79-8.13-14.35-4.35-29.13C8.39,69.76,0,63.14,0,55.55V110H110V0Z"/><path class="cls-1" d="M67.49,33.79h0a113.75,113.75,0,0,1,14.79,2.29c3.14-12.3,2.33-21.41-2.22-24s-13,1.4-22,10.11A114,114,0,0,1,67.49,33.79Z"/><path class="cls-1" d="M67.5,77.31h0A112.88,112.88,0,0,1,58.11,89c7.13,7,13.89,10.9,18.73,10.9h0a6.43,6.43,0,0,0,3.22-.79c4.55-2.63,5.36-11.75,2.22-24A115.66,115.66,0,0,1,67.5,77.31Z"/><path class="cls-1" d="M80.08,55.54h0a113,113,0,0,1,5.41,13.93c12.24-3.44,19.74-8.7,19.74-13.94s-7.51-10.5-19.74-13.94A113.68,113.68,0,0,1,80.08,55.54Z"/></svg>