<svg id="Layer_3" enable-background="new 0 0 64 64" height="512" viewBox="0 0 64 64" width="512" xmlns="http://www.w3.org/2000/svg"><circle cx="32" cy="32" fill="#c16b3f" r="24"/><path d="m25.919 8.779c-10.31 2.692-17.919 12.067-17.919 23.221 0 8.5 4.423 15.962 11.088 20.226.953.126 1.924.198 2.912.198 12.15 0 22-9.85 22-22 0-10.812-7.801-19.795-18.081-21.645z" fill="#e39854"/><circle cx="23" cy="32" fill="#efbe9a" r="15"/><circle cx="59" cy="59" fill="#e39854" r="3"/><circle cx="7" cy="13" fill="#e39854" r="2"/><circle cx="44" cy="4" fill="#e39854" r="2"/><circle cx="7" cy="57" fill="#e39854" r="5"/><path d="m55.861 29.398c4.203 1.135 5.139 2.257 5.139 2.602 0 1.697-10.236 5-29 5s-29-3.303-29-5c0-.346.936-1.468 5.139-2.602.159-1.479.309-2.041.309-2.041h-.418c-4.73 1.22-7.03 2.739-7.03 4.643 0 5.537 20.277 7 31 7s31-1.463 31-7c0-1.903-2.3-3.422-7.029-4.643h-.419c-.001 0 .223 1.061.309 2.041z" fill="#4d5d7a"/><g fill="#db9b7c"><path d="m51 30h-42.911c-.054.66-.089 1.326-.089 2h43z"/><path d="m10 22.406v1.594h37v-2h-36.816c-.062.135-.124.27-.184.406z"/><path d="m22 26h33v2h-33z"/><path d="m13 46.655c.089.116.18.231.271.345h33.729v-2h-34z"/><path d="m54 41.594v-.594h-40v2h39.329c.238-.461.463-.929.671-1.406z"/></g><path d="m38 20h2v-2h2v-2h-2v-2h-2v2h-2v2h2z" fill="#4472b2"/><path d="m63 3h-2v-2h-2v2h-2v2h2v2h2v-2h2z" fill="#4472b2"/><path d="m8 6v-2h-2v-2h-2v2h-2v2h2v2h2v-2z" fill="#4472b2"/></svg>