<svg xmlns="http://www.w3.org/2000/svg" viewBox="0 0 353.81 352.41"><title>sodimac</title><g id="Camada_1" data-name="Camada 1"><rect x="1.69" y="22.91" width="343.73" height="330.98" style="fill:#cfebe8"/><rect x="14.54" y="4.04" width="337.42" height="337.42" style="fill:#fff"/><path d="M146.6,200.09c-29.87,0-59.74-.41-89.6.24-9.64.21-13.5-2.28-12.12-12.1.64-4.63,1.1-9.67,0-14.1-13.12-50.75,22-78.5,51.53-109,6.59-6.78,14.91-2.36,22.32-3.76,6-1.15,15.11,4.47,16.19-8.24.31-3.69,29.73-3.4,30.2.46,1.42,11.47,9.66,8.06,15.35,7.54,10-.92,15.74,4.2,23.07,9.91,36.51,28.44,50.92,64.18,44.82,110.51-2,15.5-4.58,19.69-20,18.9C201.15,199.08,173.85,200.09,146.6,200.09Z" style="fill:#4b6064"/><path d="M177.15,239.31c1.86-5.81,3.79-9.59,4.18-13.52.67-6.68,5.08-5.79,9.5-5.88,6-.13,4.1,4.32,4.21,7.3.22,6,.15,11.93,0,17.89,0,2.87,1.17,6.36-4.12,6.53s-5.45-2.74-5.24-6.51c.1-1.83,0-3.67,0-5.75-5.24,2.81-1,12.37-8.56,11.89s-3.66-9.56-8.53-13.59c0,3.52-.1,6.49,0,9.46.13,3.13-1,4.46-4.35,4.46-3.52,0-5.19-1-5.09-4.77.17-7.21,0-14.43,0-21.65,0-2.57-.08-5.5,3.62-5.12,3.34.35,7.88-2.26,9.54,3.18C173.86,228,175.23,232.78,177.15,239.31Z" style="fill:#f2665f"/><path d="M108.48,235.7c2.45-5.91-5.36-17,9.74-16,14.68,1,20.46,4.75,20.36,16.12s-6,15.08-20.58,15.87C102.87,252.53,111.11,241.39,108.48,235.7Z" style="fill:#f2665f"/><path d="M87.83,252c-9.91,0-15.75-5.82-15.88-15.82-.13-10.57,5.73-16.62,16-16.58,9.58,0,16.08,6.33,16.33,15.79S97.59,252,87.83,252Z" style="fill:#f2665f"/><path d="M215.44,220c3.76-.74,5,1.88,6,4.58,2.47,6.72,4.94,13.45,7.16,20.25.62,1.9,2.69,4.48.78,5.92a6.46,6.46,0,0,1-7.92-.2c-5.1-4.75-9.37-4.85-14.3.31-1.57,1.64-5.09,1.45-7.08.06-2.42-1.69.09-4,.68-5.8,2.21-6.81,5.11-13.4,7.12-20.26C209.13,220.55,211.56,219.43,215.44,220Z" style="fill:#f2665f"/><path d="M248.71,219.6A15.41,15.41,0,0,1,256,221c4.12,2.15,8.68,5.64,6.32,9.74-2,3.5-6.76,1.7-9.9-2.06-2.21-2.65-5.81-2.54-8,.73-2.83,4.29-3.14,9,.11,13.16,2.28,2.9,6.17,3,8.15.17,3.05-4.35,7.64-5.33,9.79-1.94,2.37,3.76-2,7.33-5.64,9.27-6.38,3.37-12.9,2.91-18.51-1.46-6.21-4.83-6.86-11.89-4.67-18.8S241.13,219.26,248.71,219.6Z" style="fill:#f2665f"/><path d="M66.58,228.17c-5.67,3.48-10.38-2.37-16.17-.95,2.18,5.19,6.9,4.24,10.24,5.75,4.18,1.89,8,4.07,7.58,9.47-.41,5.12-4.12,7.56-8.47,8.95-8.57,2.76-14.95-.06-19.14-8.16,6-4.83,11.49,4.53,17.49.43.18-4.23-3.82-3.77-6-4.38-6.72-1.94-13.2-3.82-10.65-12.87,1.64-5.85,10.4-8.87,17.66-6.33C62.72,221.32,66,223.34,66.58,228.17Z" style="fill:#f2665f"/><path d="M111.91,278c0-5.29,0-8.7,0-12.1,0-1.87.81-2.82,2.77-2.84s2.77,1,2.77,2.86c0,6.29.58,12.65-.17,18.84-.58,4.84-3.8,3.85-6.27,1-3-3.53-5.85-7.27-9.12-11.36-.61,1.16-1,1.81-1.32,2.53-1.39,3.54,3.07,10.47-3.21,10.39-5.16-.07-2.19-6.72-2.19-10.22,0-4.61-3-11.69,1.94-13.45,5.29-1.88,6.69,6.1,10.34,9.19C108.6,273.82,109.46,275.15,111.91,278Z" style="fill:#4b6064"/><path d="M270.6,287.16c-8.09,3.37-7.88-5.28-12.72-8.4a50.39,50.39,0,0,0-.84,6c-.06,2.57-1.55,3.13-3.65,3.1A2.58,2.58,0,0,1,250.5,285c0-6.28-1.06-12.8.27-18.77,1.49-6.68,7.88-2.82,11.87-2.82,4.69,0,8.54,4.84,5.91,8.28C263.46,278.33,268.48,282.28,270.6,287.16Z" style="fill:#4b6064"/><path d="M233.62,262.84c7.94.08,12.84,5.07,12.68,12.91s-5.15,12.44-13.24,12.29c-7.42-.13-13.31-5.92-13.1-12.89C220.17,268,226,262.76,233.62,262.84Z" style="fill:#4b6064"/><path d="M91.06,275.44c0,7.56-5.32,12.64-13.22,12.61-8.13,0-13.22-4.87-13.23-12.56s5.18-12.62,13.17-12.64S91.05,267.88,91.06,275.44Z" style="fill:#4b6064"/><path d="M123.13,274.55c1.28-4.23-4.15-12.79,7.73-11.68,9.8.92,15.22,4.79,15,12.9s-5.39,12.17-15.64,12.12C123.12,287.85,123.12,287.85,123.13,274.55Z" style="fill:#4b6064"/><path d="M153.5,236.16c0,3.44-.11,6.89,0,10.33s-.77,5.21-4.67,5.11c-3.32-.08-5.37-.65-5.3-4.57q.23-11.26,0-22.54c-.07-3.82,1.8-4.59,5.21-4.64,3.81-.06,4.91,1.58,4.76,5C153.38,228.64,153.5,232.4,153.5,236.16Z" style="fill:#f2665f"/><path d="M149.7,272.48c0-1.57-.09-3.14,0-4.69.15-2-.82-4.61,2.73-4.75s3,2.34,3.05,4.45c.05,3.45,0,6.89.05,10.33s2.18,5.48,5.18,5.55c3.44.07,4.47-2.75,4.49-5.85,0-3.76-.12-7.52.15-11.26.25-3.54,3.89-4.5,4.89-2.26,2.57,5.76,1.72,12.26.09,18.24-1.19,4.39-5,5.89-9.56,5.84C152.36,288,149.7,284.35,149.7,272.48Z" style="fill:#4b6064"/><path d="M56.24,267.62c-3.37-1.13-5.72.72-7.44,3.59s-1.45,6,.35,8.85,4.39,4.37,7.87,3.06c2-.76,4.69-2.38,5.22.87.5,3.06-2.63,3.62-5.14,3.9-5.21.59-10.09.17-13.21-4.86s-3-10.12.06-15,7.91-5.64,13.18-5c2.45.31,5.6.7,4.81,3.94C61.29,269.64,58.61,269.12,56.24,267.62Z" style="fill:#4b6064"/><path d="M190.15,267.7c-3.23-1.2-5.65.48-7.2,2.84a8.73,8.73,0,0,0,0,9.73c1.73,2.66,4.41,4.54,8,2.67,2.15-1.13,4.69-1.72,5.06,1.38.28,2.39-2.33,3.24-4.55,3.49-5.09.57-10.12.73-13.43-4.23s-3.18-10-.62-15,7.42-6.23,12.78-5.59c2.41.29,5.88.5,5.69,3.22C195.62,269.55,192.68,269.36,190.15,267.7Z" style="fill:#4b6064"/><path d="M218.73,265.36c-11.39,4.26-5.09,13.68-6.91,20.59-.52,1.95-2.15,2-3.73,1.93-1.88-.12-2.69-1.29-2.7-3.11,0-3.77,0-7.55-.08-11.32,0-1.83.27-3.7-1.13-5.34s-6.51.53-5.1-3.47c1.26-3.54,5.56-1.62,8.4-1.53C211.08,263.22,215.4,261.23,218.73,265.36Z" style="fill:#4b6064"/><path d="M342.74,287.89H281v-1.24h61.88Z" style="fill:#4b6064"/><path d="M322.3,258.44H280.76C285,254.9,310.76,254.2,322.3,258.44Z" style="fill:#4b6064"/><path d="M336.46,272.09H281c0-.37,0-.73,0-1.1h55.44Z" style="fill:#4b6064"/><path d="M99.21,133.66h1.58c43.56,0,45.46,2.38,39.81,46-.82,6.34-3.36,7.74-8.92,7.7-21.5-.16-43-.27-64.52,0-6.88.1-9.69-2.44-9-9.15a10.3,10.3,0,0,0,0-1.57C56.07,133.66,56.07,133.66,99.21,133.66Z" style="fill:#f2665f"/><path d="M197,187.27c-44,0-43.66,0-43.21-41.85.1-9.87,3-12.48,12.48-12.14,19.35.69,38.75.6,58.11,0,8.25-.24,11.7,2.21,10.34,10.5-.17,1,0,2.09,0,3.14-.79,12.94,5.51,29.72-2.36,37.81S207.56,186.07,197,187.27Z" style="fill:#fdfdfd"/><path d="M112.19,74.08c25.71,0,46.67.08,67.63-.06,5.43,0,10.06.64,14,5.14,11.36,12.9,23.1,25.47,37.24,41-26.64,0-51.76,5-73.39-1.55C139.85,113.16,128.36,92,112.19,74.08Z" style="fill:#72999b"/><path d="M67.19,117.92c.22-1.49.12-2.15.39-2.43,10.8-11.3,22-31.86,32.37-31.42,12.25.52,23.73,19.15,35.53,29.93l-2.25,3.92Z" style="fill:#eca247"/><path d="M128.88,235.15c.09,4.62-1.41,8.49-6.38,8.88-5.59.45-3.5-4.51-3.15-6.77.5-3.32-3.57-9,3.21-9.67C127.14,227.16,128.7,231,128.88,235.15Z" style="fill:#fff6f5"/><path d="M81.54,235.88c.34-4.06.68-8.48,6.18-8.61s6.55,4.39,6.58,8.41-.9,8.63-6.26,8.74S81.84,240.27,81.54,235.88Z" style="fill:#fef2f0"/><path d="M215.27,230.71c0,4,3.59,6.5,1.08,9.79-.42.55-2.88.51-3.29-.06C210.55,237,213.23,234.39,215.27,230.71Z" style="fill:#fde6e5"/><path d="M263.11,270.84a3.4,3.4,0,0,1-3.54,3.58c-2.05.11-2.69-1.2-2.56-3s-.37-4.16,2.44-4.1A3.55,3.55,0,0,1,263.11,270.84Z" style="fill:#4b6064"/><path d="M226.66,277c-.1-6.43,2.21-9.85,7.07-9.59s7,3.74,6.75,8.58c-.18,4.49-2.62,7.44-6.85,7.51C228.78,283.58,226.45,280.28,226.66,277Z" style="fill:#fff"/><path d="M77.56,267.21c5,.26,7.21,3.65,7.4,7.94s-1.9,8.21-6.86,8.41-7.26-3.38-7.51-7.8S72.84,268.18,77.56,267.21Z" style="fill:#fff"/><path d="M128.23,275.86c2.16-3.07-2.52-8.95,4.55-8.63,4.8.22,7.32,3.62,7.19,8.23-.13,4.4-2.17,8.07-7.19,8.27C125.49,284,130.91,277.88,128.23,275.86Z" style="fill:#fff"/></g></svg>