<svg id="Camada_1" data-name="Camada 1" xmlns="http://www.w3.org/2000/svg" viewBox="0 0 110 110"><defs><style>.cls-1{fill:#4b6064;}</style></defs><title>ICONS-VERDE-R01</title><g id="surface1"><path class="cls-1" d="M21.87,28.35a1.66,1.66,0,0,1,.76.43L46.09,52.24,50.34,48,26.87,24.53a1.61,1.61,0,0,1-.43-.76L25,17.88l-9.79-5.6-4.79,4.8L16,26.87Z"/><path class="cls-1" d="M42.73,81.87,80,44.64a1.64,1.64,0,0,1,1.56-.44,16.32,16.32,0,0,0,20.38-15.9c0-.31,0-.62,0-.94L93.22,36a1.61,1.61,0,0,1-1.67.4l-9.86-3.28a1.64,1.64,0,0,1-1-1l-3.29-9.85a1.66,1.66,0,0,1,.4-1.68l8.66-8.66A16.34,16.34,0,0,0,69.59,32.27a1.66,1.66,0,0,1-.43,1.56L31.92,71.06a1.64,1.64,0,0,1-1.56.43A16.53,16.53,0,1,0,42.3,83.43,1.64,1.64,0,0,1,42.73,81.87ZM30.39,94h-8L18.46,87.4l3.94-6.57h8l3.94,6.57Zm6.33-19.22L72.84,38.63,75.16,41,39.05,77.07Z"/><path class="cls-1" d="M88.45,103.18a10,10,0,0,0,12.82-12.82Z"/><path class="cls-1" d="M99,86.8,80.56,68.36a5.13,5.13,0,0,1-7.23-7.22l-2.61-2.61L56.62,72.62l2.63,2.63a5.12,5.12,0,0,1,7.22,7.22L84.9,100.9q.3.3.63.57l14-14C99.38,87.22,99.2,87,99,86.8Zm-9.74,6.69L72.84,77.07l2.32-2.32L91.58,91.17Z"/></g></svg>