<svg xmlns="http://www.w3.org/2000/svg" viewBox="0 0 350 350"><defs><style>.cls-1{fill:#cfebe8;}.cls-2{fill:#fff;}.cls-3,.cls-7{fill:none;stroke-linecap:round;stroke-miterlimit:10;stroke-width:2px;}.cls-3{stroke:#7483bf;}.cls-4{fill:#f2665f;}.cls-5{fill:#373f4b;}.cls-6{fill:#72999b;}.cls-7{stroke:#fff;}.cls-8{fill:#4b6064;}</style></defs><title>PROJETOS</title><g id="Camada_1" data-name="Camada 1"><rect class="cls-1" x="-0.13" y="18.91" width="343.73" height="330.98"/><rect class="cls-2" x="12.72" y="0.04" width="337.42" height="337.42"/><line class="cls-3" x1="173.15" y1="174.21" x2="157.97" y2="206.94"/><line class="cls-3" x1="173.15" y1="174.21" x2="188.33" y2="206.94"/><path class="cls-4" d="M234.29,170,208.7,145.52a3.62,3.62,0,0,1,.07-5.17l25.59-23.62a3.57,3.57,0,0,1,6,2.62v48.07A3.56,3.56,0,0,1,234.29,170Z"/><path class="cls-5" d="M203.21,174.21H139.72a7.76,7.76,0,0,1-7.76-7.75v-47.6A8.09,8.09,0,0,1,140,110.8h63.64a8.06,8.06,0,0,1,8.07,8.06v46.81A8.56,8.56,0,0,1,203.21,174.21Z"/><circle class="cls-6" cx="155.49" cy="134.32" r="11.25"/><line class="cls-7" x1="158.56" y1="135.34" x2="168.78" y2="145.57"/></g><g id="Camada_2" data-name="Camada 2"><path class="cls-8" d="M262,107.18c-6.54.19-11.15-1.23-14.89-7.18-10.45-16.65-26-27-44.58-32.36-5.82-1.68-8-4.68-9.62-10.18-4.62-15.76-10-31.29-15.9-49.34-6,18.91-11.52,35.45-16.53,52.13-1.61,5.35-4.26,8.93-9.59,10.8-14.25,5-25.37,14.48-33.64,26.65-5,7.35-10.49,9.7-19,9.39-16.73-.61-33.51-.18-50.27-.18,13.51,13,27.41,23.57,41.55,33.75,7.15,5.14,12.42,10.19,12.53,20.44.09,9.15,3.59,18.61,9.18,26.23,5.24,7.13,4.55,13.47,1.85,21.23-6.26,18-11.6,36.36-18.42,58.1l17-12.92h0c12.79-6.51,22.3-17.5,34.3-25.1h0c4.6-2.14,9.06-4.59,14.5-2.56,10.73,4,22.11,3.74,32.87,1.83,8.61-1.53,14.39.87,20.75,5.73C227.81,244.12,242,254,259.18,266.49c-6.29-20.76-10.9-37.82-16.76-54.43-2.18-6.17-1.59-10.15,2.33-15,9.91-12.23,15.81-26.33,16.29-42.16.25-8.36,3.1-14.67,10.16-19.09,8.83-6.77,33.51-23.7,35.88-28.76C291,107.05,276.47,106.77,262,107.18ZM99.73,141.43,61.8,113.27h44.72Zm71.42-97.37c1.56-4.81,3.35-9.54,5.44-15.49a25.24,25.24,0,0,1,2.22,3.64c3.33,10.1,6.6,20.21,10.15,31.12C164.07,66,164,66,171.15,44.06ZM142.58,225.67c-12.26,7.21-27,19.66-37.85,28.8,6.13-16,7.29-21.2,9.19-29.95,1.54-7.05,4.16-13.87,6.46-21.33,7.87,5.56,15.46,10.88,23,16.27C146.84,221.93,143.93,223.73,142.58,225.67Zm100.77,8.68c1.53,4.81,3.08,9.62,5.74,17.94l-37.87-27.48C235.05,208.15,235.05,208.15,243.35,234.35Zm-62.61-16.72c-37.44-.37-68.71-32.32-68.86-70.37-.15-38.76,31.21-70.79,69.35-70.83s69.5,31.92,69.31,70.7S218.55,218,180.74,217.63ZM268,132.81c-2.47-.33-5.06,5.2-7.55-1.41-7.15-18.94-7.34-19.4,12.77-18.75,5.94.19,12.58-3,17.94,2.31C282.67,119.94,274.36,125.13,268,132.81Z"/><path class="cls-4" d="M276.16,283.37c-3.09,10-5.69,18.48-8.28,26.92-.71,2.34-.62,5.45-4,5.67-3.7.25-3.38-3-4-5.33q-4.19-15.11-8.38-30.21c-.43-1.55-1.07-3.45.72-4.14,2.07-.79,3.5.48,4.08,2.72,2.19,8.41,4.44,16.81,8.47,25.34,1.9-6.16,3.45-12.46,5.84-18.43,1.39-3.47.21-9.72,5.75-9.56,4.61.13,3.83,5.79,5,9.13,2.35,6.55,4.3,13.24,6.68,20.7,4.37-8.21,4.79-16.92,7.67-24.82.75-2.05.21-6.19,4.07-5s.85,4.45.38,6.41c-2.29,9.55-5,19-7.61,28.46-.57,2.09-.82,4.64-3.76,4.73s-3.22-2.31-3.88-4.48C282.27,302.71,279.48,294,276.16,283.37Z"/><path class="cls-4" d="M171.91,286.24v29.51c-4.07.13-3.77-2.13-3.78-3.9q-.1-15.28,0-30.56c0-1.77-.65-4.06,1.66-5,2.62-1,4.09.73,5.4,2.69,6.15,9.21,12.33,18.41,20,29.84,0-10.69-.08-19,.07-27.3,0-1.91-1.22-5.13,2.16-5.24,3.18-.11,2.74,3,2.75,5.06q.12,14.81,0,29.6c0,2.12.48,4.66-2.83,5.07-2.66.34-4-1.28-5.32-3.2q-8.94-13.53-17.9-27Z"/><path class="cls-4" d="M150.08,308.94c4.26-7.61,2.84-16.95,9.7-23.13-.06,10-2.86,19.48-6.5,28.5-1.61,4-5.33,2.25-6.65-1.63-2-6-3.82-12.05-5.95-18.8-4.11,5.45-4.6,11.77-6.72,17.4-.9,2.41-1.41,5-4.82,4.85-3.18-.1-3.13-2.8-3.7-4.72-2.07-7-3.92-14-5.82-21.06-.46-1.71-1.66-4,1.16-4.53,2.36-.45,3.06,1.67,3.55,3.59,1.49,5.82,3,11.64,4.72,18.32,4.48-5.28,4.76-11.62,6.88-17.15.93-2.41,1.36-5.16,4.72-4.93,3,.2,2.83,3,3.49,5C146.15,296.62,148,302.63,150.08,308.94Z"/><path class="cls-4" d="M55,308.86c3.72-10.23,7-19.42,10.39-28.6.77-2.1,1.77-4.94,4.36-3.88s1,3.81.27,5.78q-5.36,14.74-10.83,29.46c-.75,2-1.25,4.4-4.18,4.47-3.09.07-3.31-2.51-4-4.47-3.74-10.11-7.39-20.25-11.11-30.36-.64-1.73-2.25-4,.07-4.92,2.57-1,3.67,1.28,4.49,3.6C47.69,289.18,51.14,298.37,55,308.86Z"/><path class="cls-4" d="M81.7,302.34c-1.39,3.67,3.07,12.81-2.5,12.84-5.81,0-1.62-8.84-2.5-13.69-.73-4-.2-8.24-.1-12.38,0-1.5,0-3.36,2.23-3.43,2-.05,2.8,1.37,2.84,3.07C81.77,292.88,81.7,297,81.7,302.34Z"/><path class="cls-4" d="M308.62,303.84c-.55-8-1.15-16-1.63-24-.12-2.06.59-3.82,3.16-3.7,2.05.1,2.64,1.61,2.55,3.29-.44,8.14-1,16.27-1.48,24.41Z"/><path class="cls-4" d="M310,316.09c-2.25,0-3.61-1.08-3.66-3.39-.06-2.15,1-3.81,3.16-4s3.55,1.42,3.77,3.46S312.17,315.64,310,316.09Z"/><path class="cls-4" d="M82,276.92a2.73,2.73,0,0,1-3.06,2.7,2.27,2.27,0,0,1-2.25-2.41c-.07-1.72.48-3.21,2.39-3.27S81.7,275.28,82,276.92Z"/><path class="cls-4" d="M227.46,276c-11.75,0-19,7.77-18.9,20.28.07,12.68,7.05,20,19,19.95s19-7.64,19-20.06S239,275.92,227.46,276Zm13.8,21.14C241,307.3,236,312.36,226.78,312c-8.78-.38-13-5.8-12.72-16.49.23-10.22,5-15.12,14.39-14.77C237.28,281,241.57,286.52,241.26,297.09Z"/><path class="cls-4" d="M100.54,302.92c3.45-.36,7-.08,10.44-.13,1.93,0,4.51-.21,3.79-2.79-1.29-4.66-1.42-10.87-6.66-12.6-4.8-1.59-10.72-2-15.11,1.78-5.17,4.47-5.63,16-1.41,21.61,4.77,6.32,12.63,7.24,22.14,1.51-5.78-.37-10.22-.24-14.47-1.08A5.87,5.87,0,0,1,94.39,305C94.84,301.06,98.4,303.14,100.54,302.92ZM94,298.34c3.36-10.79,7.67-11.74,15.65-3.47,1.93,2.56,1.82,5.22-1.62,5.34C103.31,300.38,98.13,302.5,94,298.34Z"/></g></svg>