<svg id="Camada_1" data-name="Camada 1" xmlns="http://www.w3.org/2000/svg" viewBox="0 0 110 110"><defs><style>.cls-1{fill:#506467;}</style></defs><title>ICONS-VERDE-R01</title><path class="cls-1" d="M109.4.17H.6C-.1.17,0,.08,0,.8Q0,25.54,0,50.28v59.18c0,.61-.07.53.54.54H109.43c.57,0,.57,0,.57-.61V.79C110,.17,110,.17,109.4.17ZM56.06,79c-2.71,0-5.43,0-8.15,0a1.31,1.31,0,0,1-1.35-.88c-1-2.23-2.09-4.45-3.13-6.69q-2.24-4.8-4.45-9.6l-1.91-4.17a.89.89,0,0,0-.28-.43,2.72,2.72,0,0,0-.35.73c-1.11,2.5-2.19,5-3.3,7.5-.92,2.09-1.87,4.18-2.82,6.26s-2,4.29-2.95,6.43a1.19,1.19,0,0,1-1.2.8c-2.62,0-5.23,0-7.85,0a1.51,1.51,0,0,1-.3,0c-.38,0-.5-.26-.32-.6.74-1.48,1.5-3,2.26-4.44.51-1,1-2,1.52-3,1.47-2.89,2.94-5.77,4.4-8.67l2.24-4.45c1-2.05,2.07-4.09,3.12-6.12a.93.93,0,0,0,0-.95c-1.08-2.15-2.13-4.32-3.19-6.48L23.7,35.41Q21.51,31,19.34,26.55c-.36-.73-.7-1.48-1.1-2.19-.31-.53,0-.85.52-.84.84,0,1.69,0,2.54,0h5.6l.45,0A.73.73,0,0,1,28,24c.53,1.15,1.07,2.3,1.61,3.46s1.11,2.44,1.68,3.65c1.15,2.46,2.28,4.93,3.41,7.4Q36,41.4,37.29,44.26c0,.09.1.17.16.28a2.22,2.22,0,0,0,.38-.75c1.47-3.42,3-6.81,4.54-10.18Q44.5,29,46.59,24.35a1.24,1.24,0,0,1,1.28-.84q3.69,0,7.4,0c.68,0,.95.19.55,1-1.35,2.64-2.69,5.29-4,7.94-.73,1.44-1.45,2.88-2.18,4.31l-4.08,8c-.72,1.41-1.42,2.82-2.14,4.23-.18.36-.36.73-.55,1.08a.44.44,0,0,0,0,.47q1,2.05,2.08,4.13c.34.68.69,1.36,1,2.05q1.88,3.72,3.74,7.46L53,70.77l3.5,7a3.18,3.18,0,0,1,.16.32C57,78.76,56.84,79,56.06,79Zm35-2.46a29.22,29.22,0,0,1-9.25,2.71,25.17,25.17,0,0,1-3.88.21,20.18,20.18,0,0,1-8.08-1.75,15.81,15.81,0,0,1-4.91-3.52,17.73,17.73,0,0,1-3.72-6.29,24.37,24.37,0,0,1-1.12-4.7,31.18,31.18,0,0,1-.3-5.29,24,24,0,0,1,2.47-10.27A18.8,18.8,0,0,1,66,42.47,18.05,18.05,0,0,1,74.34,38a21.06,21.06,0,0,1,4-.58,21.39,21.39,0,0,1,3.49.06c.24,0,.32-.06.31-.31,0-1.13,0-2.26,0-3.39V24.44c0-.75.11-.87.82-.87h7.5a2,2,0,0,1,.35,0,.38.38,0,0,1,.36.41V48.53q0,12,0,24.07a23.82,23.82,0,0,0,.22,3.15C91.5,76.26,91.47,76.33,91,76.54Z"/><path class="cls-1" d="M82.1,58.19V46c0-.62,0-.62-.58-.78h-.1a9.31,9.31,0,0,0-4-.1A9.09,9.09,0,0,0,71.26,49a14.46,14.46,0,0,0-2.45,7.6,23.89,23.89,0,0,0,.16,5,15.28,15.28,0,0,0,1.48,5,8.61,8.61,0,0,0,4.43,4.15,9.51,9.51,0,0,0,3.15.68,10,10,0,0,0,3.6-.39c.51-.16.47,0,.47-.66Z"/></svg>