<svg xmlns="http://www.w3.org/2000/svg" xmlns:xlink="http://www.w3.org/1999/xlink" viewBox="0 0 400 400"><defs><style>.cls-1{fill:#f2665f;}.cls-2{fill:#f9b8ab;}.cls-3{fill:#f2eaea;}.cls-4{opacity:0.93;fill:url(#Gradiente_sem_nome_42);}.cls-5{fill:#4b6064;}.cls-6{fill:#e3e3e3;}.cls-7{fill:#f6f5f5;}.cls-8{fill:#231f20;}.cls-11,.cls-15,.cls-9{fill:#fff;}.cls-9{stroke:#231f20;stroke-width:2px;}.cls-14,.cls-9{stroke-miterlimit:10;}.cls-10,.cls-14{fill:none;}.cls-10{stroke:#000;}.cls-12{fill:#dcdbda;}.cls-13{fill:#444545;}.cls-14{stroke:#fff;}.cls-15{font-size:32px;font-family:Lato-Black, Lato;font-weight:800;}.cls-16{letter-spacing:-0.02em;}.cls-17{font-family:Lato-Light, Lato;font-weight:300;}.cls-18{font-size:25.07px;}</style><linearGradient id="Gradiente_sem_nome_42" x1="2.91" y1="200.82" x2="398.91" y2="200.82" gradientTransform="translate(0.1 401.73) rotate(-90)" gradientUnits="userSpaceOnUse"><stop offset="0" stop-color="#f1f2f2"/><stop offset="0.23" stop-color="#f1f2f2" stop-opacity="0.8"/><stop offset="0.37" stop-color="#f1ebeb" stop-opacity="0.81"/><stop offset="0.53" stop-color="#f1d7d5" stop-opacity="0.84"/><stop offset="0.71" stop-color="#f1b5b2" stop-opacity="0.89"/><stop offset="0.89" stop-color="#f28681" stop-opacity="0.95"/><stop offset="1" stop-color="#f2665f"/></linearGradient></defs><title>avatar-novo</title><g id="Camada_2" data-name="Camada 2"><circle class="cls-1" cx="200.91" cy="200.82" r="198"/><circle class="cls-2" cx="200.91" cy="200.82" r="158.26"/><circle class="cls-3" cx="200.91" cy="200.82" r="114.95"/></g><g id="Camada_6" data-name="Camada 6"><circle class="cls-4" cx="200.91" cy="200.82" r="198"/></g><g id="Camada_5" data-name="Camada 5"><path class="cls-5" d="M210.94,315.37c16.29-.86,45.73-9.17,66.23-28.75-.82-3.24-5-1.42-7-1.48-7.24-.24-14.48,0-21.73-.16-1.43,0-3.11,0-3.58-1.88-.37-1.53.62-2.42,1.78-3.18a5.83,5.83,0,0,0,1.8-1.62c1-2.51,5.33-3.3,2.15-3.3H159c-8,0-16.08,0-24.13,0-4.61,0-9.22,0-13.83.07-2.29,0-5.13-.65-6.24,2.52a130.32,130.32,0,0,0,13.59,12.53,117.54,117.54,0,0,0,27.51,16.29C176,315,191.36,316.41,210.94,315.37Z"/><path class="cls-6" d="M247.78,271.63v-1a6.75,6.75,0,0,1,0-8.4c1.92-1.26,4.1-1.17,6.24-1.18q18.14-.06,36.25,0c2.28,0,6.11-.92,8,1-3.46,6.34-8.63,13.62-14.28,18.27-10.95,1.16-22.09-.19-33-.29a4.11,4.11,0,0,1-3.13-1.36Z"/><path class="cls-7" d="M247.78,278.64c10.28,0,20.56,0,30.84,0,1.74,0,3.87,0,5.34,1.62-2.26,3.08-5.11,5.09-8.18,7.35-2.67-2-5.74-.85-8.6-.94-6.44-.2-12.88,0-19.32-.08-2.31,0-5.1.88-5.17-3.28C242.62,279.5,244.32,278.3,247.78,278.64Z"/><path class="cls-8" d="M115.92,262.56c-8.93,22.56,1.75-5.82-9.93,23.51-4.73,11.88,56.12,8.33,50.14-4.86-16.62-36.66-11.86-16-15.78-23.54C133.81,245.08,117.24,259.21,115.92,262.56Z"/><path class="cls-9" d="M116,270.86c1.66,2.06,13.68,16,41.28,9.3-10.19,8.66-4.16,11.09-8.93,11.7-11.23,1.44-13.39,1.6-24.53-.5S94.55,281,94.55,275.55s14.86-16.42,22.94-25.34l6.48,1.35S114.37,268.8,116,270.86Z"/><path class="cls-9" d="M148,273.4c-1.12,3.07-21.62,15.68-46.67,9,9.25,8.65,7.5,10.29,14.87,10.95s14.59,2.69,24.7.6,25.7-9.53,27.78-14.39-14.67-17.85-22-26.77l-5.88,1.35S149.14,270.32,148,273.4Z"/><ellipse class="cls-9" cx="128.58" cy="199.98" rx="48.46" ry="66.3"/><path class="cls-8" d="M103.66,193c16.41,14.21,34.28,23,60.69,30.13,9.43,2.56,10.39,2.16,15.42-3.46A53.51,53.51,0,0,0,188,207.52a47.16,47.16,0,0,0,4.7-25c-1.45-16.79-11.11-33-23.87-47.93l-.47,9.08c-9.1-12.72-18.4-26.33-14.58-40A34.33,34.33,0,0,0,147,114.77a36.12,36.12,0,0,1,4.17-25.83,152.07,152.07,0,0,1-23.91,18.32l-3.66-9.68C114,113.87,88.81,124.89,74.84,140a47.28,47.28,0,0,0-12.23,42.16c2.75,14.41,10.46,33.79,20.83,46.87C94.41,217.69,104.88,206.1,103.66,193Z"/><path id="bezier52" class="cls-10" d="M148.38,237.34c0,4.57-8.69,8.3-19.46,8.3s-19.45-3.73-19.45-8.3,8.69-8.34,19.45-8.34,19.46,3.72,19.46,8.34Z"/><path id="bezier53" class="cls-11" d="M102.74,219.71l-2.57,12.52,51.66,11.47,2.56-12.52Z"/><ellipse class="cls-8" cx="123.84" cy="219.71" rx="1.86" ry="4.45"/><ellipse class="cls-8" cx="133.16" cy="219.71" rx="1.86" ry="4.45"/><rect class="cls-12" x="196.81" y="126.34" width="188.04" height="135.68" rx="3.58"/><rect class="cls-13" x="198.8" y="127.65" width="184.07" height="132.81" rx="3.14"/><rect class="cls-14" x="205.17" y="132.25" width="171.32" height="123.61"/><line class="cls-14" x1="205.17" y1="146.59" x2="376.49" y2="146.59"/><circle class="cls-14" cx="341.73" cy="139.62" r="3.92"/><circle class="cls-14" cx="355.66" cy="139.62" r="3.92"/><circle class="cls-14" cx="369.08" cy="139.62" r="3.92"/><text class="cls-15" transform="translate(215.83 192.44) scale(0.83 1)">Find out on <tspan class="cls-16" x="0" y="35">m</tspan><tspan x="26.91" y="35">y </tspan><tspan class="cls-1" x="50.78" y="35">projects </tspan><tspan class="cls-17" x="176.13" y="35" xml:space="preserve"> |</tspan><tspan class="cls-18" x="191.9" y="35"> </tspan></text></g></svg>