<svg xmlns="http://www.w3.org/2000/svg" viewBox="0 0 889.26 892.01"><title>avatar-14</title><g id="Camada_1" data-name="Camada 1"><path id="Trazado_4663" data-name="Trazado 4663" d="M889.2-13h63V51h-63Z" style="fill:#aad0d2"/></g><g id="Camada_2" data-name="Camada 2"><circle cx="450.59" cy="456.15" r="435.86" style="fill:#333;isolation:isolate"/><circle cx="437.59" cy="438.68" r="435.86" style="fill:#f2665f"/><circle cx="445.59" cy="455.27" r="348.37" style="fill:#333;isolation:isolate"/><circle cx="437.59" cy="438.68" r="348.37" style="fill:#f9b8ab"/><circle cx="437.59" cy="438.68" r="253.05" style="fill:#e3cac7"/></g><g id="Camada_5" data-name="Camada 5"><path d="M459.67,690.86c35.87-1.9,100.67-20.2,145.78-63.3-1.8-7.13-11-3.12-15.48-3.26-15.93-.52-31.89,0-47.83-.34-3.16-.08-6.87,0-7.88-4.15-.82-3.37,1.36-5.33,3.91-7a13.1,13.1,0,0,0,4-3.58c2.21-5.52,11.72-7.26,4.72-7.26H345.26c-17.7,0-35.4-.05-53.11,0-10.15,0-20.3,0-30.45.17-5,0-11.28-1.45-13.73,5.52a284.54,284.54,0,0,0,29.9,27.6,258.89,258.89,0,0,0,60.58,35.86C382.81,689.94,416.56,693.15,459.67,690.86Z" style="fill:#4b6064"/><path d="M540.76,594.56c0-.73,0-1.46,0-2.19-4.27-6.17-4.28-12.33,0-18.49,4.21-2.78,9-2.59,13.74-2.61q39.9-.12,79.8,0c5,0,13.44-2,17.5,2.1-7.6,14-19,30-31.42,40.24-24.1,2.54-48.64-.42-72.77-.65a9.11,9.11,0,0,1-6.87-3Q540.77,602.29,540.76,594.56Z" style="fill:#e3e3e3"/><path d="M540.77,610c22.63,0,45.26-.07,67.88.06,3.84,0,8.52,0,11.76,3.57-5,6.77-11.24,11.18-18,16.16-5.87-4.49-12.63-1.87-18.93-2.06-14.17-.44-28.36,0-42.54-.19-5.07,0-11.21,2-11.37-7.2C529.4,611.89,533.15,609.25,540.77,610Z" style="fill:#f6f5f5"/><rect x="428.56" y="274.73" width="413.94" height="298.67" rx="3.58" style="fill:#dcdbda"/><rect x="432.93" y="277.61" width="405.2" height="292.37" rx="3.14" style="fill:#444545"/><rect x="446.97" y="287.74" width="377.12" height="272.11" style="fill:none;stroke:#fff;stroke-miterlimit:10"/><line x1="446.97" y1="319.3" x2="824.09" y2="319.3" style="fill:none;stroke:#fff;stroke-miterlimit:10"/><circle cx="747.57" cy="303.97" r="8.63" style="fill:none;stroke:#fff;stroke-miterlimit:10"/><circle cx="778.24" cy="303.97" r="8.63" style="fill:none;stroke:#fff;stroke-miterlimit:10"/><circle cx="807.79" cy="303.97" r="8.63" style="fill:none;stroke:#fff;stroke-miterlimit:10"/><rect x="560.53" y="438.68" width="226.34" height="76.83" style="fill:#f2665f"/><path d="M501.36,368.93v9.16H483.88v13h14.56v9.19H483.88v20h-9.94V368.93Z" style="fill:#fff"/><path d="M516.91,373.72a6.83,6.83,0,0,1-.43,2.45,6.71,6.71,0,0,1-1.2,2,5.86,5.86,0,0,1-1.77,1.37,4.69,4.69,0,0,1-2.15.51,4.35,4.35,0,0,1-2.07-.51,5.62,5.62,0,0,1-1.71-1.37,6.25,6.25,0,0,1-1.17-2,6.83,6.83,0,0,1-.43-2.45,7.1,7.1,0,0,1,.43-2.5,6.63,6.63,0,0,1,1.17-2,5.48,5.48,0,0,1,1.71-1.37,4.46,4.46,0,0,1,2.07-.5,4.82,4.82,0,0,1,2.15.5,5.7,5.7,0,0,1,1.77,1.37,6.82,6.82,0,0,1,1.63,4.54Zm-1,10v36.52H506.8V383.73Z" style="fill:#fff"/><path d="M523.17,420.25V383.73h5.61a2.16,2.16,0,0,1,1.42.46,2.49,2.49,0,0,1,.81,1.37l.52,2.11c.59-.65,1.19-1.27,1.81-1.83a10.21,10.21,0,0,1,4.32-2.34,10.45,10.45,0,0,1,2.7-.34,9.11,9.11,0,0,1,4.4,1,9.59,9.59,0,0,1,3.23,2.89,13.37,13.37,0,0,1,2,4.4,21.76,21.76,0,0,1,.67,5.55v23.21h-9.06V397a7.26,7.26,0,0,0-1-4.17,3.4,3.4,0,0,0-3-1.5,5.38,5.38,0,0,0-2.8.78,10.82,10.82,0,0,0-2.52,2.07v26Z" style="fill:#fff"/><path d="M578.36,420.25a2.15,2.15,0,0,1-1.41-.46,2.43,2.43,0,0,1-.81-1.37l-.7-2.78a19.46,19.46,0,0,1-1.9,2.11,11.65,11.65,0,0,1-2.15,1.64,10.3,10.3,0,0,1-2.48,1.06,11,11,0,0,1-2.88.37,8.16,8.16,0,0,1-4.39-1.27,11.15,11.15,0,0,1-3.48-3.66,20.43,20.43,0,0,1-2.29-5.87,33.73,33.73,0,0,1-.84-7.91,29.55,29.55,0,0,1,.94-7.59,20,20,0,0,1,2.65-6,12.9,12.9,0,0,1,4.1-4A10.09,10.09,0,0,1,568,383a8.73,8.73,0,0,1,4,.83,11.2,11.2,0,0,1,2.93,2.17V367.53H584v52.72Zm-9.18-7.82a6.24,6.24,0,0,0,1.8-.23,5.64,5.64,0,0,0,1.48-.65,6.5,6.5,0,0,0,1.27-1.05,13.44,13.44,0,0,0,1.18-1.48v-15.5a5.62,5.62,0,0,0-4.73-2.47,4.57,4.57,0,0,0-2.31.6,5.15,5.15,0,0,0-1.83,1.92,11.27,11.27,0,0,0-1.21,3.44,25.68,25.68,0,0,0-.44,5.1,28.69,28.69,0,0,0,.35,4.86,11.16,11.16,0,0,0,1,3.19,4.23,4.23,0,0,0,1.5,1.74A3.67,3.67,0,0,0,569.18,412.43Z" style="fill:#fff"/><path d="M615.78,383.16a14.88,14.88,0,0,1,6.29,1.31,13.72,13.72,0,0,1,4.86,3.73,17.43,17.43,0,0,1,3.16,5.9,25.19,25.19,0,0,1,1.13,7.8,25.65,25.65,0,0,1-1.13,7.87,17.54,17.54,0,0,1-3.16,6,13.94,13.94,0,0,1-4.86,3.77,14.73,14.73,0,0,1-6.29,1.32,14.88,14.88,0,0,1-6.33-1.32,14.21,14.21,0,0,1-4.91-3.77,17.42,17.42,0,0,1-3.19-6,25.66,25.66,0,0,1-1.12-7.87,25.2,25.2,0,0,1,1.12-7.8,17.31,17.31,0,0,1,3.19-5.9,14,14,0,0,1,4.91-3.73A15,15,0,0,1,615.78,383.16Zm0,29.56a4.9,4.9,0,0,0,4.6-2.66c1-1.78,1.48-4.47,1.48-8.09s-.49-6.3-1.48-8.06a4.91,4.91,0,0,0-4.6-2.65,5,5,0,0,0-4.71,2.65q-1.49,2.64-1.49,8.06c0,3.62.5,6.31,1.49,8.09A5,5,0,0,0,615.78,412.72Z" style="fill:#fff"/><path d="M644.66,383.73V406.9a7.28,7.28,0,0,0,1,4.2,3.42,3.42,0,0,0,3,1.47,5.5,5.5,0,0,0,2.79-.74,10.48,10.48,0,0,0,2.53-2.07v-26h9.06v36.52h-5.61a2.2,2.2,0,0,1-2.23-1.83l-.55-2.11a21.2,21.2,0,0,1-1.81,1.85,11,11,0,0,1-2,1.41,10.73,10.73,0,0,1-2.29.91,10.37,10.37,0,0,1-2.69.34,9.11,9.11,0,0,1-4.4-1,9.44,9.44,0,0,1-3.23-2.91,13.56,13.56,0,0,1-2-4.4,21.64,21.64,0,0,1-.67-5.57V383.73Z" style="fill:#fff"/><path d="M680.74,420.82a9.14,9.14,0,0,1-3.82-.76,7.64,7.64,0,0,1-2.78-2.15,9.69,9.69,0,0,1-1.71-3.36,15.54,15.54,0,0,1-.58-4.41V391.26h-2.57a1.57,1.57,0,0,1-1.2-.54,2.31,2.31,0,0,1-.5-1.6v-4.27l4.82-1.12,1.79-8.91a1.86,1.86,0,0,1,2-1.69h4.73V383.8h7.37v7.46h-7.37V409.4a3.94,3.94,0,0,0,.51,2.1,1.65,1.65,0,0,0,1.48.83,2.23,2.23,0,0,0,.83-.13,2.7,2.7,0,0,0,.59-.28l.46-.28a1.08,1.08,0,0,1,.52-.12.88.88,0,0,1,.65.23,2.68,2.68,0,0,1,.52.72l2.74,5.18a11.79,11.79,0,0,1-3.94,2.37A13.22,13.22,0,0,1,680.74,420.82Z" style="fill:#fff"/><path d="M718.27,383.16a14.88,14.88,0,0,1,6.29,1.31,13.72,13.72,0,0,1,4.86,3.73,17.43,17.43,0,0,1,3.16,5.9,25.19,25.19,0,0,1,1.13,7.8,25.65,25.65,0,0,1-1.13,7.87,17.54,17.54,0,0,1-3.16,6,13.94,13.94,0,0,1-4.86,3.77,14.73,14.73,0,0,1-6.29,1.32,14.88,14.88,0,0,1-6.33-1.32,14.21,14.21,0,0,1-4.91-3.77,17.42,17.42,0,0,1-3.19-6,25.66,25.66,0,0,1-1.12-7.87,25.2,25.2,0,0,1,1.12-7.8,17.31,17.31,0,0,1,3.19-5.9,14,14,0,0,1,4.91-3.73A15,15,0,0,1,718.27,383.16Zm0,29.56a4.92,4.92,0,0,0,4.61-2.66c1-1.78,1.47-4.47,1.47-8.09s-.49-6.3-1.47-8.06a4.93,4.93,0,0,0-4.61-2.65,5,5,0,0,0-4.71,2.65q-1.48,2.64-1.49,8.06c0,3.62.5,6.31,1.49,8.09A5,5,0,0,0,718.27,412.72Z" style="fill:#fff"/><path d="M738.68,420.25V383.73h5.61a2.18,2.18,0,0,1,1.42.46,2.47,2.47,0,0,1,.8,1.37l.53,2.11a22.36,22.36,0,0,1,1.81-1.83,10.32,10.32,0,0,1,7-2.68,9.08,9.08,0,0,1,4.4,1,9.49,9.49,0,0,1,3.23,2.89,13.37,13.37,0,0,1,2,4.4,21.75,21.75,0,0,1,.68,5.55v23.21h-9.07V397a7.35,7.35,0,0,0-1-4.17,3.41,3.41,0,0,0-3-1.5,5.42,5.42,0,0,0-2.81.78,10.78,10.78,0,0,0-2.51,2.07v26Z" style="fill:#fff"/><path d="M473.94,497.3V460.77h5.62a2.21,2.21,0,0,1,1.41.46,2.55,2.55,0,0,1,.81,1.38l.49,2a17.91,17.91,0,0,1,1.58-1.74,10.55,10.55,0,0,1,1.77-1.38,8.59,8.59,0,0,1,2.05-.91,8,8,0,0,1,2.41-.34,6.31,6.31,0,0,1,4.54,1.71,10.86,10.86,0,0,1,2.74,4.56,10.62,10.62,0,0,1,1.85-2.89,10.1,10.1,0,0,1,2.37-1.93,10.3,10.3,0,0,1,2.69-1.1,12,12,0,0,1,2.82-.35,10.89,10.89,0,0,1,4.62.93,8.94,8.94,0,0,1,3.38,2.72,12.6,12.6,0,0,1,2.06,4.36,22.39,22.39,0,0,1,.7,5.87V497.3h-9.06V474.09q0-5.67-4-5.67a3.82,3.82,0,0,0-3.05,1.46,6.42,6.42,0,0,0-1.21,4.21V497.3h-9.07V474.09c0-2.09-.34-3.56-1-4.4a3.63,3.63,0,0,0-3-1.27,4.34,4.34,0,0,0-2.32.67,8.55,8.55,0,0,0-2.07,1.79V497.3Z" style="fill:#fff"/><path d="M535.51,506.77a4,4,0,0,1-1,1.61,2.81,2.81,0,0,1-1.87.51h-6.78l5.85-14.8L519.6,460.77h8a2.23,2.23,0,0,1,1.63.57,3,3,0,0,1,.82,1.34l5,15.74a39.07,39.07,0,0,1,1.14,4.37c.19-.75.41-1.49.64-2.22s.46-1.47.68-2.22l4.5-15.67a2.58,2.58,0,0,1,.92-1.36,2.36,2.36,0,0,1,1.47-.55h7.31Z" style="fill:#fff"/><path d="M566.73,508.89V460.77h5.61a2.22,2.22,0,0,1,1.42.46,2.48,2.48,0,0,1,.8,1.38l.68,2.67a16.63,16.63,0,0,1,1.88-2.11,12.62,12.62,0,0,1,2.17-1.64,10.32,10.32,0,0,1,5.39-1.46,8,8,0,0,1,4.38,1.27,10.77,10.77,0,0,1,3.48,3.66,20.31,20.31,0,0,1,2.3,5.87,34.07,34.07,0,0,1,.83,7.87,29.1,29.1,0,0,1-.95,7.61,20.54,20.54,0,0,1-2.66,6,12.94,12.94,0,0,1-4.09,4,10,10,0,0,1-5.28,1.44,8.82,8.82,0,0,1-4-.81,10.87,10.87,0,0,1-2.92-2.18v14Zm14.79-40.47a6.33,6.33,0,0,0-1.8.23,6,6,0,0,0-1.49.65,5.78,5.78,0,0,0-1.27,1.07,16.34,16.34,0,0,0-1.17,1.5v15.5a6,6,0,0,0,2.22,1.92,6.07,6.07,0,0,0,2.52.54,4.57,4.57,0,0,0,2.31-.6,5.05,5.05,0,0,0,1.82-1.92,11.46,11.46,0,0,0,1.22-3.43,25.9,25.9,0,0,0,.44-5.14,27.58,27.58,0,0,0-.36-4.86,11.51,11.51,0,0,0-1-3.19,4.24,4.24,0,0,0-1.51-1.74A3.65,3.65,0,0,0,581.52,468.42Z" style="fill:#fff"/><path d="M600.52,497.3V460.77h5.38a3.68,3.68,0,0,1,1.13.15,1.75,1.75,0,0,1,1.22,1.23,8.25,8.25,0,0,1,.28,1.2l.5,3.41a17.07,17.07,0,0,1,3.74-4.89,6.76,6.76,0,0,1,4.53-1.8,4.6,4.6,0,0,1,3.33,1.2l-1.16,8a1.71,1.71,0,0,1-.47,1,1.41,1.41,0,0,1-.94.3,5.59,5.59,0,0,1-1.17-.16,7.28,7.28,0,0,0-1.69-.16q-3.57,0-5.62,4.58v22.4Z" style="fill:#fff"/><path d="M638.17,460.21a15,15,0,0,1,6.29,1.3,13.87,13.87,0,0,1,4.87,3.74,17.59,17.59,0,0,1,3.15,5.9,25.19,25.19,0,0,1,1.13,7.8,25.7,25.7,0,0,1-1.13,7.87,17.65,17.65,0,0,1-3.15,5.95,13.84,13.84,0,0,1-4.87,3.77,15.72,15.72,0,0,1-12.61,0,14.1,14.1,0,0,1-4.92-3.77,17.35,17.35,0,0,1-3.18-5.95,25.7,25.7,0,0,1-1.13-7.87,25.19,25.19,0,0,1,1.13-7.8,17.29,17.29,0,0,1,3.18-5.9,14.13,14.13,0,0,1,4.92-3.74A15.13,15.13,0,0,1,638.17,460.21Zm0,29.55a4.91,4.91,0,0,0,4.61-2.66c1-1.77,1.48-4.46,1.48-8.08s-.5-6.31-1.48-8.07a4.92,4.92,0,0,0-4.61-2.64,5,5,0,0,0-4.7,2.64c-1,1.76-1.49,4.45-1.49,8.07s.49,6.31,1.49,8.08A5,5,0,0,0,638.17,489.76Z" style="fill:#fff"/><path d="M667.93,460.77v36.6a20.87,20.87,0,0,1-.54,4.84,11,11,0,0,1-1.78,4,8.68,8.68,0,0,1-3.27,2.7,11.66,11.66,0,0,1-5.05,1,12,12,0,0,1-2.06-.16,14.34,14.34,0,0,1-2-.47l.29-5.74a1.71,1.71,0,0,1,.41-1.09,2,2,0,0,1,1.4-.36,6,6,0,0,0,1.73-.21,2,2,0,0,0,1.06-.74,3.25,3.25,0,0,0,.56-1.42,13.29,13.29,0,0,0,.16-2.31v-36.6Zm1.06-10a6.83,6.83,0,0,1-.44,2.45,6.55,6.55,0,0,1-1.2,2,6,6,0,0,1-1.77,1.37,4.69,4.69,0,0,1-2.15.51,4.35,4.35,0,0,1-2.07-.51,5.78,5.78,0,0,1-1.71-1.37,6.47,6.47,0,0,1-1.17-2,6.83,6.83,0,0,1-.43-2.45,7.1,7.1,0,0,1,.43-2.5,6.63,6.63,0,0,1,1.17-2,5.37,5.37,0,0,1,1.71-1.38,4.57,4.57,0,0,1,2.07-.49,4.94,4.94,0,0,1,2.15.49,5.59,5.59,0,0,1,1.77,1.38,6.7,6.7,0,0,1,1.2,2A7.1,7.1,0,0,1,669,450.77Z" style="fill:#fff"/><path d="M688.1,460.21a13.32,13.32,0,0,1,5.52,1.13,12,12,0,0,1,4.29,3.27,15.59,15.59,0,0,1,2.81,5.27,23,23,0,0,1,1,7.06,18.18,18.18,0,0,1-.09,2,3.76,3.76,0,0,1-.32,1.23,1.35,1.35,0,0,1-.63.64,2.62,2.62,0,0,1-1,.17H682.2c.29,3.05,1.06,5.27,2.31,6.64a6.22,6.22,0,0,0,4.82,2.06,7.2,7.2,0,0,0,2.72-.46,11.65,11.65,0,0,0,2-1l1.64-1a3,3,0,0,1,1.56-.46,1.8,1.8,0,0,1,1.64.95l2.63,3.91a14.31,14.31,0,0,1-3,3.16,15,15,0,0,1-3.34,1.9,15.61,15.61,0,0,1-3.42,1,22.09,22.09,0,0,1-3.26.26,14.33,14.33,0,0,1-6-1.25,13.68,13.68,0,0,1-4.89-3.71,18.38,18.38,0,0,1-3.3-6.13,27.14,27.14,0,0,1-1.21-8.53,22.83,22.83,0,0,1,1-6.93,18.05,18.05,0,0,1,3-5.75,14.38,14.38,0,0,1,4.7-3.9A13.2,13.2,0,0,1,688.1,460.21Zm.18,7.54a4.94,4.94,0,0,0-4.06,1.78,10.09,10.09,0,0,0-1.93,5.12H693.6a11.15,11.15,0,0,0-.28-2.53,6.59,6.59,0,0,0-.9-2.21,4.87,4.87,0,0,0-1.66-1.56A4.82,4.82,0,0,0,688.28,467.75Z" style="fill:#fff"/><path d="M728.8,469.44a5.91,5.91,0,0,1-.79.95,1.53,1.53,0,0,1-1.08.35,2,2,0,0,1-1.22-.39l-1.21-.86a9.33,9.33,0,0,0-1.58-.86,5.67,5.67,0,0,0-2.25-.39,5.46,5.46,0,0,0-2.88.74,5.73,5.73,0,0,0-2,2.11,10.67,10.67,0,0,0-1.17,3.37,24.27,24.27,0,0,0-.38,4.49q0,5.25,1.68,8.06a5.16,5.16,0,0,0,4.63,2.82,5.56,5.56,0,0,0,2.5-.47,7.29,7.29,0,0,0,1.57-1.06l1.18-1.07a1.93,1.93,0,0,1,1.36-.5,1.8,1.8,0,0,1,1.64.95l2.63,3.91a15.6,15.6,0,0,1-2.95,3.16A14,14,0,0,1,722,497.6a20.65,20.65,0,0,1-3.18.26,11.78,11.78,0,0,1-5.31-1.26,13.28,13.28,0,0,1-4.44-3.69,18.3,18.3,0,0,1-3-5.93,26.4,26.4,0,0,1-1.13-8,26.92,26.92,0,0,1,1-7.38,17.66,17.66,0,0,1,2.9-5.95,13.62,13.62,0,0,1,4.73-4,14.07,14.07,0,0,1,6.54-1.45,13.64,13.64,0,0,1,6.25,1.37,15.35,15.35,0,0,1,4.85,4Z" style="fill:#fff"/><path d="M746,497.86a9.14,9.14,0,0,1-3.82-.75,7.64,7.64,0,0,1-2.78-2.15,9.65,9.65,0,0,1-1.71-3.37,15.42,15.42,0,0,1-.58-4.4V468.31h-2.57a1.57,1.57,0,0,1-1.2-.54,2.33,2.33,0,0,1-.5-1.61V461.9l4.82-1.13,1.79-8.91a1.87,1.87,0,0,1,2-1.69h4.73v10.68h7.37v7.46h-7.37v18.14a3.94,3.94,0,0,0,.51,2.1,1.64,1.64,0,0,0,1.48.82,2.47,2.47,0,0,0,.83-.12,3.25,3.25,0,0,0,.59-.28,4.83,4.83,0,0,1,.47-.28,1,1,0,0,1,.51-.13.92.92,0,0,1,.65.23,3,3,0,0,1,.52.72l2.74,5.18a11.81,11.81,0,0,1-3.94,2.38A13.17,13.17,0,0,1,746,497.86Z" style="fill:#fff"/><path d="M777.27,468.77a2.76,2.76,0,0,1-.75,1,1.68,1.68,0,0,1-1,.28,2.74,2.74,0,0,1-1.28-.33l-1.39-.72a14.84,14.84,0,0,0-1.68-.73,6.45,6.45,0,0,0-2.14-.33,3.91,3.91,0,0,0-2.64.79,2.73,2.73,0,0,0-.92,2.2,2.43,2.43,0,0,0,.6,1.69,5.27,5.27,0,0,0,1.59,1.18,18.51,18.51,0,0,0,2.25,1c.84.31,1.7.65,2.57,1a21.5,21.5,0,0,1,2.57,1.32,10.1,10.1,0,0,1,2.26,1.87,8.53,8.53,0,0,1,1.59,2.7,10.71,10.71,0,0,1,.6,3.8,14.9,14.9,0,0,1-.82,5,10.82,10.82,0,0,1-2.44,3.95,11.12,11.12,0,0,1-4,2.57,15.21,15.21,0,0,1-5.48.91,14.31,14.31,0,0,1-3.1-.35,17.94,17.94,0,0,1-3-.95,15.19,15.19,0,0,1-2.68-1.43,11.31,11.31,0,0,1-2.1-1.78l2.1-4a3.39,3.39,0,0,1,.91-1.11,2.19,2.19,0,0,1,1.37-.41,2.5,2.5,0,0,1,1.42.43l1.36.91a10.49,10.49,0,0,0,1.71.92,6.3,6.3,0,0,0,2.47.42,5.4,5.4,0,0,0,1.78-.26,3,3,0,0,0,1.17-.73,2.91,2.91,0,0,0,.65-1,3.49,3.49,0,0,0,.2-1.16,2.61,2.61,0,0,0-.61-1.79,5.38,5.38,0,0,0-1.61-1.22,16.88,16.88,0,0,0-2.27-.95c-.84-.29-1.71-.63-2.58-1a19.46,19.46,0,0,1-2.59-1.36,9.19,9.19,0,0,1-2.27-2,9.78,9.78,0,0,1-1.61-3,13.34,13.34,0,0,1-.61-4.27,13,13,0,0,1,.75-4.42,10.42,10.42,0,0,1,2.23-3.68,10.91,10.91,0,0,1,3.74-2.52,13.78,13.78,0,0,1,5.27-.93,14.39,14.39,0,0,1,3.17.35,14.81,14.81,0,0,1,2.88,1,12.85,12.85,0,0,1,2.45,1.5,12.09,12.09,0,0,1,2,1.88Z" style="fill:#fff"/><path d="M798.08,491.77a7,7,0,0,1,.39-2.36,6.21,6.21,0,0,1,1.09-1.9,5.08,5.08,0,0,1,1.62-1.29,4.37,4.37,0,0,1,2-.47,4.32,4.32,0,0,1,2,.47,5.39,5.39,0,0,1,1.64,1.29,5.83,5.83,0,0,1,1.09,1.9,6.72,6.72,0,0,1,.4,2.36,6.92,6.92,0,0,1-.4,2.38,5.82,5.82,0,0,1-1.09,1.92,5,5,0,0,1-1.64,1.26,4.44,4.44,0,0,1-2,.46,4.49,4.49,0,0,1-2-.46,4.74,4.74,0,0,1-1.62-1.26,6.2,6.2,0,0,1-1.09-1.92A7.16,7.16,0,0,1,798.08,491.77ZM807.55,446v20.15q0,3.24-.32,6.43c-.21,2.12-.5,4.29-.85,6.49h-6.14c-.35-2.2-.63-4.37-.85-6.49s-.32-4.27-.32-6.43V446Z" style="fill:#fff"/><path d="M384.58,558.81c42.86,22.64,75.63,1,104.28,34.08-12.81-14.77-36.81,17.48-56,4.87-18.87,2.55-38.11,3-56.81-.65s-45.78-37.43-60.21-51c13.56-15.76,43-24.15,45.12-21Z" style="fill:#fff;stroke:#231f20;stroke-miterlimit:10;stroke-width:3px"/><path d="M317.27,606.19h65.22c-.45-.93-.91-1.87-1.34-2.79-32.68-69.2-25.63-73.76-33.34-88-12.86-23.77-45.43,2.89-48,9.22-13.1,31.79-22.26,50.9-35.61,81.57C281.86,606.14,299.56,606.2,317.27,606.19Z"/><path d="M284.17,561c50.21,24.2,133.81-5,147.5,34.18-6.95-19.9-43.11,18.68-65.59,5.2-22.1,2.73-44.63,3.27-66.54-.69s-57.27-17.18-60.17-27.16,31.78-33.68,47.66-50.52l11.31,5.89Z" style="fill:#fff;stroke:#231f20;stroke-miterlimit:10;stroke-width:3px"/><ellipse cx="318.69" cy="390.83" rx="106.68" ry="145.94" style="fill:#fff;stroke:#231f20;stroke-miterlimit:10;stroke-width:2px"/><path d="M263.83,375.49C300,406.77,339.31,426,397.44,441.81c20.75,5.64,22.86,4.76,33.94-7.62a117.62,117.62,0,0,0,18.1-26.75,104,104,0,0,0,10.34-55.05c-3.18-37-24.45-72.61-52.54-105.49l-1,20c-20-28-40.52-58-32.11-88a75.29,75.29,0,0,0-14.91,24.41c-4.23-19-1.06-38.66,9.17-56.85a336.1,336.1,0,0,1-52.64,40.33L307.7,165.4c-21,35.87-76.54,60.12-107.31,93.32-25.82,27.86-32.95,61.09-26.91,92.81s23,74.38,45.84,103.18C243.47,429.81,266.52,404.3,263.83,375.49Z" style="fill:#231f20"/><path id="bezier52" d="M362.29,473.06c0,10.08-19.15,18.28-42.84,18.28s-42.83-8.21-42.83-18.28,19.15-18.35,42.83-18.35,42.84,8.2,42.84,18.35Z" style="fill:none;stroke:#000"/><path id="bezier53" d="M274.7,427.11l-5.48,31.52,114.41,21.86L389.1,449Z" style="fill:#fff"/><ellipse cx="308.25" cy="434.25" rx="4.08" ry="9.79" style="fill:#231f20"/><ellipse cx="328.77" cy="434.25" rx="4.08" ry="9.79" style="fill:#231f20"/></g></svg>