<svg id="Camada_1" data-name="Camada 1" xmlns="http://www.w3.org/2000/svg" viewBox="0 0 110 110"><defs><style>.cls-1{fill:#506467;}</style></defs><title>ICONS-VERDE-R01</title><path class="cls-1" d="M81.28,99.56a1.92,1.92,0,0,0-2.49.61,3.8,3.8,0,0,0-.43,4.15c.63,1.63,2.13,1.33,3.49,1.05l0,0,0,0,0,0,0,0v.06h0l.06,0-.06,0s0,0,0-.06a4,4,0,0,0,.72-2.26C82.53,101.76,82.92,100.35,81.28,99.56Z"/><path class="cls-1" d="M36.78,102.39c-1.07.21-2.14.58-2.3,1.8-.13,1,.65,1.53,1.59,1.49a1.92,1.92,0,0,0,2-2C38.08,102.76,37.8,102.2,36.78,102.39Z"/><path class="cls-1" d="M54.07,102.38c-.92.68-2.18,1.44-1.27,2.7s2.05.35,3-.3C55.87,103.52,56.36,102,54.07,102.38Z"/><path class="cls-1" d="M26.5,99.74a4.82,4.82,0,0,0-.55,5c1.31.91,2.66,1.41,3.84-.09a3.65,3.65,0,0,0,.2-4.13C29.21,99.09,27.88,99.1,26.5,99.74Z"/><path class="cls-1" d="M59.52.19a4.32,4.32,0,0,1,1.41.38C69.75,4.84,78.64,8.88,85.48,16.4c16.08,17.69,14.38,52-12.67,64.84-11.54,5.5-23.53,7.33-36,3.9-12.92-3.54-21-13-22.69-26.31a52.79,52.79,0,0,1-.64-9A68.23,68.23,0,0,1,19.23,21C23.9,10.23,31.91,4.5,43.76,4.23c2.75-.06,5.5-.37,8.24-.64,1.52-.15,3.18.61,4.06-1.93A2.83,2.83,0,0,1,58.63.19H.2V110H110V.19ZM30.77,105.73c-1.45,1.56-3.3,1.79-4.92,0-.62.13-.49,1.3-1.36,1-.66-.21-.46-.84-.46-1.34q0-4.75,0-9.53c0-.47-.17-1.16.58-1.23,1-.11.78.71.88,1.29.19,1.11-.47,2.32.43,3.33h0c1.86-1.4,3.79-1.66,5.22.39A4.64,4.64,0,0,1,30.77,105.73Zm6.49.81c-1.93,0-3.76.58-4.24-1.68s1.27-3,3.26-3.32c.62-.08,1.73.27,1.6-.92-.11-.93-.94-1.27-1.84-1.44s-1.46.92-2.51.1a3.84,3.84,0,0,1,4.21-.81c1.33.41,1.63,1.51,1.66,2.74,0,1,0,1.9,0,2.85C39.55,105.66,39.52,106.49,37.26,106.54Zm5,.17c-.67,0-.77-.6-.77-1.14q0-4.89,0-9.79c0-.55.1-1.12.74-1.19,1-.1.84.69.84,1.29,0,1.58,0,3.16,0,4.74s0,3.16,0,4.73C43.08,105.93,43.27,106.74,42.29,106.71Zm7.05-.89c-1.27,1.67-3.19,1.24-5.28.24a6.24,6.24,0,0,1,1-.54c1-.18,2.54.8,3.07-.65s-1.12-1.69-2-2.23c-1.27-.74-1.92-1.83-1.1-3.11,1.18-1.84,2.82-1.61,4.71-.65-.61.94-1,.66-1.35.52-.92-.34-1.77-.19-2,.8s.49,1.23,1.22,1.54C49.42,102.52,50.82,103.89,49.34,105.82Zm8.13.4c0,.75-.64.55-1.08.16a2,2,0,0,0-1.46.2c-1.64.56-3.32.52-3.92-1.42s.52-3,2.31-3.4c.74-.57,2.67.38,2.37-1.21-.41-2.2-2.39-1.1-3.88-1.25,1-1.19,2.24-1.18,3.6-.93s1.82,1.28,1.89,2.51C57.4,102.66,57.53,104.44,57.47,106.22Zm13.32.48c-2-1.35-.66-3.33-.89-5a2.51,2.51,0,0,0-2.34-2.46c-2.67,2-.84,5.09-1.87,7.85-1.63-1.67-.81-3.47-1-5-.2-2.07-.82-3.28-3.14-2.22-1.2,1.83-.46,3.88-.66,5.82,0,.54-.06,1.11-.81,1-.53-.05-.57-.52-.57-.93,0-2.11-.15-4.22,0-6.31s1.35-.13,2-.42c1.71-2.19,3.35.56,5,.07a.79.79,0,0,1,.37-.16c2.62-1.2,4-.61,4.23,2C71.32,102.85,71.92,104.86,70.79,106.7Zm3.3-11.56a.74.74,0,0,1,.89.66c.08.68-.33.92-1.38,1.17a3.33,3.33,0,0,1-.41-.85C73,95.41,73.59,95.2,74.09,95.14Zm.18,11.29c-1.69,0-.75-2.57-.75-4s-.92-3.77.62-3.77c1.8,0,.22,2.42.92,3.59C74.54,103.77,75.73,106.44,74.27,106.43Zm9.57,3.39h0c-.55.22-1.1.41-1.14-.51-.49-1,.56-2.43-.78-3.26a2.9,2.9,0,0,1-4.44-.33,4.75,4.75,0,0,1-.48-5.63,3.1,3.1,0,0,1,4-1.69c1,.37,1.92,0,2.85.18h0A27.63,27.63,0,0,1,83.84,109.82Z"/><path class="cls-1" d="M83.85,98.58h0q0,5.63,0,11.24A39.2,39.2,0,0,0,83.85,98.58Z"/><path class="cls-1" d="M46.44,8.64c-10.95,2-19.8,6.3-23.85,17.56a60.59,60.59,0,0,0-3.18,30.27C20.57,63.93,23.05,70.83,30,75.11s14.44,5.73,22.38,5.78c9.34,0,16.11-1.82,21.71-6.45,12.34-10.2,17.38-23.49,15-39.19C87.48,25,81.5,17.55,71.93,13.18A2.22,2.22,0,0,0,69.61,13c-1.87,1-3.64.34-5.35-.69C58.77,9,53,7.47,46.44,8.64Zm-6.88,23c2.27-.12,3.88,1.75,3.89,4.34,0,2.1-.84,3.4-2.83,3.47-2.73,0-4.23-1.1-4.3-3.74C36.25,33.44,37,31.78,39.56,31.65Zm27.81.54c2.15.22,3.51,1.23,3.58,3.53A4.08,4.08,0,0,1,67,40.08C64.4,40,63.86,38.14,63.74,36,63.59,33.38,65.13,32.5,67.37,32.19Zm6.54,17.6c.39-.53.74-1.16,1.47-.82s.41,1.08.33,1.68c-.88,6.24-6.34,11.62-13.59,13.44a33.6,33.6,0,0,1-7.86.83c-7.52-.12-14.36-2-19.86-7.51a15.37,15.37,0,0,1-4.22-9.32c-.09-.77-.13-1.57.74-1.87s1.12.42,1.35,1c3,7.83,9.91,10.41,17.18,11.63C59.12,60.47,67.71,58.07,73.91,49.79Z"/></svg>