<svg id="Camada_1" data-name="Camada 1" xmlns="http://www.w3.org/2000/svg" viewBox="0 0 110 110"><defs><style>.cls-1{fill:#506467;}.cls-2{fill:none;}</style></defs><title>ICONS-VERDE-R01</title><path class="cls-1" d="M12.34,14.73A4.69,4.69,0,1,0,17,19.42,4.69,4.69,0,0,0,12.34,14.73Zm0,6.18a1.49,1.49,0,1,1,1.49-1.49A1.5,1.5,0,0,1,12.34,20.91Z"/><path class="cls-1" d="M24.29,14.73A4.69,4.69,0,1,0,29,19.42,4.7,4.7,0,0,0,24.29,14.73Zm0,6.18a1.49,1.49,0,1,1,1.49-1.49A1.5,1.5,0,0,1,24.29,20.91Z"/><path class="cls-1" d="M36.23,14.73a4.69,4.69,0,1,0,4.7,4.69A4.7,4.7,0,0,0,36.23,14.73Zm0,6.18a1.49,1.49,0,1,1,1.5-1.49A1.49,1.49,0,0,1,36.23,20.91Z"/><path class="cls-1" d="M10.56,36.72h8.1a1.6,1.6,0,0,0,0-3.2h-8.1a1.6,1.6,0,1,0,0,3.2Z"/><path class="cls-1" d="M24.2,36.72H28a1.6,1.6,0,0,0,0-3.2H24.2a1.6,1.6,0,1,0,0,3.2Z"/><path class="cls-1" d="M22.71,39.16H17.38a1.6,1.6,0,1,0,0,3.2h5.33a1.6,1.6,0,0,0,0-3.2Z"/><path class="cls-1" d="M47.87,45H42.54a1.6,1.6,0,1,0,0,3.2h5.33a1.6,1.6,0,1,0,0-3.2Z"/><path class="cls-1" d="M26,40.76a1.6,1.6,0,0,0,1.6,1.6H40.4a1.6,1.6,0,0,0,0-3.2H27.61A1.6,1.6,0,0,0,26,40.76Z"/><path class="cls-1" d="M20.9,46.61a1.6,1.6,0,0,0,1.6,1.6h2.77a1.6,1.6,0,0,0,0-3.2H22.5A1.59,1.59,0,0,0,20.9,46.61Z"/><path class="cls-1" d="M37.63,48.21a1.6,1.6,0,0,0,0-3.2H30a1.6,1.6,0,1,0,0,3.2Z"/><path class="cls-1" d="M20.26,67.33a1.6,1.6,0,0,0-1.6-1.6h-8.1a1.6,1.6,0,1,0,0,3.2h8.1A1.6,1.6,0,0,0,20.26,67.33Z"/><path class="cls-1" d="M24.2,65.73a1.6,1.6,0,1,0,0,3.2H28a1.6,1.6,0,1,0,0-3.2Z"/><path class="cls-1" d="M24.31,73a1.6,1.6,0,0,0-1.6-1.6H17.38a1.6,1.6,0,0,0,0,3.2h5.33A1.6,1.6,0,0,0,24.31,73Z"/><path class="cls-1" d="M25.27,77.23H22.5a1.6,1.6,0,1,0,0,3.19h2.77a1.6,1.6,0,1,0,0-3.19Z"/><path class="cls-1" d="M47.87,77.23H42.54a1.6,1.6,0,1,0,0,3.19h5.33a1.6,1.6,0,1,0,0-3.19Z"/><path class="cls-1" d="M42,73a1.6,1.6,0,0,0-1.6-1.6H27.61a1.6,1.6,0,0,0,0,3.2H40.4A1.6,1.6,0,0,0,42,73Z"/><path class="cls-1" d="M37.63,77.23H30a1.6,1.6,0,1,0,0,3.19h7.67a1.6,1.6,0,1,0,0-3.19Z"/><path class="cls-1" d="M10.56,55.53H15a1.6,1.6,0,1,0,0-3.19H10.56a1.6,1.6,0,1,0,0,3.19Z"/><path class="cls-1" d="M37.53,53.94a1.6,1.6,0,0,0-1.6-1.6H19.51a1.6,1.6,0,1,0,0,3.19H35.93A1.6,1.6,0,0,0,37.53,53.94Z"/><path class="cls-1" d="M34.54,59.58a1.6,1.6,0,0,0-1.6-1.6H17.38a1.6,1.6,0,1,0,0,3.2H32.94A1.6,1.6,0,0,0,34.54,59.58Z"/><path class="cls-1" d="M37.42,61.18h3a1.6,1.6,0,1,0,0-3.2h-3a1.6,1.6,0,0,0,0,3.2Z"/><path class="cls-1" d="M73.75,70.4H63.51a1.6,1.6,0,0,0,0,3.2H73.75a1.6,1.6,0,0,0,0-3.2Z"/><path class="cls-1" d="M99.76,70.4H79.5a1.6,1.6,0,0,0,0,3.2H99.76a1.6,1.6,0,0,0,0-3.2Z"/><path class="cls-1" d="M73.75,76.59H63.51a1.6,1.6,0,1,0,0,3.19H73.75a1.6,1.6,0,1,0,0-3.19Z"/><path class="cls-1" d="M99.76,76.59H79.5a1.6,1.6,0,0,0,0,3.19H99.76a1.6,1.6,0,1,0,0-3.19Z"/><path class="cls-1" d="M101.41,37.65a4.14,4.14,0,0,0-4.13-4.13H66a4.14,4.14,0,0,0-4.14,4.13V59.31h0V63.1A4.15,4.15,0,0,0,66,67.23H97.28a4.14,4.14,0,0,0,4.13-4.13ZM98.21,63.1a.93.93,0,0,1-.93.93H66a.94.94,0,0,1-.94-.93V60L76.78,48.26l8.08,9.11a1.6,1.6,0,1,0,2.39-2.12l-.73-.82,3.61-3.62,8.08,9.11Zm0-8-6.15-6.94a2.54,2.54,0,0,0-3.69-.11l-4,4L78.7,45.61a2.55,2.55,0,0,0-1.82-.85A2.58,2.58,0,0,0,75,45.5l-10,10V37.65a.93.93,0,0,1,.94-.93H97.28a.93.93,0,0,1,.93.93Z"/><rect class="cls-2" x="3.86" y="30.34" width="49.44" height="53.28"/><path class="cls-2" d="M3.74,93a3.85,3.85,0,0,0,3.45,3.82l.39,0h95.07l.39,0A3.84,3.84,0,0,0,106.49,93V86.94H3.74Z"/><path class="cls-2" d="M106.49,15.63a3.84,3.84,0,0,0-3.84-3.84H7.7a3.84,3.84,0,0,0-3.84,3.84V27.14H106.49Z"/><path class="cls-1" d="M108.09,40.14a1.6,1.6,0,0,0,1.6-1.6l.12-22.91a7.05,7.05,0,0,0-7-7H7.58a7,7,0,0,0-7,7V93a7,7,0,0,0,6,7,7.59,7.59,0,0,0,1.07.08h95.07a7.59,7.59,0,0,0,1.07-.08,7,7,0,0,0,6-7V48.45a1.6,1.6,0,1,0-3.2,0V83.74h-50V30.34h50v8.2A1.6,1.6,0,0,0,108.09,40.14ZM3.86,30.34H53.3V83.62H3.86Zm102.63,56.6V93A3.84,3.84,0,0,1,103,96.82l-.39,0H7.58l-.39,0A3.85,3.85,0,0,1,3.74,93V86.94ZM54.9,27.14h-51V15.63A3.84,3.84,0,0,1,7.7,11.79h95a3.84,3.84,0,0,1,3.84,3.84V27.14Z"/></svg>