<svg id="Camada_1" data-name="Camada 1" xmlns="http://www.w3.org/2000/svg" viewBox="0 0 110 110"><defs><style>.cls-1{fill:#506467;}</style></defs><title>ICONS-VERDE-R01</title><path class="cls-1" d="M40.85,11.19C44.5,7.56,55.58,7.53,59.27,7.53s14.76,0,18.4,3.66C83,3.2,88.31,1,90.8.42H27.74C30.23,1,35.51,3.2,40.85,11.19Z"/><path class="cls-1" d="M44.55,95.56c-20.15,4.32-25.78-11-25.78-11a45.42,45.42,0,0,0-7.36-11c-7.36-4.36,0-3.67,0-3.67,7.36,0,11.05,7.34,11.05,7.34,6.46,10.94,18,9.17,22.09,7.34,0-3.67,1.61-9.22,3.68-11-16.08-1.8-29.47-11-29.47-29.34s3.7-22,7.38-25.68c-.74-1.79-3.77-8.39,0-18.11H0V110H44.55C44.56,108.63,44.59,101,44.55,95.56Z"/><path class="cls-1" d="M92.37.42c3.8,9.72.77,16.32,0,18.11,3.68,3.67,7.37,7.34,7.37,25.68S86.39,71.75,70.31,73.55c2.07,1.79,3.68,8.11,3.68,11V110h36V.42Z"/></svg>