<svg id="Camada_1" data-name="Camada 1" xmlns="http://www.w3.org/2000/svg" viewBox="0 0 110 110"><title>ICONS-VERDE-R01-lab</title><path d="M55.07.6a54.8,54.8,0,0,0,0,109.59A54.8,54.8,0,0,0,55.07.6" style="fill:#506467"/><rect x="0.76" y="0.6" width="108.63" height="109.59" style="fill:none"/><path d="M53.81,66.5v-29c-1.73,0-3.23.07-4.73,0-1.3-.08-1.74.39-1.73,1.72q.06,15.84,0,31.7c0,1.33.45,1.73,1.75,1.71,4.34-.06,8.68,0,13,0s4.27,0,4.27-4.27c0-1.43-.48-1.85-1.85-1.82C61.09,66.55,57.63,66.5,53.81,66.5Z" style="fill:#fff"/><path d="M38,50.31,34.7,47c-4.22,4.43-8.35,8.77-12,12.63l12.06,13L38,68.9l-9.28-9.17Z" style="fill:#fff"/><path d="M82.29,59.88l-9,8.85L76,72.64,88.34,59.82,76.07,47.1,72.6,50.34Z" style="fill:#fff"/><path d="M53.81,66.5c3.82,0,7.28,0,10.73,0,1.37,0,1.85.39,1.85,1.82,0,4.27.06,4.27-4.27,4.27s-8.68,0-13,0c-1.3,0-1.76-.38-1.75-1.71q.06-15.85,0-31.7c0-1.33.43-1.8,1.73-1.72,1.5.09,3,0,4.73,0Z" style="fill:#fff"/><path d="M38,50.31l-9.3,9.42L38,68.9l-3.29,3.79-12.06-13c3.69-3.86,7.82-8.2,12-12.63Z" style="fill:#fff"/><path d="M82.29,59.88,72.6,50.34l3.47-3.24L88.34,59.82,76,72.64l-2.72-3.91Z" style="fill:#fff"/></svg>