<svg id="Camada_1" data-name="Camada 1" xmlns="http://www.w3.org/2000/svg" viewBox="0 0 110 110"><defs><style>.cls-1{fill:#ca4e50;}</style></defs><title>social</title><g id="Grupo_605" data-name="Grupo 605"><g id="Grupo_604" data-name="Grupo 604"><path id="Trazado_5271" data-name="Trazado 5271" class="cls-1" d="M102.13,28.28a55.29,55.29,0,0,0-20-20.36A53,53,0,0,0,54.56.42,53,53,0,0,0,27,7.92,56,56,0,0,0-.38,56.37a55,55,0,0,0,10.47,32.9,53.92,53.92,0,0,0,27.08,20.2A3.15,3.15,0,0,0,40,109a2.85,2.85,0,0,0,.93-2.18l0-3.93q0-3.24,0-6.48l-1.64.29a22,22,0,0,1-4,.25,29.84,29.84,0,0,1-5-.51,11,11,0,0,1-4.79-2.19,9.18,9.18,0,0,1-3.14-4.48l-.72-1.67a18.81,18.81,0,0,0-2.25-3.72,8.81,8.81,0,0,0-3.11-2.77l-.5-.36a4.85,4.85,0,0,1-.93-.88,3.71,3.71,0,0,1-.65-1,.64.64,0,0,1,.36-.85,4.6,4.6,0,0,1,2.07-.32l1.44.22a10.66,10.66,0,0,1,3.54,1.75,11.87,11.87,0,0,1,3.48,3.78,12.43,12.43,0,0,0,4,4.55A8.22,8.22,0,0,0,33.74,90a20,20,0,0,0,4.08-.36A13.77,13.77,0,0,0,41,88.56a11.87,11.87,0,0,1,3.5-7.5,49.28,49.28,0,0,1-7.34-1.31,29.23,29.23,0,0,1-6.72-2.84A19.27,19.27,0,0,1,24.73,72,23.54,23.54,0,0,1,21,64.38a37,37,0,0,1-1.46-10.92,21.48,21.48,0,0,1,5.65-15,19.9,19.9,0,0,1,.5-14.86,9.92,9.92,0,0,1,6.15,1,42.85,42.85,0,0,1,6,2.81c1.26.78,2.28,1.43,3,2a50.66,50.66,0,0,1,27.47,0L71,27.59a38.31,38.31,0,0,1,6.56-3.21,9.23,9.23,0,0,1,5.8-.8A19.67,19.67,0,0,1,84,38.44a21.52,21.52,0,0,1,5.65,15,37.25,37.25,0,0,1-1.47,11,22.38,22.38,0,0,1-3.79,7.65,19.84,19.84,0,0,1-5.79,4.84,28.73,28.73,0,0,1-6.73,2.85,48.92,48.92,0,0,1-7.33,1.31A13.08,13.08,0,0,1,68.21,91.4v15.37A3,3,0,0,0,69.1,109a3.06,3.06,0,0,0,2.83.51A53.83,53.83,0,0,0,99,89.25a55,55,0,0,0,10.48-32.89,55.66,55.66,0,0,0-7.35-28.08"/></g></g></svg>