<svg xmlns="http://www.w3.org/2000/svg" viewBox="0 0 272.78 272.78"><defs><style>.cls-1{isolation:isolate;}.cls-2{fill:#e6e7e8;}.cls-3{fill:#72999b;}.cls-4{fill:#f2665f;mix-blend-mode:multiply;}.cls-5{fill:#231f20;}.cls-6,.cls-8{fill:#fff;}.cls-6{stroke:#231f20;stroke-miterlimit:10;stroke-width:2px;}.cls-7{fill:none;stroke:#000;}</style></defs><title>logo</title><g class="cls-1"><g id="Camada_1" data-name="Camada 1"><path class="cls-2" d="M22.88,220.35a1,1,0,0,1,.77.43l2.15,2.91a12.58,12.58,0,0,1-4.39,4.24,12.59,12.59,0,0,1-6.27,1.47A12.26,12.26,0,0,1,9.27,228a13.4,13.4,0,0,1-4.45-3.88A18.2,18.2,0,0,1,2,218.19a27.61,27.61,0,0,1-1-7.53,24.87,24.87,0,0,1,1.1-7.58,18.17,18.17,0,0,1,3.08-5.92,14.07,14.07,0,0,1,4.76-3.87,13.55,13.55,0,0,1,6.12-1.38,11.83,11.83,0,0,1,5.71,1.31A13.46,13.46,0,0,1,26,196.68l-1.83,3.17a1.76,1.76,0,0,1-.41.53,1,1,0,0,1-.7.23,1.43,1.43,0,0,1-1-.46,12.49,12.49,0,0,0-1.23-1,9.81,9.81,0,0,0-1.9-1,8,8,0,0,0-2.91-.45,8.17,8.17,0,0,0-3.81.9,8.78,8.78,0,0,0-3,2.57,12.89,12.89,0,0,0-1.95,4.08,19,19,0,0,0-.7,5.39,19.63,19.63,0,0,0,.7,5.5,13.06,13.06,0,0,0,1.9,4.06A8.4,8.4,0,0,0,12,222.74a7.15,7.15,0,0,0,3.49.88,12.41,12.41,0,0,0,2-.15,7.48,7.48,0,0,0,1.66-.49,6.57,6.57,0,0,0,1.44-.85A8.42,8.42,0,0,0,22,220.85a2.42,2.42,0,0,1,.43-.37A.92.92,0,0,1,22.88,220.35Z"/><path class="cls-2" d="M46,229H43.7a2,2,0,0,1-1.12-.27,1.78,1.78,0,0,1-.61-1.08l-.44-1.85A19.11,19.11,0,0,1,40,227.36a9.13,9.13,0,0,1-1.57,1.13,6.93,6.93,0,0,1-1.72.68,8,8,0,0,1-2,.23,6.7,6.7,0,0,1-2.44-.44,5.25,5.25,0,0,1-1.92-1.34,6.15,6.15,0,0,1-1.24-2.21,9.61,9.61,0,0,1-.45-3.08,7.37,7.37,0,0,1,.62-2.92,6.74,6.74,0,0,1,2.06-2.59,11.72,11.72,0,0,1,3.83-1.93,20.16,20.16,0,0,1,6-.76V212.6a6.86,6.86,0,0,0-.88-3.9,3,3,0,0,0-2.57-1.27,5,5,0,0,0-2,.36,7.23,7.23,0,0,0-1.41.8l-1.11.8a1.92,1.92,0,0,1-1.11.35,1.24,1.24,0,0,1-.87-.33,2.42,2.42,0,0,1-.59-.81l-.92-2a11.14,11.14,0,0,1,8.67-4.11,6.82,6.82,0,0,1,5.68,2.83,9.47,9.47,0,0,1,1.51,3.18,14.84,14.84,0,0,1,.52,4.06Zm-9.74-3.91a5.76,5.76,0,0,0,1.42-.17,5.14,5.14,0,0,0,1.23-.53,6.26,6.26,0,0,0,1.11-.86,12.12,12.12,0,0,0,1.09-1.21V218a16.32,16.32,0,0,0-3.66.35,8.36,8.36,0,0,0-2.37.88A3.06,3.06,0,0,0,33.39,222a3.07,3.07,0,0,0,.78,2.37A2.89,2.89,0,0,0,36.21,225.09Z"/><path class="cls-2" d="M50.88,229V203h2.94a1.38,1.38,0,0,1,1.08.35,2.4,2.4,0,0,1,.41,1.22l.3,3.15a12,12,0,0,1,2.62-3.81,4.81,4.81,0,0,1,3.37-1.39,3.67,3.67,0,0,1,2.55.89l-.65,4.69a1,1,0,0,1-.26.64.75.75,0,0,1-.55.19,2.69,2.69,0,0,1-.83-.17,4.45,4.45,0,0,0-1.4-.18,3.73,3.73,0,0,0-2.68,1.08,8.51,8.51,0,0,0-1.89,3.16V229Z"/><path class="cls-2" d="M76.35,202.56a9.46,9.46,0,0,1,4.23.94,9.34,9.34,0,0,1,3.24,2.66,12.8,12.8,0,0,1,2.07,4.22,21.58,21.58,0,0,1,0,11.13,13,13,0,0,1-2.07,4.24,9.1,9.1,0,0,1-3.24,2.69,10,10,0,0,1-8.47,0,9.25,9.25,0,0,1-3.26-2.69,13,13,0,0,1-2.09-4.24,21.3,21.3,0,0,1,0-11.13,12.82,12.82,0,0,1,2.09-4.22,9.25,9.25,0,0,1,7.5-3.6Zm0,22a4.16,4.16,0,0,0,3.85-2.18,13.19,13.19,0,0,0,1.24-6.4,13.36,13.36,0,0,0-1.24-6.42,4.14,4.14,0,0,0-3.85-2.2,4.18,4.18,0,0,0-3.9,2.22A13.28,13.28,0,0,0,71.2,216a13.14,13.14,0,0,0,1.25,6.38A4.18,4.18,0,0,0,76.35,224.56Z"/><path class="cls-2" d="M95.87,191.3V229h-5V191.3Z"/><path class="cls-2" d="M107.62,195.38a4.33,4.33,0,0,1-1,2.77,3.24,3.24,0,0,1-1,.85,2.61,2.61,0,0,1-1.25.32,2.51,2.51,0,0,1-1.23-.32,3.28,3.28,0,0,1-1-.85,4.39,4.39,0,0,1-.93-2.77,4.78,4.78,0,0,1,.25-1.57,4.39,4.39,0,0,1,.68-1.27,3.58,3.58,0,0,1,1-.85,2.5,2.5,0,0,1,1.23-.31,2.6,2.6,0,0,1,1.25.31,3.52,3.52,0,0,1,1,.85,4.43,4.43,0,0,1,.7,1.27A4.79,4.79,0,0,1,107.62,195.38Zm-.75,7.59v26h-5V203Z"/><path class="cls-2" d="M112.53,229V203h3.07c.65,0,1.07.38,1.28,1.14l.34,2a12.59,12.59,0,0,1,1.33-1.47,9.29,9.29,0,0,1,1.48-1.14,6.63,6.63,0,0,1,1.68-.73,7,7,0,0,1,1.94-.26,6.07,6.07,0,0,1,5.23,2.76,9.65,9.65,0,0,1,1.34,3.12,16.5,16.5,0,0,1,.46,4V229h-5V212.43a6.54,6.54,0,0,0-.88-3.69,3,3,0,0,0-2.65-1.31,4.41,4.41,0,0,0-2.43.74,9.09,9.09,0,0,0-2.15,2V229Z"/><path class="cls-2" d="M151.92,229h-2.25a2,2,0,0,1-1.11-.27,1.69,1.69,0,0,1-.61-1.08l-.45-1.85a19.07,19.07,0,0,1-1.55,1.56,9.19,9.19,0,0,1-1.58,1.13,6.93,6.93,0,0,1-1.72.68,8,8,0,0,1-2,.23,6.6,6.6,0,0,1-2.43-.44,5.09,5.09,0,0,1-1.92-1.34,6.17,6.17,0,0,1-1.25-2.21,9.61,9.61,0,0,1-.45-3.08,7.37,7.37,0,0,1,.62-2.92,6.74,6.74,0,0,1,2.06-2.59,11.67,11.67,0,0,1,3.84-1.93,20.09,20.09,0,0,1,5.94-.76V212.6a6.86,6.86,0,0,0-.88-3.9,2.94,2.94,0,0,0-2.57-1.27,5.05,5.05,0,0,0-2,.36,7.23,7.23,0,0,0-1.41.8l-1.1.8a2,2,0,0,1-1.12.35,1.24,1.24,0,0,1-.87-.33,2.57,2.57,0,0,1-.59-.81l-.91-2a11.1,11.1,0,0,1,8.66-4.11,6.9,6.9,0,0,1,3.26.75,7.11,7.11,0,0,1,2.43,2.08,9.67,9.67,0,0,1,1.51,3.18,15.25,15.25,0,0,1,.51,4.06Zm-9.74-3.91a5.7,5.7,0,0,0,1.42-.17,4.82,4.82,0,0,0,1.23-.53,6.32,6.32,0,0,0,1.12-.86,11,11,0,0,0,1.08-1.21V218a16.32,16.32,0,0,0-3.66.35,8.17,8.17,0,0,0-2.36.88,3.24,3.24,0,0,0-1.27,1.25,3.33,3.33,0,0,0-.38,1.56,3.07,3.07,0,0,0,.78,2.37A2.89,2.89,0,0,0,142.18,225.09Z"/><path class="cls-2" d="M178.45,224a11,11,0,0,0,3.21-.42,11.27,11.27,0,0,0,2.61-1.15v-6.67H180.6a1,1,0,0,1-.83-.37,1.31,1.31,0,0,1-.31-.9V210.6h9.76v14.85a15.93,15.93,0,0,1-2.32,1.76,12.76,12.76,0,0,1-2.58,1.23,16.31,16.31,0,0,1-2.93.72,22.17,22.17,0,0,1-3.37.24,12.64,12.64,0,0,1-5.9-1.39,14.33,14.33,0,0,1-4.67-3.88,18.77,18.77,0,0,1-3.08-5.94,24.78,24.78,0,0,1-1.1-7.53,25.64,25.64,0,0,1,1.07-7.59,18,18,0,0,1,3.06-5.93,13.7,13.7,0,0,1,4.8-3.86,14.34,14.34,0,0,1,6.33-1.37,13.58,13.58,0,0,1,6.22,1.33,14.26,14.26,0,0,1,4.45,3.46l-1.58,3.1a1.41,1.41,0,0,1-1.24.94,1.62,1.62,0,0,1-1-.41l-1.33-1a8.32,8.32,0,0,0-1.5-.84,10.05,10.05,0,0,0-1.85-.58,10.43,10.43,0,0,0-2.36-.23,8.37,8.37,0,0,0-3.93.91,8.56,8.56,0,0,0-3,2.61,12.78,12.78,0,0,0-1.91,4.09,19.53,19.53,0,0,0-.67,5.33,20.61,20.61,0,0,0,.71,5.64,12.63,12.63,0,0,0,2,4.17,8.74,8.74,0,0,0,3,2.6A8.37,8.37,0,0,0,178.45,224Z"/><path class="cls-2" d="M198.62,203v16.54a6.54,6.54,0,0,0,.88,3.69,3,3,0,0,0,2.65,1.31,4.41,4.41,0,0,0,2.44-.73,9,9,0,0,0,2.15-2V203h5v26h-3.06c-.65,0-1.08-.38-1.28-1.15l-.35-2.08a15,15,0,0,1-1.34,1.49,7.85,7.85,0,0,1-1.47,1.14,7.46,7.46,0,0,1-1.68.74,7.11,7.11,0,0,1-1.94.26,6.12,6.12,0,0,1-3-.72,6.32,6.32,0,0,1-2.21-2,10.1,10.1,0,0,1-1.35-3.14,16.57,16.57,0,0,1-.45-4V203Z"/><path class="cls-2" d="M223.2,195.38a4.41,4.41,0,0,1-1,2.77,3.31,3.31,0,0,1-1,.85,2.65,2.65,0,0,1-1.26.32,2.56,2.56,0,0,1-1.23-.32,3.24,3.24,0,0,1-1-.85,4.24,4.24,0,0,1-.68-1.24,4.51,4.51,0,0,1-.26-1.53,4.79,4.79,0,0,1,.26-1.57,4.17,4.17,0,0,1,.68-1.27,3.54,3.54,0,0,1,1-.85,2.55,2.55,0,0,1,1.23-.31,2.64,2.64,0,0,1,1.26.31,3.62,3.62,0,0,1,1,.85,4.2,4.2,0,0,1,.7,1.27A4.54,4.54,0,0,1,223.2,195.38Zm-.76,7.59v26h-5V203Z"/><path class="cls-2" d="M242.76,229c-.65,0-1.08-.38-1.28-1.15l-.41-2.51a14.18,14.18,0,0,1-1.35,1.65,8.73,8.73,0,0,1-1.54,1.27,6.71,6.71,0,0,1-3.8,1.12,5.81,5.81,0,0,1-3.13-.89,7.6,7.6,0,0,1-2.44-2.58,13.8,13.8,0,0,1-1.59-4.17,26.24,26.24,0,0,1-.55-5.68,21.87,21.87,0,0,1,.63-5.38,14.3,14.3,0,0,1,1.8-4.31,9.28,9.28,0,0,1,2.82-2.86,6.89,6.89,0,0,1,3.7-1,6,6,0,0,1,3,.69,8.13,8.13,0,0,1,2.21,1.87V191.3h5V229Zm-6.68-4.6a4.35,4.35,0,0,0,2.66-.81,8.78,8.78,0,0,0,2.07-2.31V209.62a5.2,5.2,0,0,0-1.86-1.83,4.48,4.48,0,0,0-2.16-.53,4,4,0,0,0-2.06.53,4.39,4.39,0,0,0-1.56,1.61,8.84,8.84,0,0,0-1,2.74,19.46,19.46,0,0,0-.35,3.92,21.26,21.26,0,0,0,.3,3.87,8.56,8.56,0,0,0,.84,2.59,3.55,3.55,0,0,0,1.34,1.44A3.46,3.46,0,0,0,236.08,224.4Z"/><path class="cls-2" d="M260.13,202.56a9.46,9.46,0,0,1,4.23.94,9.34,9.34,0,0,1,3.24,2.66,12.8,12.8,0,0,1,2.07,4.22,21.58,21.58,0,0,1,0,11.13,13,13,0,0,1-2.07,4.24,9.1,9.1,0,0,1-3.24,2.69,10,10,0,0,1-8.47,0,9.25,9.25,0,0,1-3.26-2.69,13,13,0,0,1-2.09-4.24,21.3,21.3,0,0,1,0-11.13,12.82,12.82,0,0,1,2.09-4.22,9.25,9.25,0,0,1,7.5-3.6Zm0,22a4.16,4.16,0,0,0,3.85-2.18,13.19,13.19,0,0,0,1.24-6.4,13.36,13.36,0,0,0-1.24-6.42,4.14,4.14,0,0,0-3.85-2.2,4.18,4.18,0,0,0-3.9,2.22A13.28,13.28,0,0,0,255,216a13.14,13.14,0,0,0,1.25,6.38A4.18,4.18,0,0,0,260.13,224.56Z"/><path class="cls-2" d="M13.4,251v2.23H5.32v7.1h6.91v2.23H5.32v8.73H3V251Z"/><path class="cls-2" d="M18.83,262.77v8.47H16.56V251h4.76a8.66,8.66,0,0,1,2.76.39A4.9,4.9,0,0,1,26,252.46a4.52,4.52,0,0,1,1.13,1.78,7.08,7.08,0,0,1,.36,2.33,6.83,6.83,0,0,1-.28,2,5.71,5.71,0,0,1-.82,1.68,5.37,5.37,0,0,1-1.3,1.26,6,6,0,0,1-1.75.8,2.47,2.47,0,0,1,.75.86L29,271.24H27a1,1,0,0,1-.91-.58l-4.37-7.25a1.43,1.43,0,0,0-.44-.49,1.3,1.3,0,0,0-.7-.15Zm0-2h2.39a4.72,4.72,0,0,0,1.75-.29,3.28,3.28,0,0,0,1.27-.82,3.34,3.34,0,0,0,.77-1.27,4.91,4.91,0,0,0,.26-1.62,3.58,3.58,0,0,0-1-2.74,4.25,4.25,0,0,0-3-.92H18.83Z"/><path class="cls-2" d="M46.56,261.1a13.84,13.84,0,0,1-.6,4.18,10.08,10.08,0,0,1-1.69,3.28,7.48,7.48,0,0,1-6,2.89,7.47,7.47,0,0,1-3.39-.76,7.56,7.56,0,0,1-2.62-2.13,10.08,10.08,0,0,1-1.69-3.28,14.9,14.9,0,0,1,0-8.37,10.08,10.08,0,0,1,1.69-3.28,7.74,7.74,0,0,1,2.62-2.15,7.94,7.94,0,0,1,6.78,0,7.74,7.74,0,0,1,2.62,2.15A10.08,10.08,0,0,1,46,256.91,13.91,13.91,0,0,1,46.56,261.1Zm-2.33,0a12.34,12.34,0,0,0-.43-3.36,7.42,7.42,0,0,0-1.2-2.51,5.29,5.29,0,0,0-1.88-1.58,5.45,5.45,0,0,0-6.81,1.58,7.42,7.42,0,0,0-1.2,2.51,13.61,13.61,0,0,0,0,6.71,7.45,7.45,0,0,0,1.2,2.5,5.18,5.18,0,0,0,1.89,1.57,5.78,5.78,0,0,0,4.92,0A5.07,5.07,0,0,0,42.6,267a7.45,7.45,0,0,0,1.2-2.5A12.31,12.31,0,0,0,44.23,261.1Z"/><path class="cls-2" d="M51.3,251a1.4,1.4,0,0,1,.34.37l9.75,15.3c0-.25,0-.49,0-.72s0-.46,0-.67V251h2v20.29H62.18a.79.79,0,0,1-.45-.12,1.21,1.21,0,0,1-.36-.38l-9.74-15.28c0,.24,0,.47,0,.7s0,.43,0,.62v14.46h-2V251h1.17A.84.84,0,0,1,51.3,251Z"/><path class="cls-2" d="M78.92,251v2.3H73.47v18H71.19v-18H65.73V251Z"/><path class="cls-2" d="M78.33,261.68h5.8v2.14h-5.8Z"/><path class="cls-2" d="M97.73,251v2.23H89.64v6.74h6.55v2.16H89.64V269h8.09v2.24H87.35V251Z"/><path class="cls-2" d="M102.64,251a1.4,1.4,0,0,1,.33.37l9.75,15.3c0-.25,0-.49,0-.72s0-.46,0-.67V251h2v20.29h-1.15a.79.79,0,0,1-.45-.12,1.21,1.21,0,0,1-.36-.38L103,255.46c0,.24,0,.47,0,.7s0,.43,0,.62v14.46h-2V251h1.17A.91.91,0,0,1,102.64,251Z"/><path class="cls-2" d="M133.37,261.1a13.55,13.55,0,0,1-.6,4.15,9.66,9.66,0,0,1-1.69,3.2,7.71,7.71,0,0,1-2.62,2.06,7.85,7.85,0,0,1-3.38.73h-6.3V251h6.3a7.71,7.71,0,0,1,3.38.73,7.48,7.48,0,0,1,2.62,2.06,9.72,9.72,0,0,1,1.69,3.21A13.55,13.55,0,0,1,133.37,261.1Zm-2.34,0a12.15,12.15,0,0,0-.42-3.34,7.45,7.45,0,0,0-1.2-2.5,5.29,5.29,0,0,0-1.88-1.55,5.5,5.5,0,0,0-2.45-.54h-4V269h4a5.64,5.64,0,0,0,2.45-.53,5.29,5.29,0,0,0,1.88-1.55,7.4,7.4,0,0,0,1.2-2.49A12.2,12.2,0,0,0,131,261.1Z"/><path class="cls-2" d="M155.61,261.1a13.55,13.55,0,0,1-.6,4.15,9.68,9.68,0,0,1-1.7,3.2,7.71,7.71,0,0,1-2.62,2.06,7.82,7.82,0,0,1-3.38.73H141V251h6.3a7.68,7.68,0,0,1,3.38.73,7.48,7.48,0,0,1,2.62,2.06A9.73,9.73,0,0,1,155,257,13.55,13.55,0,0,1,155.61,261.1Zm-2.34,0a11.77,11.77,0,0,0-.43-3.34,7.64,7.64,0,0,0-1.19-2.5,5.32,5.32,0,0,0-1.89-1.55,5.47,5.47,0,0,0-2.45-.54h-4V269h4a5.61,5.61,0,0,0,2.45-.53,5.32,5.32,0,0,0,1.89-1.55,7.58,7.58,0,0,0,1.19-2.49A11.81,11.81,0,0,0,153.27,261.1Z"/><path class="cls-2" d="M169.08,251v2.23H161v6.74h6.54v2.16H161V269h8.08v2.24H158.71V251Z"/><path class="cls-2" d="M170.41,251h1.82a.7.7,0,0,1,.5.18,1.16,1.16,0,0,1,.28.47l4.76,14.31q.16.48.3,1c.09.38.18.77.26,1.18.07-.41.15-.8.23-1.18a8.81,8.81,0,0,1,.29-1l4.74-14.31a1.09,1.09,0,0,1,.28-.45.68.68,0,0,1,.49-.2h1.83l-6.86,20.29h-2.06Z"/><path class="cls-2" d="M198.72,251v2.23h-8.08v6.74h6.54v2.16h-6.54V269h8.08v2.24H188.34V251Z"/><path class="cls-2" d="M204.28,268.93h7.29v2.31H202V251h2.28Z"/><path class="cls-2" d="M228.78,261.1a13.84,13.84,0,0,1-.6,4.18,10.08,10.08,0,0,1-1.69,3.28,7.64,7.64,0,0,1-12,0,10.08,10.08,0,0,1-1.69-3.28,14.9,14.9,0,0,1,0-8.37,10.08,10.08,0,0,1,1.69-3.28,7.74,7.74,0,0,1,2.62-2.15,7.92,7.92,0,0,1,6.77,0,7.68,7.68,0,0,1,2.63,2.15,10.08,10.08,0,0,1,1.69,3.28A13.91,13.91,0,0,1,228.78,261.1Zm-2.34,0a12.35,12.35,0,0,0-.42-3.36,7.42,7.42,0,0,0-1.2-2.51,5.38,5.38,0,0,0-1.88-1.58,5.43,5.43,0,0,0-2.47-.55,5.35,5.35,0,0,0-2.45.55,5.41,5.41,0,0,0-1.89,1.58,7.42,7.42,0,0,0-1.2,2.51,13.3,13.3,0,0,0,0,6.71,7.45,7.45,0,0,0,1.2,2.5,5.18,5.18,0,0,0,1.89,1.57,5.35,5.35,0,0,0,2.45.55,5.43,5.43,0,0,0,2.47-.55,5.14,5.14,0,0,0,1.88-1.57,7.45,7.45,0,0,0,1.2-2.5A12.33,12.33,0,0,0,226.44,261.1Z"/><path class="cls-2" d="M234.4,263.65v7.59h-2.27V251h5a8,8,0,0,1,2.78.44,5.16,5.16,0,0,1,2,1.27,5.27,5.27,0,0,1,1.15,2,8.14,8.14,0,0,1,.39,2.59,7.86,7.86,0,0,1-.41,2.59,5.75,5.75,0,0,1-1.21,2,5.26,5.26,0,0,1-2,1.32,7.05,7.05,0,0,1-2.69.48Zm0-2.18h2.7a4.36,4.36,0,0,0,1.72-.32,3.2,3.2,0,0,0,1.25-.87,3.58,3.58,0,0,0,.77-1.33,5.49,5.49,0,0,0,.26-1.72,4.31,4.31,0,0,0-1-3,3.88,3.88,0,0,0-3-1.09h-2.7Z"/><path class="cls-2" d="M256.63,251v2.23h-8.08v6.74h6.54v2.16h-6.54V269h8.08v2.24H246.26V251Z"/><path class="cls-2" d="M262.41,262.77v8.47h-2.26V251h4.76a8.75,8.75,0,0,1,2.76.39,5.05,5.05,0,0,1,1.92,1.12,4.5,4.5,0,0,1,1.12,1.78,7.08,7.08,0,0,1,.36,2.33,6.83,6.83,0,0,1-.28,2,5.69,5.69,0,0,1-.81,1.68,5.41,5.41,0,0,1-1.31,1.26,5.78,5.78,0,0,1-1.74.8,2.57,2.57,0,0,1,.75.86l4.91,8.06h-2a1,1,0,0,1-.92-.58l-4.37-7.25a1.41,1.41,0,0,0-.43-.49,1.36,1.36,0,0,0-.71-.15Zm0-2h2.39a4.78,4.78,0,0,0,1.76-.29,3.34,3.34,0,0,0,2-2.09,4.92,4.92,0,0,0,.25-1.62,3.58,3.58,0,0,0-1-2.74,4.22,4.22,0,0,0-2.95-.92h-2.5Z"/><circle class="cls-3" cx="117.3" cy="106.04" r="77.55"/><circle class="cls-4" cx="135.71" cy="108.1" r="77.55"/><path class="cls-5" d="M114.34,156c-8.35,20.27,1.64-5.23-9.28,21.12-4.43,10.67,53.24,12.07,47.64.23-15.55-32.94-11.82-18.95-15.49-25.74C131.09,140.26,115.59,153,114.34,156Z"/><path class="cls-6" d="M114.46,163.42c23.89,11.52,12.8,14.4,38.63,8.35-9.54,7.78-3.9,10-8.36,10.51-10.52,1.3-12.53,1.44-23-.44s-20.59-6-28.64-12.93l22.69-24,6.06,1.21Z"/><path class="cls-6" d="M144.39,165.7c-21.7,11.51-24.23,12-47.68,6,8.66,7.78,10.93,12.53,15,13.08a71.59,71.59,0,0,0,26.06-.66,52.56,52.56,0,0,0,26-12.92l-20.59-24.05-5.5,1.22Z"/><ellipse class="cls-6" cx="126.19" cy="99.75" rx="45.35" ry="59.56"/><path class="cls-5" d="M102.87,90.25c15.36,12.33,32.09,19.91,56.8,26.13,8.82,2.22,9.72,1.88,14.43-3a46.35,46.35,0,0,0,7.69-10.54,38.35,38.35,0,0,0,4.4-21.69c-1.35-14.56-10.4-28.6-22.34-41.56l-.43,7.87c-8.52-11-17.23-22.84-13.65-34.68a29.4,29.4,0,0,0-6.34,9.62c-1.8-7.5-.45-15.24,3.9-22.4A143,143,0,0,1,125,15.89l-3.43-8.4C112.58,21.62,89,31.17,75.9,44.25c-11,11-14,24.07-11.44,36.57s9.79,29.3,19.49,40.64C94.22,111.65,104,101.6,102.87,90.25Z"/><path id="bezier52" class="cls-7" d="M144.73,133.3c0,4.12-8.14,7.46-18.21,7.46s-18.21-3.35-18.21-7.46,8.14-7.49,18.21-7.49,18.21,3.35,18.21,7.49Z"/><path id="bezier53" class="cls-8" d="M100.26,118.53l0,11.5L149.7,130l0-11.5Z"/><ellipse class="cls-5" cx="121.76" cy="117.47" rx="1.74" ry="4"/><ellipse class="cls-5" cx="130.48" cy="117.47" rx="1.74" ry="4"/></g></g></svg>