<svg xmlns="http://www.w3.org/2000/svg" viewBox="0 0 350 350"><defs><style>.cls-1{fill:#cfebe8;}.cls-2{fill:#fff;}.cls-3{fill:#f2665f;}.cls-4{fill:#4b6064;}.cls-5{fill:#97b9d4;}.cls-6{fill:#82abc9;}.cls-7{fill:#acc8df;}.cls-8{fill:#93b6d1;}.cls-9{fill:#72a0c0;}.cls-10{fill:#72999b;}.cls-11{fill:#333;}.cls-12{fill:#f9b8ab;}.cls-13{fill:#ce705b;}.cls-14{fill:#ce7c60;}.cls-15{fill:#8f2826;}.cls-16{fill:#1e1412;}.cls-17{fill:#c65a42;}.cls-18{fill:#eca247;}.cls-19{fill:#fbe6b6;}.cls-20{fill:#e99d45;}.cls-21{fill:#231815;}.cls-22{fill:#e49b4b;}.cls-23{fill:#9b3a2c;}.cls-24{fill:#c3a386;}.cls-25{fill:#f2b0a4;}.cls-26{fill:#f3c2b1;}.cls-27{fill:#efeae2;}.cls-28{fill:#c4d9ea;}.cls-29{fill:#ee9e83;}.cls-30{fill:#bec0c2;}.cls-31{fill:#baa598;}.cls-32{fill:#c08c71;}.cls-33{fill:#f59797;}.cls-34{fill:#aa6750;}.cls-35{fill:#d49b90;}.cls-36{fill:#eda147;}.cls-37{fill:#942f28;}.cls-38{fill:#ad4a2f;}.cls-39{fill:#eca047;}.cls-40{fill:#a03b34;}.cls-41{fill:#98322e;}.cls-42{fill:#9a3530;}.cls-43{fill:#99332e;}.cls-44{fill:#96302c;}.cls-45{fill:#a7433b;}.cls-46{fill:#b96142;}.cls-47{fill:#241815;}.cls-48{fill:#38221c;}.cls-49{fill:#321f1a;}.cls-50{fill:#2c1c17;}.cls-51{fill:#482c23;}.cls-52{fill:#7b4b3b;}.cls-53{fill:#6f4335;}.cls-54{fill:#724537;}.cls-55{fill:#eba046;}.cls-56{fill:#d8883e;}.cls-57{fill:#993529;}.cls-58{fill:#a4462d;}.cls-59{fill:#9f3f2c;}.cls-60{fill:#ae5941;}.cls-61{fill:#ac4e30;}.cls-62{fill:#ef997c;}.cls-63{fill:#3a2b27;}.cls-64{fill:#40302c;}.cls-65{fill:#4d3c36;}.cls-66{fill:#503d37;}.cls-67{fill:#372823;}.cls-68{fill:#4d3b35;}.cls-69{fill:#513d37;}.cls-70{fill:#53403a;}.cls-71{fill:#bf978a;}.cls-72{fill:#937368;}.cls-73{fill:#8b6d63;}.cls-74{fill:#fffbf9;}.cls-75{fill:#ea7d7c;}.cls-76{fill:#2d1f1d;}.cls-77{fill:#44312d;}.cls-78{fill:#493430;}</style></defs><title>PROJETOS</title><g id="Camada_1" data-name="Camada 1"><rect class="cls-1" x="-0.13" y="18.95" width="343.73" height="330.98"/><rect class="cls-2" x="12.72" y="0.08" width="337.42" height="337.42"/><path class="cls-3" d="M223,73.86c-4,.41-6.84-2-7.25-6.2-.43-4.36,2.26-7.55,6.78-8,4.33-.47,6.71,1.54,7.2,6.06C230.27,70.4,227.83,73.36,223,73.86Z"/><path class="cls-4" d="M105.68,47c.36,3.79-2.41,6.67-6.85,7.11-3.6.35-6-1.51-6.33-4.92-.37-3.67,2.54-6.51,7.06-6.89C103.25,42,105.36,43.62,105.68,47Z"/><path class="cls-5" d="M243.74,49.14l-.3,2.13A7,7,0,0,1,243,46.6C243.36,47.4,242.88,48.48,243.74,49.14Z"/><path class="cls-6" d="M47.86,84.49l-.3,1.62a6.31,6.31,0,0,1-.41-4.53C47.53,82.51,47,83.66,47.86,84.49Z"/><path class="cls-7" d="M262.65,45.12a3.62,3.62,0,0,1-.95,2.37c.19-1.57-.22-2.74.31-3.89C262.2,44.12,262.09,44.75,262.65,45.12Z"/><path class="cls-8" d="M66.8,80c-.12.7-.24,1.4-.35,2.1a3.36,3.36,0,0,1-.3-3.14C66.37,79.31,66.58,79.66,66.8,80Z"/><path class="cls-9" d="M156.91,65.43a1.18,1.18,0,0,1-.66,1.41,4.92,4.92,0,0,1-.08-3.4C156.54,64.05,156.12,65,156.91,65.43Z"/><path class="cls-4" d="M208.63,60q0-6.19-.49-12.37c-.29-4.11-1.63-5-5.59-3.94-1.16.31-2,.41-2.71-.88s-2-1.1-3.17-.82a17.85,17.85,0,0,0-9.56,5.79,24.61,24.61,0,0,0-5.54,10.93,3.39,3.39,0,0,1-3.6,2.91c-1.87-.08-1.79-1.76-1.87-3.06-.15-2.44,0-4.89-.26-7.32-.36-4-3-5.63-6.72-4.27a14.2,14.2,0,0,0-7.07,5.88,37.13,37.13,0,0,0-5.14,12.56c-1.4-.24-.71-1.25-.74-2,.11-3,.24-6.06.35-9.09,0-1.55.73-3.52-.77-4.45-1.69-1-3.58,0-5.25.81-2,1-2.52,2.85-2.73,4.84a63.59,63.59,0,0,0-.09,13.86c.08.8.48,1.68-.23,2.41l-8,8.25c-.13-7.06-.15-13.54-.38-20-.16-4.57-1-5.09-5.47-4-.67.15-1.58.81-2.06-.08-1.47-2.77-3.61-1.83-5.68-1.12-8.43,2.87-14.68,13-13.81,23.07.28,3.29-1.21,5.29-3.17,7.24-1.75,1.74-3.54,1.22-4.51-1.12a18.27,18.27,0,0,1-1-7.22c0-4.55.2-9.09.19-13.64,0-3.56-1.26-4.47-4.77-3.83-2.62.48-3.9,2-4.2,4.62a64.92,64.92,0,0,0-.25,15.63c.54,4.3-1.86,6.81-4.54,9.21-1.78,1.6-3.53.79-4-1.63a31.17,31.17,0,0,1-.36-6.55c.11-4.54.53-9.1-.14-13.63-.5-3.31-2.39-4.64-5.68-4.12a10.79,10.79,0,0,0-6,3.56C70,70.21,68.31,75.07,66.8,80a2.34,2.34,0,0,0-.5,1.18c.25-.67-.49-1.42-.15-2.22-.13-2.86.2-5.72-.25-8.57-.55-3.46-2.11-4.62-5.58-4.09a9.91,9.91,0,0,0-6,3.82c-3.55,4.14-5.28,9.13-6.42,14.36-.27,0-.4.69-.47.42a5.73,5.73,0,0,1-.24-3.33c.14-3.19.34-6.39.42-9.58,0-1.3.26-2.85-1.74-3a6.27,6.27,0,0,0-7.07,5.66,62.47,62.47,0,0,0,.68,19.63,24.94,24.94,0,0,0,2.75,8.61,4.09,4.09,0,0,0,4.39,2.27,4,4,0,0,0,3.8-3.45,33.81,33.81,0,0,0,.52-3.75,65.11,65.11,0,0,1,1.9-12,20.12,20.12,0,0,1,2.28-5.87c.4-.64.89-1.37,1.78-1.12s.79,1,.83,1.69c.17,2.77.27,5.55.48,8.32.29,3.78.41,7.61,2.66,10.92a4.13,4.13,0,0,0,4.33,2c2-.35,3.47-1.34,3.81-3.5.2-1.24.34-2.5.45-3.75.52-5.74,1.52-11.36,4-16.59.48-1,.88-2.6,2.25-2.4,1.56.23.94,1.89,1.1,3a19.67,19.67,0,0,1,0,2.77c0,3.37-.27,6.75.38,10.1,1,5.51,4.71,7.71,10.17,6.42,4.29-1,7.21-3.81,9.85-7.17,1.76,2.22,3.68,3.85,6.59,4,4.27.14,7.4-2,10-5,1.06-1.25,1.72-1.58,3.06-.29a8.45,8.45,0,0,0,6.8,2c3.19-.25,5.33-2.15,7.33-4.41.68,1.35.13,2.19-.67,3.07a104,104,0,0,0-8.29,10.2c-3.07,4.4-5.54,9.06-6.09,14.52-.48,4.81,1.36,8.64,4.9,10.22s8.42.43,11.49-2.92a18.76,18.76,0,0,0,3.89-7.3c2.32-7.47,2.95-15.17,3.16-22.94,0-1.14-.3-2.4.68-3.34,3.07-3,6.15-6,9.29-9,.73,1.55,1.27,2.94,2,4.21a3.93,3.93,0,0,0,4.28,2c1.86-.33,3.35-1.22,3.72-3.27.22-1.24.4-2.49.51-3.74.55-6.07,1.5-12,4.4-17.52.48-.91,1.05-2.27,2.36-1.86,1.11.35.92,1.72.92,2.69-.06,7.44,4.66,10.36,11.66,7.91,2-.71,2.28-.15,2.79,1.5,1.77,5.7,6,8.45,11.16,7.6,3.73-.62,5.44-3.25,6.56-6.74.84,2,1.19,4,3.5,4.56,4.23,1,7.28-1.57,6.69-5.88C209.45,67.38,208.65,63.76,208.63,60Zm-80.52,55.45c-.6,1.27-1.34,2.84-3.06,2.5-2-.4-2.1-2.25-2.08-3.85a16.33,16.33,0,0,1,2.36-7.64,42.84,42.84,0,0,1,5.92-8.25C130.87,104.56,130.6,110.21,128.11,115.47Zm2.16-51.29c-.06,3.52-.06,7.9-.24,12.27a9.05,9.05,0,0,1-2,5.61c-1.84,2.2-4.92,1.87-5.86-.83-1.94-5.58-.87-14,4.21-18.46a7.56,7.56,0,0,1,1.24-.85C129.79,60.7,130.13,60.89,130.27,64.18ZM199.18,53a77.54,77.54,0,0,1-.55,11.8A12.55,12.55,0,0,1,197,69.48a3.31,3.31,0,0,1-3.36,1.75,3.14,3.14,0,0,1-2.6-2.45,24.21,24.21,0,0,1-.68-3.29c-.32-5.27.59-9.77,3.72-13.65a8,8,0,0,1,.67-.75c1.13-1,2.52-2.49,3.83-2S199.2,51.63,199.18,53Z"/><path class="cls-4" d="M319.3,43.94c-1-2.2-2.58-2.41-3.94-.44-1.06,1.52-1.87,3.21-3,4.69-2.41,3.22-6.94,4.45-10.14,2.87-.76-.37-1.74-.78-1.82-1.61-.09-1,1.15-1,1.82-1.36,4.11-2.21,8.14-4.5,10.32-8.94s1.56-9.91-1.37-13.06-7.07-3.62-12-1.71c-7.82,3.06-12.42,12.74-10.14,21.94a5.72,5.72,0,0,1-1.34,5.74c-1.21,1.37-2.29,3.37-4.43,2.7-2.31-.73-2-3.1-2-5,0-4.89.14-9.77.12-14.66,0-2.54-.05-5.34-2.76-6.6-2.87-1.34-5.39.13-7.66,1.89a16,16,0,0,0-1.48,1.38c-3.69,3.71-5.37,8.48-6.88,13.32-.13.11-.22.3-.35.35-.52.21-.23-.3-.28-.42a1.92,1.92,0,0,1,0-1.45c-.08-2.51,0-5-.27-7.53-.47-4.11-3.12-5.6-7-4.07-3,1.2-5,3.54-6.7,6.21a38.31,38.31,0,0,0-4.32,10.93,2.41,2.41,0,0,0-.42,1c-.13-1.16-.7-2.28-.36-3.5.14-3.19.3-6.39.39-9.58,0-1.29,0-2.59-1.85-2.73a6.4,6.4,0,0,0-6.88,5.32A60.16,60.16,0,0,0,235,57.73a32.33,32.33,0,0,0,2.81,10.18c.9,1.78,2.33,3,4.46,2.66s3.75-1.45,4-3.84c.18-1.5.33-3,.5-4.51.61-5.53,1.31-11,3.78-16.13.4-.82.85-1.9,1.91-1.76s1,1.39,1.1,2.25c.35,4.28.63,8.57,1,12.85a11.59,11.59,0,0,0,2.41,6.28,4.51,4.51,0,0,0,7.7-1.43,15.9,15.9,0,0,0,.46-3c.46-5.82,1.34-11.55,3.73-16.93.6-1.37,1.05-3.7,2.87-3.26,1.62.4.93,2.64.95,4.09.06,4-.32,8.09.49,12.09,1,4.72,4,6.88,8.72,6.27,4.37-.57,7.64-3,10.26-6.34.89-1.15,1.41-1.56,2.87-.44,7.47,5.73,20.4,2.21,24.09-6.46A7.7,7.7,0,0,0,319.3,43.94Zm-76,7.07v0a.13.13,0,0,0,.11,0C243.74,50.86,243.44,51.33,243.32,51ZM299,33.77c1.15-2.16,3.53-3.2,5.24-2.45s2.35,3.34,1.38,5.59c-1.47,3.39-4.4,5.1-7.71,6.59A13.36,13.36,0,0,1,299,33.77Z"/></g><g id="Camada_2" data-name="Camada 2"><path class="cls-4" d="M244,336.29H169.33c-1.68-2.38-1-5.06-.81-7.61.47-6.48.6-13,1-19.44.78-13.45.9-26.92,1.64-40.36.3-5.33.14-10.67.08-16,0-3.61.65-7.15.7-10.74a2.9,2.9,0,0,1,.94-2.35c1.18-2.83.75-5.87,1-8.79,1.51-14.89,4.23-29.47,10.16-43.3a46.3,46.3,0,0,1,12.57-17.54c5.67-4.79,12.32-5.74,19.39-4.68,12.37,1.87,20.07,9.68,25.49,20.29,5.86,11.48,8.81,23.9,11.74,36.33.56,2.34,1.18,4.66,1.76,7a4.94,4.94,0,0,1,1.3,2.76,9,9,0,0,0,.43,2.11,13.23,13.23,0,0,0,.68,3c.65,1.73.57,3.62,1.22,5.36,2,9.32,3.9,18.64,4.66,28.16-.4,2.12-2.15,3.17-3.62,4.36a129.29,129.29,0,0,0-11.33,10.37,17.2,17.2,0,0,0-4.74,9.41c-2.2,12.67-.8,25.24.76,37.82C244.53,333.73,245,335.09,244,336.29Z"/><path class="cls-10" d="M172.86,239.79c-.81,21.21-.93,42.45-2.08,63.66-.6,10.94-1,21.9-1.45,32.84H89a4.37,4.37,0,0,1-1.4-2.8c-2.79-19.66-3.06-39.22,2.26-58.56a19.08,19.08,0,0,1,1.1-3.3,146.22,146.22,0,0,1,20.47-35.13c1.27-1.65,2.52-3.49,4.9-3.77,3,.55,5.58,2,8.57,2.58,6.73,1.2,13.27-.08,19.85-1.06,3.14-.47,6.29-1,9.39-1.72a4.05,4.05,0,0,1,2.83.05A96.56,96.56,0,0,1,172.86,239.79Z"/><path class="cls-11" d="M115.7,233.1c-2.24,1.74-3.81,4.08-5.49,6.31A149.63,149.63,0,0,0,91.89,271.2c-3,.85-5-1.24-7.33-2.51-6.65-7-7.37-16.64-1.84-24.48.89-1.27,1.86-2.48,2.78-3.73a5.21,5.21,0,0,1,3.89-2.21,10.68,10.68,0,0,0,8.84-7.73c.25-1,.45-1.94-.41-2.7a2.61,2.61,0,0,0-2.75-.29,6.26,6.26,0,0,0-3.64,3.56A9.23,9.23,0,0,1,89,234.65c-.71.54-1.49,1-2.39.46a2.11,2.11,0,0,1-.95-2.27,12.61,12.61,0,0,1,3-6.81c5.78-6.81,5.13-14.57-.37-20.82-2.55-2.91-5.09-5.83-7.54-8.84-2.65-3.27-5-6.68-5.81-10.92-.28-1.45-1-2-2.45-1.54-6.74,2.18-12.56,5.57-16,12.09-.86,1.62-1,2.82.89,3.79,1.28.64,2.28,1.83,1.66,3.32-.7,1.66-2.25,1.21-3.54.74s-1.94.23-2.4,1.33c-.91,2.14-1.46,4.42-2.4,6.55a19.56,19.56,0,0,0-1.15,3.16c-.26.82-.52,1.65-.82,2.46-2,4.61-2.85,9.51-3.62,14.43a4.86,4.86,0,0,0,.28,2C46,240.89,49.93,245.4,56.44,248c5,2,5.11,2.31,4,7.6-1.17,5.53-2.71,10.92-6.81,15.14a12.89,12.89,0,0,1-3.68,2.79c-3.53,1.85-7.2,3.41-10.8,5.12a22,22,0,0,0-14,14.26c-.33,1-.61,2.09-1.87,2.37a1.67,1.67,0,0,1-1.34-1.05,23.14,23.14,0,0,1-1.28-2.94c-1.43-3-1.34-6.21-1.13-9.42,0-1.1.53-2.1.66-3.18a82.17,82.17,0,0,1,3.57-10c.59-1.6,1.11-3.22,1.68-4.82,1.09-3.5,2-7-.78-10.19a22.12,22.12,0,0,0-2-2.18c-2.77-3.28-4.89-6.88-5.45-11.24,0-2.51.06-5-.06-7.53a3.54,3.54,0,0,1,.89-2.41c1.46-4.83,3-9.61,5.82-13.87,2.44-3.7,5.39-6.88,9.5-8.75a19,19,0,0,0,9.82-10.6c1.3-3.13,2.61-6.25,4-9.34a28.56,28.56,0,0,1,9.28-11c6-4.48,12.57-4.6,19.28-1.68a5.37,5.37,0,0,0,3.9.3c5.38-1.57,10.84-2.23,16.35-.75,2,.56,2.15-.31,1.71-1.87a27.08,27.08,0,0,1-.84-8.07A7.36,7.36,0,0,1,99.18,159a5.21,5.21,0,0,0,1.89-3.78c.7-10.86,7.82-16.37,16.87-20.1,4-1.65,8.27-2.7,12.4-4.06,6.4-2.12,11.42-6.49,16.79-10.28,3.71-2.63,7.38-5.48,12.14-5.86,6.75-.54,11.66,4.13,11.36,10.85-.08,2,.19,2.61,2.35,2.68a6.5,6.5,0,0,1,5.63,9.25A31.11,31.11,0,0,1,162,153.59a2,2,0,0,1-2.19-.2,6.75,6.75,0,0,1-1.63-2c-2.67-4.66-7-5.57-11.75-4.91q-15.54,2.14-23.38,15.82c-2.71,4.7-2.48,9.38-.64,14.23a35.06,35.06,0,0,0,7,11.26c2.92,3.19,3.19,6.95,2.74,10.88-.26,2.31-1.57,2.75-3.41,1.26-1.5-1.21-2.8-2.66-4.37-3.81-.55-.4-1-.87-1.61-1.24-2.32-1.47-5.46-1.72-6.8-.28-1.75,1.87-1.38,4.06-.38,6.2a7,7,0,0,0,3.36,3.54,11.78,11.78,0,0,0,3.69,1.7c2.4.57,3.25,2.06,3.3,4.41.17,8-1.46,15.22-7.73,20.79A11.55,11.55,0,0,1,115.7,233.1Z"/><path class="cls-12" d="M244,336.29c-1.25-9.42-2.48-18.83-2.42-28.37,0-3.4.31-6.78.61-10.16.53-6,2.7-11.21,7.44-15.24,4.5-3.83,8.83-7.85,13.23-11.79,2.22-3.13,5.58-4.91,8.54-7.15.92-.7,1.85-.33,2.26.83a17.62,17.62,0,0,1,.78,3.36c.7,13.33,1.57,26.65,2.12,39.64,9.09-15.12,18.37-30.46,27.69-45.77.64-.87,1.24-1.83,2.56-1.66,6.55,2.68,13,5.51,19.54,8.26,8.77,3.7,13.72,10.16,16.3,19.12,4.76,16.62,4.22,32.9-2.05,49H245.43C245,336.37,244.47,336.32,244,336.29Z"/><path class="cls-13" d="M305,261.79q-14.24,23.71-28.45,47.43l-.69-.21q-1.12-20.7-2.23-41.38c.39-.32.44-.84.69-1.25,3.07-5,2.58-9-1.63-13.3a4,4,0,0,0-2.46-1.4c-5.37-.47-8.93-3.2-10.72-8.32-.41-1.16-1.25-2.17-1.53-3.41-.44-1.51-.71-3.07-1.19-4.56a11.93,11.93,0,0,0-.52-2.12,9.5,9.5,0,0,0-.4-2.19c-.38-1.67.26-3.31.06-5a1.3,1.3,0,0,1,.9-1.06,12.45,12.45,0,0,0,7-5.39,1.4,1.4,0,0,1,1-.55,2.39,2.39,0,0,1,1.06.42c3.5,2.31,6.66,1,7.64-3.21.32-1.37-.13-1.69-1.45-1.64-2.22.08-4.32,1.09-6.58.74-1.35-1.35-1.81-3.13-2.33-4.87,1.44-1.89,2.34-4.18,4.09-5.86.8.64.1,1.36,0,2,1-1.69,2.08-2.18,3.44-.49-.83-1.13-.83-1.13-3.44-1.48.84-3.3,3.28-5.89,4-9.21,2.74-.28,2.87,2.21,4.27,4-1.05-2.14-1.54-4.26-4.27-4,0-1.89,2.06-2.62,2.38-4.39.19-1.09,1.12-2,.65-3.28,1.37-.78,2.17.34,3.06,1a3.69,3.69,0,0,0,4.09.44,18.38,18.38,0,0,1,9.57-1.7,4.88,4.88,0,0,0,2.83-.47c2.11-1.29,3.81-.58,5.55.81,3.25,2.58,5.46,5.55,5.56,10,.07,3.35.46,6.84,3.48,9.21.22.18.5.49.46.71-.84,4.22,2.52,8.19.7,12.47a13.43,13.43,0,0,0-.75,4c-.07.78-.07,1.8-.74,2.13-2.29,1.13-2.29,3.31-2.75,5.59,2.59-.77,3.52-4.05,6.41-4,.49.06,1.13.15,1.29.54,1.41,3.44,4.43,4,7.58,4.37-.26,1.53-.27,1.48-1.92,1.74-1.22.19-2.76-.58-3.55,1.06a10.12,10.12,0,0,0-4,3.64,12.61,12.61,0,0,1-2,1.48,6.76,6.76,0,0,1-3.48,1.19c-3.7-.24-5,2-5.65,5.06a8.48,8.48,0,0,0-.49,5.35c-.61,3.19,1.79,4.89,3.47,6.91C303.65,260.17,304.75,260.61,305,261.79Z"/><path class="cls-14" d="M115.15,201.32c-1.74-3.23-1.75-6,0-7.5,1.88-1.61,5.57-1.63,8.17.3,2.09,1.55,3.9,3.48,5.85,5.23.49.44.9,1.24,1.63,1s.71-1.06.78-1.73c.41-4.21-.15-8-3.41-11.22a30.8,30.8,0,0,1-7.1-12.24,16,16,0,0,1,1.28-13.44c5.91-10.85,18.17-17.42,29.74-15.94a7.42,7.42,0,0,1,5.55,3.24c.88,1.27,1.69,2.6,2.53,3.9.56,1.66-.83,1.38-1.63,1.54a5.71,5.71,0,0,0-3.9,2.68c-.47.76-.81,1.64.1,2.29.75.53,1.47.13,2.08-.4s1.1-1.33,1.75-1.89,1.35-1.71,2.64-1.3L168.74,178c-2.15,2.35-5,2-7.78,2.1-1.21-.52-1.44-1.73-1.89-2.77a16.88,16.88,0,0,0-5.43-7c-.84-.62-1.81-1.35-2.9-.63a2.53,2.53,0,0,0-.78,2.89,24.67,24.67,0,0,0,3.93,8.63c.68,1,1.75,1.92,1.06,3.37a57.3,57.3,0,0,1-9.43,5c-1,.36-2.21.66-2,2.08.2,1.26,1.35,1.46,2.41,1.72a22.06,22.06,0,0,0,13.39-1c2.34-.91,4-3,6.17-4.24,1.82-1,3.46-2.42,5.6-2.83a14.46,14.46,0,0,1-2.21,15.45A31.46,31.46,0,0,1,157.83,210c-.89.43-1.73.88-1.87,2-.88,6.92-1.74,13.84,1,20.59-10.69,2.68-21.42,5-32.55,3.63-3.13-.39-5.85-1.91-8.69-3.12a7.45,7.45,0,0,1,2.21-2.64c6.29-5.87,7.51-13.42,7.22-21.5,0-1.26-.71-1.62-1.75-1.87a11.76,11.76,0,0,1-5.2-2.4,4.63,4.63,0,0,1-.4-1.26,17.54,17.54,0,0,0-.91-1.91c-.69-1.65-.18-2.93,1.44-3.51,1.34-.48,2.71-.29,2.4,1.65a4.72,4.72,0,0,0,1.18,3.68c-1-1.21-1.61-2.54-.7-4,.66-1.09,1.73-1,2.81-.52-5.58-2.2-6.87-1.85-7.81,2.09C115.94,201.26,115.64,201.53,115.15,201.32Z"/><path class="cls-15" d="M311.39,228.58c-2.08.8-3.24,2.69-4.84,4.07-.64.56-1.44,1.4-2.26.84s-.35-1.59.11-2.35c.56-.93,1.52-1.55,0-2.79-.84-.69.78-1.29,1.47-1.44A2.32,2.32,0,0,0,308,224a3.71,3.71,0,0,1,.1-1.45,16.89,16.89,0,0,0,.28-10c-.7-2.8-.87-5.41-2.83-7.83-1.74-2.16-1.31-5.18-1.54-7.85-.3-3.47-4.06-8.81-7.2-9.89-.18-.07-.46-.21-.54-.14-2.61,2.22-5.8,1.3-8.75,1.55a21.12,21.12,0,0,0-7,2c-1.51.68-2.8-.15-4-1.09-.73-.58-1.17-1.61-2.33-1.55-2.23-.37-4.22-1.2-4.73-3.64-.54-2.65-.44-5.29,2.13-7a2,2,0,0,0,.84-2.85c-1.17-2.89-1-5.73,1.46-8a4.41,4.41,0,0,0,1.33-3.36c.14-4.19,3.61-6.68,7.59-5.33a4.67,4.67,0,0,0,4.08-.35,5.62,5.62,0,0,1,6.08.22,6.62,6.62,0,0,0,4.6,1.26c3.76-.23,6.29,1.6,7.7,5a6.43,6.43,0,0,0,3.31,3.7,4.79,4.79,0,0,1,2.4,6.66c-1.72,3.35-1,6.14.49,9.09,0,3.52,2.88,3.1,5.06,3.6.54.64,1.64.56,1.92,1.52-1.81,1.54-4.09,1.24-6.22,1.55-.73.11-1.71,0-1.89.92s.61,1.57,1.22,2.17a1.39,1.39,0,0,0,2.06,0c1.78-1.42,3.27-3.27,5.57-4a2.52,2.52,0,0,1,1.56,1.4c.11,1.9-1.58,2.46-2.64,3.47-.89.86-1.88,1.62-3.06,2.72a20.36,20.36,0,0,0,7.48.16c1.34-.16,2.66-.46,3.89.38a6.21,6.21,0,0,1,1.81,2.92c-1.46,2.67-4.4,3.62-6.51,5.54-3.76,3.42-3.9,3.29.36,5.72,3.45,2,6.66,4.32,10.12,6.26,1.17.66,2.53,1.54,2.14,3.11s-1.94,1.46-3.14,1.65a61.2,61.2,0,0,1-12.78.74c2.64,2.81,4.76,5.51,7.23,7.91.83.81,1.66,1.76,1.23,3.06s-1.77,1.73-3.05,1.79c-2,.1-4,.46-6.05.6-1,.07-2.17.19-2.9-.87-.3-.34-.86-.69-.84-1,.05-.76.79-.62,1.34-.66,1.78-.15,3.62.38,5.36-.42.34-.74,1-.75,1.71-.78a68.5,68.5,0,0,0-5.18-5.46c-2.5-2.15-2.53-2.15-4.6.29A8.66,8.66,0,0,1,311.39,228.58Z"/><path class="cls-4" d="M314.92,235.52c3.19-.19,6.38-.36,9.57-.59.75-.06,1.65-.12,2-1s-.34-1.48-.91-2c-3.23-2.8-5.38-6.63-9-9.32,4.45-.32,8.85-.18,13.17-1,1.44-.28,3.73.32,4.06-1.29s-1.93-2.12-3.24-2.84c-4.34-2.35-8.12-5.64-12.84-7.36-1.72-.63-.35-1.54.26-2.13,3.1-3.08,6.29-6.06,10.29-8a22.12,22.12,0,0,1,3.56,7c-.66,1-1.89.71-3,1.3,1.29.53,2.63-.43,3.68.46,4.63,11.4,4.25,22.85.19,34.29a62.17,62.17,0,0,1-3.31,7.42c-3.94,7.74-10,10.34-18.34,8-1-.29-2-.6-3.06-.9a4.07,4.07,0,0,1-3.42-1.11,29.87,29.87,0,0,0-2.61-2.67c-1-1.23-2.87-2.42-2-4.1s2.79-.66,4.28-.5c3.75.38,7.52-.09,11.27.43,1.56.21,1.66-.7.81-1.72-1.67-2-3-4.25-4.57-6.33-.55-.74-1.4-1.42-.93-2.55C311.56,237.09,312.47,235.41,314.92,235.52Z"/><path class="cls-16" d="M160.7,179.85l8-1.85a17.34,17.34,0,0,1,2.37,7.36c-2.24,2.06-5.1,3.24-7.46,5a26.26,26.26,0,0,1-6.84,3.68c-4.47,1.7-8.6.41-12.85-.13-1.19-.15-1.64-1.29-1.72-2.43a1.72,1.72,0,0,1,1.27-2c4.14-.95,7.28-4,11.29-5.25.28-.26.52-.78.86-.72C158.66,184.06,159.86,182.22,160.7,179.85Z"/><path class="cls-17" d="M263.09,210.55c1.79,1.07,1.85,3,2.38,4.71a3.64,3.64,0,0,1-.61,4.09c-2,3.22-4.28,6.15-8.57,6.31-.74-.69-.44-1.48-.2-2.25C257,218.36,260,214.4,263.09,210.55Z"/><path class="cls-18" d="M326.46,197.09a81.67,81.67,0,0,1-11.27.78c-.66,0-1.48.21-1.69-.67-.15-.64.51-1,.94-1.34q3.17-2.76,6.35-5.5A30.48,30.48,0,0,1,326.46,197.09Z"/><path class="cls-19" d="M305,256l3,1.58a4.11,4.11,0,0,0-1.22,2.42c-.93.28-1.15,1.29-1.84,1.81a14.32,14.32,0,0,1-6.19-7.09c-.25-.62-1.49-1.83.42-2.19,1.11,0,1.87.78,2.74,1.29C302.93,254.55,304,255.25,305,256Z"/><path class="cls-20" d="M319.23,189c-1.61,2.09-3.93,3.39-5.77,5.24-.9.91-1.64.78-2.28-.34-.28-.5-.77-.89-1-1.39-.4-.81-1.69-1.32-1.13-2.43s1.62-.88,2.58-1c2.3-.23,4.6-.5,6.9-.76Z"/><path class="cls-21" d="M161.19,155.87a15.37,15.37,0,0,0-3.62,3.71,2.41,2.41,0,0,1-3.53.76c-1.47-1-1.1-2.3-.3-3.55a5.73,5.73,0,0,1,4.92-3.08c.65,0,1.41.31,1.49-.76l1.88.64A2,2,0,0,0,161.19,155.87Z"/><path class="cls-22" d="M316.57,186.78l-.84.19c-4.77.88-4.77.88-4.22-3.79A13.57,13.57,0,0,1,316.57,186.78Z"/><path class="cls-23" d="M332.53,208.78a10.38,10.38,0,0,1-5.85.48c1.06-2.54,3.27-2,5.15-2.24A2.32,2.32,0,0,1,332.53,208.78Z"/><path class="cls-24" d="M256.09,223.41c.07.75.13,1.5.2,2.25,0,2-.05,3.93-.07,5.89.17.56-.09.69-.59.58a6.72,6.72,0,0,1-.61-3C256.51,227.42,254.86,225.14,256.09,223.41Z"/><path class="cls-3" d="M85.18,268.31a21.63,21.63,0,0,0,6.71,2.89c-6.73,21.44-6.28,43.2-2.92,65.1H39a4.19,4.19,0,0,1-1.43-3.08c-.25-4.53-.45-9,1.29-13.43,3.8-9.69,2.95-19.75,1.66-29.79-.52-4-2-7.89-1.6-12l10.54-4.86c2.65-.65,5.17.34,7.72.7,9.16,1.33,17.88.43,25.85-4.72A4.78,4.78,0,0,1,85.18,268.31Z"/><path class="cls-25" d="M38.91,278a82.92,82.92,0,0,1,3.43,19.86c.58,8.63-.19,17-3.57,25.28-1.65,4-.51,8.78.22,13.18l-21,0a2.5,2.5,0,0,1-.86-1.73,9.45,9.45,0,0,1,0-2c.58-3.93.35-7.93,1.11-11.84a13.23,13.23,0,0,1,.1-2.95c.64-3.41.7-6.92,1.59-10.29.21-1.33.36-2.67.55-4,1.09-2.77.76-6,2.78-8.47.52-1.12,1.13-2.21,1.54-3.37A21.17,21.17,0,0,1,38.91,278Z"/><path class="cls-26" d="M234.64,187.38c2.16,5,2.78,10.25,3,15.6a2.14,2.14,0,0,1,.19.83c.16,4.53.16,4.53-4.4,4.21a8.36,8.36,0,0,0-8.77,6.78,8.1,8.1,0,0,0,5.55,9.29c1.15.4,2.53.35,3.25,1.61-2.87,5.87-7.23,10.5-12.26,14.52a7.27,7.27,0,0,1-7.69,1.14c-6.76-3-12.66-7.07-16.76-13.39-.6-1.56.74-1.73,1.61-2.14,7.46-3.53,8.34-10,2.06-15.48a2.78,2.78,0,0,1-1.27-1.83c.13-2.1.77-3.76,3.22-3.88-1.87-.08-2.67,1.12-3.14,2.73-.15.56-.17,1.47-.69,1.51-2.92.19-5.62,1.92-8.65,1.17-1-7-1.74-14,.43-21a96.66,96.66,0,0,0,13.93-.05C214.35,188.27,224.52,188.37,234.64,187.38Z"/><path class="cls-27" d="M234.64,187.38c-1.61,2.09-4.07,1.4-6.07,1.53-6.84.47-13.75.2-20.57.84-5.31.5-10.64,0-15.9.79-1.42.22-1.72-.33-1.81-1.45,2.52-8.4,12.42-17,20.22-16.88C220.38,172.31,230.77,176.67,234.64,187.38Z"/><path class="cls-28" d="M258.43,239.73c.91,1.81,1.83,3.61,2.73,5.42,1.69,3.41,4.37,5.51,8.22,5.53a4.79,4.79,0,0,1,4.53,2.5c.79,1.33,1.72,2.59,2.41,4,2.28,4.54,1.51,7.39-2.74,10.48-.2-1.23-.4-2.46-.67-4.08-3.72,2.1-6.44,5.31-10.07,7.18-1.07-6.25-2.12-12.5-3.2-18.75-.57-3.31-1.17-6.62-1.76-9.93C257.67,241.19,257,240.21,258.43,239.73Z"/><path class="cls-29" d="M189.86,210.05c2.67-.33,5-2.32,7.94-1.48.8.23.58-1,1.1-1.44.73,0,.31.74.63,1,.69,2.05,3,2.4,4.13,4.21,3.42,5.56,1.43,11.86-4.72,14.11-.83.31-2,.23-2.22,1.52A34.69,34.69,0,0,1,189.86,210.05Z"/><path class="cls-29" d="M233.43,225.7c-3.06-.53-6.07-1.18-8.07-3.92a8.92,8.92,0,0,1-.6-10.09c1.77-3.3,5.68-5.5,9.28-4.46s3.91-.26,3.46-3.1a4.53,4.53,0,0,1,.11-1.15A34,34,0,0,1,233.43,225.7Z"/><path class="cls-30" d="M258.43,239.73c-.78.64-.33,1.56-.55,2.32l-1.26-5.18c0-.68-.73-1.6.62-1.8C258.07,236.52,257.94,238.2,258.43,239.73Z"/><path class="cls-31" d="M257.24,235.07c-.62.46-.42,1.2-.62,1.8a5.23,5.23,0,0,1-.55-2.88c-.28-.65,0-.75.58-.63C256.85,233.93,257.05,234.5,257.24,235.07Z"/><path class="cls-32" d="M256.65,233.36l-.58.63a2.52,2.52,0,0,1-.44-1.86l.59-.58A1.83,1.83,0,0,1,256.65,233.36Z"/><path class="cls-25" d="M85.18,268.31c-4.72,4.48-10.65,6.19-16.84,6.81a48.24,48.24,0,0,1-18.89-2c8.13-4.87,9.27-13.29,10.87-21.47.2-1-.45-1.31-1.24-1.62a48.36,48.36,0,0,1-4.81-2c-5.72-2.94-9.42-7.3-9.59-14.05-.66-1.63.27-2.2,1.62-2.73,5.76-2.21,6.91-7,2.85-11.58-.72-.82-1.51-1.56-1-2.79a3.71,3.71,0,0,1,.71-2.18,3.58,3.58,0,0,1,1-.74A4.11,4.11,0,0,0,51,212.74c.93-1.24,1.84-2.75,3.67-2.22,1.67.48,2,2.11,2.23,3.6a4.43,4.43,0,0,0-.37-1.89c-.86-2.25-2.34-2.61-4.22-1.08-.59.48-1,1.19-1.81,1.37-.46-.08-.82-.22-.56-.8.9-2.65,1.9-5.27,2.68-8,.44-1.53,1-1.88,2.41-1,1.07.64,2.62,1.91,3.34.1.65-1.62-.92-2.57-2.48-2.89-1.39-.28-2-.71-1.25-2.28,3.73-8.29,10.47-12.68,18.95-14.89,1.13-.29,1.8,0,1.94,1.33.5,4.86,3.17,8.66,6.21,12.25q4.05,4.78,8.11,9.53a15.45,15.45,0,0,1-.37,20.45,12.37,12.37,0,0,0-3.16,6.74c-.09.71-.17,1.45.54,1.8s1.06-.27,1.51-.6a6.5,6.5,0,0,0,2.2-3.33,6.76,6.76,0,0,1,4.93-4.53c2.69-.7,4.39,1,3.75,3.75a11.48,11.48,0,0,1-10.38,9,2.64,2.64,0,0,0-1.62.39C78.39,246.34,77.4,259.77,85.18,268.31Z"/><path class="cls-33" d="M48.15,216.85a2.82,2.82,0,0,0,1.44,2c2.75,2,3.2,5,2.57,8a6.3,6.3,0,0,1-5.53,5.18c-1.28.2-2,.58-2,1.89C44,227.87,45.82,222.31,48.15,216.85Z"/><path class="cls-34" d="M115.15,201.32l.74-.74c1-.06,1,.9,1.39,1.45a3.18,3.18,0,0,0,1.4,1.52c-.17.38-.34.76-.5,1.14A5.79,5.79,0,0,1,115.15,201.32Z"/><path class="cls-35" d="M50,211.72l.46.58c.73.86,0,1.54-.29,2.27l-1.29.1A5.47,5.47,0,0,1,50,211.72Z"/><path class="cls-17" d="M284.84,238.55c-5.63,0-9.51-4-9.49-9.79,0-5.93,3.64-9.46,9.68-9.45,5.69,0,9.58,4,9.57,9.71S290.6,238.56,284.84,238.55Z"/><path class="cls-36" d="M299.26,247.22c-.05-1.62,1-2.9,1.38-4.38a1.67,1.67,0,0,1,1.95-1.35c2.29.29,4.35-.61,6.47-1.24,3.28,1.37,4.5,4.61,6.43,7.19.6.82-.22,1.4-1,1.65a7.09,7.09,0,0,1-3.17.16,57.8,57.8,0,0,0-8.1-.53C301.71,248.68,300.26,248.51,299.26,247.22Z"/><path class="cls-37" d="M299.26,247.22c5.17,1.28,10.49.54,16.31,1.5l-6.51-8.46a2,2,0,0,1,1.79-1.25c2.42,2.76,4,6.17,6.71,8.73.62.59,1.31,1.35.68,2.27s-1.73.73-2.67.56c-5.05-.91-10.17,0-15.37-1.06.46,2,1.84,2.84,2.69,4.09-.05,1-.54,1.09-1.31.67a6.24,6.24,0,0,1-2.4-1.76C297.86,250.73,298.33,249,299.26,247.22Z"/><path class="cls-38" d="M264.86,219.35c.07-1.38-.2-2.82.61-4.09,2.44-1.32,5.25-1,7.83-1.69,1.14-.31,1.58.54,1.36,1.57a9.85,9.85,0,0,1-3.12,5.71C269,223,267.46,222.54,264.86,219.35Z"/><path class="cls-39" d="M311.39,228.58c2.62-5.36,2.92-5.44,7.05-1.36,1.77,1.75,3.4,3.63,5.44,5.83l-3.1.38c-1.06,0-2.13-.14-3.18-.07-2.1.14-3.84,0-4.07-2.75A2.2,2.2,0,0,0,311.39,228.58Z"/><path class="cls-40" d="M261.63,228.13c3.72,8.21,4,8.38,10.44,6.24a4.38,4.38,0,0,1-5.56,2.31C262.81,235.63,261,232.48,261.63,228.13Z"/><path class="cls-41" d="M292.35,217.89c-.15-2.06,1.75-4.5-.39-5.93s-3,1.72-4.87,2.53c.23-2.59,1.93-3.58,3.82-4.26a2.09,2.09,0,0,1,2.57,1.41A5.06,5.06,0,0,1,292.35,217.89Z"/><path class="cls-42" d="M271.2,195.51c1.43-1.52,2.44-.34,3.31.63a5.87,5.87,0,0,1,1.73,4.93.79.79,0,0,1-.63.45c-.53-.1-.66-.6-.81-1.06-.67-2-1.57-3.9-3.6-5Z"/><path class="cls-43" d="M267.16,204.72c3.57-1.1,4.33-.42,4,3.63-1.06-.63-.54-2.41-1.82-2.64s-1.57,1.46-2.51,2c-.69-1.14.53-2,.35-3.06Z"/><path class="cls-44" d="M292.26,205.87a6.61,6.61,0,0,0-2.95,1c-.49.29-1.08,1.23-1.59.23-.38-.74.43-1.13,1-1.47,2.2-1.32,4.59-1,7-.82C295,206.57,293.25,205,292.26,205.87Z"/><path class="cls-45" d="M292.26,205.87c.91-1.09,2.52,0,3.43-1.06a4.72,4.72,0,0,1,3.34,3A8.72,8.72,0,0,0,292.26,205.87Z"/><path class="cls-46" d="M160.7,179.85c-.09,4.62-.09,4.61-4.81,4.14a3.4,3.4,0,0,0-1.09.24c-1.83-3.15-4.06-6.07-5.2-9.61a8.45,8.45,0,0,1-.6-3.09c.15-3,1.85-4,4.36-2.4A16.73,16.73,0,0,1,160.7,179.85Z"/><path class="cls-47" d="M139,165.68c1,.27,2.9-.47,2.9,1.68,0,1.85-1.26,2.37-3,2.33-2.49-.05-4,1.64-5.57,3.25-.68.7-1.37,2-2.59,1.08-1-.71-.71-1.9-.41-3C131.24,168,135,165.65,139,165.68Z"/><path class="cls-48" d="M117,202.34l-1.15-1.76c0-3.11.93-4.13,3.87-3.94a9.15,9.15,0,0,1,6.6,3.28c-.63.71-1,.32-1.28.21-1.1-.37-2.19-2-3.31-.69s.1,2.68,1,3.83c.46.6,1,1.14,1.6,1.81a4.84,4.84,0,0,1-4.39-4.72c0-.71,1.23-2.06-.78-2-1.42.06-2.13.81-1.86,2.29.07.38.19.75.28,1.13C117.83,202.43,117.56,202.52,117,202.34Z"/><path class="cls-49" d="M141.88,178.11c-.2,1.17-.68,2.21-2,2-1.62-.21-2.19-1.54-2.2-3,0-1.14.52-2.23,1.9-2C141.19,175.38,141.63,176.73,141.88,178.11Z"/><path class="cls-50" d="M162.4,167.77c0,1.29-.44,2.25-1.82,2.17s-2.13-1.17-2.25-2.54c-.1-1.17.26-2.22,1.64-2.22C161.66,165.17,162.19,166.41,162.4,167.77Z"/><path class="cls-51" d="M162.93,196c-3,1.9-4.44,2.22-7.84,1.51l7.21-2.12C162.93,195.12,163,195.43,162.93,196Z"/><path class="cls-52" d="M149.81,212.6a5.78,5.78,0,0,1-5.77.21C145.71,212.16,147.42,212.24,149.81,212.6Z"/><path class="cls-53" d="M162.93,196l-.63-.61a3.13,3.13,0,0,1,2.24-1C164.51,195.49,163.72,195.73,162.93,196Z"/><path class="cls-54" d="M117,202.34l.54-.52c.37.58.73,1.16,1.1,1.73A1.57,1.57,0,0,1,117,202.34Z"/><path class="cls-55" d="M330.07,219.56a65.31,65.31,0,0,1-12.07.94c-2.08,0-2.57-.69-1.9-2.56a13.09,13.09,0,0,0,.49-2.27c.69-4,.94-4.12,4.5-1.92C324,215.52,326.77,217.42,330.07,219.56Z"/><path class="cls-20" d="M324.34,200.17c-2,1.74-4.15,3.43-6.15,5.23-1.06,1-1.55,1.21-2.05-.5-1.56-5.26-1.62-5.24,3.95-5.39,1,0,1.93-.06,2.89-.09C323.69,199.22,324.38,199,324.34,200.17Z"/><path class="cls-56" d="M324.34,200.17c-.29-.54-.83-.63-1.36-.74a4.7,4.7,0,0,1,1.28-.46c.47,0,1.28-.41,1.34.36C325.65,199.92,324.89,200.07,324.34,200.17Z"/><path class="cls-57" d="M323,241.53c1.09.39,2.65.87,4.17,1.49a1.49,1.49,0,0,1,1.06,1.84c-.34,1-1.3.79-2,.56a45.4,45.4,0,0,1-4.3-1.73c-.6-.27-1.44-.64-1.22-1.4S321.75,241.55,323,241.53Z"/><path class="cls-58" d="M331.9,228.11c-1.2-.19-3.09.19-3.19-1.25-.11-1.64,1.76-.94,2.76-1,1.22-.09,2.93-.05,2.92,1.53C334.38,228.49,332.79,227.91,331.9,228.11Z"/><path class="cls-59" d="M312.17,254.2a9.23,9.23,0,0,1,3.56,1.8c.51.4,1,1.06.55,1.74s-1.19.31-1.75-.09c-1.24-.9-2.46-1.82-3.69-2.73C310.81,253.81,311.43,253.91,312.17,254.2Z"/><path class="cls-60" d="M301.58,254.27a1.58,1.58,0,0,0,1.31-.67A6.85,6.85,0,0,1,305,256,6.23,6.23,0,0,1,301.58,254.27Z"/><path class="cls-61" d="M312.17,254.2a1.54,1.54,0,0,0-1.33.72c-.53-.17-1.51-.45-1.16-.92C310.38,253.05,311.36,253.66,312.17,254.2Z"/><path class="cls-62" d="M210,214.66c.52-2.63,1-5.29,1.59-7.9.3-1.2,1-2.51,2.47-2.46s1.89,1.28,2.06,2.45c.59,4.14,2.46,8.17,1.09,12.49-.38,1.2-.53,2.62-2,2.87a3.59,3.59,0,0,1-3.64-1.89A10.58,10.58,0,0,1,210,214.66Z"/><path class="cls-63" d="M195.49,200.61c2.44-3.63,6.23-4.21,10-.88-3.82-1-6.88-1-9.41,1.45C195.54,201.33,195.28,201.22,195.49,200.61Z"/><path class="cls-64" d="M227.6,193.65a13.59,13.59,0,0,0-7.44,4.79c.22-3.44,2-4.84,6-5.43C226.78,193,227.57,192.46,227.6,193.65Z"/><path class="cls-65" d="M199.53,208.13l-.63-1c.28-1.77,1.06-3.25,3-3.37A2.63,2.63,0,0,1,205,206C202.35,204.94,200.05,204.58,199.53,208.13Z"/><path class="cls-66" d="M222.26,205.78c-.24-2.36,0-4,2.11-4.58,1.94-.52,3,.66,3.88,2.08-1.38.24-2.09-1.48-3.62-.81C223.28,203.07,223.5,204.6,222.26,205.78Z"/><path class="cls-67" d="M215.39,226.89a9.43,9.43,0,0,1-5.47-.55c1.55-1,3.14-.17,4.7-.14C215.33,225.92,215.49,226.26,215.39,226.89Z"/><path class="cls-68" d="M215.39,226.89l-.77-.69,3.55-1.12c.7-.32.76.08.71.62A5.41,5.41,0,0,1,215.39,226.89Z"/><path class="cls-69" d="M227.6,193.65l-1.42-.64c1.28-.83,2.51-.3,3.75.12.14.54,0,.81-.61.62Z"/><path class="cls-70" d="M218.88,225.7l-.71-.62c.68-.28,1.29-1.59,2-.53C220.56,225.07,219.5,225.48,218.88,225.7Z"/><path class="cls-71" d="M231.16,193.66c.48.28,1.22.75.89,1.17-.56.68-1.09-.12-1.57-.48A.76.76,0,0,1,231.16,193.66Z"/><path class="cls-72" d="M231.16,193.66l-.68.69-1.16-.6.61-.62A1.36,1.36,0,0,1,231.16,193.66Z"/><path class="cls-73" d="M195.49,200.61l.58.57c-.2.58-.41,1.5-1.16.95C194.39,201.75,194.92,201,195.49,200.61Z"/><path class="cls-74" d="M60.76,238c-3-.32-6-.91-8.43-3.18-.78-.75-1.67-1.64-.91-2.75.65-.95,1.74-.56,2.67-.25,3.24,1.06,6.49,2.06,9.93.88.91-.31,1.79-.71,2.68-1.09s1.8-1.06,2.63-.05.19,2.09-.47,2.88C66.81,236.93,64,237.74,60.76,238Z"/><path class="cls-75" d="M55.79,225.29c0-2.84,2.73-6.64,4.68-6.5s2.25,1.64,2.23,3.11c-.06,3.45-2.34,6.24-4.84,6.17C56,228,55.73,226.77,55.79,225.29Z"/><path class="cls-76" d="M82.55,209.53c-2.84-1.29-5.44-2.32-8.33-1.52a1.46,1.46,0,0,1-1.85-1c-.47-1.1.57-1.31,1.19-1.61C77.29,203.62,82.27,205.39,82.55,209.53Z"/><path class="cls-77" d="M50.15,214.57a3.85,3.85,0,0,1,.29-2.27c1.37-1.57,2.57-3.82,5.16-2.42,2.21,1.19,2.11,3.49,2,5.66,0,.5-.18,1-.77,1s-.71-.55-.69-1c.06-1.73.49-3.95-1.62-4.44-1.9-.43-2.47,1.75-3.34,3.09C51,214.42,50.49,214.44,50.15,214.57Z"/><path class="cls-78" d="M69.25,219.2c-.15-2.25,1.23-3.54,2.87-4.5a3.14,3.14,0,0,1,4,.58c1.42,1.46,1.57,3.2.66,5.19-1.32-.18-1-1.17-1-1.89,0-1.23-.2-2.37-1.61-2.72s-2.11.52-2.9,1.43C70.72,218,70.71,219.21,69.25,219.2Z"/></g></svg>