<svg id="Camada_1" data-name="Camada 1" xmlns="http://www.w3.org/2000/svg" viewBox="0 0 110 110"><defs><style>.cls-1{fill:#506467;fill-rule:evenodd;}</style></defs><title>ICONS-VERDE-R01</title><path class="cls-1" d="M36,35.28a21.76,21.76,0,0,0-5.47.54V53.29a21.88,21.88,0,0,0,4.43.33c7.08,0,11.48-3.6,11.48-9.67C46.44,38.52,42.7,35.28,36,35.28Z"/><path class="cls-1" d="M-.2,0V110.87H110.2V0ZM54.2,57.67C49.69,62,42.94,63.88,35.08,63.88a33.15,33.15,0,0,1-4.54-.24V84.8H17.36V26.42a109.49,109.49,0,0,1,18-1.23c8.23,0,14.08,1.56,18,4.74a17.23,17.23,0,0,1,6.3,13.7C59.64,49.41,57.73,54.34,54.2,57.67Zm19.91,28c-5.59,0-10.58-1.23-13.81-3l2.37-9.55a25.91,25.91,0,0,0,11.44,3.25c4,0,5.68-1.41,5.68-3.61s-1.32-3.23-6.27-4.91c-8.86-3-12.26-7.81-12.17-12.91,0-8,6.82-14,17.39-14a28.57,28.57,0,0,1,12.08,2.46l-2.36,9.22a21,21,0,0,0-9.27-2.47c-3.23,0-5,1.33-5,3.52,0,2,1.65,3.06,6.87,4.92,8.14,2.79,11.54,6.93,11.63,13.24C92.64,79.79,86.33,85.67,74.11,85.67Z"/></svg>