<svg id="Camada_1" data-name="Camada 1" xmlns="http://www.w3.org/2000/svg" viewBox="0 0 110 110"><defs><style>.cls-1{fill:none;}.cls-2{fill:#506467;}.cls-3{fill:#dda0bc;}.cls-4{fill:#d788ac;}.cls-5{fill:#f0d9e4;}</style></defs><title>sass</title><path class="cls-1" d="M.33,49.7a.61.61,0,0,0,.64,0l6.29-3.61A1.33,1.33,0,0,0,7.89,45V37.28a1.34,1.34,0,0,1,.64-1.12l2.67-1.55a1.32,1.32,0,0,1,.64-.18,1.21,1.21,0,0,1,.64.18l2.67,1.55a1.28,1.28,0,0,1,.64,1.12V45a1.32,1.32,0,0,0,.64,1.13l6.31,3.61a.61.61,0,0,0,.64,0,.67.67,0,0,0,.3-.54l.06-16.46a1.34,1.34,0,0,0-.63-1.13l-10.6-6.1a2.05,2.05,0,0,0-.58-.18h-.12a1,1,0,0,0-.58.18L.64,31.57A1.33,1.33,0,0,0,0,32.7L0,49.16A.59.59,0,0,0,.33,49.7Z"/><polygon class="cls-2" points="29.73 31.74 29.7 31.76 29.71 31.79 29.73 31.78 29.73 31.74"/><polygon class="cls-2" points="29.73 31.78 29.71 31.79 29.73 31.81 29.73 31.78"/><path class="cls-3" d="M106.28,71a2.22,2.22,0,0,1,0-2Z"/><path class="cls-4" d="M14.68,91.81a1.15,1.15,0,0,1,1.39,0Z"/><path class="cls-2" d="M66.91,70.23l-5,6.11C64.18,76,66.71,72.89,66.91,70.23Z"/><path class="cls-2" d="M46.8,57.71a5.71,5.71,0,0,0-3,2.34,20,20,0,0,0-4,11.59,10.75,10.75,0,0,0,.36,3.24c.15.5.19,1.15.8,1.23s1-.53,1.19-1a84.53,84.53,0,0,0,5.32-14A10.45,10.45,0,0,0,48,58.64C48,57.69,47.73,57.44,46.8,57.71Z"/><path class="cls-2" d="M26.39,70a44.36,44.36,0,0,0-8.49,6.25,11.59,11.59,0,0,0-3.53,6.16,2.89,2.89,0,0,0,1.52,3.48c.91.5,1.79.1,2.7-.2a13.05,13.05,0,0,0,9-12.5,12.78,12.78,0,0,0-.28-2.78C27.22,69.76,27,69.58,26.39,70Z"/><path class="cls-2" d="M0,.15V110H116.74V.15ZM106.28,69a3.91,3.91,0,0,0,0,2v.2a7.24,7.24,0,0,1-3.37,5.11,3.79,3.79,0,0,1-1.45.6.78.78,0,0,1-.95-.35c-.19-.36,0-.62.28-.87a2.83,2.83,0,0,1,.37-.32c4-3.17,3-6.93.08-9.59a12.61,12.61,0,0,0-7.93-3.2,21.49,21.49,0,0,0-7.57.59c-1.35.41-1.46.54-1,1.85a6.91,6.91,0,0,1-2.41,8,14.91,14.91,0,0,1-5.13,3.11l-.38.13c-2.43.74-4.11-.48-4-3s1.26-4.4,2.67-6.28a15.83,15.83,0,0,1,2.5-2.67,1,1,0,0,0,.33-1.45A23.09,23.09,0,0,1,76,56.13c-.43.89-.82,1.57-1.19,2.26-1.29,2.38-2.69,4.7-4.11,7a1.66,1.66,0,0,0,0,1.59,8.93,8.93,0,0,1,.58,5.44,7.69,7.69,0,0,1-3.19,4.84,14.08,14.08,0,0,1-7.41,2.5A2.48,2.48,0,0,1,58,78.55c-.49-1,0-1.89.58-2.75a77.74,77.74,0,0,1,5.05-6.24c1.14-1.36,1.64-2.54.59-4.29a18,18,0,0,1-1.89-6c-1.28,3-2.39,6-3.79,8.85-1.64,3.36-3.35,6.68-5.17,9.93a7.45,7.45,0,0,1-2.34,2.53A2.58,2.58,0,0,1,47,79.3a8.61,8.61,0,0,1-.55-4.08c.19-.57.09-1.18.29-1.94a2.61,2.61,0,0,0-.14.61,30.75,30.75,0,0,1-3,6.45,4,4,0,0,1-3.79,2.22A3.42,3.42,0,0,1,37,81.12a13.65,13.65,0,0,1-2.52-7.49,22.19,22.19,0,0,1,.14-4.15,24.51,24.51,0,0,1,.92-4.09,47.91,47.91,0,0,0-4.26,2.42c-.49.3-.48.7-.32,1.2a17.61,17.61,0,0,1-1.15,13.93,16.55,16.55,0,0,1-9.64,8.35,28.21,28.21,0,0,1-2.89.52H16.07a2.07,2.07,0,0,0-1.39,0H13.49c-.11-.28-.39-.2-.59-.25a6.05,6.05,0,0,1-4.76-5.7,11.74,11.74,0,0,1,3.36-9.28c3.23-3.52,7.24-5.9,11.37-8.13l1.71-.91a4.92,4.92,0,0,0-1.24-1.14c-3.58-2.75-7.36-5.25-10.85-8.11a26.23,26.23,0,0,1-6.08-7C4.23,47.63,4.48,44,6.17,40.26a29.74,29.74,0,0,1,5-7.25c4.68-5.33,10.58-8.94,16.78-12.2a61.8,61.8,0,0,1,12.41-5,34.55,34.55,0,0,1,18.19-.47,18.53,18.53,0,0,1,4.39,1.77c4.49,2.53,6.31,6.92,5.63,12-.6,4.45-2.83,8.06-5.72,11.41-4.92,5.69-11.42,8-18.57,9.11A23.94,23.94,0,0,1,35,49.37,10.3,10.3,0,0,1,29,45.51a3.8,3.8,0,0,1-.78-1.79.62.62,0,0,1,.28-.69.47.47,0,0,1,.62.14c4.09,4.11,9.06,3.61,14.1,2.65a25,25,0,0,0,8.43-3.06c4.53-2.74,8.64-6,10.8-11.06a11.37,11.37,0,0,0,.82-3.45c.27-3-1.17-5.22-4.21-6.41a21,21,0,0,0-9.55-1.11c-9.17.8-17.26,4.51-24.79,9.5a36,36,0,0,0-9.29,8.22,14.92,14.92,0,0,0-3,7.73,8.71,8.71,0,0,0,.9,4.51,18,18,0,0,0,5.34,6.4c2.24,1.79,4.48,3.59,6.75,5.35A29.7,29.7,0,0,1,27.83,65c.33.31.56.44,1,.17,3-1.88,6.13-3.6,9.27-5.27a2.57,2.57,0,0,0,.76-.78,18,18,0,0,1,5-4.35,8.75,8.75,0,0,1,2.86-1.07,3.13,3.13,0,0,1,3.88,2.59,11.34,11.34,0,0,1,0,3.72,5.2,5.2,0,0,1,.88-.42,2.18,2.18,0,0,1,2,.5c.58.46.52,1,.36,1.71-.8,3.2-1.6,6.4-2.33,9.61a5.29,5.29,0,0,0-.09,3.13c.48-.14.58-.56.76-.9,2.27-4.21,4-8.67,6-13,.6-1.36,1.18-2.73,1.8-4.08a21.62,21.62,0,0,0,1.76-5.13,1.63,1.63,0,0,1,1.48-1.47,8.94,8.94,0,0,1,3.92-.13c1,.26,1.24.68.89,1.65a13.89,13.89,0,0,0-.78,7.86,16.26,16.26,0,0,0,1.39,3.4c.64-1.07,1.2-2,1.72-2.92a58.39,58.39,0,0,0,4-7.83c.45-1.17.7-2.4,1-3.61a1.82,1.82,0,0,1,1.54-1.45,9.12,9.12,0,0,1,3.82-.11c1.09.28,1.34.66,1,1.69a13.73,13.73,0,0,0-.78,7.76,19.06,19.06,0,0,0,1.85,4.36c.22.47.53.24.82.11a21.13,21.13,0,0,1,10-1.79,14.56,14.56,0,0,1,9.06,3.52,11.32,11.32,0,0,1,3.37,5.7c.07.24,0,.55.26.7Z"/><path class="cls-2" d="M80.26,65.89c-.16,0-.37.22-.54.37a12.31,12.31,0,0,0-3.29,5.65.66.66,0,0,0,.08.74c.21.2.44,0,.63-.09a5.56,5.56,0,0,0,3.53-5.35,4,4,0,0,0-.11-.67C80.5,66.31,80.59,65.93,80.26,65.89Z"/><path class="cls-5" d="M46.62,75.18c-.14-.45.17-1-.2-1.4l.2-.64A3.17,3.17,0,0,1,46.62,75.18Z"/></svg>