<svg id="Camada_1" data-name="Camada 1" xmlns="http://www.w3.org/2000/svg" viewBox="0 0 110 110"><defs><style>.cls-1{fill:#506467;}</style></defs><title>ICONS-VERDE-R01</title><path class="cls-1" d="M55,.92h0A54.05,54.05,0,0,0,11.2,86.71L4.46,106.8l20.79-6.64A54.08,54.08,0,1,0,55,.92ZM86.47,77.3C85.17,81,80,84,75.86,84.93c-2.83.6-6.52,1.08-18.94-4.07C41,74.28,30.79,58.13,30,57.08s-6.42-8.55-6.42-16.31A17.26,17.26,0,0,1,29.1,27.6a7.86,7.86,0,0,1,5.53-1.94c.67,0,1.27,0,1.81.06,1.59.07,2.38.16,3.43,2.67,1.31,3.15,4.49,10.91,4.86,11.71A3.19,3.19,0,0,1,45,43a9.17,9.17,0,0,1-1.75,2.48c-.8.92-1.55,1.63-2.35,2.61s-1.56,1.78-.64,3.37A48,48,0,0,0,49,62.39a39.87,39.87,0,0,0,12.68,7.82,3.44,3.44,0,0,0,3.82-.6A66.15,66.15,0,0,0,69.72,64a3,3,0,0,1,3.88-1.18c1.46.51,9.19,4.33,10.78,5.12s2.64,1.18,3,1.85S87.78,73.61,86.47,77.3Z"/></svg>